<svg width="85" height="175" viewBox="0 0 85 175" fill="none" xmlns="http://www.w3.org/2000/svg">
<mask id="path-1-outside-1_46_9929" maskUnits="userSpaceOnUse" x="-1" y="-1" width="87" height="177" fill="black">
<rect fill="white" x="-1" y="-1" width="87" height="177"/>
<path d="M37.5 175V42.5H3.53903e-07V-1.19209e-05H85V175H37.5Z"/>
</mask>
<path d="M37.5 175H36.5V176H37.5V175ZM37.5 42.5H38.5V41.5H37.5V42.5ZM4.76837e-07 42.5H-1V43.5H4.76837e-07V42.5ZM4.76837e-07 -1.52588e-05V-1.00002H-1V-1.52588e-05H4.76837e-07ZM85 -1.52588e-05H86V-1.00002H85V-1.52588e-05ZM85 175V176H86V175H85ZM38.5 175V42.5H36.5V175H38.5ZM37.5 41.5H4.76837e-07V43.5H37.5V41.5ZM1 42.5V-1.52588e-05H-1V42.5H1ZM4.76837e-07 0.999985H85V-1.00002H4.76837e-07V0.999985ZM84 -1.52588e-05V175H86V-1.52588e-05H84ZM85 174H37.5V176H85V174Z" fill="#E5E7E8" mask="url(#path-1-outside-1_46_9929)"/>
</svg>
