<svg width="144" height="179" viewBox="0 0 144 179" fill="white" xmlns="http://www.w3.org/2000/svg">
<mask id="path-1-outside-1_46_9930" maskUnits="userSpaceOnUse" x="-1" y="-1" width="146" height="181" fill="white">
<rect fill="white" x="-1" y="-1" width="146" height="181"/>
<path d="M0.5 136.5C0.5 94 25 86.5 59 77C85.5 69.5 95 68.75 95 57.75C95 49.25 88.75 44 74.25 44C60.25 44 47.75 45.75 47.75 59.75H2.75C2.75 15.75 29.25 0.249992 72.25 0.249992C121.5 0.249992 143.75 16.75 143.75 58.75C143.75 96.25 120.25 105.75 85.75 115.25C65.75 120.75 44.25 125 44.25 136.5H143V179H0.5V136.5Z"/>
</mask>
<path d="M59 77L59.2691 77.9631L59.2723 77.9622L59 77ZM47.75 59.75V60.75H48.75V59.75H47.75ZM2.75 59.75H1.75V60.75H2.75V59.75ZM85.75 115.25L86.0152 116.214L86.0155 116.214L85.75 115.25ZM44.25 136.5H43.25V137.5H44.25V136.5ZM143 136.5H144V135.5H143V136.5ZM143 179V180H144V179H143ZM0.5 179H-0.5V180H0.5V179ZM1.5 136.5C1.5 115.469 7.546 103.292 17.6281 95.1531C27.8116 86.9328 42.2158 82.728 59.2691 77.9631L58.7309 76.0369C41.7842 80.772 26.9384 85.0672 16.3719 93.5969C5.70401 102.208 -0.5 115.031 -0.5 136.5H1.5ZM59.2723 77.9622C65.9427 76.0744 71.3882 74.6542 76.0751 73.3377C80.6928 72.0407 84.4254 70.8841 87.3399 69.603C90.2546 68.3218 92.4482 66.8757 93.9007 64.9449C95.3702 62.9915 96 60.6516 96 57.75H94C94 60.3484 93.4423 62.2273 92.3024 63.7426C91.1455 65.2805 89.3079 66.5532 86.5351 67.772C83.7622 68.9909 80.1509 70.1155 75.5343 71.4122C70.9868 72.6895 65.3073 74.1756 58.7277 76.0378L59.2723 77.9622ZM96 57.75C96 53.221 94.315 49.4572 90.638 46.8697C87.0208 44.3243 81.5925 43 74.25 43V45C81.4075 45 86.3542 46.3007 89.487 48.5053C92.56 50.6678 94 53.7789 94 57.75H96ZM74.25 43C67.2564 43 60.4324 43.4279 55.3406 45.7126C52.769 46.8666 50.6015 48.5095 49.0842 50.8366C47.5668 53.1639 46.75 56.0982 46.75 59.75H48.75C48.75 56.4018 49.4957 53.8673 50.7595 51.929C52.0235 49.9905 53.856 48.5709 56.1594 47.5374C60.8176 45.4471 67.2436 45 74.25 45V43ZM47.75 58.75H2.75V60.75H47.75V58.75ZM3.75 59.75C3.75 37.96 10.3011 23.4205 21.9906 14.288C33.7315 5.11547 50.8373 1.24999 72.25 1.24999V-0.750008C50.6627 -0.750008 33.0185 3.13451 20.7594 12.712C8.44889 22.3295 1.75 37.54 1.75 59.75H3.75ZM72.25 1.24999C96.8048 1.24999 114.395 5.37175 125.844 14.5309C137.239 23.6467 142.75 37.922 142.75 58.75H144.75C144.75 37.578 139.136 22.6032 127.093 12.9691C115.105 3.37823 96.9452 -0.750008 72.25 -0.750008V1.24999ZM142.75 58.75C142.75 77.2523 136.972 88.6943 127.058 96.7229C117.056 104.823 102.755 109.53 85.4845 114.286L86.0155 116.214C103.245 111.47 117.944 106.677 128.317 98.2771C138.778 89.8057 144.75 77.7477 144.75 58.75H142.75ZM85.4848 114.286C75.5481 117.018 65.0715 119.482 57.1248 122.698C53.1453 124.309 49.7074 126.143 47.2518 128.359C44.7756 130.595 43.25 133.268 43.25 136.5H45.25C45.25 133.982 46.4119 131.812 48.5919 129.844C50.7926 127.857 53.9798 126.129 57.8752 124.552C65.6785 121.393 75.9519 118.982 86.0152 116.214L85.4848 114.286ZM44.25 137.5H143V135.5H44.25V137.5ZM142 136.5V179H144V136.5H142ZM143 178H0.5V180H143V178ZM1.5 179V136.5H-0.5V179H1.5Z" fill="#E5E7E8" mask="url(#path-1-outside-1_46_9930)"/>
</svg>
