<svg width="284" height="366" viewBox="0 0 284 366" fill="none" xmlns="http://www.w3.org/2000/svg">
<path opacity="0.03" d="M96 140.5H127.5C180.5 140.5 188 126.5 188 111.5C188 96 176.5 88 149 88C122.5 88 99.5 91.5 99.5 119.5H9.5C9.5 31.5 61 0.499983 146 0.499983C242 0.499983 285.5 33 285.5 110C285.5 136.5 275.5 159.5 259.5 177C279.5 194.5 292 218.5 292 251C292 333.5 246 365.5 144 365.5C55 365.5 7.07805e-07 334.5 7.07805e-07 246.5H90C90 274.5 117.5 278 148.5 278C180.5 278 194.5 269.5 194.5 255C194.5 239.5 182 225.5 128 225.5H96V140.5Z" fill="#E5E7E8"/>
</svg>
