<svg width="146" height="183" viewBox="0 0 146 183" fill="none" xmlns="http://www.w3.org/2000/svg">
<mask id="path-1-outside-1_46_9931" maskUnits="userSpaceOnUse" x="-1" y="-1" width="148" height="185" fill="white">
<rect fill="white" x="-1" y="-1" width="148" height="185"/>
<path d="M48 70.25H63.75C90.25 70.25 94 63.25 94 55.75C94 48 88.25 44 74.5 44C61.25 44 49.75 45.75 49.75 59.75H4.75C4.75 15.75 30.5 0.249992 73 0.249992C121 0.249992 142.75 16.5 142.75 55C142.75 68.25 137.75 79.75 129.75 88.5C139.75 97.25 146 109.25 146 125.5C146 166.75 123 182.75 72 182.75C27.5 182.75 3.53903e-07 167.25 3.53903e-07 123.25H45C45 137.25 58.75 139 74.25 139C90.25 139 97.25 134.75 97.25 127.5C97.25 119.75 91 112.75 64 112.75H48V70.25Z"/>
</mask>
<path d="M48 70.25V69.25H47V70.25H48ZM49.75 59.75V60.75H50.75V59.75H49.75ZM4.75 59.75H3.75V60.75H4.75V59.75ZM129.75 88.5L129.012 87.8252L128.322 88.5795L129.092 89.2526L129.75 88.5ZM4.76837e-07 123.25V122.25H-1V123.25H4.76837e-07ZM45 123.25H46V122.25H45V123.25ZM48 112.75H47V113.75H48V112.75ZM48 71.25H63.75V69.25H48V71.25ZM63.75 71.25C77.0368 71.25 84.8444 69.5049 89.347 66.6577C91.6269 65.2159 93.0614 63.4906 93.9128 61.5881C94.7571 59.7013 95 57.7024 95 55.75H93C93 57.5475 92.7741 59.2362 92.0872 60.7712C91.4073 62.2906 90.2481 63.7215 88.278 64.9673C84.2806 67.4951 76.9632 69.25 63.75 69.25V71.25ZM95 55.75C95 51.5788 93.4238 48.2962 89.9355 46.1203C86.5389 44.0016 81.4343 43 74.5 43V45C81.3157 45 85.9611 45.9984 88.877 47.8172C91.7012 49.5788 93 52.1711 93 55.75H95ZM74.5 43C67.882 43 61.4812 43.4267 56.7215 45.7244C54.3134 46.887 52.2999 48.5391 50.8974 50.8667C49.4977 53.1896 48.75 56.1129 48.75 59.75H50.75C50.75 56.3871 51.4398 53.8416 52.6104 51.8989C53.7782 49.9609 55.4679 48.5505 57.591 47.5255C61.8938 45.4483 67.868 45 74.5 45V43ZM49.75 58.75H4.75V60.75H49.75V58.75ZM5.75 59.75C5.75 37.9504 12.1198 23.4105 23.5612 14.2817C35.0501 5.115 51.8387 1.24999 73 1.24999V-0.750008C51.6613 -0.750008 34.3249 3.13498 22.3138 12.7183C10.2552 22.3395 3.75 37.5495 3.75 59.75H5.75ZM73 1.24999C96.9262 1.24999 114.089 5.30779 125.262 13.9775C136.376 22.6015 141.75 35.9423 141.75 55H143.75C143.75 35.5577 138.249 21.5235 126.488 12.3974C114.786 3.31719 97.0738 -0.750008 73 -0.750008V1.24999ZM141.75 55C141.75 67.9859 136.853 79.2487 129.012 87.8252L130.488 89.1748C138.647 80.2513 143.75 68.5141 143.75 55H141.75ZM129.092 89.2526C138.879 97.817 145 109.545 145 125.5H147C147 108.955 140.621 96.683 130.409 87.7474L129.092 89.2526ZM145 125.5C145 145.936 139.312 159.893 127.522 168.796C115.664 177.75 97.4392 181.75 72 181.75V183.75C97.5608 183.75 116.336 179.75 128.728 170.392C141.188 160.982 147 146.314 147 125.5H145ZM72 181.75C49.8322 181.75 32.0951 177.883 19.9144 168.701C7.79221 159.564 1 145.027 1 123.25H-1C-1 145.473 5.95779 160.686 18.7106 170.299C31.405 179.867 49.6678 183.75 72 183.75V181.75ZM4.76837e-07 124.25H45V122.25H4.76837e-07V124.25ZM44 123.25C44 126.921 44.9042 129.869 46.5783 132.2C48.2477 134.526 50.6245 136.157 53.4355 137.301C59.0127 139.571 66.5079 140 74.25 140V138C66.4921 138 59.3623 137.554 54.1895 135.449C51.6255 134.405 49.5961 132.974 48.2029 131.034C46.8145 129.1 46 126.579 46 123.25H44ZM74.25 140C82.3067 140 88.2507 138.935 92.2148 136.854C94.2111 135.806 95.7309 134.487 96.7489 132.894C97.7696 131.297 98.25 129.48 98.25 127.5H96.25C96.25 129.145 95.8554 130.578 95.0636 131.817C94.2691 133.06 93.0389 134.163 91.2852 135.083C87.7493 136.94 82.1933 138 74.25 138V140ZM98.25 127.5C98.25 125.425 97.8306 123.354 96.7177 121.426C95.604 119.496 93.8332 117.775 91.2323 116.343C86.069 113.5 77.5485 111.75 64 111.75V113.75C77.4515 113.75 85.556 115.5 90.2677 118.095C92.6043 119.381 94.0835 120.863 94.9855 122.426C95.8882 123.99 96.25 125.7 96.25 127.5H98.25ZM64 111.75H48V113.75H64V111.75ZM49 112.75V70.25H47V112.75H49Z" fill="#E5E7E8" mask="url(#path-1-outside-1_46_9931)"/>
</svg>
