<svg width="946" height="2302" viewBox="0 0 946 2302" fill="none" xmlns="http://www.w3.org/2000/svg">
<g opacity="0.6">
<path d="M934.211 1393.7C1072.26 1538.41 968.57 1619.59 1028.7 1732.54C1066.12 1802.43 1190.68 1906.2 1308.48 1811.6C1478.43 1674.65 1309.7 1456.53 1396.83 1339.34C1455.12 1260.99 1554.51 1344.99 1614.64 1260.28C1672.93 1177.69 1564.33 1046.39 1646.54 986.384C1683.97 959.559 1707.28 920.734 1707.9 865.672" stroke="#E8530E" stroke-width="0.25" stroke-miterlimit="10"/>
<path d="M923.172 1404.28C1061.22 1549 957.531 1630.18 1017.66 1743.13C1055.09 1813.01 1179.64 1916.78 1297.44 1822.19C1467.39 1685.24 1298.66 1467.11 1385.79 1349.93C1444.08 1271.57 1543.47 1355.58 1603.6 1270.87C1661.89 1188.27 1553.29 1056.97 1635.5 996.97C1672.93 970.145 1696.25 931.319 1696.86 876.258" stroke="#E8530E" stroke-width="0.25" stroke-miterlimit="10"/>
<path d="M911.508 1415.57C1049.56 1560.28 945.867 1641.46 1005.99 1754.41C1043.42 1824.29 1167.97 1928.06 1285.77 1833.47C1455.73 1696.52 1287 1478.39 1374.13 1361.21C1432.41 1282.85 1531.81 1366.86 1591.94 1282.15C1650.22 1199.56 1541.62 1068.25 1623.84 1008.25C1661.27 981.426 1684.58 942.601 1685.2 887.539" stroke="#E8530E" stroke-width="0.25" stroke-miterlimit="10"/>
<path d="M900.461 1427.56C1038.51 1572.27 934.82 1653.45 994.948 1766.4C1032.37 1836.28 1156.93 1940.05 1274.73 1845.46C1444.68 1708.51 1275.95 1490.38 1363.08 1373.2C1421.37 1294.85 1520.76 1378.85 1580.89 1294.14C1639.18 1211.55 1530.58 1080.25 1612.79 1020.24C1650.22 993.418 1673.53 954.593 1674.15 899.531" stroke="#E8530E" stroke-width="0.25" stroke-miterlimit="10"/>
<path d="M889.43 1439.58C1027.48 1584.29 923.788 1665.48 983.916 1778.42C1021.34 1848.31 1145.89 1952.08 1263.7 1857.49C1433.65 1720.54 1264.92 1502.41 1352.05 1385.23C1410.33 1306.87 1509.73 1390.87 1569.86 1306.16C1628.14 1223.57 1519.55 1092.27 1601.76 1032.27C1639.19 1005.44 1662.5 966.616 1663.12 911.555" stroke="#E8530E" stroke-width="0.25" stroke-miterlimit="10"/>
<path d="M878.992 1452.27C1017.04 1596.98 913.351 1678.16 973.479 1791.11C1010.91 1861 1135.46 1964.77 1253.26 1870.17C1423.21 1733.22 1254.49 1515.1 1341.61 1397.91C1399.9 1319.56 1499.29 1403.56 1559.42 1318.85C1617.71 1236.26 1509.11 1104.96 1591.32 1044.95C1628.75 1018.13 1652.07 979.304 1652.68 924.242" stroke="#E8530E" stroke-width="0.25" stroke-miterlimit="10"/>
<path d="M868.562 1464.98C1006.61 1609.69 902.921 1690.87 963.049 1803.82C1000.48 1873.71 1125.03 1977.48 1242.83 1882.88C1412.78 1745.94 1244.06 1527.81 1331.18 1410.62C1389.47 1332.27 1488.86 1416.27 1548.99 1331.56C1607.28 1248.97 1498.68 1117.67 1580.89 1057.67C1618.32 1030.84 1641.64 992.015 1642.25 936.953" stroke="#E8530E" stroke-width="0.25" stroke-miterlimit="10"/>
<path d="M858.125 1477.69C996.174 1622.4 892.484 1703.58 952.612 1816.53C990.038 1886.42 1114.59 1990.19 1232.39 1895.59C1402.34 1758.65 1233.62 1540.52 1320.74 1423.34C1379.03 1344.98 1478.42 1428.98 1538.55 1344.27C1596.84 1261.68 1488.24 1130.38 1570.46 1070.38C1607.88 1043.55 1631.2 1004.73 1631.81 949.664" stroke="#E8530E" stroke-width="0.25" stroke-miterlimit="10"/>
<path d="M847.703 1491.09C985.752 1635.8 882.062 1716.98 942.19 1829.93C979.616 1899.82 1104.17 2003.59 1221.97 1908.99C1391.92 1772.04 1223.2 1553.92 1310.32 1436.73C1368.61 1358.38 1468 1442.38 1528.13 1357.67C1586.42 1275.08 1477.82 1143.78 1560.04 1083.77C1597.46 1056.95 1620.78 1018.12 1621.39 963.062" stroke="#E8530E" stroke-width="0.25" stroke-miterlimit="10"/>
<path d="M837.883 1504.52C975.932 1649.23 872.242 1730.41 932.37 1843.36C969.796 1913.25 1094.35 2017.02 1212.15 1922.42C1382.1 1785.47 1213.38 1567.35 1300.5 1450.16C1358.79 1371.81 1458.18 1455.81 1518.31 1371.1C1576.6 1288.51 1468 1157.21 1550.22 1097.2C1587.64 1070.38 1610.96 1031.55 1611.57 976.492" stroke="#E8530E" stroke-width="0.25" stroke-miterlimit="10"/>
<path d="M827.445 1518.64C965.494 1663.35 861.804 1744.53 921.932 1857.48C959.359 1927.36 1083.91 2031.13 1201.71 1936.54C1371.66 1799.59 1202.94 1581.46 1290.06 1464.28C1348.35 1385.92 1447.74 1469.93 1507.87 1385.22C1566.16 1302.63 1457.56 1171.32 1539.78 1111.32C1577.2 1084.5 1600.52 1045.67 1601.13 990.609" stroke="#E8530E" stroke-width="0.25" stroke-miterlimit="10"/>
<path d="M817.023 1532.04C955.072 1676.76 851.382 1757.94 911.51 1870.88C948.937 1940.77 1073.49 2044.54 1191.29 1949.95C1361.24 1813 1192.52 1594.87 1279.64 1477.69C1337.93 1399.33 1437.32 1483.33 1497.45 1398.62C1555.74 1316.03 1447.14 1184.73 1529.36 1124.73C1566.78 1097.9 1590.1 1059.08 1590.71 1004.02" stroke="#E8530E" stroke-width="0.25" stroke-miterlimit="10"/>
<path d="M807.211 1546.16C945.26 1690.87 841.57 1772.05 901.698 1885C939.124 1954.89 1063.68 2058.66 1181.48 1964.06C1351.43 1827.12 1182.7 1608.99 1269.83 1491.8C1328.12 1413.45 1427.51 1497.45 1487.64 1412.74C1545.93 1330.15 1437.33 1198.85 1519.54 1138.84C1556.97 1112.02 1580.28 1073.19 1580.9 1018.13" stroke="#E8530E" stroke-width="0.25" stroke-miterlimit="10"/>
<path d="M796.773 1560.28C934.822 1704.99 831.132 1786.17 891.26 1899.12C928.687 1969 1053.24 2072.77 1171.04 1978.18C1340.99 1841.23 1172.27 1623.1 1259.39 1505.92C1317.68 1427.56 1417.07 1511.57 1477.2 1426.86C1535.49 1344.27 1426.89 1212.97 1509.11 1152.96C1546.53 1126.14 1569.85 1087.31 1570.46 1032.25" stroke="#E8530E" stroke-width="0.25" stroke-miterlimit="10"/>
<path d="M786.344 1574.39C924.393 1719.11 820.703 1800.29 880.831 1913.23C918.257 1983.12 1042.81 2086.89 1160.61 1992.3C1330.56 1855.35 1161.84 1637.22 1248.96 1520.04C1307.25 1441.68 1406.64 1525.69 1466.77 1440.98C1525.06 1358.38 1416.46 1227.08 1498.68 1167.08C1536.1 1140.25 1559.42 1101.43 1560.03 1046.37" stroke="#E8530E" stroke-width="0.25" stroke-miterlimit="10"/>
<path d="M775.297 1588.51C913.346 1733.22 809.656 1814.4 869.784 1927.35C907.21 1997.24 1031.76 2101.01 1149.56 2006.41C1319.52 1869.47 1150.79 1651.34 1237.91 1534.16C1296.2 1455.8 1395.6 1539.8 1455.72 1455.09C1514.01 1372.5 1405.41 1241.2 1487.63 1181.2C1525.06 1154.37 1548.37 1115.55 1548.98 1060.48" stroke="#E8530E" stroke-width="0.25" stroke-miterlimit="10"/>
<path d="M764.867 1602.63C902.916 1747.34 799.226 1828.52 859.354 1941.47C896.781 2011.36 1021.33 2115.13 1139.13 2020.53C1309.09 1883.58 1140.36 1665.46 1227.48 1548.27C1285.77 1469.92 1385.17 1553.92 1445.29 1469.21C1503.58 1386.62 1394.98 1255.32 1477.2 1195.31C1514.63 1168.49 1537.94 1129.66 1538.55 1074.6" stroke="#E8530E" stroke-width="0.25" stroke-miterlimit="10"/>
<path d="M753.82 1617.46C891.869 1762.18 788.179 1843.36 848.307 1956.31C885.734 2026.19 1010.28 2129.96 1128.09 2035.37C1298.04 1898.42 1129.31 1680.29 1216.44 1563.11C1274.72 1484.75 1374.12 1568.76 1434.25 1484.05C1492.54 1401.45 1383.94 1270.15 1466.15 1210.15C1503.58 1183.32 1526.89 1144.5 1527.51 1089.44" stroke="#E8530E" stroke-width="0.25" stroke-miterlimit="10"/>
<path d="M742.172 1630.87C880.221 1775.58 776.531 1856.76 836.659 1969.71C874.085 2039.6 998.636 2143.37 1116.44 2048.77C1286.39 1911.83 1117.66 1693.7 1204.79 1576.52C1263.08 1498.16 1362.47 1582.16 1422.6 1497.45C1480.89 1414.86 1372.29 1283.56 1454.5 1223.56C1491.93 1196.73 1515.25 1157.91 1515.86 1102.84" stroke="#E8530E" stroke-width="0.25" stroke-miterlimit="10"/>
<path d="M730.516 1644.99C868.565 1789.7 764.875 1870.88 825.003 1983.83C862.429 2053.71 986.98 2157.48 1104.78 2062.89C1274.74 1925.94 1106.01 1707.81 1193.13 1590.63C1251.42 1512.28 1350.82 1596.28 1410.94 1511.57C1469.23 1428.98 1360.63 1297.68 1442.85 1237.67C1480.27 1210.85 1503.59 1172.02 1504.2 1116.96" stroke="#E8530E" stroke-width="0.25" stroke-miterlimit="10"/>
<path d="M718.852 1659.1C856.9 1803.82 753.21 1885 813.338 1997.95C850.765 2067.83 975.316 2171.6 1093.12 2077.01C1263.07 1940.06 1094.34 1721.93 1181.47 1604.75C1239.76 1526.39 1339.15 1610.4 1399.28 1525.69C1457.57 1443.09 1348.97 1311.79 1431.18 1251.79C1468.61 1224.97 1491.93 1186.14 1492.54 1131.08" stroke="#E8530E" stroke-width="0.25" stroke-miterlimit="10"/>
<path d="M706.586 1672.53C844.635 1817.25 740.945 1898.43 801.073 2011.38C838.499 2081.26 963.05 2185.03 1080.85 2090.44C1250.81 1953.49 1082.08 1735.36 1169.2 1618.18C1227.49 1539.82 1326.89 1623.83 1387.01 1539.12C1445.3 1456.52 1336.7 1325.22 1418.92 1265.22C1456.34 1238.39 1479.66 1199.57 1480.27 1144.51" stroke="#E8530E" stroke-width="0.25" stroke-miterlimit="10"/>
<path d="M693.703 1685.93C831.752 1830.65 728.062 1911.83 788.19 2024.77C825.617 2094.66 950.167 2198.43 1067.97 2103.84C1237.92 1966.89 1069.2 1748.76 1156.32 1631.58C1214.61 1553.22 1314 1637.22 1374.13 1552.51C1432.42 1469.92 1323.82 1338.62 1406.04 1278.62C1443.46 1251.79 1466.78 1212.97 1467.39 1157.91" stroke="#E8530E" stroke-width="0.25" stroke-miterlimit="10"/>
<path d="M680.82 1698.64C818.869 1843.36 715.179 1924.54 775.307 2037.48C812.734 2107.37 937.284 2211.14 1055.09 2116.55C1225.04 1979.6 1056.31 1761.47 1143.44 1644.29C1201.72 1565.93 1301.12 1649.94 1361.25 1565.23C1419.54 1482.63 1310.94 1351.33 1393.15 1291.33C1430.58 1264.5 1453.89 1225.68 1454.51 1170.62" stroke="#E8530E" stroke-width="0.25" stroke-miterlimit="10"/>
<path d="M667.312 1711.36C805.361 1856.08 701.671 1937.26 761.799 2050.2C799.226 2120.09 923.777 2223.86 1041.58 2129.27C1211.53 1992.32 1042.81 1774.19 1129.93 1657.01C1188.22 1578.65 1287.61 1662.65 1347.74 1577.94C1406.03 1495.35 1297.43 1364.05 1379.64 1304.05C1417.07 1277.22 1440.39 1238.4 1441 1183.34" stroke="#E8530E" stroke-width="0.25" stroke-miterlimit="10"/>
<path d="M653.211 1724.04C791.26 1868.76 687.57 1949.94 747.698 2062.88C785.124 2132.77 909.675 2236.54 1027.48 2141.95C1197.43 2005 1028.7 1786.87 1115.83 1669.69C1174.12 1591.33 1273.51 1675.33 1333.64 1590.62C1391.93 1508.03 1283.33 1376.73 1365.54 1316.73C1402.97 1289.9 1426.28 1251.08 1426.9 1196.02" stroke="#E8530E" stroke-width="0.25" stroke-miterlimit="10"/>
<path d="M638.484 1736.07C776.533 1880.78 672.843 1961.96 732.971 2074.91C770.398 2144.79 894.949 2248.56 1012.75 2153.97C1182.7 2017.02 1013.98 1798.89 1101.1 1681.71C1159.39 1603.35 1258.78 1687.36 1318.91 1602.65C1377.2 1520.05 1268.6 1388.75 1350.82 1328.75C1388.24 1301.93 1411.56 1263.1 1412.17 1208.04" stroke="#E8530E" stroke-width="0.25" stroke-miterlimit="10"/>
<path d="M623.75 1748.07C761.799 1892.78 658.109 1973.96 718.237 2086.91C755.663 2156.79 880.214 2260.56 998.016 2165.97C1167.97 2029.02 999.243 1810.89 1086.37 1693.71C1144.65 1615.35 1244.05 1699.36 1304.18 1614.65C1362.47 1532.05 1253.87 1400.75 1336.08 1340.75C1373.51 1313.93 1396.82 1275.1 1397.44 1220.04" stroke="#E8530E" stroke-width="0.25" stroke-miterlimit="10"/>
<path d="M607.805 1759.34C745.854 1904.05 642.164 1985.23 702.292 2098.18C739.718 2168.07 864.269 2271.84 982.071 2177.24C1152.02 2040.29 983.298 1822.17 1070.42 1704.98C1128.71 1626.63 1228.1 1710.63 1288.23 1625.92C1346.52 1543.33 1237.92 1412.03 1320.14 1352.02C1357.56 1325.2 1380.88 1286.37 1381.49 1231.31" stroke="#E8530E" stroke-width="0.25" stroke-miterlimit="10"/>
<path d="M591.234 1769.93C729.283 1914.64 625.593 1995.82 685.721 2108.77C723.148 2178.65 847.699 2282.42 965.5 2187.83C1135.45 2050.88 966.727 1832.75 1053.85 1715.57C1112.14 1637.21 1211.53 1721.22 1271.66 1636.51C1329.95 1553.91 1221.35 1422.61 1303.57 1362.61C1340.99 1335.79 1364.31 1296.96 1364.92 1241.9" stroke="#E8530E" stroke-width="0.25" stroke-miterlimit="10"/>
<path d="M574.672 1780.52C712.721 1925.23 609.031 2006.41 669.159 2119.36C706.585 2189.25 831.136 2293.02 948.938 2198.42C1118.89 2061.47 950.165 1843.35 1037.29 1726.16C1095.58 1647.81 1194.97 1731.81 1255.1 1647.1C1313.39 1564.51 1204.79 1433.21 1287 1373.2C1324.43 1346.38 1347.75 1307.55 1348.36 1252.49" stroke="#E8530E" stroke-width="0.25" stroke-miterlimit="10"/>
<path d="M556.875 1790.42C694.924 1935.13 591.234 2016.31 651.362 2129.26C688.788 2199.14 813.339 2302.91 931.141 2208.32C1101.09 2071.37 932.368 1853.24 1019.49 1736.06C1077.78 1657.7 1177.17 1741.71 1237.3 1657C1295.59 1574.41 1186.99 1443.11 1269.21 1383.1C1306.63 1356.28 1329.95 1317.45 1330.56 1262.39" stroke="#E8530E" stroke-width="0.25" stroke-miterlimit="10"/>
<path d="M538.469 1799.6C676.518 1944.31 572.828 2025.49 632.956 2138.44C670.382 2208.32 794.933 2312.09 912.735 2217.5C1082.69 2080.55 913.962 1862.42 1001.09 1745.24C1059.37 1666.88 1158.77 1750.89 1218.9 1666.18C1277.18 1583.59 1168.59 1452.29 1250.8 1392.28C1288.23 1365.46 1311.54 1326.63 1312.16 1271.57" stroke="#E8530E" stroke-width="0.25" stroke-miterlimit="10"/>
<path d="M519.453 1808.07C657.502 1952.78 553.812 2033.96 613.94 2146.91C651.366 2216.79 775.917 2320.56 893.719 2225.97C1063.67 2089.02 894.946 1870.89 982.07 1753.71C1040.36 1675.35 1139.75 1759.36 1199.88 1674.65C1258.17 1592.05 1149.57 1460.75 1231.79 1400.75C1269.21 1373.93 1292.53 1335.1 1293.14 1280.04" stroke="#E8530E" stroke-width="0.25" stroke-miterlimit="10"/>
<path d="M499.195 1816.53C637.244 1961.24 533.554 2042.42 593.682 2155.37C631.109 2225.25 755.659 2329.02 873.461 2234.43C1043.41 2097.48 874.688 1879.35 961.812 1762.17C1020.1 1683.81 1119.49 1767.82 1179.62 1683.11C1237.91 1600.52 1129.31 1469.22 1211.53 1409.21C1248.95 1382.39 1272.27 1343.56 1272.88 1288.5" stroke="#E8530E" stroke-width="0.25" stroke-miterlimit="10"/>
<path d="M478.344 1823.59C616.393 1968.3 512.703 2049.48 572.831 2162.43C610.257 2232.32 734.808 2336.09 852.61 2241.49C1022.56 2104.54 853.837 1886.42 940.961 1769.23C999.248 1690.88 1098.64 1774.88 1158.77 1690.17C1217.06 1607.58 1108.46 1476.28 1190.68 1416.27C1228.1 1389.45 1251.42 1350.62 1252.03 1295.56" stroke="#E8530E" stroke-width="0.25" stroke-miterlimit="10"/>
<path d="M456.875 1829.93C594.924 1974.65 491.234 2055.83 551.362 2168.77C588.788 2238.66 713.339 2342.43 831.141 2247.84C1001.09 2110.89 832.368 1892.76 919.492 1775.58C977.779 1697.22 1077.17 1781.22 1137.3 1696.51C1195.59 1613.92 1086.99 1482.62 1169.21 1422.62C1206.63 1395.79 1229.95 1356.97 1230.56 1301.91" stroke="#E8530E" stroke-width="0.25" stroke-miterlimit="10"/>
<path d="M436.008 1835.58C574.057 1980.29 470.367 2061.48 530.495 2174.42C567.921 2244.31 692.472 2348.08 810.274 2253.49C980.227 2116.54 811.501 1898.41 898.625 1781.23C956.912 1702.87 1056.31 1786.87 1116.44 1702.16C1174.72 1619.57 1066.12 1488.27 1148.34 1428.27C1185.77 1401.44 1209.08 1362.62 1209.7 1307.55" stroke="#E8530E" stroke-width="0.25" stroke-miterlimit="10"/>
<path d="M416.367 1839.83C554.416 1984.54 450.726 2065.73 510.854 2178.67C548.281 2248.56 672.831 2352.33 790.633 2257.74C960.587 2120.79 791.86 1902.66 878.984 1785.48C937.272 1707.12 1036.67 1791.12 1096.79 1706.41C1155.08 1623.82 1046.48 1492.52 1128.7 1432.52C1166.13 1405.69 1189.44 1366.87 1190.05 1311.8" stroke="#E8530E" stroke-width="0.25" stroke-miterlimit="10"/>
<path d="M397.352 1842.64C535.4 1987.36 431.71 2068.54 491.838 2181.48C529.265 2251.37 653.816 2355.14 771.617 2260.55C941.571 2123.6 772.845 1905.47 859.969 1788.29C918.256 1709.93 1017.65 1793.94 1077.78 1709.23C1136.07 1626.63 1027.47 1495.33 1109.68 1435.33C1147.11 1408.5 1170.43 1369.68 1171.04 1314.62" stroke="#E8530E" stroke-width="0.25" stroke-miterlimit="10"/>
<path d="M378.336 1844.05C516.385 1988.76 412.695 2069.94 472.823 2182.89C510.249 2252.78 634.8 2356.55 752.602 2261.95C922.555 2125.01 753.829 1906.88 840.953 1789.69C899.24 1711.34 998.636 1795.34 1058.76 1710.63C1117.05 1628.04 1008.45 1496.74 1090.67 1436.74C1128.09 1409.91 1151.41 1371.09 1152.02 1316.02" stroke="#E8530E" stroke-width="0.25" stroke-miterlimit="10"/>
<path d="M359.93 1845.49C497.979 1990.2 394.288 2071.38 454.416 2184.33C491.843 2254.21 616.394 2357.98 734.196 2263.39C904.149 2126.44 735.423 1908.31 822.547 1791.13C880.834 1712.77 980.229 1796.78 1040.36 1712.07C1098.64 1629.48 990.046 1498.18 1072.26 1438.17C1109.69 1411.35 1133 1372.52 1133.62 1317.46" stroke="#E8530E" stroke-width="0.25" stroke-miterlimit="10"/>
<path d="M341.523 1844.77C479.572 1989.48 375.882 2070.66 436.01 2183.61C473.437 2253.5 597.988 2357.27 715.789 2262.67C885.743 2125.72 717.016 1907.6 804.141 1790.41C862.428 1712.06 961.823 1796.06 1021.95 1711.35C1080.24 1628.76 971.64 1497.46 1053.86 1437.45C1091.28 1410.63 1114.6 1371.8 1115.21 1316.74" stroke="#E8530E" stroke-width="0.25" stroke-miterlimit="10"/>
<path d="M323.727 1843.36C461.775 1988.08 358.085 2069.26 418.213 2182.2C455.64 2252.09 580.191 2355.86 697.992 2261.27C867.946 2124.32 699.22 1906.19 786.344 1789.01C844.631 1710.65 944.026 1794.65 1004.15 1709.94C1062.44 1627.35 953.843 1496.05 1036.06 1436.05C1073.49 1409.22 1096.8 1370.4 1097.41 1315.34" stroke="#E8530E" stroke-width="0.25" stroke-miterlimit="10"/>
<path d="M306.555 1841.24C444.604 1985.95 340.913 2067.13 401.041 2180.08C438.468 2249.96 563.019 2353.73 680.821 2259.14C850.774 2122.19 682.048 1904.06 769.172 1786.88C827.459 1708.53 926.854 1792.53 986.982 1707.82C1045.27 1625.23 936.671 1493.93 1018.89 1433.92C1056.31 1407.1 1079.63 1368.27 1080.24 1313.21" stroke="#E8530E" stroke-width="0.25" stroke-miterlimit="10"/>
<path d="M289.367 1838.43C427.416 1983.14 323.726 2064.32 383.854 2177.27C421.281 2247.15 545.831 2350.92 663.633 2256.33C833.587 2119.38 664.86 1901.25 751.984 1784.07C810.272 1705.71 909.667 1789.72 969.795 1705.01C1028.08 1622.41 919.484 1491.11 1001.7 1431.11C1039.13 1404.29 1062.44 1365.46 1063.05 1310.4" stroke="#E8530E" stroke-width="0.25" stroke-miterlimit="10"/>
<path d="M272.805 1834.18C410.854 1978.89 307.163 2060.07 367.291 2173.02C404.718 2242.9 529.269 2346.67 647.071 2252.08C817.024 2115.13 648.298 1897 735.422 1779.82C793.709 1701.46 893.104 1785.47 953.232 1700.76C1011.52 1618.16 902.921 1486.86 985.137 1426.86C1022.56 1400.04 1045.88 1361.21 1046.49 1306.15" stroke="#E8530E" stroke-width="0.25" stroke-miterlimit="10"/>
<path d="M256.844 1829.25C394.893 1973.96 291.203 2055.14 351.331 2168.09C388.757 2237.97 513.308 2341.74 631.11 2247.15C801.063 2110.2 632.337 1892.07 719.461 1774.89C777.748 1696.53 877.143 1780.54 937.271 1695.83C995.559 1613.23 886.96 1481.93 969.176 1421.93C1006.6 1395.11 1029.92 1356.28 1030.53 1301.22" stroke="#E8530E" stroke-width="0.25" stroke-miterlimit="10"/>
<path d="M240.898 1823.59C378.947 1968.3 275.257 2049.48 335.385 2162.43C372.812 2232.32 497.363 2336.09 615.164 2241.49C785.118 2104.54 616.391 1886.42 703.516 1769.23C761.803 1690.88 861.198 1774.88 921.326 1690.17C979.613 1607.58 871.015 1476.28 953.231 1416.27C990.657 1389.45 1013.97 1350.62 1014.59 1295.56" stroke="#E8530E" stroke-width="0.25" stroke-miterlimit="10"/>
<path d="M225.555 1816.53C363.604 1961.24 259.913 2042.42 320.041 2155.37C357.468 2225.25 482.019 2329.02 599.821 2234.43C769.774 2097.48 601.048 1879.35 688.172 1762.17C746.459 1683.81 845.854 1767.82 905.982 1683.11C964.27 1600.52 855.671 1469.22 937.887 1409.21C975.314 1382.39 998.629 1343.56 999.242 1288.5" stroke="#E8530E" stroke-width="0.25" stroke-miterlimit="10"/>
<path d="M210.219 1809.47C348.268 1954.19 244.578 2035.37 304.706 2148.31C342.132 2218.2 466.683 2321.97 584.485 2227.38C754.438 2090.43 585.712 1872.3 672.836 1755.12C731.123 1676.76 830.518 1760.76 890.646 1676.05C948.934 1593.46 840.335 1462.16 922.551 1402.16C959.978 1375.33 983.293 1336.51 983.906 1281.45" stroke="#E8530E" stroke-width="0.25" stroke-miterlimit="10"/>
<path d="M196.117 1801C334.166 1945.72 230.476 2026.9 290.604 2139.84C328.031 2209.73 452.581 2313.5 570.383 2218.91C740.337 2081.96 571.61 1863.83 658.734 1746.65C717.022 1668.29 816.417 1752.3 876.545 1667.58C934.832 1584.99 826.234 1453.69 908.449 1393.69C945.876 1366.86 969.191 1328.04 969.805 1272.98" stroke="#E8530E" stroke-width="0.25" stroke-miterlimit="10"/>
<path d="M182 1791.82C320.049 1936.54 216.359 2017.72 276.487 2130.66C313.913 2200.55 438.464 2304.32 556.266 2209.73C726.219 2072.78 557.493 1854.65 644.617 1737.47C702.904 1659.11 802.3 1743.12 862.428 1658.41C920.715 1575.81 812.117 1444.51 894.332 1384.51C931.759 1357.68 955.074 1318.86 955.687 1263.8" stroke="#E8530E" stroke-width="0.25" stroke-miterlimit="10"/>
<path d="M167.883 1781.95C305.932 1926.66 202.242 2007.84 262.37 2120.79C299.796 2190.68 424.347 2294.45 542.149 2199.85C712.102 2062.9 543.376 1844.78 630.5 1727.59C688.787 1649.24 788.182 1733.24 848.31 1648.53C906.598 1565.94 797.999 1434.64 880.215 1374.63C917.642 1347.81 940.957 1308.98 941.57 1253.92" stroke="#E8530E" stroke-width="0.25" stroke-miterlimit="10"/>
<path d="M155 1772.05C293.049 1916.76 189.359 1997.94 249.487 2110.89C286.913 2180.78 411.464 2284.55 529.266 2189.95C699.219 2053.01 530.493 1834.88 617.617 1717.69C675.904 1639.34 775.3 1723.34 835.428 1638.63C893.715 1556.04 785.117 1424.74 867.332 1364.74C904.759 1337.91 928.074 1299.09 928.687 1244.02" stroke="#E8530E" stroke-width="0.25" stroke-miterlimit="10"/>
<path d="M142.117 1760.78C280.166 1905.49 176.476 1986.67 236.604 2099.62C274.031 2169.5 398.581 2273.27 516.383 2178.68C686.337 2041.73 517.61 1823.6 604.734 1706.42C663.022 1628.06 762.417 1712.07 822.545 1627.36C880.832 1544.77 772.234 1413.46 854.45 1353.46C891.876 1326.64 915.191 1287.81 915.805 1232.75" stroke="#E8530E" stroke-width="0.25" stroke-miterlimit="10"/>
<path d="M129.844 1748.75C267.893 1893.47 164.203 1974.65 224.331 2087.59C261.757 2157.48 386.308 2261.25 504.11 2166.66C674.063 2029.71 505.337 1811.58 592.461 1694.4C650.748 1616.04 750.143 1700.05 810.271 1615.34C868.559 1532.74 759.96 1401.44 842.176 1341.44C879.603 1314.61 902.918 1275.79 903.531 1220.73" stroke="#E8530E" stroke-width="0.25" stroke-miterlimit="10"/>
<path d="M118.188 1736.75C256.236 1881.47 152.546 1962.65 212.674 2075.59C250.101 2145.48 374.652 2249.25 492.453 2154.66C662.407 2017.71 493.68 1799.58 580.805 1682.4C639.092 1604.04 738.487 1688.05 798.615 1603.34C856.902 1520.74 748.304 1389.44 830.52 1329.44C867.946 1302.61 891.261 1263.79 891.875 1208.73" stroke="#E8530E" stroke-width="0.25" stroke-miterlimit="10"/>
<path d="M107.148 1723.36C245.197 1868.07 141.507 1949.25 201.635 2062.2C239.062 2132.08 363.613 2235.85 481.414 2141.26C651.368 2004.31 482.641 1786.18 569.766 1669C628.053 1590.64 727.448 1674.65 787.576 1589.94C845.863 1507.34 737.265 1376.04 819.481 1316.04C856.907 1289.22 880.222 1250.39 880.836 1195.33" stroke="#E8530E" stroke-width="0.25" stroke-miterlimit="10"/>
<path d="M96.1016 1709.93C234.15 1854.64 130.46 1935.82 190.588 2048.77C228.015 2118.65 352.566 2222.42 470.367 2127.83C640.321 1990.88 471.595 1772.75 558.719 1655.57C617.006 1577.21 716.401 1661.22 776.529 1576.51C834.817 1493.91 726.218 1362.61 808.434 1302.61C845.861 1275.79 869.175 1236.96 869.789 1181.9" stroke="#E8530E" stroke-width="0.25" stroke-miterlimit="10"/>
<path d="M86.2891 1695.81C224.338 1840.52 120.648 1921.7 180.776 2034.65C218.203 2104.53 342.753 2208.3 460.555 2113.71C630.509 1976.76 461.782 1758.63 548.906 1641.45C607.194 1563.1 706.589 1647.1 766.717 1562.39C825.004 1479.8 716.406 1348.5 798.621 1288.49C836.048 1261.67 859.363 1222.84 859.976 1167.78" stroke="#E8530E" stroke-width="0.25" stroke-miterlimit="10"/>
<path d="M76.4688 1681C214.518 1825.72 110.828 1906.9 170.956 2019.84C208.382 2089.73 332.933 2193.5 450.735 2098.91C620.688 1961.96 451.962 1743.83 539.086 1626.65C597.373 1548.29 696.768 1632.3 756.896 1547.58C815.184 1464.99 706.585 1333.69 788.801 1273.69C826.228 1246.86 849.542 1208.04 850.156 1152.98" stroke="#E8530E" stroke-width="0.25" stroke-miterlimit="10"/>
<path d="M67.2656 1666.17C205.315 1810.88 101.624 1892.06 161.752 2005.01C199.179 2074.89 323.73 2178.66 441.532 2084.07C611.485 1947.12 442.759 1728.99 529.883 1611.81C588.17 1533.46 687.565 1617.46 747.693 1532.75C805.981 1450.16 697.382 1318.86 779.598 1258.85C817.024 1232.03 840.339 1193.2 840.953 1138.14" stroke="#E8530E" stroke-width="0.25" stroke-miterlimit="10"/>
<path d="M58.6797 1650.64C196.729 1795.35 93.0387 1876.53 153.167 1989.48C190.593 2059.36 315.144 2163.13 432.946 2068.54C602.899 1931.59 434.173 1713.46 521.297 1596.28C579.584 1517.92 678.98 1601.93 739.108 1517.22C797.395 1434.63 688.796 1303.32 771.012 1243.32C808.439 1216.5 831.754 1177.67 832.367 1122.61" stroke="#E8530E" stroke-width="0.25" stroke-miterlimit="10"/>
<path d="M50.6953 1634.4C188.744 1779.12 85.0541 1860.3 145.182 1973.24C182.609 2043.13 307.159 2146.9 424.961 2052.31C594.915 1915.36 426.188 1697.23 513.312 1580.05C571.6 1501.69 670.995 1585.69 731.123 1500.98C789.41 1418.39 680.812 1287.09 763.028 1227.09C800.454 1200.26 823.769 1161.44 824.383 1106.38" stroke="#E8530E" stroke-width="0.25" stroke-miterlimit="10"/>
<path d="M43.3359 1618.16C181.385 1762.87 77.6949 1844.05 137.823 1957C175.249 2026.89 299.8 2130.66 417.602 2036.06C587.555 1899.12 418.829 1680.99 505.953 1563.8C564.241 1485.45 663.636 1569.45 723.764 1484.74C782.051 1402.15 673.453 1270.85 755.668 1210.84C793.095 1184.02 816.41 1145.19 817.023 1090.13" stroke="#E8530E" stroke-width="0.25" stroke-miterlimit="10"/>
<path d="M36.5938 1601.22C174.643 1745.94 70.9525 1827.12 131.081 1940.06C168.507 2009.95 293.058 2113.72 410.86 2019.13C580.813 1882.18 412.087 1664.05 499.211 1546.87C557.498 1468.51 656.893 1552.51 717.021 1467.8C775.309 1385.21 666.71 1253.91 748.926 1193.91C786.353 1167.08 809.667 1128.26 810.281 1073.2" stroke="#E8530E" stroke-width="0.25" stroke-miterlimit="10"/>
<path d="M29.8359 1584.29C167.885 1729.01 64.1947 1810.19 124.323 1923.13C161.749 1993.02 286.3 2096.79 404.102 2002.2C574.055 1865.25 405.329 1647.12 492.453 1529.94C550.74 1451.58 650.136 1535.58 710.264 1450.87C768.551 1368.28 659.953 1236.98 742.168 1176.98C779.595 1150.15 802.91 1111.33 803.523 1056.27" stroke="#E8530E" stroke-width="0.25" stroke-miterlimit="10"/>
<path d="M24.3203 1566.64C162.369 1711.36 58.6791 1792.54 118.807 1905.48C156.234 1975.37 280.784 2079.14 398.586 1984.55C568.54 1847.6 399.813 1629.47 486.937 1512.29C545.225 1433.93 644.62 1517.94 704.748 1433.23C763.035 1350.63 654.437 1219.33 736.652 1159.33C774.079 1132.5 797.394 1093.68 798.008 1038.62" stroke="#E8530E" stroke-width="0.25" stroke-miterlimit="10"/>
<path d="M19.4062 1549C157.455 1693.71 53.765 1774.89 113.893 1887.84C151.32 1957.72 275.87 2061.49 393.672 1966.9C563.626 1829.95 394.899 1611.82 482.023 1494.64C540.311 1416.28 639.706 1500.29 699.834 1415.58C758.121 1332.98 649.523 1201.68 731.739 1141.68C769.165 1114.86 792.48 1076.03 793.094 1020.97" stroke="#E8530E" stroke-width="0.25" stroke-miterlimit="10"/>
<path d="M14.4922 1530.64C152.541 1675.35 48.851 1756.53 108.979 1869.48C146.406 1939.36 270.956 2043.13 388.758 1948.54C558.712 1811.59 389.985 1593.46 477.109 1476.28C535.397 1397.92 634.792 1481.93 694.92 1397.22C753.207 1314.63 644.609 1183.32 726.825 1123.32C764.251 1096.5 787.566 1057.67 788.18 1002.61" stroke="#E8530E" stroke-width="0.25" stroke-miterlimit="10"/>
<path d="M10.8125 1512.27C148.861 1656.98 45.1713 1738.16 105.299 1851.11C142.726 1921 267.277 2024.77 385.078 1930.17C555.032 1793.22 386.305 1575.1 473.43 1457.91C531.717 1379.56 631.112 1463.56 691.24 1378.85C749.527 1296.26 640.929 1164.96 723.145 1104.95C760.571 1078.13 783.886 1039.3 784.5 984.242" stroke="#E8530E" stroke-width="0.25" stroke-miterlimit="10"/>
<path d="M7.75 1493.93C145.799 1638.65 42.1088 1719.83 102.237 1832.77C139.663 1902.66 264.214 2006.43 382.016 1911.84C551.969 1774.89 383.243 1556.76 470.367 1439.58C528.654 1361.22 628.05 1445.22 688.178 1360.51C746.465 1277.92 637.867 1146.62 720.082 1086.62C757.509 1059.79 780.824 1020.97 781.437 965.906" stroke="#E8530E" stroke-width="0.25" stroke-miterlimit="10"/>
<path d="M5.28906 1474.88C143.338 1619.59 39.6479 1700.77 99.7758 1813.72C137.202 1883.61 261.753 1987.38 379.555 1892.78C549.509 1755.83 380.782 1537.7 467.906 1420.52C526.194 1342.17 625.589 1426.17 685.717 1341.46C744.004 1258.87 635.406 1127.57 717.621 1067.56C755.048 1040.74 778.363 1001.91 778.976 946.852" stroke="#E8530E" stroke-width="0.25" stroke-miterlimit="10"/>
<path d="M2.84375 1456.51C140.893 1601.22 37.2025 1682.41 97.3305 1795.35C134.757 1865.24 259.308 1969.01 377.11 1874.41C547.063 1737.47 378.337 1519.34 465.461 1402.16C523.748 1323.8 623.143 1407.8 683.271 1323.09C741.559 1240.5 632.96 1109.2 715.176 1049.2C752.603 1022.37 775.917 983.546 776.531 928.484" stroke="#E8530E" stroke-width="0.25" stroke-miterlimit="10"/>
<path d="M1.60938 1437.46C139.658 1582.17 35.9682 1663.35 96.0961 1776.3C133.523 1846.18 258.074 1949.95 375.875 1855.36C545.829 1718.41 377.102 1500.28 464.227 1383.1C522.514 1304.74 621.909 1388.75 682.037 1304.04C740.324 1221.45 631.726 1090.14 713.942 1030.14C751.368 1003.32 774.683 964.491 775.297 909.43" stroke="#E8530E" stroke-width="0.25" stroke-miterlimit="10"/>
<path d="M1 1417.68C139.049 1562.4 35.3588 1643.58 95.4868 1756.52C132.913 1826.41 257.464 1930.18 375.266 1835.59C545.219 1698.64 376.493 1480.51 463.617 1363.33C521.904 1284.97 621.3 1368.97 681.428 1284.26C739.715 1201.67 631.117 1070.37 713.332 1010.37C750.759 983.543 774.074 944.718 774.687 889.656" stroke="#E8530E" stroke-width="0.25" stroke-miterlimit="10"/>
<path d="M1 1398.64C139.049 1543.35 35.3588 1624.53 95.4868 1737.48C132.913 1807.36 257.464 1911.13 375.266 1816.54C545.219 1679.59 376.493 1461.46 463.617 1344.28C521.904 1265.92 621.3 1349.93 681.428 1265.22C739.715 1182.63 631.117 1051.32 713.332 991.321C750.759 964.497 774.074 925.671 774.687 870.609" stroke="#E8530E" stroke-width="0.25" stroke-miterlimit="10"/>
<path d="M2.21875 1379.58C140.268 1524.29 36.5775 1605.48 96.7055 1718.42C134.132 1788.31 258.683 1892.08 376.485 1797.49C546.438 1660.54 377.712 1442.41 464.836 1325.23C523.123 1246.87 622.518 1330.87 682.646 1246.16C740.934 1163.57 632.335 1032.27 714.551 972.267C751.978 945.442 775.293 906.616 775.906 851.555" stroke="#E8530E" stroke-width="0.25" stroke-miterlimit="10"/>
<path d="M3.45312 1359.81C141.502 1504.52 37.8121 1585.7 97.9401 1698.65C135.367 1768.53 259.917 1872.3 377.719 1777.71C547.673 1640.76 378.946 1422.63 466.07 1305.45C524.358 1227.1 623.753 1311.1 683.881 1226.39C742.168 1143.8 633.57 1012.5 715.785 952.493C753.212 925.668 776.527 886.843 777.141 831.781" stroke="#E8530E" stroke-width="0.25" stroke-miterlimit="10"/>
<path d="M5.28906 1340.75C143.338 1485.47 39.6479 1566.65 99.7758 1679.59C137.202 1749.48 261.753 1853.25 379.555 1758.66C549.509 1621.71 380.782 1403.58 467.906 1286.4C526.194 1208.04 625.589 1292.05 685.717 1207.33C744.004 1124.74 635.406 993.441 717.621 933.438C755.048 906.614 778.363 867.788 778.976 812.727" stroke="#E8530E" stroke-width="0.25" stroke-miterlimit="10"/>
<path d="M8.35938 1321.67C146.408 1466.38 42.7182 1547.56 102.846 1660.51C140.273 1730.39 264.824 1834.16 382.625 1739.57C552.579 1602.62 383.852 1384.49 470.977 1267.31C529.264 1188.95 628.659 1272.96 688.787 1188.25C747.074 1105.66 638.476 974.356 720.692 914.353C758.118 887.528 781.433 848.702 782.047 793.641" stroke="#E8530E" stroke-width="0.25" stroke-miterlimit="10"/>
<path d="M12.0469 1301.93C150.096 1446.64 46.4057 1527.82 106.534 1640.77C143.96 1710.65 268.511 1814.42 386.313 1719.83C556.266 1582.88 387.54 1364.75 474.664 1247.57C532.951 1169.21 632.347 1253.22 692.475 1168.51C750.762 1085.91 642.163 954.613 724.379 894.61C761.806 867.785 785.121 828.96 785.734 773.898" stroke="#E8530E" stroke-width="0.25" stroke-miterlimit="10"/>
<path d="M16.3359 1282.85C154.385 1427.56 50.6947 1508.74 110.823 1621.69C148.249 1691.57 272.8 1795.34 390.602 1700.75C560.555 1563.8 391.829 1345.67 478.953 1228.49C537.24 1150.13 636.636 1234.14 696.764 1149.43C755.051 1066.84 646.453 935.535 728.668 875.532C766.095 848.707 789.41 809.882 790.023 754.82" stroke="#E8530E" stroke-width="0.25" stroke-miterlimit="10"/>
<path d="M21.25 1263.79C159.299 1408.51 55.6088 1489.69 115.737 1602.63C153.163 1672.52 277.714 1776.29 395.516 1681.7C565.469 1544.75 396.743 1326.62 483.867 1209.44C542.154 1131.08 641.55 1215.08 701.678 1130.37C759.965 1047.78 651.366 916.481 733.582 856.478C771.009 829.653 794.324 790.827 794.937 735.766" stroke="#E8530E" stroke-width="0.25" stroke-miterlimit="10"/>
<path d="M26.7656 1244.74C164.815 1389.45 61.1244 1470.63 121.252 1583.58C158.679 1653.46 283.23 1757.23 401.032 1662.64C570.985 1525.69 402.259 1307.56 489.383 1190.38C547.67 1112.03 647.065 1196.03 707.193 1111.32C765.481 1028.73 656.882 897.426 739.098 837.423C776.525 810.598 799.839 771.773 800.453 716.711" stroke="#E8530E" stroke-width="0.25" stroke-miterlimit="10"/>
<path d="M33.5234 1225.68C171.572 1370.4 67.8822 1451.58 128.01 1564.52C165.437 1634.41 289.988 1738.18 407.789 1643.59C577.743 1506.64 409.016 1288.51 496.141 1171.33C554.428 1092.97 653.823 1176.97 713.951 1092.26C772.238 1009.67 663.64 878.371 745.856 818.368C783.282 791.543 806.597 752.718 807.211 697.656" stroke="#E8530E" stroke-width="0.25" stroke-miterlimit="10"/>
<path d="M40.8828 1207.32C178.932 1352.03 75.2416 1433.21 135.37 1546.16C172.796 1616.04 297.347 1719.81 415.149 1625.22C585.102 1488.27 416.376 1270.14 503.5 1152.96C561.787 1074.6 661.182 1158.61 721.31 1073.9C779.598 991.305 670.999 860.004 753.215 800.001C790.642 773.176 813.957 734.351 814.57 679.289" stroke="#E8530E" stroke-width="0.25" stroke-miterlimit="10"/>
<path d="M48.8594 1188.98C186.908 1333.69 83.2182 1414.87 143.346 1527.82C180.773 1597.71 305.324 1701.48 423.125 1606.88C593.079 1469.94 424.352 1251.81 511.477 1134.62C569.764 1056.27 669.159 1140.27 729.287 1055.56C787.574 972.969 678.976 841.668 761.192 781.665C798.618 754.84 821.933 716.015 822.547 660.953" stroke="#E8530E" stroke-width="0.25" stroke-miterlimit="10"/>
<path d="M58.0625 1170.61C196.111 1315.33 92.4213 1396.51 152.549 1509.45C189.976 1579.34 314.527 1683.11 432.328 1588.52C602.282 1451.57 433.555 1233.44 520.68 1116.26C578.967 1037.9 678.362 1121.9 738.49 1037.19C796.777 954.602 688.179 823.301 770.395 763.298C807.821 736.473 831.136 697.648 831.75 642.586" stroke="#E8530E" stroke-width="0.25" stroke-miterlimit="10"/>
<path d="M67.2656 1152.96C205.315 1297.68 101.624 1378.86 161.752 1491.81C199.179 1561.69 323.73 1665.46 441.532 1570.87C611.485 1433.92 442.759 1215.79 529.883 1098.61C588.17 1020.25 687.565 1104.26 747.693 1019.55C805.981 936.953 697.382 805.653 779.598 745.65C817.024 718.825 840.339 679.999 840.953 624.938" stroke="#E8530E" stroke-width="0.25" stroke-miterlimit="10"/>
<path d="M78.3047 1135.32C216.354 1280.03 112.663 1361.21 172.791 1474.16C210.218 1544.04 334.769 1647.81 452.571 1553.22C622.524 1416.27 453.798 1198.14 540.922 1080.96C599.209 1002.6 698.604 1086.61 758.732 1001.9C817.02 919.305 708.421 788.004 790.637 728.001C828.064 701.176 851.379 662.351 851.992 607.289" stroke="#E8530E" stroke-width="0.25" stroke-miterlimit="10"/>
<path d="M90.5781 1115.55C228.627 1260.26 124.937 1341.44 185.065 1454.39C222.491 1524.28 347.042 1628.05 464.844 1533.45C634.798 1396.51 466.071 1178.38 553.195 1061.19C611.483 982.838 710.878 1066.84 771.006 982.132C829.293 899.539 720.695 768.239 802.91 708.236C840.337 681.411 863.652 642.585 864.266 587.523" stroke="#E8530E" stroke-width="0.25" stroke-miterlimit="10"/>
<path d="M102.844 1097.21C240.893 1241.93 137.203 1323.11 197.331 1436.06C234.757 1505.94 359.308 1609.71 477.11 1515.12C647.063 1378.17 478.337 1160.04 565.461 1042.86C623.748 964.502 723.143 1048.51 783.271 963.796C841.559 881.203 732.96 749.902 815.176 689.899C852.603 663.074 875.918 624.249 876.531 569.188" stroke="#E8530E" stroke-width="0.25" stroke-miterlimit="10"/>
<path d="M115.727 1078.85C253.775 1223.56 150.085 1304.74 210.213 1417.69C247.64 1487.57 372.191 1591.34 489.992 1496.75C659.946 1359.8 491.22 1141.67 578.344 1024.49C636.631 946.135 736.026 1030.14 796.154 945.429C854.442 862.836 745.843 731.535 828.059 671.532C865.486 644.707 888.8 605.882 889.414 550.82" stroke="#E8530E" stroke-width="0.25" stroke-miterlimit="10"/>
<path d="M129.234 1061.92C267.283 1206.63 163.593 1287.81 223.721 1400.76C261.148 1470.64 385.699 1574.41 503.5 1479.82C673.454 1342.87 504.728 1124.74 591.852 1007.56C650.139 929.205 749.534 1013.21 809.662 928.499C867.95 845.906 759.351 714.606 841.567 654.602C878.993 627.778 902.308 588.952 902.922 533.891" stroke="#E8530E" stroke-width="0.25" stroke-miterlimit="10"/>
<path d="M142.117 1045.68C280.166 1190.39 176.476 1271.57 236.604 1384.52C274.031 1454.4 398.581 1558.17 516.383 1463.58C686.337 1326.63 517.61 1108.5 604.734 991.32C663.022 912.963 762.417 996.967 822.545 912.257C880.832 829.664 772.234 698.364 854.45 638.361C891.876 611.536 915.191 572.71 915.805 517.648" stroke="#E8530E" stroke-width="0.25" stroke-miterlimit="10"/>
<path d="M155.609 1030.15C293.658 1174.87 189.968 1256.05 250.096 1368.99C287.523 1438.88 412.074 1542.65 529.875 1448.06C699.829 1311.11 531.102 1092.98 618.227 975.796C676.514 897.439 775.909 981.443 836.037 896.733C894.324 814.141 785.726 682.84 867.942 622.837C905.368 596.012 928.683 557.187 929.297 502.125" stroke="#E8530E" stroke-width="0.25" stroke-miterlimit="10"/>
<path d="M168.508 1015.32C306.557 1160.03 202.867 1241.21 262.995 1354.16C300.421 1424.04 424.972 1527.81 542.774 1433.22C712.727 1296.27 544.001 1078.14 631.125 960.96C689.412 882.603 788.807 966.607 848.935 881.897C907.223 799.305 798.624 668.004 880.84 608.001C918.267 581.176 941.581 542.351 942.195 487.289" stroke="#E8530E" stroke-width="0.25" stroke-miterlimit="10"/>
<path d="M182 1001.91C320.049 1146.62 216.359 1227.8 276.487 1340.75C313.913 1410.64 438.464 1514.41 556.266 1419.81C726.219 1282.87 557.493 1064.74 644.617 947.554C702.904 869.197 802.3 953.201 862.428 868.491C920.715 785.899 812.117 654.598 894.332 594.595C931.759 567.77 955.074 528.944 955.687 473.883" stroke="#E8530E" stroke-width="0.25" stroke-miterlimit="10"/>
<path d="M195.492 988.48C333.541 1133.19 229.851 1214.37 289.979 1327.32C327.406 1397.21 451.956 1500.98 569.758 1406.38C739.712 1269.44 570.985 1051.31 658.109 934.124C716.397 855.767 815.792 939.772 875.92 855.062C934.207 772.469 825.609 641.168 907.825 581.165C945.251 554.34 968.566 515.515 969.18 460.453" stroke="#E8530E" stroke-width="0.25" stroke-miterlimit="10"/>
<path d="M208.992 975.769C347.041 1120.48 243.351 1201.66 303.479 1314.61C340.906 1384.5 465.456 1488.27 583.258 1393.67C753.212 1256.72 584.485 1038.6 671.61 921.413C729.897 843.056 829.292 927.061 889.42 842.35C947.707 759.758 839.109 628.457 921.325 568.454C958.751 541.629 982.066 502.804 982.68 447.742" stroke="#E8530E" stroke-width="0.25" stroke-miterlimit="10"/>
<path d="M223.102 964.496C361.15 1109.21 257.46 1190.39 317.588 1303.34C355.015 1373.22 479.566 1476.99 597.367 1382.4C767.321 1245.45 598.595 1027.32 685.719 910.14C744.006 831.783 843.401 915.787 903.529 831.077C961.817 748.485 853.218 617.184 935.434 557.181C972.861 530.356 996.175 491.53 996.789 436.469" stroke="#E8530E" stroke-width="0.25" stroke-miterlimit="10"/>
<path d="M236.609 953.191C374.658 1097.9 270.968 1179.08 331.096 1292.03C368.523 1361.92 493.074 1465.69 610.875 1371.09C780.829 1234.15 612.103 1016.02 699.227 898.835C757.514 820.478 856.909 904.483 917.037 819.773C975.325 737.18 866.726 605.879 948.942 545.876C986.368 519.051 1009.68 480.226 1010.3 425.164" stroke="#E8530E" stroke-width="0.25" stroke-miterlimit="10"/>
<path d="M250.711 942.597C388.76 1087.31 285.07 1168.49 345.198 1281.44C382.624 1351.32 507.175 1455.09 624.977 1360.5C794.93 1223.55 626.204 1005.42 713.328 888.242C771.615 809.885 871.011 893.889 931.139 809.179C989.426 726.586 880.827 595.285 963.043 535.282C1000.47 508.457 1023.78 469.632 1024.4 414.57" stroke="#E8530E" stroke-width="0.25" stroke-miterlimit="10"/>
<path d="M264.828 932.73C402.877 1077.44 299.187 1158.62 359.315 1271.57C396.741 1341.46 521.292 1445.23 639.094 1350.63C809.048 1213.69 640.321 995.557 727.445 878.374C785.733 800.017 885.128 884.022 945.256 799.311C1003.54 716.719 894.945 585.418 977.16 525.415C1014.59 498.59 1037.9 459.765 1038.52 404.703" stroke="#E8530E" stroke-width="0.25" stroke-miterlimit="10"/>
<path d="M278.945 923.542C416.994 1068.26 313.304 1149.44 373.432 1262.38C410.859 1332.27 535.409 1436.04 653.211 1341.45C823.165 1204.5 654.438 986.369 741.562 869.187C799.85 790.83 899.245 874.834 959.373 790.124C1017.66 707.531 909.062 576.231 991.278 516.228C1028.7 489.403 1052.02 450.577 1052.63 395.516" stroke="#E8530E" stroke-width="0.25" stroke-miterlimit="10"/>
<path d="M293.047 914.363C431.096 1059.08 327.406 1140.26 387.534 1253.2C424.96 1323.09 549.511 1426.86 667.313 1332.27C837.266 1195.32 668.54 977.19 755.664 860.007C813.951 781.65 913.347 865.655 973.475 780.944C1031.76 698.352 923.163 567.051 1005.38 507.048C1042.81 480.223 1066.12 441.398 1066.73 386.336" stroke="#E8530E" stroke-width="0.25" stroke-miterlimit="10"/>
<path d="M307.773 906.613C445.822 1051.33 342.132 1132.51 402.26 1245.45C439.687 1315.34 564.238 1419.11 682.039 1324.52C851.993 1187.57 683.266 969.439 770.391 852.257C828.678 773.9 928.073 857.904 988.201 773.194C1046.49 690.602 937.89 559.301 1020.11 499.298C1057.53 472.473 1080.85 433.648 1081.46 378.586" stroke="#E8530E" stroke-width="0.25" stroke-miterlimit="10"/>
<path d="M322.5 898.839C460.549 1043.55 356.859 1124.73 416.987 1237.68C454.414 1307.57 578.964 1411.34 696.766 1316.74C866.719 1179.79 697.993 961.666 785.117 844.484C843.405 766.127 942.8 850.131 1002.93 765.421C1061.22 682.828 952.617 551.528 1034.83 491.525C1072.26 464.7 1095.57 425.874 1096.19 370.812" stroke="#E8530E" stroke-width="0.25" stroke-miterlimit="10"/>
<path d="M336.609 891.777C474.658 1036.49 370.968 1117.67 431.096 1230.62C468.523 1300.5 593.074 1404.27 710.875 1309.68C880.829 1172.73 712.102 954.604 799.227 837.421C857.514 759.064 956.909 843.068 1017.04 758.358C1075.32 675.766 966.726 544.465 1048.94 484.462C1086.37 457.637 1109.68 418.812 1110.3 363.75" stroke="#E8530E" stroke-width="0.25" stroke-miterlimit="10"/>
<path d="M351.336 884.722C489.385 1029.44 385.695 1110.62 445.823 1223.56C483.249 1293.45 607.8 1397.22 725.602 1302.63C895.555 1165.68 726.829 947.549 813.953 830.367C872.24 752.01 971.636 836.014 1031.76 751.304C1090.05 668.711 981.453 537.41 1063.67 477.407C1101.09 450.582 1124.41 411.757 1125.02 356.695" stroke="#E8530E" stroke-width="0.25" stroke-miterlimit="10"/>
<path d="M366.062 879.066C504.111 1023.78 400.421 1104.96 460.549 1217.91C497.976 1287.79 622.527 1391.56 740.328 1296.97C910.282 1160.02 741.555 941.893 828.68 824.71C886.967 746.353 986.362 830.358 1046.49 745.648C1104.78 663.055 996.179 531.754 1078.39 471.751C1115.82 444.926 1139.14 406.101 1139.75 351.039" stroke="#E8530E" stroke-width="0.25" stroke-miterlimit="10"/>
<path d="M381.398 872.722C519.447 1017.44 415.757 1098.62 475.885 1211.56C513.312 1281.45 637.863 1385.22 755.664 1290.63C925.618 1153.68 756.891 935.549 844.016 818.367C902.303 740.01 1001.7 824.014 1061.83 739.304C1120.11 656.711 1011.52 525.41 1093.73 465.407C1131.16 438.582 1154.47 399.757 1155.09 344.695" stroke="#E8530E" stroke-width="0.25" stroke-miterlimit="10"/>
<path d="M396.133 867.785C534.182 1012.5 430.492 1093.68 490.62 1206.63C528.046 1276.51 652.597 1380.28 770.399 1285.69C940.352 1148.74 771.626 930.611 858.75 813.429C917.037 735.072 1016.43 819.076 1076.56 734.366C1134.85 651.774 1026.25 520.473 1108.47 460.47C1145.89 433.645 1169.21 394.819 1169.82 339.758" stroke="#E8530E" stroke-width="0.25" stroke-miterlimit="10"/>
<path d="M411.469 862.824C549.518 1007.54 445.828 1088.72 505.956 1201.66C543.382 1271.55 667.933 1375.32 785.735 1280.73C955.688 1143.78 786.962 925.651 874.086 808.468C932.373 730.111 1031.77 814.115 1091.9 729.405C1150.18 646.813 1041.59 515.512 1123.8 455.509C1161.23 428.684 1184.54 389.859 1185.16 334.797" stroke="#E8530E" stroke-width="0.25" stroke-miterlimit="10"/>
<path d="M426.805 857.886C564.854 1002.6 461.164 1083.78 521.292 1196.73C558.718 1266.61 683.269 1370.38 801.071 1275.79C971.024 1138.84 802.298 920.713 889.422 803.531C947.709 725.174 1047.1 809.178 1107.23 724.468C1165.52 641.875 1056.92 510.574 1139.14 450.571C1176.56 423.747 1199.88 384.921 1200.49 329.859" stroke="#E8530E" stroke-width="0.25" stroke-miterlimit="10"/>
<path d="M442.148 853.667C580.197 998.381 476.507 1079.56 536.635 1192.51C574.062 1262.39 698.613 1366.16 816.414 1271.57C986.368 1134.62 817.642 916.494 904.766 799.312C963.053 720.955 1062.45 804.959 1122.58 720.249C1180.86 637.656 1072.27 506.356 1154.48 446.352C1191.91 419.528 1215.22 380.702 1215.84 325.641" stroke="#E8530E" stroke-width="0.25" stroke-miterlimit="10"/>
<path d="M457.484 850.136C595.533 994.849 491.843 1076.03 551.971 1188.98C589.398 1258.86 713.949 1362.63 831.75 1268.04C1001.7 1131.09 832.978 912.963 920.102 795.78C978.389 717.423 1077.78 801.428 1137.91 716.718C1196.2 634.125 1087.6 502.824 1169.82 442.821C1207.24 415.996 1230.56 377.171 1231.17 322.109" stroke="#E8530E" stroke-width="0.25" stroke-miterlimit="10"/>
<path d="M472.82 846.613C610.869 991.326 507.179 1072.51 567.307 1185.45C604.734 1255.34 729.284 1359.11 847.086 1264.52C1017.04 1127.57 848.313 909.439 935.438 792.257C993.725 713.9 1093.12 797.904 1153.25 713.194C1211.54 630.602 1102.94 499.301 1185.15 439.298C1222.58 412.473 1245.89 373.648 1246.51 318.586" stroke="#E8530E" stroke-width="0.25" stroke-miterlimit="10"/>
<path d="M488.164 843.081C626.213 987.795 522.523 1068.98 582.651 1181.92C620.078 1251.81 744.628 1355.58 862.43 1260.99C1032.38 1124.04 863.657 905.908 950.781 788.726C1009.07 710.369 1108.46 794.373 1168.59 709.663C1226.88 627.071 1118.28 495.77 1200.5 435.767C1237.92 408.942 1261.24 370.116 1261.85 315.055" stroke="#E8530E" stroke-width="0.25" stroke-miterlimit="10"/>
<path d="M504.109 840.238C642.158 984.951 538.468 1066.13 598.596 1179.08C636.023 1248.96 760.574 1352.73 878.375 1258.14C1048.33 1121.19 879.602 903.065 966.727 785.882C1025.01 707.525 1124.41 791.53 1184.54 706.819C1242.82 624.227 1134.23 492.926 1216.44 432.923C1253.87 406.098 1277.18 367.273 1277.8 312.211" stroke="#E8530E" stroke-width="0.25" stroke-miterlimit="10"/>
<path d="M520.062 837.425C658.111 982.139 554.421 1063.32 614.549 1176.27C651.976 1246.15 776.527 1349.92 894.328 1255.33C1064.28 1118.38 895.555 900.252 982.68 783.07C1040.97 704.713 1140.36 788.717 1200.49 704.007C1258.78 621.414 1150.18 490.114 1232.39 430.111C1269.82 403.286 1293.14 364.46 1293.75 309.398" stroke="#E8530E" stroke-width="0.25" stroke-miterlimit="10"/>
<path d="M536.008 835.308C674.057 980.021 570.367 1061.2 630.495 1174.15C667.921 1244.03 792.472 1347.8 910.274 1253.21C1080.23 1116.26 911.501 898.135 998.625 780.952C1056.91 702.596 1156.31 786.6 1216.44 701.89C1274.72 619.297 1166.12 487.996 1248.34 427.993C1285.77 401.168 1309.08 362.343 1309.7 307.281" stroke="#E8530E" stroke-width="0.25" stroke-miterlimit="10"/>
<path d="M551.977 832.496C690.025 977.209 586.335 1058.39 646.463 1171.34C683.89 1241.22 808.441 1344.99 926.242 1250.4C1096.2 1113.45 927.47 895.322 1014.59 778.14C1072.88 699.783 1172.28 783.787 1232.4 699.077C1290.69 616.485 1182.09 485.184 1264.31 425.181C1301.74 398.356 1325.05 359.53 1325.66 304.469" stroke="#E8530E" stroke-width="0.25" stroke-miterlimit="10"/>
<path d="M567.922 830.371C705.971 975.084 602.281 1056.26 662.409 1169.21C699.835 1239.1 824.386 1342.87 942.188 1248.27C1112.14 1111.33 943.415 893.197 1030.54 776.015C1088.83 697.658 1188.22 781.662 1248.35 696.952C1306.64 614.36 1198.04 483.059 1280.25 423.056C1317.68 396.231 1341 357.405 1341.61 302.344" stroke="#E8530E" stroke-width="0.25" stroke-miterlimit="10"/>
<path d="M584.484 828.246C722.533 972.959 618.843 1054.14 678.971 1167.09C716.398 1236.97 840.949 1340.74 958.75 1246.15C1128.7 1109.2 959.977 891.072 1047.1 773.89C1105.39 695.533 1204.78 779.537 1264.91 694.827C1323.2 612.235 1214.6 480.934 1296.82 420.931C1334.24 394.106 1357.56 355.28 1358.17 300.219" stroke="#E8530E" stroke-width="0.25" stroke-miterlimit="10"/>
<path d="M600.438 826.839C738.486 971.553 634.796 1052.73 694.924 1165.68C732.351 1235.57 856.902 1339.34 974.703 1244.74C1144.66 1107.79 975.93 889.666 1063.05 772.484C1121.34 694.127 1220.74 778.131 1280.87 693.421C1339.15 610.828 1230.55 479.528 1312.77 419.525C1350.2 392.7 1373.51 353.874 1374.12 298.812" stroke="#E8530E" stroke-width="0.25" stroke-miterlimit="10"/>
<path d="M617.008 824.714C755.057 969.428 651.367 1050.61 711.495 1163.56C748.921 1233.44 873.472 1337.21 991.274 1242.62C1161.23 1105.67 992.501 887.541 1079.63 770.359C1137.91 692.002 1237.31 776.006 1297.44 691.296C1355.72 608.703 1247.12 477.403 1329.34 417.4C1366.77 390.575 1390.08 351.749 1390.7 296.688" stroke="#E8530E" stroke-width="0.25" stroke-miterlimit="10"/>
<path d="M633.57 823.308C771.619 968.021 667.929 1049.2 728.057 1162.15C765.484 1232.03 890.034 1335.8 1007.84 1241.21C1177.79 1104.26 1009.06 886.135 1096.19 768.952C1154.47 690.596 1253.87 774.6 1314 689.89C1372.29 607.297 1263.69 475.996 1345.9 415.993C1383.33 389.168 1406.64 350.343 1407.26 295.281" stroke="#E8530E" stroke-width="0.25" stroke-miterlimit="10"/>
<path d="M650.141 821.183C788.19 965.896 684.499 1047.08 744.627 1160.02C782.054 1229.91 906.605 1333.68 1024.41 1239.09C1194.36 1102.14 1025.63 884.01 1112.76 766.827C1171.05 688.471 1270.44 772.475 1330.57 687.765C1388.86 605.172 1280.26 473.871 1362.47 413.868C1399.9 387.043 1423.21 348.218 1423.83 293.156" stroke="#E8530E" stroke-width="0.25" stroke-miterlimit="10"/>
<path d="M666.703 819.777C804.752 964.49 701.062 1045.67 761.19 1158.62C798.616 1228.5 923.167 1332.27 1040.97 1237.68C1210.92 1100.73 1042.2 882.604 1129.32 765.421C1187.61 687.064 1287 771.068 1347.13 686.358C1405.42 603.766 1296.82 472.465 1379.04 412.462C1416.46 385.637 1439.78 346.812 1440.39 291.75" stroke="#E8530E" stroke-width="0.25" stroke-miterlimit="10"/>
<path d="M683.883 818.371C821.932 963.084 718.242 1044.26 778.37 1157.21C815.796 1227.1 940.347 1330.87 1058.15 1236.27C1228.1 1099.33 1059.38 881.197 1146.5 764.015C1204.79 685.658 1304.18 769.662 1364.31 684.952C1422.6 602.36 1314 471.059 1396.22 411.056C1433.64 384.231 1456.96 345.405 1457.57 290.344" stroke="#E8530E" stroke-width="0.25" stroke-miterlimit="10"/>
<path d="M700.445 816.941C838.494 961.654 734.804 1042.83 794.932 1155.78C832.359 1225.67 956.909 1329.44 1074.71 1234.84C1244.66 1097.9 1075.94 879.768 1163.06 762.585C1221.35 684.228 1320.75 768.233 1380.87 683.522C1439.16 600.93 1330.56 469.629 1412.78 409.626C1450.2 382.801 1473.52 343.976 1474.13 288.914" stroke="#E8530E" stroke-width="0.25" stroke-miterlimit="10"/>
<path d="M717.633 814.847C855.682 959.56 751.992 1040.74 812.12 1153.69C849.546 1223.57 974.097 1327.34 1091.9 1232.75C1261.85 1095.8 1093.13 877.674 1180.25 760.491C1238.54 682.134 1337.93 766.139 1398.06 681.429C1456.35 598.836 1347.75 467.535 1429.97 407.532C1467.39 380.707 1490.71 341.882 1491.32 286.82" stroke="#E8530E" stroke-width="0.25" stroke-miterlimit="10"/>
<path d="M734.805 813.41C872.854 958.123 769.163 1039.3 829.291 1152.25C866.718 1222.14 991.269 1325.91 1109.07 1231.31C1279.02 1094.37 1110.3 876.236 1197.42 759.054C1255.71 680.697 1355.1 764.701 1415.23 679.991C1473.52 597.399 1364.92 466.098 1447.14 406.095C1484.56 379.27 1507.88 340.444 1508.49 285.383" stroke="#E8530E" stroke-width="0.25" stroke-miterlimit="10"/>
<path d="M751.992 811.316C890.041 956.029 786.351 1037.21 846.479 1150.16C883.906 1220.04 1008.46 1323.81 1126.26 1229.22C1296.21 1092.27 1127.49 874.142 1214.61 756.96C1272.9 678.603 1372.29 762.608 1432.42 677.897C1490.71 595.305 1382.11 464.004 1464.32 404.001C1501.75 377.176 1525.07 338.351 1525.68 283.289" stroke="#E8530E" stroke-width="0.25" stroke-miterlimit="10"/>
<path d="M769.164 809.878C907.213 954.592 803.523 1035.77 863.651 1148.72C901.077 1218.61 1025.63 1322.38 1143.43 1227.78C1313.38 1090.83 1144.66 872.705 1231.78 755.523C1290.07 677.166 1389.46 761.17 1449.59 676.46C1507.88 593.867 1399.28 462.567 1481.5 402.564C1518.92 375.739 1542.24 336.913 1542.85 281.852" stroke="#E8530E" stroke-width="0.25" stroke-miterlimit="10"/>
<path d="M786.953 807.785C925.002 952.498 821.312 1033.68 881.44 1146.63C918.866 1216.51 1043.42 1320.28 1161.22 1225.69C1331.17 1088.74 1162.45 870.611 1249.57 753.429C1307.86 675.072 1407.25 759.076 1467.38 674.366C1525.67 591.774 1417.07 460.473 1499.29 400.47C1536.71 373.645 1560.03 334.819 1560.64 279.758" stroke="#E8530E" stroke-width="0.25" stroke-miterlimit="10"/>
<path d="M804.141 805.66C942.19 950.373 838.5 1031.55 898.628 1144.5C936.054 1214.39 1060.6 1318.16 1178.41 1223.56C1348.36 1086.62 1179.63 868.486 1266.76 751.304C1325.05 672.947 1424.44 756.951 1484.57 672.241C1542.86 589.649 1434.26 458.348 1516.47 398.345C1553.9 371.52 1577.21 332.694 1577.83 277.633" stroke="#E8530E" stroke-width="0.25" stroke-miterlimit="10"/>
<path d="M836.039 801.418C974.088 946.131 870.398 1027.31 930.526 1140.26C967.952 1210.14 1092.5 1313.91 1210.3 1219.32C1380.26 1082.37 1211.53 864.244 1298.66 747.062C1356.94 668.705 1456.34 752.709 1516.47 667.999C1574.75 585.407 1466.16 454.106 1548.37 394.103C1585.8 367.278 1609.11 328.452 1609.73 273.391" stroke="#E8530E" stroke-width="0.25" stroke-miterlimit="10"/>
<path d="M867.328 795.074C1005.38 939.787 901.687 1020.97 961.815 1133.91C999.241 1203.8 1123.79 1307.57 1241.59 1212.98C1411.55 1076.03 1242.82 857.901 1329.95 740.718C1388.23 662.361 1487.63 746.365 1547.76 661.655C1606.04 579.063 1497.44 447.762 1579.66 387.759C1617.09 360.934 1640.4 322.109 1641.02 267.047" stroke="#E8530E" stroke-width="0.25" stroke-miterlimit="10"/>
<path d="M894.938 788.011C1032.99 932.725 929.296 1013.91 989.424 1126.85C1026.85 1196.74 1151.4 1300.51 1269.2 1205.91C1439.16 1068.97 1270.43 850.838 1357.55 733.656C1415.84 655.299 1515.24 739.303 1575.37 654.593C1633.65 572 1525.05 440.699 1607.27 380.696C1644.7 353.872 1668.01 315.046 1668.62 259.984" stroke="#E8530E" stroke-width="0.25" stroke-miterlimit="10"/>
<path d="M918.867 780.238C1056.92 924.951 953.226 1006.13 1013.35 1119.08C1050.78 1188.96 1175.33 1292.73 1293.13 1198.14C1463.09 1061.19 1294.36 843.065 1381.48 725.882C1439.77 647.525 1539.17 731.53 1599.29 646.819C1657.58 564.227 1548.98 432.926 1631.2 372.923C1668.63 346.098 1691.94 307.273 1692.55 252.211" stroke="#E8530E" stroke-width="0.25" stroke-miterlimit="10"/>
<path d="M939.125 771.058C1077.17 915.771 973.484 996.952 1033.61 1109.9C1071.04 1179.78 1195.59 1283.55 1313.39 1188.96C1483.34 1052.01 1314.62 833.885 1401.74 716.702C1460.03 638.346 1559.42 722.35 1619.55 637.64C1677.84 555.047 1569.24 423.746 1651.46 363.743C1688.88 336.918 1712.2 298.093 1712.81 243.031" stroke="#E8530E" stroke-width="0.25" stroke-miterlimit="10"/>
<path d="M942.188 528.23C1080.24 672.943 976.546 754.124 1036.67 867.071C1074.1 936.957 1198.65 1040.73 1316.45 946.134C1486.41 809.185 1317.68 591.057 1404.8 473.874C1463.09 395.517 1562.49 479.522 1622.62 394.811C1680.9 312.219 1572.3 180.918 1654.52 120.915C1691.95 94.0903 1715.26 55.2648 1715.87 0.203125" stroke="#E8530E" stroke-width="0.25" stroke-miterlimit="10"/>
</g>
</svg>
