<svg width="997" height="1347" viewBox="0 0 997 1347" fill="none" xmlns="http://www.w3.org/2000/svg">
<path d="M607.766 52.8474C499.501 -60.6441 580.82 -124.31 533.664 -212.889C504.312 -267.697 406.633 -349.079 314.247 -274.894C180.961 -167.492 313.285 3.57538 244.958 95.4759C199.246 156.927 121.295 91.047 74.1395 157.481C28.4276 222.254 113.596 325.227 49.1182 372.285C19.7663 393.322 1.48156 423.771 1.00038 466.953" stroke="url(#paint0_linear_46_9472)" stroke-width="0.25" stroke-miterlimit="10"/>
<path d="M607.766 67.2223C499.501 -46.2693 580.82 -109.935 533.664 -198.514C504.312 -253.322 406.633 -334.704 314.247 -260.519C180.961 -153.117 313.285 17.9504 244.958 109.851C199.246 171.302 121.295 105.422 74.1395 171.856C28.4276 236.629 113.596 339.602 49.1182 386.66C19.7663 407.697 1.48156 438.146 1.00038 481.328" stroke="url(#paint1_linear_46_9472)" stroke-width="0.25" stroke-miterlimit="10"/>
<path d="M608.25 81.066C499.985 -32.4255 581.304 -96.0915 534.149 -184.67C504.797 -239.478 407.118 -320.86 314.732 -246.675C181.445 -139.274 313.769 31.7941 245.442 123.695C199.73 185.146 121.779 119.266 74.6238 185.7C28.9119 250.473 114.08 353.446 49.6025 400.503C20.2507 421.541 1.96591 451.99 1.48473 495.172" stroke="url(#paint2_linear_46_9472)" stroke-width="0.25" stroke-miterlimit="10"/>
<path d="M609.695 94.3631C501.43 -19.1285 582.749 -82.7945 535.594 -171.373C506.242 -226.181 408.563 -307.563 316.177 -233.378C182.891 -125.977 315.214 45.091 246.887 136.991C201.175 198.443 123.224 132.563 76.0691 198.997C30.3572 263.77 115.526 366.743 51.0478 413.8C21.696 434.838 3.41122 465.287 2.93005 508.469" stroke="url(#paint3_linear_46_9472)" stroke-width="0.25" stroke-miterlimit="10"/>
<path d="M612.102 107.644C503.837 -5.84725 585.156 -69.5132 538 -158.092C508.648 -212.9 410.969 -294.282 318.583 -220.097C185.297 -112.695 317.621 58.3723 249.293 150.273C203.582 211.724 125.631 145.844 78.4753 212.278C32.7634 277.051 117.932 380.024 53.4541 427.081C24.1022 448.119 5.81747 478.568 5.3363 521.75" stroke="url(#paint4_linear_46_9472)" stroke-width="0.25" stroke-miterlimit="10"/>
<path d="M614.508 120.379C506.243 6.88695 587.562 -56.779 540.406 -145.358C511.055 -200.166 413.375 -281.548 320.989 -207.363C187.703 -99.9611 320.027 71.1066 251.7 163.007C205.988 224.459 128.037 158.578 80.8816 225.012C35.1697 289.785 120.338 392.758 55.8603 439.816C26.5085 460.853 8.22372 491.302 7.74255 534.484" stroke="url(#paint5_linear_46_9472)" stroke-width="0.25" stroke-miterlimit="10"/>
<path d="M618.352 133.121C510.087 19.6293 591.406 -44.0367 544.25 -132.615C514.898 -187.424 417.219 -268.805 324.833 -194.621C191.547 -87.2189 323.871 83.8488 255.544 175.749C209.832 237.201 131.881 171.32 84.7254 237.755C39.0135 302.528 124.182 405.5 59.7042 452.558C30.3523 473.595 12.0676 504.044 11.5864 547.227" stroke="url(#paint6_linear_46_9472)" stroke-width="0.25" stroke-miterlimit="10"/>
<path d="M622.203 145.293C513.938 31.801 595.257 -31.865 548.102 -120.444C518.75 -175.252 421.071 -256.634 328.685 -182.449C195.398 -75.047 327.722 96.0207 259.395 187.921C213.683 249.373 135.732 183.492 88.577 249.926C42.8651 314.699 128.033 417.672 63.5557 464.73C34.2038 485.767 15.9191 516.216 15.4379 559.398" stroke="url(#paint7_linear_46_9472)" stroke-width="0.25" stroke-miterlimit="10"/>
<path d="M627.016 156.91C518.751 43.4184 600.07 -20.2476 552.914 -108.826C523.562 -163.635 425.883 -245.016 333.497 -170.832C200.211 -63.4298 332.535 107.638 264.208 199.539C218.496 260.99 140.545 195.109 93.3895 261.544C47.6776 326.317 132.846 429.29 68.3682 476.347C39.0163 497.385 20.7316 527.833 20.2504 571.016" stroke="url(#paint8_linear_46_9472)" stroke-width="0.25" stroke-miterlimit="10"/>
<path d="M632.789 168.551C524.524 55.059 605.843 -8.607 558.688 -97.1858C529.336 -151.994 431.657 -233.376 339.271 -159.191C205.984 -51.7892 338.308 119.279 269.981 211.179C224.269 272.631 146.318 206.75 99.1629 273.184C53.451 337.957 138.619 440.93 74.1417 487.988C44.7898 509.025 26.5051 539.474 26.0239 582.656" stroke="url(#paint9_linear_46_9472)" stroke-width="0.25" stroke-miterlimit="10"/>
<path d="M638.562 179.613C530.297 66.1215 611.617 2.4555 564.461 -86.1233C535.109 -140.931 437.43 -222.313 345.044 -148.128C211.758 -40.7267 344.082 130.341 275.754 222.241C230.042 283.693 152.092 217.813 104.936 284.247C59.2244 349.02 144.393 451.993 79.915 499.05C50.5632 520.088 32.2784 550.537 31.7972 593.719" stroke="url(#paint10_linear_46_9472)" stroke-width="0.25" stroke-miterlimit="10"/>
<path d="M645.297 190.683C537.032 77.1918 618.351 13.5258 571.195 -75.053C541.844 -129.861 444.165 -211.243 351.778 -137.058C218.492 -29.6564 350.816 141.411 282.489 233.312C236.777 294.763 158.826 228.883 111.671 295.317C65.9588 360.09 151.127 463.063 86.6494 510.12C57.2976 531.158 39.0128 561.607 38.5316 604.789" stroke="url(#paint11_linear_46_9472)" stroke-width="0.25" stroke-miterlimit="10"/>
<path d="M652.516 200.66C544.251 87.1683 625.57 23.5023 578.414 -65.0765C549.062 -119.885 451.383 -201.266 358.997 -127.082C225.711 -19.6798 358.035 151.388 289.708 243.288C243.996 304.74 166.045 238.859 118.889 305.293C73.1775 370.067 158.346 473.04 93.8682 520.097C64.5163 541.135 46.2316 571.583 45.7504 614.766" stroke="url(#paint12_linear_46_9472)" stroke-width="0.25" stroke-miterlimit="10"/>
<path d="M660.219 210.629C551.954 97.1371 633.273 33.4711 586.117 -55.1076C556.766 -109.916 459.086 -191.298 366.7 -117.113C233.414 -9.71109 365.738 161.357 297.411 253.257C251.699 314.709 173.748 248.828 126.593 315.262C80.8806 380.036 166.049 483.008 101.571 530.066C72.2194 551.103 53.9347 581.552 53.4535 624.734" stroke="url(#paint13_linear_46_9472)" stroke-width="0.25" stroke-miterlimit="10"/>
<path d="M668.875 220.035C560.61 106.543 641.929 42.8773 594.774 -45.7015C565.422 -100.51 467.743 -181.891 375.357 -107.707C242.07 -0.304758 374.394 170.763 306.067 262.663C260.355 324.115 182.404 258.234 135.249 324.668C89.5369 389.442 174.705 492.415 110.228 539.472C80.8758 560.51 62.591 590.958 62.1098 634.141" stroke="url(#paint14_linear_46_9472)" stroke-width="0.25" stroke-miterlimit="10"/>
<path d="M677.539 229.441C569.274 115.95 650.593 52.2836 603.438 -36.2951C574.086 -91.1033 476.407 -172.485 384.021 -98.3004C250.734 9.10141 383.058 180.169 314.731 272.07C269.019 333.521 191.068 267.641 143.913 334.075C98.201 398.848 183.369 501.821 118.892 548.878C89.5398 569.916 71.255 600.365 70.7738 643.547" stroke="url(#paint15_linear_46_9472)" stroke-width="0.25" stroke-miterlimit="10"/>
<path d="M687.164 238.308C578.899 124.817 660.218 61.1508 613.063 -27.428C583.711 -82.2361 486.032 -163.618 393.646 -89.4332C260.359 17.9686 392.683 189.036 324.356 280.937C278.644 342.388 200.693 276.508 153.538 342.942C107.826 407.715 192.994 510.688 128.517 557.745C99.1648 578.783 80.88 609.232 80.3988 652.414" stroke="url(#paint16_linear_46_9472)" stroke-width="0.25" stroke-miterlimit="10"/>
<path d="M696.789 246.613C588.524 133.121 669.843 69.4555 622.688 -19.1233C593.336 -73.9314 495.657 -155.313 403.271 -81.1285C269.984 26.2733 402.308 197.341 333.981 289.241C288.269 350.693 210.318 284.813 163.163 351.247C117.451 416.02 202.619 518.993 138.142 566.05C108.79 587.088 90.505 617.537 90.0238 660.719" stroke="url(#paint17_linear_46_9472)" stroke-width="0.25" stroke-miterlimit="10"/>
<path d="M707.367 254.355C599.102 140.864 680.421 77.1977 633.266 -11.3811C603.914 -66.1892 506.235 -147.571 413.849 -73.3863C280.562 34.0155 412.886 205.083 344.559 296.984C298.847 358.435 220.896 292.555 173.741 358.989C128.029 423.762 213.198 526.735 148.72 573.792C119.368 594.83 101.083 625.279 100.602 668.461" stroke="url(#paint18_linear_46_9472)" stroke-width="0.25" stroke-miterlimit="10"/>
<path d="M717.961 262.097C609.696 148.606 691.015 84.9398 643.86 -3.63898C614.508 -58.4471 516.829 -139.829 424.442 -65.6442C291.156 41.7576 423.48 212.825 355.153 304.726C309.441 366.177 231.49 300.297 184.335 366.731C138.623 431.504 223.791 534.477 159.313 581.535C129.962 602.572 111.677 633.021 111.196 676.203" stroke="url(#paint19_linear_46_9472)" stroke-width="0.25" stroke-miterlimit="10"/>
<path d="M729.508 268.761C621.243 155.27 702.562 91.6039 655.406 3.02517C626.055 -51.7829 528.375 -133.165 435.989 -58.98C302.703 48.4217 435.027 219.489 366.7 311.39C320.988 372.841 243.037 306.961 195.882 373.395C150.17 438.168 235.338 541.141 170.86 588.199C141.509 609.236 123.224 639.685 122.743 682.867" stroke="url(#paint20_linear_46_9472)" stroke-width="0.25" stroke-miterlimit="10"/>
<path d="M741.055 275.394C632.79 161.903 714.109 98.2367 666.953 9.6579C637.601 -45.1502 539.922 -126.532 447.536 -52.3471C314.25 55.0546 446.574 226.122 378.247 318.023C332.535 379.474 254.584 313.594 207.429 380.028C161.717 444.801 246.885 547.774 182.407 594.831C153.055 615.869 134.771 646.318 134.29 689.5" stroke="url(#paint21_linear_46_9472)" stroke-width="0.25" stroke-miterlimit="10"/>
<path d="M753.086 282.035C644.821 168.543 726.14 104.877 678.985 16.2986C649.633 -38.5095 551.954 -119.891 459.567 -45.7066C326.281 61.6952 458.605 232.763 390.278 324.663C344.566 386.115 266.615 320.234 219.46 386.669C173.748 451.442 258.916 554.415 194.439 601.472C165.087 622.51 146.802 652.958 146.321 696.141" stroke="url(#paint22_linear_46_9472)" stroke-width="0.25" stroke-miterlimit="10"/>
<path d="M765.594 287.574C657.329 174.082 738.648 110.416 691.492 21.8377C662.141 -32.9704 564.461 -114.352 472.075 -40.1675C338.789 67.2342 471.113 238.302 402.786 330.202C357.074 391.654 279.123 325.774 231.968 392.208C186.256 456.981 271.424 559.954 206.946 607.011C177.594 628.049 159.31 658.498 158.829 701.68" stroke="url(#paint23_linear_46_9472)" stroke-width="0.25" stroke-miterlimit="10"/>
<path d="M778.586 293.113C670.321 179.621 751.64 115.956 704.485 27.3767C675.133 -27.4314 577.454 -108.813 485.067 -34.6285C351.781 72.7733 484.105 243.841 415.778 335.741C370.066 397.193 292.115 331.313 244.96 397.747C199.248 462.52 284.416 565.493 219.938 612.55C190.587 633.588 172.302 664.037 171.821 707.219" stroke="url(#paint24_linear_46_9472)" stroke-width="0.25" stroke-miterlimit="10"/>
<path d="M792.055 297.543C683.79 184.051 765.109 120.385 717.953 31.8063C688.601 -23.0018 590.922 -104.383 498.536 -30.1987C365.25 77.2031 497.574 248.271 429.247 340.171C383.535 401.623 305.584 335.742 258.428 402.176C212.717 466.95 297.885 569.922 233.407 616.98C204.055 638.017 185.771 668.466 185.289 711.648" stroke="url(#paint25_linear_46_9472)" stroke-width="0.25" stroke-miterlimit="10"/>
<path d="M805.531 301.972C697.266 188.481 778.585 124.815 731.43 36.2361C702.078 -18.572 604.399 -99.9538 512.013 -25.7691C378.727 81.6327 511.05 252.7 442.723 344.601C397.011 406.052 319.06 340.172 271.905 406.606C226.193 471.379 311.362 574.352 246.884 621.41C217.532 642.447 199.247 672.896 198.766 716.078" stroke="url(#paint26_linear_46_9472)" stroke-width="0.25" stroke-miterlimit="10"/>
<path d="M819.492 305.847C711.227 192.356 792.546 128.69 745.391 40.111C716.039 -14.6971 618.36 -96.0787 525.974 -21.894C392.687 85.5077 525.011 256.575 456.684 348.476C410.972 409.927 333.021 344.047 285.866 410.481C240.154 475.254 325.323 578.227 260.845 625.285C231.493 646.322 213.208 676.771 212.727 719.953" stroke="url(#paint27_linear_46_9472)" stroke-width="0.25" stroke-miterlimit="10"/>
<path d="M833.922 309.715C725.657 196.223 806.976 132.557 759.82 43.9783C730.469 -10.8298 632.79 -92.2116 540.403 -18.0269C407.117 89.3748 539.441 260.443 471.114 352.343C425.402 413.795 347.451 347.914 300.296 414.348C254.584 479.121 339.752 582.094 275.274 629.152C245.923 650.189 227.638 680.638 227.157 723.82" stroke="url(#paint28_linear_46_9472)" stroke-width="0.25" stroke-miterlimit="10"/>
<path d="M848.359 312.48C740.094 198.989 821.413 135.323 774.258 46.7439C744.906 -8.0642 647.227 -89.446 554.841 -15.2613C421.555 92.1405 553.879 263.208 485.551 355.109C439.839 416.56 361.889 350.68 314.733 417.114C269.021 481.887 354.19 584.86 289.712 631.917C260.36 652.955 242.075 683.404 241.594 726.586" stroke="url(#paint29_linear_46_9472)" stroke-width="0.25" stroke-miterlimit="10"/>
<path d="M863.273 314.691C755.008 201.2 836.327 137.534 789.172 48.9548C759.82 -5.85334 662.141 -87.2352 569.755 -13.0504C436.469 94.3513 568.793 265.419 500.465 357.32C454.753 418.771 376.803 352.891 329.647 419.325C283.935 484.098 369.104 587.071 304.626 634.128C275.274 655.166 256.989 685.615 256.508 728.797" stroke="url(#paint30_linear_46_9472)" stroke-width="0.25" stroke-miterlimit="10"/>
<path d="M878.672 316.918C770.407 203.426 851.726 139.76 804.571 51.1813C775.219 -3.62678 677.54 -85.0084 585.153 -10.8237C451.867 96.5781 584.191 267.646 515.864 359.546C470.152 420.998 392.201 355.117 345.046 421.551C299.334 486.325 384.502 589.297 320.024 636.355C290.673 657.392 272.388 687.841 271.907 731.023" stroke="url(#paint31_linear_46_9472)" stroke-width="0.25" stroke-miterlimit="10"/>
<path d="M894.07 318.574C785.805 205.082 867.124 141.416 819.969 52.8377C790.617 -1.97045 692.938 -83.3523 600.552 -9.16754C467.266 98.2342 599.59 269.302 531.262 361.202C485.55 422.654 407.6 356.774 360.444 423.208C314.732 487.981 399.901 590.954 335.423 638.011C306.071 659.049 287.786 689.498 287.305 732.68" stroke="url(#paint32_linear_46_9472)" stroke-width="0.25" stroke-miterlimit="10"/>
<path d="M909.469 319.121C801.204 205.629 882.523 141.963 835.367 53.3844C806.016 -1.42374 708.336 -82.8054 615.95 -8.62067C482.664 98.7811 614.988 269.849 546.661 361.749C500.949 423.201 422.998 357.32 375.843 423.755C330.131 488.528 415.299 591.5 350.821 638.558C321.47 659.595 303.185 690.044 302.704 733.227" stroke="url(#paint33_linear_46_9472)" stroke-width="0.25" stroke-miterlimit="10"/>
<path d="M925.352 319.683C817.087 206.192 898.406 142.526 851.25 53.947C821.898 -0.861155 724.219 -82.2428 631.833 -8.05808C498.547 99.3437 630.871 270.411 562.543 362.312C516.832 423.763 438.881 357.883 391.725 424.317C346.014 489.09 431.182 592.063 366.704 639.121C337.352 660.158 319.067 690.607 318.586 733.789" stroke="url(#paint34_linear_46_9472)" stroke-width="0.25" stroke-miterlimit="10"/>
<path d="M941.219 319.683C832.954 206.192 914.273 142.526 867.117 53.947C837.766 -0.861155 740.086 -82.2428 647.7 -8.05808C514.414 99.3437 646.738 270.411 578.411 362.312C532.699 423.763 454.748 357.883 407.593 424.317C361.881 489.09 447.049 592.063 382.571 639.121C353.219 660.158 334.935 690.607 334.454 733.789" stroke="url(#paint35_linear_46_9472)" stroke-width="0.25" stroke-miterlimit="10"/>
<path d="M957.586 319.121C849.321 205.629 930.64 141.963 883.485 53.3844C854.133 -1.42374 756.454 -82.8054 664.067 -8.62067C530.781 98.7811 663.105 269.849 594.778 361.749C549.066 423.201 471.115 357.32 423.96 423.755C378.248 488.528 463.416 591.5 398.939 638.558C369.587 659.595 351.302 690.044 350.821 733.227" stroke="url(#paint36_linear_46_9472)" stroke-width="0.25" stroke-miterlimit="10"/>
<path d="M973.945 318.019C865.68 204.528 946.999 140.862 899.844 52.283C870.492 -2.52513 772.813 -83.9069 680.427 -9.72223C547.141 97.6795 679.464 268.747 611.137 360.648C565.425 422.099 487.474 356.219 440.319 422.653C394.607 487.426 479.776 590.399 415.298 637.456C385.946 658.494 367.661 688.943 367.18 732.125" stroke="url(#paint37_linear_46_9472)" stroke-width="0.25" stroke-miterlimit="10"/>
<path d="M990.789 316.347C882.524 202.856 963.843 139.19 916.688 50.6109C887.336 -4.19718 789.657 -85.5788 697.271 -11.3941C563.984 96.0077 696.308 267.075 627.981 358.976C582.269 420.427 504.318 354.547 457.163 420.981C411.451 485.754 496.619 588.727 432.142 635.785C402.79 656.822 384.505 687.271 384.024 730.453" stroke="url(#paint38_linear_46_9472)" stroke-width="0.25" stroke-miterlimit="10"/>
<path d="M1004.74 314.691C896.477 201.2 977.796 137.534 930.641 48.9548C901.289 -5.85334 803.61 -87.2352 711.224 -13.0504C577.937 94.3513 710.261 265.419 641.934 357.32C596.222 418.771 518.271 352.891 471.116 419.325C425.404 484.098 510.573 587.071 446.095 634.128C416.743 655.166 398.458 685.615 397.977 728.797" stroke="url(#paint39_linear_46_9472)" stroke-width="0.25" stroke-miterlimit="10"/>
<path d="M1017.73 311.918C909.469 198.426 990.788 134.76 943.633 46.1813C914.281 -8.62678 816.602 -90.0086 724.216 -15.8239C590.93 91.5779 723.254 262.646 654.926 354.546C609.214 415.998 531.264 350.117 484.108 416.551C438.396 481.325 523.565 584.297 459.087 631.355C429.735 652.392 411.45 682.841 410.969 726.023" stroke="url(#paint40_linear_46_9472)" stroke-width="0.25" stroke-miterlimit="10"/>
<path d="M1030.73 308.613C922.462 195.121 1003.78 131.455 956.625 42.8766C927.273 -11.9315 829.594 -93.3131 737.208 -19.1284C603.922 88.2734 736.246 259.341 667.918 351.242C622.207 412.693 544.256 346.813 497.1 413.247C451.388 478.02 536.557 580.993 472.079 628.05C442.727 649.088 424.442 679.537 423.961 722.719" stroke="url(#paint41_linear_46_9472)" stroke-width="0.25" stroke-miterlimit="10"/>
<path d="M1043.24 304.738C934.977 191.246 1016.3 127.581 969.141 39.0017C939.789 -15.8064 842.11 -97.1882 749.724 -23.0035C616.437 84.3983 748.761 255.466 680.434 347.366C634.722 408.818 556.771 342.938 509.616 409.372C463.904 474.145 549.073 577.118 484.595 624.175C455.243 645.213 436.958 675.662 436.477 718.844" stroke="url(#paint42_linear_46_9472)" stroke-width="0.25" stroke-miterlimit="10"/>
<path d="M1054.79 300.308C946.524 186.817 1027.84 123.151 980.688 34.572C951.336 -20.2362 853.657 -101.618 761.271 -27.4331C627.984 79.9687 760.308 251.036 691.981 342.937C646.269 404.388 568.318 338.508 521.163 404.942C475.451 469.715 560.619 572.688 496.142 619.746C466.79 640.783 448.505 671.232 448.024 714.414" stroke="url(#paint43_linear_46_9472)" stroke-width="0.25" stroke-miterlimit="10"/>
<path d="M1066.33 295.308C958.063 181.817 1039.38 118.151 992.227 29.572C962.875 -25.2362 865.196 -106.618 772.81 -32.4333C639.523 74.9685 771.847 246.036 703.52 337.937C657.808 399.388 579.857 333.508 532.702 399.942C486.99 464.715 572.158 567.688 507.681 614.745C478.329 635.783 460.044 666.232 459.563 709.414" stroke="url(#paint44_linear_46_9472)" stroke-width="0.25" stroke-miterlimit="10"/>
<path d="M1077.4 289.23C969.133 175.739 1050.45 112.073 1003.3 23.4938C973.945 -31.3143 876.266 -112.696 783.88 -38.5112C650.594 68.8906 782.918 239.958 714.59 331.859C668.878 393.31 590.928 327.43 543.772 393.864C498.06 458.637 583.229 561.61 518.751 608.667C489.399 629.705 471.114 660.154 470.633 703.336" stroke="url(#paint45_linear_46_9472)" stroke-width="0.25" stroke-miterlimit="10"/>
<path d="M1087.98 283.144C979.712 169.653 1061.03 105.987 1013.88 17.4078C984.523 -37.4003 886.844 -118.782 794.458 -44.5972C661.172 62.8045 793.496 233.872 725.169 325.773C679.457 387.224 601.506 321.344 554.35 387.778C508.639 452.551 593.807 555.524 529.329 602.581C499.977 623.619 481.692 654.068 481.211 697.25" stroke="url(#paint46_linear_46_9472)" stroke-width="0.25" stroke-miterlimit="10"/>
<path d="M1098.09 276.496C989.829 163.004 1071.15 99.3383 1023.99 10.7595C994.641 -44.0486 896.961 -125.43 804.575 -51.2457C671.289 56.1561 803.613 227.224 735.286 319.124C689.574 380.576 611.623 314.695 564.468 381.13C518.756 445.903 603.924 548.876 539.446 595.933C510.094 616.971 491.81 647.419 491.328 690.602" stroke="url(#paint47_linear_46_9472)" stroke-width="0.25" stroke-miterlimit="10"/>
<path d="M1108.2 269.3C999.93 155.809 1081.25 92.1428 1034.09 3.56406C1004.74 -51.2441 907.063 -132.626 814.677 -58.441C681.391 48.9608 813.714 220.029 745.387 311.929C699.675 373.381 621.725 307.5 574.569 373.934C528.857 438.707 614.026 541.68 549.548 588.738C520.196 609.775 501.911 640.224 501.43 683.406" stroke="url(#paint48_linear_46_9472)" stroke-width="0.25" stroke-miterlimit="10"/>
<path d="M1117.82 261.558C1009.56 148.067 1090.87 84.4007 1043.72 -4.17804C1014.37 -58.9862 916.688 -140.368 824.302 -66.1831C691.016 41.2187 823.339 212.286 755.012 304.187C709.3 365.638 631.35 299.758 584.194 366.192C538.482 430.965 623.651 533.938 559.173 580.996C529.821 602.033 511.536 632.482 511.055 675.664" stroke="url(#paint49_linear_46_9472)" stroke-width="0.25" stroke-miterlimit="10"/>
<path d="M1127.45 253.793C1019.18 140.301 1100.5 76.6351 1053.34 -11.9437C1023.99 -66.7518 926.313 -148.134 833.927 -73.9489C700.641 33.4529 832.964 204.521 764.637 296.421C718.925 357.873 640.975 291.992 593.819 358.426C548.107 423.2 633.276 526.172 568.798 573.23C539.446 594.267 521.161 624.716 520.68 667.898" stroke="url(#paint50_linear_46_9472)" stroke-width="0.25" stroke-miterlimit="10"/>
<path d="M1136.1 245.488C1027.84 131.996 1109.16 68.3304 1062 -20.2484C1032.65 -75.0565 934.969 -156.438 842.583 -82.2536C709.297 25.1482 841.621 196.216 773.293 288.117C727.582 349.568 649.631 283.688 602.475 350.122C556.763 414.895 641.932 517.868 577.454 564.925C548.102 585.963 529.817 616.412 529.336 659.594" stroke="url(#paint51_linear_46_9472)" stroke-width="0.25" stroke-miterlimit="10"/>
<path d="M1145.24 236.644C1036.98 123.153 1118.3 59.4867 1071.14 -29.0921C1041.79 -83.9002 944.11 -165.282 851.724 -91.0971C718.437 16.3046 850.761 187.372 782.434 279.273C736.722 340.724 658.771 274.844 611.616 341.278C565.904 406.051 651.073 509.024 586.595 556.081C557.243 577.119 538.958 607.568 538.477 650.75" stroke="url(#paint52_linear_46_9472)" stroke-width="0.25" stroke-miterlimit="10"/>
<path d="M1153.91 227.238C1045.64 113.746 1126.96 50.0805 1079.8 -38.4983C1050.45 -93.3064 952.774 -174.688 860.388 -100.503C727.102 6.89828 859.425 177.966 791.098 269.866C745.386 331.318 667.435 265.438 620.28 331.872C574.568 396.645 659.737 499.618 595.259 546.675C565.907 567.713 547.622 598.162 547.141 641.344" stroke="url(#paint53_linear_46_9472)" stroke-width="0.25" stroke-miterlimit="10"/>
<path d="M1162.56 217.808C1054.3 104.317 1135.62 40.6507 1088.46 -47.928C1059.11 -102.736 961.43 -184.118 869.044 -109.933C735.758 -2.53149 868.082 168.536 799.754 260.437C754.043 321.888 676.092 256.008 628.936 322.442C583.224 387.215 668.393 490.188 603.915 537.246C574.563 558.283 556.278 588.732 555.797 631.914" stroke="url(#paint54_linear_46_9472)" stroke-width="0.25" stroke-miterlimit="10"/>
<path d="M1170.75 207.855C1062.48 94.3637 1143.8 30.6977 1096.65 -57.8811C1067.3 -112.689 969.618 -194.071 877.232 -119.886C743.945 -12.4845 876.269 158.583 807.942 250.484C762.23 311.935 684.279 246.055 637.124 312.489C591.412 377.262 676.58 480.235 612.103 527.292C582.751 548.33 564.466 578.779 563.985 621.961" stroke="url(#paint55_linear_46_9472)" stroke-width="0.25" stroke-miterlimit="10"/>
<path d="M1178.93 197.894C1070.66 84.4027 1151.98 20.7367 1104.83 -67.8421C1075.48 -122.65 977.797 -204.032 885.411 -129.847C752.125 -22.4454 884.449 148.622 816.122 240.523C770.41 301.974 692.459 236.094 645.303 302.528C599.592 367.301 684.76 470.274 620.282 517.331C590.93 538.369 572.646 568.818 572.164 612" stroke="url(#paint56_linear_46_9472)" stroke-width="0.25" stroke-miterlimit="10"/>
<path d="M1187.11 187.918C1078.84 74.4262 1160.16 10.7602 1113.01 -77.8186C1083.66 -132.627 985.977 -214.009 893.591 -139.824C760.305 -32.422 892.629 138.646 824.301 230.546C778.589 291.998 700.639 226.117 653.483 292.551C607.771 357.325 692.94 460.297 628.462 507.355C599.11 528.392 580.825 558.841 580.344 602.023" stroke="url(#paint57_linear_46_9472)" stroke-width="0.25" stroke-miterlimit="10"/>
<path d="M1195.29 177.41C1087.02 63.9184 1168.34 0.252379 1121.19 -88.3264C1091.84 -143.135 994.157 -224.516 901.771 -150.332C768.484 -42.9298 900.808 128.138 832.481 220.038C786.769 281.49 708.818 215.609 661.663 282.044C615.951 346.817 701.119 449.79 636.642 496.847C607.29 517.884 589.005 548.333 588.524 591.516" stroke="url(#paint58_linear_46_9472)" stroke-width="0.25" stroke-miterlimit="10"/>
<path d="M1202.98 166.879C1094.72 53.387 1176.04 -10.279 1128.88 -98.8578C1099.53 -153.666 1001.85 -235.048 909.466 -160.863C776.18 -53.4611 908.504 117.607 840.176 209.507C794.464 270.959 716.514 205.078 669.358 271.512C623.646 336.286 708.815 439.258 644.337 486.316C614.985 507.353 596.7 537.802 596.219 580.984" stroke="url(#paint59_linear_46_9472)" stroke-width="0.25" stroke-miterlimit="10"/>
<path d="M1211.17 155.808C1102.91 42.3166 1184.23 -21.3494 1137.07 -109.928C1107.72 -164.736 1010.04 -246.118 917.653 -171.933C784.367 -64.5314 916.691 106.536 848.364 198.437C802.652 259.888 724.701 194.008 677.546 260.442C631.834 325.215 717.002 428.188 652.524 475.245C623.173 496.283 604.888 526.732 604.407 569.914" stroke="url(#paint60_linear_46_9472)" stroke-width="0.25" stroke-miterlimit="10"/>
<path d="M1219.34 145.293C1111.08 31.801 1192.4 -31.865 1145.24 -120.444C1115.89 -175.252 1018.21 -256.634 925.825 -182.449C792.539 -75.047 924.863 96.0207 856.536 187.921C810.824 249.373 732.873 183.492 685.718 249.926C640.006 314.699 725.174 417.672 660.696 464.73C631.344 485.767 613.06 516.216 612.578 559.398" stroke="url(#paint61_linear_46_9472)" stroke-width="0.25" stroke-miterlimit="10"/>
<path d="M1227.04 134.214C1118.77 20.7229 1200.09 -42.9431 1152.94 -131.522C1123.59 -186.33 1025.91 -267.712 933.521 -193.527C800.234 -86.1252 932.558 84.9426 864.231 176.843C818.519 238.295 740.568 172.414 693.413 238.848C647.701 303.621 732.869 406.594 668.392 453.652C639.04 474.689 620.755 505.138 620.274 548.32" stroke="url(#paint62_linear_46_9472)" stroke-width="0.25" stroke-miterlimit="10"/>
<path d="M1235.23 123.152C1126.96 9.66039 1208.28 -54.0056 1161.13 -142.584C1131.77 -197.392 1034.09 -278.774 941.708 -204.589C808.422 -97.1877 940.746 73.8801 872.418 165.781C826.707 227.232 748.756 161.352 701.6 227.786C655.888 292.559 741.057 395.532 676.579 442.589C647.227 463.627 628.942 494.076 628.461 537.258" stroke="url(#paint63_linear_46_9472)" stroke-width="0.25" stroke-miterlimit="10"/>
<path d="M1243.4 112.074C1135.13 -1.41773 1216.45 -65.0837 1169.3 -153.663C1139.95 -208.471 1042.27 -289.852 949.88 -215.668C816.594 -108.266 948.918 62.8019 880.59 154.702C834.878 216.154 756.928 150.273 709.772 216.707C664.06 281.481 749.229 384.454 684.751 431.511C655.399 452.549 637.114 482.998 636.633 526.18" stroke="url(#paint64_linear_46_9472)" stroke-width="0.25" stroke-miterlimit="10"/>
<path d="M1252.07 101.004C1143.81 -12.488 1225.12 -76.154 1177.97 -164.733C1148.62 -219.541 1050.94 -300.923 958.552 -226.738C825.266 -119.336 957.589 51.7316 889.262 143.632C843.55 205.084 765.599 139.203 718.444 205.637C672.732 270.41 757.901 373.383 693.423 420.441C664.071 441.478 645.786 471.927 645.305 515.109" stroke="url(#paint65_linear_46_9472)" stroke-width="0.25" stroke-miterlimit="10"/>
<path d="M1260.25 89.9332C1151.98 -23.5584 1233.3 -87.2244 1186.15 -175.803C1156.8 -230.611 1059.12 -311.993 966.732 -237.808C833.445 -130.406 965.769 40.6613 897.442 132.562C851.73 194.013 773.779 128.133 726.624 194.567C680.912 259.34 766.08 362.313 701.603 409.37C672.251 430.408 653.966 460.857 653.485 504.039" stroke="url(#paint66_linear_46_9472)" stroke-width="0.25" stroke-miterlimit="10"/>
<path d="M1268.91 78.3004C1160.65 -35.1912 1241.97 -98.8572 1194.81 -187.436C1165.46 -242.244 1067.78 -323.626 975.396 -249.441C842.109 -142.039 974.433 29.0285 906.106 120.929C860.394 182.381 782.443 116.5 735.288 182.934C689.576 247.707 774.744 350.68 710.267 397.738C680.915 418.775 662.63 449.224 662.149 492.406" stroke="url(#paint67_linear_46_9472)" stroke-width="0.25" stroke-miterlimit="10"/>
<path d="M1278.05 67.7926C1169.78 -45.699 1251.1 -109.365 1203.95 -197.944C1174.59 -252.752 1076.91 -334.134 984.528 -259.949C851.242 -152.547 983.566 18.5207 915.239 110.421C869.527 171.873 791.576 105.992 744.421 172.426C698.709 237.199 783.877 340.172 719.399 387.23C690.048 408.267 671.763 438.716 671.282 481.898" stroke="url(#paint68_linear_46_9472)" stroke-width="0.25" stroke-miterlimit="10"/>
<path d="M1287.19 56.7223C1178.92 -56.7693 1260.24 -120.435 1213.09 -209.014C1183.73 -263.822 1086.06 -345.204 993.669 -271.019C860.383 -163.617 992.707 7.45038 924.379 99.3509C878.668 160.802 800.717 94.9218 753.561 161.356C707.849 226.129 793.018 329.102 728.54 376.16C699.188 397.197 680.903 427.646 680.422 470.828" stroke="url(#paint69_linear_46_9472)" stroke-width="0.25" stroke-miterlimit="10"/>
<path d="M1296.34 45.6441C1188.07 -67.8474 1269.39 -131.513 1222.23 -220.092C1192.88 -274.9 1095.2 -356.282 1002.82 -282.097C869.531 -174.695 1001.86 -3.62774 933.528 88.2727C887.816 149.724 809.865 83.8437 762.71 150.278C716.998 215.051 802.166 318.024 737.688 365.081C708.337 386.119 690.052 416.568 689.571 459.75" stroke="url(#paint70_linear_46_9472)" stroke-width="0.25" stroke-miterlimit="10"/>
<path d="M1305.96 35.1131C1197.7 -78.3785 1279.01 -142.044 1231.86 -230.623C1202.51 -285.431 1104.83 -366.813 1012.44 -292.628C879.156 -185.227 1011.48 -14.1588 943.153 77.7417C897.441 139.193 819.49 73.3126 772.335 139.747C726.623 204.52 811.791 307.493 747.313 354.55C717.962 375.588 699.677 406.037 699.196 449.219" stroke="url(#paint71_linear_46_9472)" stroke-width="0.25" stroke-miterlimit="10"/>
<path d="M1316.06 24.5974C1207.8 -88.8941 1289.12 -152.56 1241.96 -241.139C1212.61 -295.947 1114.93 -377.329 1022.54 -303.144C889.258 -195.742 1021.58 -24.6746 953.254 67.2259C907.543 128.677 829.592 62.797 782.436 129.231C736.724 194.004 821.893 296.977 757.415 344.035C728.063 365.072 709.778 395.521 709.297 438.703" stroke="url(#paint72_linear_46_9472)" stroke-width="0.25" stroke-miterlimit="10"/>
<path d="M1326.16 14.6285C1217.9 -98.863 1299.22 -162.529 1252.06 -251.108C1222.71 -305.916 1125.03 -387.298 1032.65 -313.113C899.359 -205.711 1031.68 -34.6434 963.356 57.2571C917.644 118.709 839.693 52.8282 792.538 119.262C746.826 184.036 831.994 287.008 767.517 334.066C738.165 355.103 719.88 385.552 719.399 428.734" stroke="url(#paint73_linear_46_9472)" stroke-width="0.25" stroke-miterlimit="10"/>
<path d="M1336.76 4.66774C1228.49 -108.824 1309.81 -172.49 1262.66 -261.069C1233.3 -315.877 1135.63 -397.259 1043.24 -323.074C909.953 -215.672 1042.28 -44.6041 973.95 47.2963C928.238 108.748 850.287 42.8673 803.132 109.301C757.42 174.075 842.588 277.048 778.11 324.105C748.758 345.142 730.474 375.591 729.993 418.773" stroke="url(#paint74_linear_46_9472)" stroke-width="0.25" stroke-miterlimit="10"/>
<path d="M1347.81 -5.28539C1239.55 -118.777 1320.87 -182.443 1273.71 -271.022C1244.36 -325.83 1146.68 -407.212 1054.29 -333.027C921.008 -225.625 1053.33 -54.5574 985.004 37.343C939.293 98.7946 861.342 32.9142 814.186 99.3483C768.474 164.121 853.643 267.094 789.165 314.152C759.813 335.189 741.528 365.638 741.047 408.82" stroke="url(#paint75_linear_46_9472)" stroke-width="0.25" stroke-miterlimit="10"/>
<path d="M1359.37 -14.7073C1251.1 -128.199 1332.42 -191.865 1285.27 -280.444C1255.91 -335.252 1158.23 -416.634 1065.85 -342.449C932.562 -235.047 1064.89 -63.9791 996.559 27.9213C950.847 89.3729 872.896 23.4923 825.741 89.9264C780.029 154.7 865.198 257.673 800.72 304.73C771.368 325.767 753.083 356.216 752.602 399.398" stroke="url(#paint76_linear_46_9472)" stroke-width="0.25" stroke-miterlimit="10"/>
<path d="M1370.91 -24.1293C1262.65 -137.621 1343.97 -201.287 1296.81 -289.866C1267.46 -344.674 1169.78 -426.055 1077.4 -351.871C944.109 -244.469 1076.43 -73.4012 1008.11 18.4993C962.394 79.9508 884.443 14.0704 837.288 80.5045C791.576 145.278 876.744 248.25 812.267 295.308C782.915 316.345 764.63 346.794 764.149 389.977" stroke="url(#paint77_linear_46_9472)" stroke-width="0.25" stroke-miterlimit="10"/>
<path d="M1383.42 -32.9651C1275.16 -146.457 1356.48 -210.123 1309.32 -298.701C1279.97 -353.51 1182.29 -434.891 1089.9 -360.707C956.617 -253.305 1088.94 -82.2371 1020.61 9.66336C974.902 71.1149 896.951 5.23449 849.796 71.6686C804.084 136.442 889.252 239.415 824.774 286.472C795.423 307.509 777.138 337.958 776.657 381.141" stroke="url(#paint78_linear_46_9472)" stroke-width="0.25" stroke-miterlimit="10"/>
<path d="M1396.42 -41.2698C1288.16 -154.761 1369.48 -218.427 1322.32 -307.006C1292.97 -361.814 1195.29 -443.196 1102.9 -369.011C969.617 -261.61 1101.94 -90.5418 1033.61 1.35867C987.902 62.8102 909.951 -3.0702 862.796 63.3639C817.084 128.137 902.252 231.11 837.774 278.167C808.423 299.205 790.138 329.654 789.657 372.836" stroke="url(#paint79_linear_46_9472)" stroke-width="0.25" stroke-miterlimit="10"/>
<path d="M1409.41 -49.5744C1301.14 -163.066 1382.46 -226.732 1335.3 -315.311C1305.95 -370.119 1208.27 -451.501 1115.89 -377.316C982.601 -269.914 1114.93 -98.8465 1046.6 -6.94602C1000.89 54.5055 922.935 -11.3749 875.78 55.0592C830.068 119.832 915.237 222.805 850.759 269.863C821.407 290.9 803.122 321.349 802.641 364.531" stroke="url(#paint80_linear_46_9472)" stroke-width="0.25" stroke-miterlimit="10"/>
<path d="M1423.37 -57.3402C1315.1 -170.832 1396.42 -234.498 1349.27 -323.077C1319.91 -377.885 1222.23 -459.266 1129.85 -385.082C996.562 -277.68 1128.89 -106.612 1060.56 -14.7116C1014.85 46.7399 936.896 -19.1405 889.741 47.2936C844.029 112.067 929.198 215.04 864.72 262.097C835.368 283.134 817.083 313.583 816.602 356.766" stroke="url(#paint81_linear_46_9472)" stroke-width="0.25" stroke-miterlimit="10"/>
<path d="M1437.8 -64.5432C1329.54 -178.035 1410.86 -241.701 1363.7 -330.28C1334.35 -385.088 1236.67 -466.469 1144.29 -392.285C1011 -284.883 1143.32 -113.815 1075 -21.9146C1029.28 39.5369 951.334 -26.3436 904.178 40.0904C858.467 104.864 943.635 207.837 879.157 254.894C849.805 275.932 831.521 306.38 831.039 349.562" stroke="url(#paint82_linear_46_9472)" stroke-width="0.25" stroke-miterlimit="10"/>
<path d="M1452.72 -71.1762C1344.45 -184.668 1425.77 -248.334 1378.62 -336.913C1349.27 -391.721 1251.59 -473.102 1159.2 -398.918C1025.91 -291.516 1158.24 -120.448 1089.91 -28.5476C1044.2 32.9039 966.248 -32.9764 919.093 33.4576C873.381 98.2309 958.549 201.204 894.071 248.261C864.719 269.299 846.435 299.748 845.953 342.93" stroke="url(#paint83_linear_46_9472)" stroke-width="0.25" stroke-miterlimit="10"/>
<path d="M1468.6 -77.8088C1360.34 -191.3 1441.66 -254.966 1394.5 -343.545C1365.15 -398.353 1267.47 -479.735 1175.08 -405.55C1041.8 -298.149 1174.12 -127.081 1105.79 -35.1804C1060.08 26.2711 982.131 -39.6093 934.975 26.8248C889.263 91.598 974.432 194.571 909.954 241.628C880.602 262.666 862.317 293.115 861.836 336.297" stroke="url(#paint84_linear_46_9472)" stroke-width="0.25" stroke-miterlimit="10"/>
<path d="M1484.95 -83.3479C1376.69 -196.839 1458.01 -260.505 1410.85 -349.084C1381.5 -403.892 1283.82 -485.274 1191.43 -411.089C1058.15 -303.688 1190.47 -132.62 1122.15 -40.7195C1076.43 20.7321 998.482 -45.1483 951.327 21.2858C905.615 86.059 990.783 189.032 926.306 236.089C896.954 257.127 878.669 287.576 878.188 330.758" stroke="url(#paint85_linear_46_9472)" stroke-width="0.25" stroke-miterlimit="10"/>
<path d="M1501.79 -88.3244C1393.52 -201.816 1474.84 -265.482 1427.69 -354.061C1398.34 -408.869 1300.66 -490.251 1208.27 -416.066C1074.98 -308.664 1207.31 -137.596 1138.98 -45.696C1093.27 15.7555 1015.32 -50.1249 968.163 16.3092C922.451 81.0824 1007.62 184.055 943.142 231.113C913.79 252.15 895.505 282.599 895.024 325.781" stroke="url(#paint86_linear_46_9472)" stroke-width="0.25" stroke-miterlimit="10"/>
<path d="M1518.16 -92.7621C1409.89 -206.254 1491.21 -269.92 1444.05 -358.498C1414.7 -413.307 1317.02 -494.688 1224.64 -420.503C1091.35 -313.102 1223.68 -142.034 1155.35 -50.1335C1109.64 11.318 1031.69 -54.5626 984.53 11.8715C938.818 76.6448 1023.99 179.618 959.509 226.675C930.157 247.713 911.872 278.162 911.391 321.344" stroke="url(#paint87_linear_46_9472)" stroke-width="0.25" stroke-miterlimit="10"/>
<path d="M1533.56 -96.0902C1425.3 -209.582 1506.62 -273.248 1459.46 -361.827C1430.11 -416.635 1332.43 -498.016 1240.04 -423.832C1106.76 -316.43 1239.08 -145.362 1170.75 -53.4616C1125.04 7.98989 1047.09 -57.8905 999.936 8.54357C954.224 73.3168 1039.39 176.29 974.915 223.347C945.563 244.384 927.278 274.833 926.797 318.016" stroke="url(#paint88_linear_46_9472)" stroke-width="0.25" stroke-miterlimit="10"/>
<path d="M1548.48 -98.2934C1440.21 -211.785 1521.53 -275.451 1474.38 -364.03C1445.02 -418.838 1347.34 -500.219 1254.96 -426.035C1121.67 -318.633 1254 -147.565 1185.67 -55.6648C1139.96 5.78676 1062.01 -60.0938 1014.85 6.34027C969.138 71.1135 1054.31 174.086 989.829 221.144C960.477 242.181 942.192 272.63 941.711 315.812" stroke="url(#paint89_linear_46_9472)" stroke-width="0.25" stroke-miterlimit="10"/>
<path d="M1563.38 -99.3948C1455.12 -212.886 1536.44 -276.552 1489.28 -365.131C1459.93 -419.939 1362.25 -501.321 1269.86 -427.136C1136.58 -319.735 1268.9 -148.667 1200.57 -56.7663C1154.86 4.6852 1076.91 -61.1952 1029.76 5.23888C984.045 70.0121 1069.21 172.985 1004.74 220.042C975.383 241.08 957.099 271.529 956.618 314.711" stroke="url(#paint90_linear_46_9472)" stroke-width="0.25" stroke-miterlimit="10"/>
<path d="M1577.83 -100.528C1469.56 -214.019 1550.88 -277.685 1503.73 -366.264C1474.37 -421.072 1376.7 -502.454 1284.31 -428.269C1151.02 -320.867 1283.35 -149.799 1215.02 -57.899C1169.31 3.55256 1091.36 -62.328 1044.2 4.10607C998.49 68.8793 1083.66 171.852 1019.18 218.91C989.829 239.947 971.544 270.396 971.063 313.578" stroke="url(#paint91_linear_46_9472)" stroke-width="0.25" stroke-miterlimit="10"/>
<path d="M1592.26 -99.9651C1483.99 -213.457 1565.31 -277.123 1518.16 -365.701C1488.8 -420.51 1391.13 -501.891 1298.74 -427.707C1165.45 -320.305 1297.78 -149.237 1229.45 -57.3366C1183.74 4.11489 1105.79 -61.7655 1058.63 4.66857C1012.92 69.4418 1098.09 172.415 1033.61 219.472C1004.26 240.509 985.974 270.958 985.493 314.141" stroke="url(#paint92_linear_46_9472)" stroke-width="0.25" stroke-miterlimit="10"/>
<path d="M1596.11 647.418C1487.84 533.926 1569.16 470.26 1522.01 381.681C1492.66 326.873 1394.98 245.491 1302.59 319.676C1169.3 427.078 1301.63 598.146 1233.3 690.046C1187.59 751.498 1109.64 685.617 1062.48 752.051C1016.77 816.825 1101.94 919.797 1037.46 966.855C1008.11 987.892 989.825 1018.34 989.344 1061.52" stroke="url(#paint93_linear_46_9472)" stroke-width="0.25" stroke-miterlimit="10"/>
<path d="M1584.56 652.957C1476.3 539.465 1557.62 475.799 1510.46 387.22C1481.11 332.412 1383.43 251.031 1291.04 325.215C1157.76 432.617 1290.08 603.685 1221.75 695.585C1176.04 757.037 1098.09 691.156 1050.94 757.59C1005.22 822.364 1090.39 925.337 1025.92 972.394C996.563 993.431 978.278 1023.88 977.797 1067.06" stroke="url(#paint94_linear_46_9472)" stroke-width="0.25" stroke-miterlimit="10"/>
<path d="M1573.01 657.394C1464.74 543.903 1546.06 480.237 1498.91 391.658C1469.55 336.85 1371.88 255.468 1279.49 329.653C1146.2 437.055 1278.53 608.122 1210.2 700.023C1164.49 761.474 1086.54 695.594 1039.38 762.028C993.67 826.801 1078.84 929.774 1014.36 976.831C985.008 997.869 966.724 1028.32 966.243 1071.5" stroke="url(#paint95_linear_46_9472)" stroke-width="0.25" stroke-miterlimit="10"/>
<path d="M1560.98 662.363C1452.72 548.871 1534.04 485.205 1486.88 396.627C1457.53 341.818 1359.85 260.437 1267.47 334.622C1134.18 442.023 1266.5 613.091 1198.18 704.991C1152.46 766.443 1074.51 700.563 1027.36 766.997C981.646 831.77 1066.81 934.743 1002.34 981.8C972.985 1002.84 954.7 1033.29 954.219 1076.47" stroke="url(#paint96_linear_46_9472)" stroke-width="0.25" stroke-miterlimit="10"/>
<path d="M1549.43 666.23C1441.16 552.739 1522.48 489.073 1475.33 400.494C1445.98 345.686 1348.3 264.304 1255.91 338.489C1122.62 445.89 1254.95 616.958 1186.62 708.859C1140.91 770.31 1062.96 704.43 1015.8 770.864C970.092 835.637 1055.26 938.61 990.782 985.667C961.43 1006.7 943.146 1037.15 942.664 1080.34" stroke="url(#paint97_linear_46_9472)" stroke-width="0.25" stroke-miterlimit="10"/>
<path d="M1537.41 670.129C1429.14 556.637 1510.46 492.971 1463.3 404.392C1433.95 349.584 1336.27 268.202 1243.89 342.387C1110.6 449.789 1242.93 620.857 1174.6 712.757C1128.89 774.209 1050.94 708.328 1003.78 774.762C958.068 839.536 1043.24 942.508 978.759 989.566C949.407 1010.6 931.122 1041.05 930.641 1084.23" stroke="url(#paint98_linear_46_9472)" stroke-width="0.25" stroke-miterlimit="10"/>
<path d="M1525.38 673.996C1417.11 560.504 1498.43 496.838 1451.27 408.259C1421.92 353.451 1324.24 272.07 1231.86 346.254C1098.57 453.656 1230.89 624.724 1162.57 716.624C1116.86 778.076 1038.9 712.195 991.749 778.63C946.037 843.403 1031.21 946.376 966.728 993.433C937.376 1014.47 919.091 1044.92 918.61 1088.1" stroke="url(#paint99_linear_46_9472)" stroke-width="0.25" stroke-miterlimit="10"/>
<path d="M1513.34 677.3C1405.08 563.809 1486.4 500.143 1439.24 411.564C1409.89 356.756 1312.21 275.374 1219.83 349.559C1086.54 456.961 1218.86 628.029 1150.54 719.929C1104.82 781.381 1026.87 715.5 979.718 781.934C934.006 846.707 1019.17 949.68 954.696 996.738C925.344 1017.78 907.06 1048.22 906.578 1091.41" stroke="url(#paint100_linear_46_9472)" stroke-width="0.25" stroke-miterlimit="10"/>
<path d="M1501.31 680.074C1393.05 566.582 1474.37 502.916 1427.21 414.338C1397.86 359.529 1300.18 278.148 1207.79 352.332C1074.51 459.734 1206.83 630.802 1138.5 722.702C1092.79 784.154 1014.84 718.273 967.686 784.708C921.974 849.481 1007.14 952.454 942.665 999.511C913.313 1020.55 895.028 1051 894.547 1094.18" stroke="url(#paint101_linear_46_9472)" stroke-width="0.25" stroke-miterlimit="10"/>
<path d="M1489.28 682.84C1381.02 569.348 1462.34 505.682 1415.18 417.103C1385.83 362.295 1288.15 280.913 1195.76 355.098C1062.48 462.5 1194.8 633.568 1126.47 725.468C1080.76 786.92 1002.81 721.039 955.655 787.473C909.943 852.246 995.112 955.219 930.634 1002.28C901.282 1023.31 882.997 1053.76 882.516 1096.95" stroke="url(#paint102_linear_46_9472)" stroke-width="0.25" stroke-miterlimit="10"/>
<path d="M1477.26 685.605C1368.99 572.114 1450.31 508.448 1403.16 419.869C1373.8 365.061 1276.13 283.679 1183.74 357.864C1050.45 465.265 1182.78 636.333 1114.45 728.234C1068.74 789.685 990.787 723.805 943.632 790.239C897.92 855.012 983.088 957.985 918.61 1005.04C889.258 1026.08 870.974 1056.53 870.493 1099.71" stroke="url(#paint103_linear_46_9472)" stroke-width="0.25" stroke-miterlimit="10"/>
<path d="M1464.74 687.84C1356.48 574.348 1437.8 510.682 1390.64 422.103C1361.29 367.295 1263.61 285.913 1171.22 360.098C1037.94 467.5 1170.26 638.568 1101.93 730.468C1056.22 791.92 978.271 726.039 931.116 792.473C885.404 857.246 970.573 960.219 906.095 1007.28C876.743 1028.31 858.458 1058.76 857.977 1101.95" stroke="url(#paint104_linear_46_9472)" stroke-width="0.25" stroke-miterlimit="10"/>
<path d="M1452.24 690.043C1343.98 576.551 1425.3 512.885 1378.14 424.306C1348.79 369.498 1251.11 288.116 1158.72 362.301C1025.44 469.703 1157.76 640.771 1089.43 732.671C1043.72 794.123 965.771 728.242 918.616 794.676C872.904 859.45 958.073 962.422 893.595 1009.48C864.243 1030.52 845.958 1060.97 845.477 1104.15" stroke="url(#paint105_linear_46_9472)" stroke-width="0.25" stroke-miterlimit="10"/>
<path d="M1439.73 691.715C1331.46 578.223 1412.78 514.557 1365.63 425.978C1336.27 371.17 1238.59 289.788 1146.21 363.973C1012.92 471.375 1145.25 642.443 1076.92 734.343C1031.21 795.795 953.256 729.914 906.1 796.348C860.388 861.121 945.557 964.094 881.079 1011.15C851.727 1032.19 833.442 1062.64 832.961 1105.82" stroke="url(#paint106_linear_46_9472)" stroke-width="0.25" stroke-miterlimit="10"/>
<path d="M1427.21 693.918C1318.95 580.426 1400.26 516.76 1353.11 428.181C1323.76 373.373 1226.08 291.991 1133.69 366.176C1000.41 473.578 1132.73 644.646 1064.4 736.546C1018.69 797.998 940.74 732.117 893.585 798.551C847.873 863.325 933.041 966.297 868.564 1013.35C839.212 1034.39 820.927 1064.84 820.446 1108.02" stroke="url(#paint107_linear_46_9472)" stroke-width="0.25" stroke-miterlimit="10"/>
<path d="M1414.7 695.582C1306.44 582.09 1387.76 518.424 1340.6 429.845C1311.25 375.037 1213.57 293.656 1121.18 367.84C987.898 475.242 1120.22 646.31 1051.9 738.21C1006.18 799.662 928.232 733.781 881.077 800.215C835.365 864.989 920.533 967.961 856.056 1015.02C826.704 1036.06 808.419 1066.51 807.938 1109.69" stroke="url(#paint108_linear_46_9472)" stroke-width="0.25" stroke-miterlimit="10"/>
<path d="M1401.71 697.254C1293.45 583.762 1374.76 520.096 1327.61 431.517C1298.26 376.709 1200.58 295.327 1108.19 369.512C974.906 476.914 1107.23 647.982 1038.9 739.882C993.191 801.334 915.24 735.453 868.085 801.887C822.373 866.661 907.541 969.633 843.063 1016.69C813.712 1037.73 795.427 1068.18 794.946 1111.36" stroke="url(#paint109_linear_46_9472)" stroke-width="0.25" stroke-miterlimit="10"/>
<path d="M1389.2 698.355C1280.94 584.864 1362.26 521.198 1315.1 432.619C1285.75 377.811 1188.07 296.429 1095.68 370.614C962.398 478.015 1094.72 649.083 1026.4 740.984C980.683 802.435 902.732 736.555 855.577 802.989C809.865 867.762 895.033 970.735 830.556 1017.79C801.204 1038.83 782.919 1069.28 782.438 1112.46" stroke="url(#paint110_linear_46_9472)" stroke-width="0.25" stroke-miterlimit="10"/>
<path d="M1376.21 700.019C1267.95 586.528 1349.26 522.862 1302.11 434.283C1272.76 379.475 1175.08 298.093 1082.69 372.278C949.406 479.68 1081.73 650.747 1013.4 742.648C967.691 804.099 889.74 738.219 842.585 804.653C796.873 869.426 882.041 972.399 817.563 1019.46C788.212 1040.49 769.927 1070.94 769.446 1114.12" stroke="url(#paint111_linear_46_9472)" stroke-width="0.25" stroke-miterlimit="10"/>
<path d="M1363.22 701.121C1254.95 587.629 1336.27 523.963 1289.12 435.384C1259.77 380.576 1162.09 299.195 1069.7 373.379C936.414 480.781 1068.74 651.849 1000.41 743.749C954.699 805.201 876.748 739.32 829.593 805.754C783.881 870.528 869.049 973.5 804.571 1020.56C775.219 1041.6 756.935 1072.04 756.453 1115.23" stroke="url(#paint112_linear_46_9472)" stroke-width="0.25" stroke-miterlimit="10"/>
<path d="M1350.22 702.785C1241.95 589.293 1323.27 525.627 1276.12 437.049C1246.77 382.24 1149.09 300.859 1056.7 375.043C923.414 482.445 1055.74 653.513 987.411 745.413C941.699 806.865 863.748 740.984 816.593 807.419C770.881 872.192 856.049 975.165 791.571 1022.22C762.219 1043.26 743.935 1073.71 743.454 1116.89" stroke="url(#paint113_linear_46_9472)" stroke-width="0.25" stroke-miterlimit="10"/>
<path d="M1337.23 703.886C1228.97 590.395 1310.29 526.729 1263.13 438.15C1233.78 383.342 1136.1 301.96 1043.72 376.145C910.43 483.547 1042.75 654.614 974.426 746.515C928.714 807.966 850.764 742.086 803.608 808.52C757.896 873.293 843.065 976.266 778.587 1023.32C749.235 1044.36 730.95 1074.81 730.469 1117.99" stroke="url(#paint114_linear_46_9472)" stroke-width="0.25" stroke-miterlimit="10"/>
<path d="M1323.76 704.988C1215.49 591.496 1296.81 527.83 1249.66 439.252C1220.3 384.444 1122.63 303.062 1030.24 377.246C896.953 484.648 1029.28 655.716 960.95 747.616C915.238 809.068 837.287 743.188 790.132 809.622C744.42 874.395 829.588 977.368 765.11 1024.43C735.759 1045.46 717.474 1075.91 716.993 1119.09" stroke="url(#paint115_linear_46_9472)" stroke-width="0.25" stroke-miterlimit="10"/>
<path d="M1310.77 706.113C1202.5 592.621 1283.82 528.956 1236.66 440.377C1207.31 385.569 1109.63 304.187 1017.25 378.372C883.961 485.773 1016.28 656.841 947.958 748.741C902.246 810.193 824.295 744.313 777.139 810.747C731.427 875.52 816.596 978.493 752.118 1025.55C722.766 1046.59 704.482 1077.04 704 1120.22" stroke="url(#paint116_linear_46_9472)" stroke-width="0.25" stroke-miterlimit="10"/>
<path d="M1297.3 707.754C1189.03 594.262 1270.35 530.596 1223.2 442.017C1193.84 387.209 1096.16 305.827 1003.78 380.012C870.492 487.414 1002.82 658.482 934.489 750.382C888.777 811.834 810.826 745.953 763.671 812.387C717.959 877.16 803.127 980.133 738.649 1027.19C709.298 1048.23 691.013 1078.68 690.532 1121.86" stroke="url(#paint117_linear_46_9472)" stroke-width="0.25" stroke-miterlimit="10"/>
<path d="M1283.83 708.886C1175.56 595.395 1256.88 531.729 1209.73 443.15C1180.37 388.342 1082.7 306.96 990.31 381.145C857.023 488.547 989.347 659.614 921.02 751.515C875.308 812.966 797.357 747.086 750.202 813.52C704.49 878.293 789.658 981.266 725.181 1028.32C695.829 1049.36 677.544 1079.81 677.063 1122.99" stroke="url(#paint118_linear_46_9472)" stroke-width="0.25" stroke-miterlimit="10"/>
<path d="M1270.35 710.535C1162.09 597.043 1243.41 533.377 1196.25 444.799C1166.9 389.99 1069.22 308.609 976.833 382.793C843.547 490.195 975.871 661.263 907.543 753.163C861.832 814.615 783.881 748.734 736.725 815.168C691.014 879.942 776.182 982.915 711.704 1029.97C682.352 1051.01 664.067 1081.46 663.586 1124.64" stroke="url(#paint119_linear_46_9472)" stroke-width="0.25" stroke-miterlimit="10"/>
<path d="M1256.88 711.652C1148.62 598.16 1229.94 534.495 1182.78 445.916C1153.43 391.108 1055.75 309.726 963.364 383.911C830.078 491.312 962.402 662.38 894.075 754.281C848.363 815.732 770.412 749.852 723.257 816.286C677.545 881.059 762.713 984.032 698.235 1031.09C668.883 1052.13 650.599 1082.58 650.118 1125.76" stroke="url(#paint120_linear_46_9472)" stroke-width="0.25" stroke-miterlimit="10"/>
<path d="M1242.92 713.3C1134.66 599.809 1215.98 536.143 1168.82 447.564C1139.47 392.756 1041.79 311.374 949.403 385.559C816.117 492.961 948.441 664.029 880.114 755.929C834.402 817.381 756.451 751.5 709.296 817.934C663.584 882.707 748.752 985.68 684.274 1032.74C654.923 1053.78 636.638 1084.22 636.157 1127.41" stroke="url(#paint121_linear_46_9472)" stroke-width="0.25" stroke-miterlimit="10"/>
<path d="M1229.45 714.957C1121.19 601.465 1202.51 537.799 1155.35 449.22C1126 394.412 1028.32 313.031 935.935 387.215C802.648 494.617 934.972 665.685 866.645 757.585C820.933 819.037 742.982 753.156 695.827 819.59C650.115 884.364 735.283 987.336 670.806 1034.39C641.454 1055.43 623.169 1085.88 622.688 1129.06" stroke="url(#paint122_linear_46_9472)" stroke-width="0.25" stroke-miterlimit="10"/>
<path d="M1204.44 718.285C1096.17 604.793 1177.49 541.127 1130.34 452.549C1100.98 397.74 1003.31 316.359 910.919 390.543C777.633 497.945 909.957 669.013 841.629 760.913C795.917 822.365 717.967 756.484 670.811 822.919C625.099 887.692 710.268 990.665 645.79 1037.72C616.438 1058.76 598.153 1089.21 597.672 1132.39" stroke="url(#paint123_linear_46_9472)" stroke-width="0.25" stroke-miterlimit="10"/>
<path d="M1179.9 723.261C1071.63 609.77 1152.95 546.104 1105.8 457.525C1076.45 402.717 978.766 321.335 886.38 395.52C753.094 502.922 885.418 673.989 817.09 765.89C771.378 827.341 693.428 761.461 646.272 827.895C600.56 892.668 685.729 995.641 621.251 1042.7C591.899 1063.74 573.614 1094.19 573.133 1137.37" stroke="url(#paint124_linear_46_9472)" stroke-width="0.25" stroke-miterlimit="10"/>
<path d="M1158.24 728.793C1049.98 615.301 1131.3 551.635 1084.14 463.056C1054.79 408.248 957.11 326.866 864.724 401.051C731.437 508.453 863.761 679.521 795.434 771.421C749.722 832.873 671.771 766.992 624.616 833.426C578.904 898.2 664.073 1001.17 599.595 1048.23C570.243 1069.27 551.958 1099.72 551.477 1142.9" stroke="url(#paint125_linear_46_9472)" stroke-width="0.25" stroke-miterlimit="10"/>
<path d="M1139.47 734.902C1031.2 621.41 1112.52 557.744 1065.37 469.166C1036.02 414.358 938.336 332.976 845.95 407.161C712.664 514.562 844.988 685.63 776.661 777.531C730.949 838.982 652.998 773.102 605.843 839.536C560.131 904.309 645.299 1007.28 580.821 1054.34C551.469 1075.38 533.185 1105.83 532.704 1149.01" stroke="url(#paint126_linear_46_9472)" stroke-width="0.25" stroke-miterlimit="10"/>
<path d="M1123.59 742.097C1015.32 628.606 1096.64 564.94 1049.48 476.361C1020.13 421.553 922.454 340.171 830.067 414.356C696.781 521.758 829.105 692.825 760.778 784.726C715.066 846.177 637.115 780.297 589.96 846.731C544.248 911.504 629.416 1014.48 564.939 1061.53C535.587 1082.57 517.302 1113.02 516.821 1156.2" stroke="url(#paint127_linear_46_9472)" stroke-width="0.25" stroke-miterlimit="10"/>
<path d="M1110.12 750.402C1001.86 636.91 1083.18 573.245 1036.02 484.666C1006.67 429.858 908.993 348.476 816.607 422.661C683.32 530.062 815.644 701.13 747.317 793.031C701.605 854.482 623.654 788.602 576.499 855.036C530.787 919.809 615.955 1022.78 551.478 1069.84C522.126 1090.88 503.841 1121.33 503.36 1164.51" stroke="url(#paint128_linear_46_9472)" stroke-width="0.25" stroke-miterlimit="10"/>
<path d="M1099.53 758.707C991.266 645.215 1072.59 581.549 1025.43 492.97C996.078 438.162 898.399 356.781 806.013 430.965C672.727 538.367 805.05 709.435 736.723 801.335C691.011 862.787 613.061 796.906 565.905 863.34C520.193 928.114 605.362 1031.09 540.884 1078.14C511.532 1099.18 493.247 1129.63 492.766 1172.81" stroke="url(#paint129_linear_46_9472)" stroke-width="0.25" stroke-miterlimit="10"/>
<path d="M1090.88 767.55C982.61 654.059 1063.93 590.393 1016.77 501.814C987.422 447.006 889.743 365.624 797.357 439.809C664.07 547.211 796.394 718.279 728.067 810.179C682.355 871.631 604.404 805.75 557.249 872.184C511.537 936.957 596.705 1039.93 532.228 1086.99C502.876 1108.03 484.591 1138.47 484.11 1181.66" stroke="url(#paint130_linear_46_9472)" stroke-width="0.25" stroke-miterlimit="10"/>
<path d="M1084.62 777.519C976.352 664.028 1057.67 600.362 1010.52 511.783C981.164 456.975 883.485 375.593 791.099 449.778C657.812 557.18 790.136 728.247 721.809 820.148C676.097 881.599 598.146 815.719 550.991 882.153C505.279 946.926 590.448 1049.9 525.97 1096.96C496.618 1117.99 478.333 1148.44 477.852 1191.62" stroke="url(#paint131_linear_46_9472)" stroke-width="0.25" stroke-miterlimit="10"/>
<path d="M1080.28 787.488C972.016 673.996 1053.34 610.33 1006.18 521.752C976.828 466.944 879.149 385.562 786.763 459.747C653.477 567.148 785.8 738.216 717.473 830.117C671.761 891.568 593.811 825.688 546.655 892.122C500.943 956.895 586.112 1059.87 521.634 1106.93C492.282 1127.96 473.997 1158.41 473.516 1201.59" stroke="url(#paint132_linear_46_9472)" stroke-width="0.25" stroke-miterlimit="10"/>
<path d="M1077.4 798.004C969.133 684.512 1050.45 620.846 1003.3 532.267C973.945 477.459 876.266 396.077 783.88 470.262C650.594 577.664 782.918 748.732 714.59 840.632C668.878 902.084 590.928 836.203 543.772 902.637C498.06 967.41 583.229 1070.38 518.751 1117.44C489.399 1138.48 471.114 1168.93 470.633 1212.11" stroke="url(#paint133_linear_46_9472)" stroke-width="0.25" stroke-miterlimit="10"/>
<path d="M1076.44 808.535C968.172 695.043 1049.49 631.377 1002.34 542.799C972.984 487.99 875.305 406.609 782.919 480.793C649.633 588.195 781.957 759.263 713.629 851.163C667.917 912.615 589.967 846.734 542.811 913.169C497.099 977.942 582.268 1080.91 517.79 1127.97C488.438 1149.01 470.153 1179.46 469.672 1222.64" stroke="url(#paint134_linear_46_9472)" stroke-width="0.25" stroke-miterlimit="10"/>
<path d="M1076.44 819.605C968.172 706.114 1049.49 642.448 1002.34 553.869C972.984 499.061 875.305 417.679 782.919 491.864C649.633 599.265 781.957 770.333 713.629 862.234C667.917 923.685 589.967 857.805 542.811 924.239C497.099 989.012 582.268 1091.98 517.79 1139.04C488.438 1160.08 470.153 1190.53 469.672 1233.71" stroke="url(#paint135_linear_46_9472)" stroke-width="0.25" stroke-miterlimit="10"/>
<path d="M1078.36 830.683C970.094 717.192 1051.41 653.526 1004.26 564.947C974.906 510.139 877.227 428.757 784.841 502.942C651.555 610.344 783.879 781.411 715.551 873.312C669.839 934.763 591.889 868.883 544.733 935.317C499.021 1000.09 584.19 1103.06 519.712 1150.12C490.36 1171.16 472.075 1201.61 471.594 1244.79" stroke="url(#paint136_linear_46_9472)" stroke-width="0.25" stroke-miterlimit="10"/>
<path d="M1080.77 842.293C972.501 728.801 1053.82 665.135 1006.66 576.556C977.312 521.748 879.633 440.366 787.247 514.551C653.961 621.953 786.285 793.021 717.958 884.921C672.246 946.373 594.295 880.492 547.139 946.926C501.428 1011.7 586.596 1114.67 522.118 1161.73C492.766 1182.77 474.482 1213.22 474 1256.4" stroke="url(#paint137_linear_46_9472)" stroke-width="0.25" stroke-miterlimit="10"/>
<path d="M1084.62 853.925C976.352 740.434 1057.67 676.768 1010.52 588.189C981.164 533.381 883.485 451.999 791.099 526.184C657.812 633.586 790.136 804.654 721.809 896.554C676.097 958.006 598.146 892.125 550.991 958.559C505.279 1023.33 590.448 1126.31 525.97 1173.36C496.618 1194.4 478.333 1224.85 477.852 1268.03" stroke="url(#paint138_linear_46_9472)" stroke-width="0.25" stroke-miterlimit="10"/>
<path d="M1088.95 865.535C980.68 752.043 1062 688.377 1014.84 599.799C985.492 544.99 887.813 463.609 795.427 537.793C662.141 645.195 794.464 816.263 726.137 908.163C680.425 969.615 602.475 903.734 555.319 970.168C509.607 1034.94 594.776 1137.91 530.298 1184.97C500.946 1206.01 482.661 1236.46 482.18 1279.64" stroke="url(#paint139_linear_46_9472)" stroke-width="0.25" stroke-miterlimit="10"/>
<path d="M1093.76 877.176C985.493 763.684 1066.81 700.018 1019.66 611.439C990.305 556.631 892.625 475.249 800.239 549.434C666.953 656.836 799.277 827.904 730.95 919.804C685.238 981.256 607.287 915.375 560.132 981.809C514.42 1046.58 599.588 1149.56 535.11 1196.61C505.759 1217.65 487.474 1248.1 486.993 1291.28" stroke="url(#paint140_linear_46_9472)" stroke-width="0.25" stroke-miterlimit="10"/>
<path d="M1099.05 888.8C990.79 775.309 1072.11 711.643 1024.95 623.064C995.601 568.256 897.922 486.874 805.536 561.059C672.25 668.461 804.574 839.529 736.247 931.429C690.535 992.881 612.584 927 565.428 993.434C519.717 1058.21 604.885 1161.18 540.407 1208.24C511.055 1229.28 492.771 1259.72 492.289 1302.91" stroke="url(#paint141_linear_46_9472)" stroke-width="0.25" stroke-miterlimit="10"/>
<path d="M1104.82 899.879C996.555 786.387 1077.87 722.721 1030.72 634.142C1001.37 579.334 903.688 497.952 811.302 572.137C678.016 679.539 810.339 850.607 742.012 942.507C696.3 1003.96 618.35 938.078 571.194 1004.51C525.482 1069.29 610.651 1172.26 546.173 1219.32C516.821 1240.35 498.536 1270.8 498.055 1313.98" stroke="url(#paint142_linear_46_9472)" stroke-width="0.25" stroke-miterlimit="10"/>
<path d="M1110.12 910.949C1001.86 797.457 1083.18 733.791 1036.02 645.213C1006.67 590.404 908.993 509.023 816.607 583.207C683.32 690.609 815.644 861.677 747.317 953.577C701.605 1015.03 623.654 949.149 576.499 1015.58C530.787 1080.36 615.955 1183.33 551.478 1230.39C522.126 1251.42 503.841 1281.87 503.36 1325.05" stroke="url(#paint143_linear_46_9472)" stroke-width="0.25" stroke-miterlimit="10"/>
<path d="M1115.89 922.019C1007.63 808.528 1088.94 744.862 1041.79 656.283C1012.44 601.475 914.758 520.093 822.372 594.278C689.086 701.68 821.41 872.747 753.083 964.648C707.371 1026.1 629.42 960.219 582.264 1026.65C536.552 1091.43 621.721 1194.4 557.243 1241.46C527.891 1262.49 509.607 1292.94 509.125 1336.12" stroke="url(#paint144_linear_46_9472)" stroke-width="0.25" stroke-miterlimit="10"/>
<path d="M1121.19 932.535C1012.92 819.043 1094.24 755.377 1047.09 666.799C1017.73 611.99 920.055 530.609 827.669 604.793C694.383 712.195 826.707 883.263 758.379 975.163C712.668 1036.61 634.717 970.734 587.561 1037.17C541.849 1101.94 627.018 1204.91 562.54 1251.97C533.188 1273.01 514.904 1303.46 514.422 1346.64" stroke="url(#paint145_linear_46_9472)" stroke-width="0.25" stroke-miterlimit="10"/>
<defs>
<linearGradient id="paint0_linear_46_9472" x1="608.171" y1="80.8195" x2="0.398905" y2="80.8195" gradientUnits="userSpaceOnUse">
<stop stop-color="white"/>
<stop offset="1" stop-color="white"/>
</linearGradient>
<linearGradient id="paint1_linear_46_9472" x1="608.171" y1="95.1945" x2="0.398905" y2="95.1945" gradientUnits="userSpaceOnUse">
<stop stop-color="white"/>
<stop offset="1" stop-color="white"/>
</linearGradient>
<linearGradient id="paint2_linear_46_9472" x1="608.655" y1="109.038" x2="0.88328" y2="109.038" gradientUnits="userSpaceOnUse">
<stop stop-color="white"/>
<stop offset="1" stop-color="white"/>
</linearGradient>
<linearGradient id="paint3_linear_46_9472" x1="610.1" y1="122.335" x2="2.32859" y2="122.335" gradientUnits="userSpaceOnUse">
<stop stop-color="white"/>
<stop offset="1" stop-color="white"/>
</linearGradient>
<linearGradient id="paint4_linear_46_9472" x1="612.507" y1="135.616" x2="4.73484" y2="135.616" gradientUnits="userSpaceOnUse">
<stop stop-color="white"/>
<stop offset="1" stop-color="white"/>
</linearGradient>
<linearGradient id="paint5_linear_46_9472" x1="614.913" y1="148.351" x2="7.14109" y2="148.351" gradientUnits="userSpaceOnUse">
<stop stop-color="white"/>
<stop offset="1" stop-color="white"/>
</linearGradient>
<linearGradient id="paint6_linear_46_9472" x1="618.757" y1="161.093" x2="10.9849" y2="161.093" gradientUnits="userSpaceOnUse">
<stop stop-color="white"/>
<stop offset="1" stop-color="white"/>
</linearGradient>
<linearGradient id="paint7_linear_46_9472" x1="622.608" y1="173.265" x2="14.8364" y2="173.265" gradientUnits="userSpaceOnUse">
<stop stop-color="white"/>
<stop offset="1" stop-color="white"/>
</linearGradient>
<linearGradient id="paint8_linear_46_9472" x1="627.421" y1="184.882" x2="19.6489" y2="184.882" gradientUnits="userSpaceOnUse">
<stop stop-color="white"/>
<stop offset="1" stop-color="white"/>
</linearGradient>
<linearGradient id="paint9_linear_46_9472" x1="633.194" y1="196.523" x2="25.4224" y2="196.523" gradientUnits="userSpaceOnUse">
<stop stop-color="white"/>
<stop offset="1" stop-color="white"/>
</linearGradient>
<linearGradient id="paint10_linear_46_9472" x1="638.968" y1="207.585" x2="31.1958" y2="207.585" gradientUnits="userSpaceOnUse">
<stop stop-color="white"/>
<stop offset="1" stop-color="white"/>
</linearGradient>
<linearGradient id="paint11_linear_46_9472" x1="645.702" y1="218.655" x2="37.9302" y2="218.655" gradientUnits="userSpaceOnUse">
<stop stop-color="white"/>
<stop offset="1" stop-color="white"/>
</linearGradient>
<linearGradient id="paint12_linear_46_9472" x1="652.921" y1="228.632" x2="45.1489" y2="228.632" gradientUnits="userSpaceOnUse">
<stop stop-color="white"/>
<stop offset="1" stop-color="white"/>
</linearGradient>
<linearGradient id="paint13_linear_46_9472" x1="660.624" y1="238.601" x2="52.852" y2="238.601" gradientUnits="userSpaceOnUse">
<stop stop-color="white"/>
<stop offset="1" stop-color="white"/>
</linearGradient>
<linearGradient id="paint14_linear_46_9472" x1="669.28" y1="248.007" x2="61.5083" y2="248.007" gradientUnits="userSpaceOnUse">
<stop stop-color="white"/>
<stop offset="1" stop-color="white"/>
</linearGradient>
<linearGradient id="paint15_linear_46_9472" x1="677.944" y1="257.413" x2="70.1723" y2="257.413" gradientUnits="userSpaceOnUse">
<stop stop-color="white"/>
<stop offset="1" stop-color="white"/>
</linearGradient>
<linearGradient id="paint16_linear_46_9472" x1="687.569" y1="266.28" x2="79.7973" y2="266.28" gradientUnits="userSpaceOnUse">
<stop stop-color="white"/>
<stop offset="1" stop-color="white"/>
</linearGradient>
<linearGradient id="paint17_linear_46_9472" x1="697.194" y1="274.585" x2="89.4223" y2="274.585" gradientUnits="userSpaceOnUse">
<stop stop-color="white"/>
<stop offset="1" stop-color="white"/>
</linearGradient>
<linearGradient id="paint18_linear_46_9472" x1="707.772" y1="282.327" x2="100.001" y2="282.327" gradientUnits="userSpaceOnUse">
<stop stop-color="white"/>
<stop offset="1" stop-color="white"/>
</linearGradient>
<linearGradient id="paint19_linear_46_9472" x1="718.366" y1="290.069" x2="110.594" y2="290.069" gradientUnits="userSpaceOnUse">
<stop stop-color="white"/>
<stop offset="1" stop-color="white"/>
</linearGradient>
<linearGradient id="paint20_linear_46_9472" x1="729.913" y1="296.734" x2="122.141" y2="296.734" gradientUnits="userSpaceOnUse">
<stop stop-color="white"/>
<stop offset="1" stop-color="white"/>
</linearGradient>
<linearGradient id="paint21_linear_46_9472" x1="741.46" y1="303.366" x2="133.688" y2="303.366" gradientUnits="userSpaceOnUse">
<stop stop-color="white"/>
<stop offset="1" stop-color="white"/>
</linearGradient>
<linearGradient id="paint22_linear_46_9472" x1="753.491" y1="310.007" x2="145.719" y2="310.007" gradientUnits="userSpaceOnUse">
<stop stop-color="white"/>
<stop offset="1" stop-color="white"/>
</linearGradient>
<linearGradient id="paint23_linear_46_9472" x1="765.999" y1="315.546" x2="158.227" y2="315.546" gradientUnits="userSpaceOnUse">
<stop stop-color="white"/>
<stop offset="1" stop-color="white"/>
</linearGradient>
<linearGradient id="paint24_linear_46_9472" x1="778.991" y1="321.085" x2="171.219" y2="321.085" gradientUnits="userSpaceOnUse">
<stop stop-color="white"/>
<stop offset="1" stop-color="white"/>
</linearGradient>
<linearGradient id="paint25_linear_46_9472" x1="792.46" y1="325.515" x2="184.688" y2="325.515" gradientUnits="userSpaceOnUse">
<stop stop-color="white"/>
<stop offset="1" stop-color="white"/>
</linearGradient>
<linearGradient id="paint26_linear_46_9472" x1="805.936" y1="329.944" x2="198.165" y2="329.944" gradientUnits="userSpaceOnUse">
<stop stop-color="white"/>
<stop offset="1" stop-color="white"/>
</linearGradient>
<linearGradient id="paint27_linear_46_9472" x1="819.897" y1="333.82" x2="212.125" y2="333.82" gradientUnits="userSpaceOnUse">
<stop stop-color="white"/>
<stop offset="1" stop-color="white"/>
</linearGradient>
<linearGradient id="paint28_linear_46_9472" x1="834.327" y1="337.687" x2="226.555" y2="337.687" gradientUnits="userSpaceOnUse">
<stop stop-color="white"/>
<stop offset="1" stop-color="white"/>
</linearGradient>
<linearGradient id="paint29_linear_46_9472" x1="848.765" y1="340.452" x2="240.993" y2="340.452" gradientUnits="userSpaceOnUse">
<stop stop-color="white"/>
<stop offset="1" stop-color="white"/>
</linearGradient>
<linearGradient id="paint30_linear_46_9472" x1="863.679" y1="342.663" x2="255.907" y2="342.663" gradientUnits="userSpaceOnUse">
<stop stop-color="white"/>
<stop offset="1" stop-color="white"/>
</linearGradient>
<linearGradient id="paint31_linear_46_9472" x1="879.077" y1="344.889" x2="271.305" y2="344.889" gradientUnits="userSpaceOnUse">
<stop stop-color="white"/>
<stop offset="1" stop-color="white"/>
</linearGradient>
<linearGradient id="paint32_linear_46_9472" x1="894.475" y1="346.546" x2="286.704" y2="346.546" gradientUnits="userSpaceOnUse">
<stop stop-color="white"/>
<stop offset="1" stop-color="white"/>
</linearGradient>
<linearGradient id="paint33_linear_46_9472" x1="909.874" y1="347.092" x2="302.102" y2="347.092" gradientUnits="userSpaceOnUse">
<stop stop-color="white"/>
<stop offset="1" stop-color="white"/>
</linearGradient>
<linearGradient id="paint34_linear_46_9472" x1="925.757" y1="347.655" x2="317.985" y2="347.655" gradientUnits="userSpaceOnUse">
<stop stop-color="white"/>
<stop offset="1" stop-color="white"/>
</linearGradient>
<linearGradient id="paint35_linear_46_9472" x1="941.624" y1="347.655" x2="333.852" y2="347.655" gradientUnits="userSpaceOnUse">
<stop stop-color="white"/>
<stop offset="1" stop-color="white"/>
</linearGradient>
<linearGradient id="paint36_linear_46_9472" x1="957.991" y1="347.092" x2="350.219" y2="347.092" gradientUnits="userSpaceOnUse">
<stop stop-color="white"/>
<stop offset="1" stop-color="white"/>
</linearGradient>
<linearGradient id="paint37_linear_46_9472" x1="974.35" y1="345.991" x2="366.579" y2="345.991" gradientUnits="userSpaceOnUse">
<stop stop-color="white"/>
<stop offset="1" stop-color="white"/>
</linearGradient>
<linearGradient id="paint38_linear_46_9472" x1="991.194" y1="344.319" x2="383.422" y2="344.319" gradientUnits="userSpaceOnUse">
<stop stop-color="white"/>
<stop offset="1" stop-color="white"/>
</linearGradient>
<linearGradient id="paint39_linear_46_9472" x1="1005.15" y1="342.663" x2="397.375" y2="342.663" gradientUnits="userSpaceOnUse">
<stop stop-color="white"/>
<stop offset="1" stop-color="white"/>
</linearGradient>
<linearGradient id="paint40_linear_46_9472" x1="1018.14" y1="339.89" x2="410.368" y2="339.89" gradientUnits="userSpaceOnUse">
<stop stop-color="white"/>
<stop offset="1" stop-color="white"/>
</linearGradient>
<linearGradient id="paint41_linear_46_9472" x1="1031.13" y1="336.585" x2="423.36" y2="336.585" gradientUnits="userSpaceOnUse">
<stop stop-color="white"/>
<stop offset="1" stop-color="white"/>
</linearGradient>
<linearGradient id="paint42_linear_46_9472" x1="1043.65" y1="332.71" x2="435.875" y2="332.71" gradientUnits="userSpaceOnUse">
<stop stop-color="white"/>
<stop offset="1" stop-color="white"/>
</linearGradient>
<linearGradient id="paint43_linear_46_9472" x1="1055.19" y1="328.28" x2="447.422" y2="328.28" gradientUnits="userSpaceOnUse">
<stop stop-color="white"/>
<stop offset="1" stop-color="white"/>
</linearGradient>
<linearGradient id="paint44_linear_46_9472" x1="1066.73" y1="323.28" x2="458.961" y2="323.28" gradientUnits="userSpaceOnUse">
<stop stop-color="white"/>
<stop offset="1" stop-color="white"/>
</linearGradient>
<linearGradient id="paint45_linear_46_9472" x1="1077.8" y1="317.202" x2="470.032" y2="317.202" gradientUnits="userSpaceOnUse">
<stop stop-color="white"/>
<stop offset="1" stop-color="white"/>
</linearGradient>
<linearGradient id="paint46_linear_46_9472" x1="1088.38" y1="311.116" x2="480.61" y2="311.116" gradientUnits="userSpaceOnUse">
<stop stop-color="white"/>
<stop offset="1" stop-color="white"/>
</linearGradient>
<linearGradient id="paint47_linear_46_9472" x1="1098.5" y1="304.468" x2="490.727" y2="304.468" gradientUnits="userSpaceOnUse">
<stop stop-color="white"/>
<stop offset="1" stop-color="white"/>
</linearGradient>
<linearGradient id="paint48_linear_46_9472" x1="1108.6" y1="297.273" x2="500.829" y2="297.273" gradientUnits="userSpaceOnUse">
<stop stop-color="white"/>
<stop offset="1" stop-color="white"/>
</linearGradient>
<linearGradient id="paint49_linear_46_9472" x1="1118.23" y1="289.53" x2="510.454" y2="289.53" gradientUnits="userSpaceOnUse">
<stop stop-color="white"/>
<stop offset="1" stop-color="white"/>
</linearGradient>
<linearGradient id="paint50_linear_46_9472" x1="1127.85" y1="281.765" x2="520.079" y2="281.765" gradientUnits="userSpaceOnUse">
<stop stop-color="white"/>
<stop offset="1" stop-color="white"/>
</linearGradient>
<linearGradient id="paint51_linear_46_9472" x1="1136.51" y1="273.46" x2="528.735" y2="273.46" gradientUnits="userSpaceOnUse">
<stop stop-color="white"/>
<stop offset="1" stop-color="white"/>
</linearGradient>
<linearGradient id="paint52_linear_46_9472" x1="1145.65" y1="264.616" x2="537.876" y2="264.616" gradientUnits="userSpaceOnUse">
<stop stop-color="white"/>
<stop offset="1" stop-color="white"/>
</linearGradient>
<linearGradient id="paint53_linear_46_9472" x1="1154.31" y1="255.21" x2="546.54" y2="255.21" gradientUnits="userSpaceOnUse">
<stop stop-color="white"/>
<stop offset="1" stop-color="white"/>
</linearGradient>
<linearGradient id="paint54_linear_46_9472" x1="1162.97" y1="245.78" x2="555.196" y2="245.78" gradientUnits="userSpaceOnUse">
<stop stop-color="white"/>
<stop offset="1" stop-color="white"/>
</linearGradient>
<linearGradient id="paint55_linear_46_9472" x1="1171.16" y1="235.827" x2="563.383" y2="235.827" gradientUnits="userSpaceOnUse">
<stop stop-color="white"/>
<stop offset="1" stop-color="white"/>
</linearGradient>
<linearGradient id="paint56_linear_46_9472" x1="1179.33" y1="225.866" x2="571.563" y2="225.866" gradientUnits="userSpaceOnUse">
<stop stop-color="white"/>
<stop offset="1" stop-color="white"/>
</linearGradient>
<linearGradient id="paint57_linear_46_9472" x1="1187.51" y1="215.89" x2="579.743" y2="215.89" gradientUnits="userSpaceOnUse">
<stop stop-color="white"/>
<stop offset="1" stop-color="white"/>
</linearGradient>
<linearGradient id="paint58_linear_46_9472" x1="1195.69" y1="205.382" x2="587.922" y2="205.382" gradientUnits="userSpaceOnUse">
<stop stop-color="white"/>
<stop offset="1" stop-color="white"/>
</linearGradient>
<linearGradient id="paint59_linear_46_9472" x1="1203.39" y1="194.851" x2="595.618" y2="194.851" gradientUnits="userSpaceOnUse">
<stop stop-color="white"/>
<stop offset="1" stop-color="white"/>
</linearGradient>
<linearGradient id="paint60_linear_46_9472" x1="1211.58" y1="183.78" x2="603.805" y2="183.78" gradientUnits="userSpaceOnUse">
<stop stop-color="white"/>
<stop offset="1" stop-color="white"/>
</linearGradient>
<linearGradient id="paint61_linear_46_9472" x1="1219.75" y1="173.265" x2="611.977" y2="173.265" gradientUnits="userSpaceOnUse">
<stop stop-color="white"/>
<stop offset="1" stop-color="white"/>
</linearGradient>
<linearGradient id="paint62_linear_46_9472" x1="1227.44" y1="162.187" x2="619.672" y2="162.187" gradientUnits="userSpaceOnUse">
<stop stop-color="white"/>
<stop offset="1" stop-color="white"/>
</linearGradient>
<linearGradient id="paint63_linear_46_9472" x1="1235.63" y1="151.124" x2="627.86" y2="151.124" gradientUnits="userSpaceOnUse">
<stop stop-color="white"/>
<stop offset="1" stop-color="white"/>
</linearGradient>
<linearGradient id="paint64_linear_46_9472" x1="1243.8" y1="140.046" x2="636.032" y2="140.046" gradientUnits="userSpaceOnUse">
<stop stop-color="white"/>
<stop offset="1" stop-color="white"/>
</linearGradient>
<linearGradient id="paint65_linear_46_9472" x1="1252.48" y1="128.976" x2="644.704" y2="128.976" gradientUnits="userSpaceOnUse">
<stop stop-color="white"/>
<stop offset="1" stop-color="white"/>
</linearGradient>
<linearGradient id="paint66_linear_46_9472" x1="1260.66" y1="117.905" x2="652.883" y2="117.905" gradientUnits="userSpaceOnUse">
<stop stop-color="white"/>
<stop offset="1" stop-color="white"/>
</linearGradient>
<linearGradient id="paint67_linear_46_9472" x1="1269.32" y1="106.273" x2="661.547" y2="106.273" gradientUnits="userSpaceOnUse">
<stop stop-color="white"/>
<stop offset="1" stop-color="white"/>
</linearGradient>
<linearGradient id="paint68_linear_46_9472" x1="1278.45" y1="95.7648" x2="670.68" y2="95.7648" gradientUnits="userSpaceOnUse">
<stop stop-color="white"/>
<stop offset="1" stop-color="white"/>
</linearGradient>
<linearGradient id="paint69_linear_46_9472" x1="1287.59" y1="84.6945" x2="679.821" y2="84.6945" gradientUnits="userSpaceOnUse">
<stop stop-color="white"/>
<stop offset="1" stop-color="white"/>
</linearGradient>
<linearGradient id="paint70_linear_46_9472" x1="1296.74" y1="73.6163" x2="688.969" y2="73.6163" gradientUnits="userSpaceOnUse">
<stop stop-color="white"/>
<stop offset="1" stop-color="white"/>
</linearGradient>
<linearGradient id="paint71_linear_46_9472" x1="1306.37" y1="63.0851" x2="698.594" y2="63.0851" gradientUnits="userSpaceOnUse">
<stop stop-color="white"/>
<stop offset="1" stop-color="white"/>
</linearGradient>
<linearGradient id="paint72_linear_46_9472" x1="1316.47" y1="52.5695" x2="708.696" y2="52.5695" gradientUnits="userSpaceOnUse">
<stop stop-color="white"/>
<stop offset="1" stop-color="white"/>
</linearGradient>
<linearGradient id="paint73_linear_46_9472" x1="1326.57" y1="42.6007" x2="718.797" y2="42.6007" gradientUnits="userSpaceOnUse">
<stop stop-color="white"/>
<stop offset="1" stop-color="white"/>
</linearGradient>
<linearGradient id="paint74_linear_46_9472" x1="1337.16" y1="32.6398" x2="729.391" y2="32.6398" gradientUnits="userSpaceOnUse">
<stop stop-color="white"/>
<stop offset="1" stop-color="white"/>
</linearGradient>
<linearGradient id="paint75_linear_46_9472" x1="1348.22" y1="22.6867" x2="740.446" y2="22.6867" gradientUnits="userSpaceOnUse">
<stop stop-color="white"/>
<stop offset="1" stop-color="white"/>
</linearGradient>
<linearGradient id="paint76_linear_46_9472" x1="1359.77" y1="13.2648" x2="752" y2="13.2648" gradientUnits="userSpaceOnUse">
<stop stop-color="white"/>
<stop offset="1" stop-color="white"/>
</linearGradient>
<linearGradient id="paint77_linear_46_9472" x1="1371.32" y1="3.84291" x2="763.547" y2="3.84291" gradientUnits="userSpaceOnUse">
<stop stop-color="white"/>
<stop offset="1" stop-color="white"/>
</linearGradient>
<linearGradient id="paint78_linear_46_9472" x1="1383.83" y1="-4.99303" x2="776.055" y2="-4.99303" gradientUnits="userSpaceOnUse">
<stop stop-color="white"/>
<stop offset="1" stop-color="white"/>
</linearGradient>
<linearGradient id="paint79_linear_46_9472" x1="1396.83" y1="-13.2977" x2="789.055" y2="-13.2977" gradientUnits="userSpaceOnUse">
<stop stop-color="white"/>
<stop offset="1" stop-color="white"/>
</linearGradient>
<linearGradient id="paint80_linear_46_9472" x1="1409.81" y1="-21.6024" x2="802.04" y2="-21.6024" gradientUnits="userSpaceOnUse">
<stop stop-color="white"/>
<stop offset="1" stop-color="white"/>
</linearGradient>
<linearGradient id="paint81_linear_46_9472" x1="1423.77" y1="-29.368" x2="816" y2="-29.368" gradientUnits="userSpaceOnUse">
<stop stop-color="white"/>
<stop offset="1" stop-color="white"/>
</linearGradient>
<linearGradient id="paint82_linear_46_9472" x1="1438.21" y1="-36.5712" x2="830.438" y2="-36.5712" gradientUnits="userSpaceOnUse">
<stop stop-color="white"/>
<stop offset="1" stop-color="white"/>
</linearGradient>
<linearGradient id="paint83_linear_46_9472" x1="1453.12" y1="-43.204" x2="845.352" y2="-43.204" gradientUnits="userSpaceOnUse">
<stop stop-color="white"/>
<stop offset="1" stop-color="white"/>
</linearGradient>
<linearGradient id="paint84_linear_46_9472" x1="1469.01" y1="-49.8368" x2="861.235" y2="-49.8368" gradientUnits="userSpaceOnUse">
<stop stop-color="white"/>
<stop offset="1" stop-color="white"/>
</linearGradient>
<linearGradient id="paint85_linear_46_9472" x1="1485.36" y1="-55.3758" x2="877.586" y2="-55.3758" gradientUnits="userSpaceOnUse">
<stop stop-color="white"/>
<stop offset="1" stop-color="white"/>
</linearGradient>
<linearGradient id="paint86_linear_46_9472" x1="1502.19" y1="-60.3524" x2="894.422" y2="-60.3524" gradientUnits="userSpaceOnUse">
<stop stop-color="white"/>
<stop offset="1" stop-color="white"/>
</linearGradient>
<linearGradient id="paint87_linear_46_9472" x1="1518.56" y1="-64.7899" x2="910.79" y2="-64.7899" gradientUnits="userSpaceOnUse">
<stop stop-color="white"/>
<stop offset="1" stop-color="white"/>
</linearGradient>
<linearGradient id="paint88_linear_46_9472" x1="1533.97" y1="-68.118" x2="926.196" y2="-68.118" gradientUnits="userSpaceOnUse">
<stop stop-color="white"/>
<stop offset="1" stop-color="white"/>
</linearGradient>
<linearGradient id="paint89_linear_46_9472" x1="1548.88" y1="-70.3212" x2="941.11" y2="-70.3212" gradientUnits="userSpaceOnUse">
<stop stop-color="white"/>
<stop offset="1" stop-color="white"/>
</linearGradient>
<linearGradient id="paint90_linear_46_9472" x1="1563.79" y1="-71.4227" x2="956.016" y2="-71.4227" gradientUnits="userSpaceOnUse">
<stop stop-color="white"/>
<stop offset="1" stop-color="white"/>
</linearGradient>
<linearGradient id="paint91_linear_46_9472" x1="1578.23" y1="-72.5555" x2="970.461" y2="-72.5555" gradientUnits="userSpaceOnUse">
<stop stop-color="white"/>
<stop offset="1" stop-color="white"/>
</linearGradient>
<linearGradient id="paint92_linear_46_9472" x1="1592.66" y1="-71.993" x2="984.891" y2="-71.993" gradientUnits="userSpaceOnUse">
<stop stop-color="white"/>
<stop offset="1" stop-color="white"/>
</linearGradient>
<linearGradient id="paint93_linear_46_9472" x1="1596.51" y1="675.39" x2="988.743" y2="675.39" gradientUnits="userSpaceOnUse">
<stop stop-color="white"/>
<stop offset="1" stop-color="white"/>
</linearGradient>
<linearGradient id="paint94_linear_46_9472" x1="1584.97" y1="680.929" x2="977.196" y2="680.929" gradientUnits="userSpaceOnUse">
<stop stop-color="white"/>
<stop offset="1" stop-color="white"/>
</linearGradient>
<linearGradient id="paint95_linear_46_9472" x1="1573.41" y1="685.366" x2="965.641" y2="685.366" gradientUnits="userSpaceOnUse">
<stop stop-color="white"/>
<stop offset="1" stop-color="white"/>
</linearGradient>
<linearGradient id="paint96_linear_46_9472" x1="1561.39" y1="690.335" x2="953.618" y2="690.335" gradientUnits="userSpaceOnUse">
<stop stop-color="white"/>
<stop offset="1" stop-color="white"/>
</linearGradient>
<linearGradient id="paint97_linear_46_9472" x1="1549.83" y1="694.202" x2="942.063" y2="694.202" gradientUnits="userSpaceOnUse">
<stop stop-color="white"/>
<stop offset="1" stop-color="white"/>
</linearGradient>
<linearGradient id="paint98_linear_46_9472" x1="1537.81" y1="698.101" x2="930.04" y2="698.101" gradientUnits="userSpaceOnUse">
<stop stop-color="white"/>
<stop offset="1" stop-color="white"/>
</linearGradient>
<linearGradient id="paint99_linear_46_9472" x1="1525.78" y1="701.967" x2="918.008" y2="701.967" gradientUnits="userSpaceOnUse">
<stop stop-color="white"/>
<stop offset="1" stop-color="white"/>
</linearGradient>
<linearGradient id="paint100_linear_46_9472" x1="1513.75" y1="705.273" x2="905.977" y2="705.273" gradientUnits="userSpaceOnUse">
<stop stop-color="white"/>
<stop offset="1" stop-color="white"/>
</linearGradient>
<linearGradient id="paint101_linear_46_9472" x1="1501.72" y1="708.046" x2="893.946" y2="708.046" gradientUnits="userSpaceOnUse">
<stop stop-color="white"/>
<stop offset="1" stop-color="white"/>
</linearGradient>
<linearGradient id="paint102_linear_46_9472" x1="1489.69" y1="710.812" x2="881.915" y2="710.812" gradientUnits="userSpaceOnUse">
<stop stop-color="white"/>
<stop offset="1" stop-color="white"/>
</linearGradient>
<linearGradient id="paint103_linear_46_9472" x1="1477.66" y1="713.577" x2="869.891" y2="713.577" gradientUnits="userSpaceOnUse">
<stop stop-color="white"/>
<stop offset="1" stop-color="white"/>
</linearGradient>
<linearGradient id="paint104_linear_46_9472" x1="1465.15" y1="715.811" x2="857.375" y2="715.811" gradientUnits="userSpaceOnUse">
<stop stop-color="white"/>
<stop offset="1" stop-color="white"/>
</linearGradient>
<linearGradient id="paint105_linear_46_9472" x1="1452.65" y1="718.015" x2="844.875" y2="718.015" gradientUnits="userSpaceOnUse">
<stop stop-color="white"/>
<stop offset="1" stop-color="white"/>
</linearGradient>
<linearGradient id="paint106_linear_46_9472" x1="1440.13" y1="719.687" x2="832.36" y2="719.687" gradientUnits="userSpaceOnUse">
<stop stop-color="white"/>
<stop offset="1" stop-color="white"/>
</linearGradient>
<linearGradient id="paint107_linear_46_9472" x1="1427.62" y1="721.89" x2="819.844" y2="721.89" gradientUnits="userSpaceOnUse">
<stop stop-color="white"/>
<stop offset="1" stop-color="white"/>
</linearGradient>
<linearGradient id="paint108_linear_46_9472" x1="1415.11" y1="723.554" x2="807.336" y2="723.554" gradientUnits="userSpaceOnUse">
<stop stop-color="white"/>
<stop offset="1" stop-color="white"/>
</linearGradient>
<linearGradient id="paint109_linear_46_9472" x1="1402.12" y1="725.226" x2="794.344" y2="725.226" gradientUnits="userSpaceOnUse">
<stop stop-color="white"/>
<stop offset="1" stop-color="white"/>
</linearGradient>
<linearGradient id="paint110_linear_46_9472" x1="1389.61" y1="726.327" x2="781.836" y2="726.327" gradientUnits="userSpaceOnUse">
<stop stop-color="white"/>
<stop offset="1" stop-color="white"/>
</linearGradient>
<linearGradient id="paint111_linear_46_9472" x1="1376.62" y1="727.991" x2="768.844" y2="727.991" gradientUnits="userSpaceOnUse">
<stop stop-color="white"/>
<stop offset="1" stop-color="white"/>
</linearGradient>
<linearGradient id="paint112_linear_46_9472" x1="1363.62" y1="729.093" x2="755.852" y2="729.093" gradientUnits="userSpaceOnUse">
<stop stop-color="white"/>
<stop offset="1" stop-color="white"/>
</linearGradient>
<linearGradient id="paint113_linear_46_9472" x1="1350.62" y1="730.757" x2="742.852" y2="730.757" gradientUnits="userSpaceOnUse">
<stop stop-color="white"/>
<stop offset="1" stop-color="white"/>
</linearGradient>
<linearGradient id="paint114_linear_46_9472" x1="1337.64" y1="731.859" x2="729.868" y2="731.859" gradientUnits="userSpaceOnUse">
<stop stop-color="white"/>
<stop offset="1" stop-color="white"/>
</linearGradient>
<linearGradient id="paint115_linear_46_9472" x1="1324.16" y1="732.96" x2="716.391" y2="732.96" gradientUnits="userSpaceOnUse">
<stop stop-color="white"/>
<stop offset="1" stop-color="white"/>
</linearGradient>
<linearGradient id="paint116_linear_46_9472" x1="1311.17" y1="734.085" x2="703.399" y2="734.085" gradientUnits="userSpaceOnUse">
<stop stop-color="white"/>
<stop offset="1" stop-color="white"/>
</linearGradient>
<linearGradient id="paint117_linear_46_9472" x1="1297.7" y1="735.726" x2="689.93" y2="735.726" gradientUnits="userSpaceOnUse">
<stop stop-color="white"/>
<stop offset="1" stop-color="white"/>
</linearGradient>
<linearGradient id="paint118_linear_46_9472" x1="1284.23" y1="736.859" x2="676.461" y2="736.859" gradientUnits="userSpaceOnUse">
<stop stop-color="white"/>
<stop offset="1" stop-color="white"/>
</linearGradient>
<linearGradient id="paint119_linear_46_9472" x1="1270.76" y1="738.507" x2="662.985" y2="738.507" gradientUnits="userSpaceOnUse">
<stop stop-color="white"/>
<stop offset="1" stop-color="white"/>
</linearGradient>
<linearGradient id="paint120_linear_46_9472" x1="1257.29" y1="739.624" x2="649.516" y2="739.624" gradientUnits="userSpaceOnUse">
<stop stop-color="white"/>
<stop offset="1" stop-color="white"/>
</linearGradient>
<linearGradient id="paint121_linear_46_9472" x1="1243.33" y1="741.273" x2="635.555" y2="741.273" gradientUnits="userSpaceOnUse">
<stop stop-color="white"/>
<stop offset="1" stop-color="white"/>
</linearGradient>
<linearGradient id="paint122_linear_46_9472" x1="1229.86" y1="742.929" x2="622.086" y2="742.929" gradientUnits="userSpaceOnUse">
<stop stop-color="white"/>
<stop offset="1" stop-color="white"/>
</linearGradient>
<linearGradient id="paint123_linear_46_9472" x1="1204.84" y1="746.256" x2="597.071" y2="746.256" gradientUnits="userSpaceOnUse">
<stop stop-color="white"/>
<stop offset="1" stop-color="white"/>
</linearGradient>
<linearGradient id="paint124_linear_46_9472" x1="1180.3" y1="751.234" x2="572.532" y2="751.234" gradientUnits="userSpaceOnUse">
<stop stop-color="white"/>
<stop offset="1" stop-color="white"/>
</linearGradient>
<linearGradient id="paint125_linear_46_9472" x1="1158.65" y1="756.765" x2="550.875" y2="756.765" gradientUnits="userSpaceOnUse">
<stop stop-color="white"/>
<stop offset="1" stop-color="white"/>
</linearGradient>
<linearGradient id="paint126_linear_46_9472" x1="1139.87" y1="762.874" x2="532.102" y2="762.874" gradientUnits="userSpaceOnUse">
<stop stop-color="white"/>
<stop offset="1" stop-color="white"/>
</linearGradient>
<linearGradient id="paint127_linear_46_9472" x1="1123.99" y1="770.069" x2="516.219" y2="770.069" gradientUnits="userSpaceOnUse">
<stop stop-color="white"/>
<stop offset="1" stop-color="white"/>
</linearGradient>
<linearGradient id="paint128_linear_46_9472" x1="1110.53" y1="778.374" x2="502.758" y2="778.374" gradientUnits="userSpaceOnUse">
<stop stop-color="white"/>
<stop offset="1" stop-color="white"/>
</linearGradient>
<linearGradient id="paint129_linear_46_9472" x1="1099.94" y1="786.679" x2="492.165" y2="786.679" gradientUnits="userSpaceOnUse">
<stop stop-color="white"/>
<stop offset="1" stop-color="white"/>
</linearGradient>
<linearGradient id="paint130_linear_46_9472" x1="1091.28" y1="795.523" x2="483.508" y2="795.523" gradientUnits="userSpaceOnUse">
<stop stop-color="white"/>
<stop offset="1" stop-color="white"/>
</linearGradient>
<linearGradient id="paint131_linear_46_9472" x1="1085.02" y1="805.491" x2="477.25" y2="805.491" gradientUnits="userSpaceOnUse">
<stop stop-color="white"/>
<stop offset="1" stop-color="white"/>
</linearGradient>
<linearGradient id="paint132_linear_46_9472" x1="1080.69" y1="815.46" x2="472.915" y2="815.46" gradientUnits="userSpaceOnUse">
<stop stop-color="white"/>
<stop offset="1" stop-color="white"/>
</linearGradient>
<linearGradient id="paint133_linear_46_9472" x1="1077.8" y1="825.976" x2="470.032" y2="825.976" gradientUnits="userSpaceOnUse">
<stop stop-color="white"/>
<stop offset="1" stop-color="white"/>
</linearGradient>
<linearGradient id="paint134_linear_46_9472" x1="1076.84" y1="836.507" x2="469.071" y2="836.507" gradientUnits="userSpaceOnUse">
<stop stop-color="white"/>
<stop offset="1" stop-color="white"/>
</linearGradient>
<linearGradient id="paint135_linear_46_9472" x1="1076.84" y1="847.577" x2="469.071" y2="847.577" gradientUnits="userSpaceOnUse">
<stop stop-color="white"/>
<stop offset="1" stop-color="white"/>
</linearGradient>
<linearGradient id="paint136_linear_46_9472" x1="1078.76" y1="858.655" x2="470.993" y2="858.655" gradientUnits="userSpaceOnUse">
<stop stop-color="white"/>
<stop offset="1" stop-color="white"/>
</linearGradient>
<linearGradient id="paint137_linear_46_9472" x1="1081.17" y1="870.265" x2="473.399" y2="870.265" gradientUnits="userSpaceOnUse">
<stop stop-color="white"/>
<stop offset="1" stop-color="white"/>
</linearGradient>
<linearGradient id="paint138_linear_46_9472" x1="1085.02" y1="881.898" x2="477.25" y2="881.898" gradientUnits="userSpaceOnUse">
<stop stop-color="white"/>
<stop offset="1" stop-color="white"/>
</linearGradient>
<linearGradient id="paint139_linear_46_9472" x1="1089.35" y1="893.507" x2="481.579" y2="893.507" gradientUnits="userSpaceOnUse">
<stop stop-color="white"/>
<stop offset="1" stop-color="white"/>
</linearGradient>
<linearGradient id="paint140_linear_46_9472" x1="1094.16" y1="905.148" x2="486.391" y2="905.148" gradientUnits="userSpaceOnUse">
<stop stop-color="white"/>
<stop offset="1" stop-color="white"/>
</linearGradient>
<linearGradient id="paint141_linear_46_9472" x1="1099.46" y1="916.773" x2="491.688" y2="916.773" gradientUnits="userSpaceOnUse">
<stop stop-color="white"/>
<stop offset="1" stop-color="white"/>
</linearGradient>
<linearGradient id="paint142_linear_46_9472" x1="1105.23" y1="927.851" x2="497.454" y2="927.851" gradientUnits="userSpaceOnUse">
<stop stop-color="white"/>
<stop offset="1" stop-color="white"/>
</linearGradient>
<linearGradient id="paint143_linear_46_9472" x1="1110.53" y1="938.921" x2="502.758" y2="938.921" gradientUnits="userSpaceOnUse">
<stop stop-color="white"/>
<stop offset="1" stop-color="white"/>
</linearGradient>
<linearGradient id="paint144_linear_46_9472" x1="1116.3" y1="949.991" x2="508.524" y2="949.991" gradientUnits="userSpaceOnUse">
<stop stop-color="white"/>
<stop offset="1" stop-color="white"/>
</linearGradient>
<linearGradient id="paint145_linear_46_9472" x1="1121.59" y1="960.507" x2="513.821" y2="960.507" gradientUnits="userSpaceOnUse">
<stop stop-color="white"/>
<stop offset="1" stop-color="white"/>
</linearGradient>
</defs>
</svg>
