<svg width="239" height="94" viewBox="0 0 239 94" fill="none" xmlns="http://www.w3.org/2000/svg">
<path d="M25.4296 32.1024C20.428 32.1024 15.4922 33.6185 11.2804 36.3871C7.06852 39.2216 3.84383 43.1767 1.93533 47.8569C0.0268373 52.5372 -0.499642 57.6129 0.48751 62.5568C1.47466 67.5007 3.90964 72.0491 7.46339 75.6087C11.0171 79.1683 15.558 81.6073 20.4938 82.5961C25.4296 83.5848 30.5628 83.0575 35.1695 81.1459C39.842 79.2342 43.7906 75.9383 46.6204 71.7854C49.3845 67.5666 50.8981 62.6886 50.8981 57.6129C50.8981 50.8233 48.1999 44.3632 43.4615 39.6171C38.6574 34.805 32.208 32.1024 25.4296 32.1024ZM25.4296 79.5638C21.0861 79.5638 16.8742 78.2454 13.2547 75.8724C9.63512 73.4334 6.8711 70.0056 5.16003 66.0505C3.51478 62.0294 3.05411 57.6129 3.90964 53.3941C4.76517 49.1094 6.87109 45.2202 9.89836 42.1879C12.9914 39.0898 16.8742 37.0463 21.0861 36.1893C25.3638 35.3324 29.7072 35.7938 33.7216 37.4418C37.7361 39.0898 41.1582 41.9243 43.5274 45.5498C45.9623 49.1753 47.2127 53.3941 47.2127 57.7447C47.2127 63.5456 44.9094 69.1487 40.7633 73.2356C36.8147 77.1907 31.2209 79.4979 25.4296 79.5638ZM37.7361 46.3408C37.5386 46.209 37.3412 46.1431 37.078 46.0771C36.8805 46.0112 36.6173 46.0112 36.354 46.0771C36.1566 46.1431 35.8934 46.209 35.6959 46.3408C35.4985 46.4726 35.3669 46.6045 35.2353 46.8022L20.8228 68.028L14.2418 60.9088C13.9128 60.5792 13.4521 60.3815 12.9914 60.3815C12.5308 60.3815 12.0701 60.5133 11.741 60.8429C11.412 61.1725 11.2146 61.568 11.1488 62.0294C11.1488 62.4909 11.2804 62.9523 11.6094 63.2819L19.7041 72.0491C19.9015 72.2468 20.0989 72.3787 20.2964 72.4446C20.4938 72.5764 20.757 72.5764 21.0203 72.5764C21.0861 72.5764 21.0861 72.5764 21.1519 72.5764C21.4151 72.5764 21.6784 72.4446 21.8758 72.3128C22.1391 72.1809 22.3365 71.9832 22.4681 71.7854L38.1309 48.7139C38.2625 48.5161 38.3283 48.3184 38.3942 48.0547C38.46 47.8569 38.46 47.5933 38.3942 47.3296C38.3283 47.1318 38.2625 46.8682 38.1309 46.6704C38.1309 46.6045 37.9335 46.4726 37.7361 46.3408ZM96.5045 42.7153C97.031 41.5947 97.2943 40.474 97.4259 39.2216H93.0166C92.885 39.8149 92.6875 40.4081 92.4243 41.0014C92.1611 41.5287 91.7662 41.9243 91.3055 42.3198C90.8449 42.7153 90.3842 42.979 89.7919 43.1767C89.1996 43.3745 88.6073 43.5063 87.9492 43.5063C87.1595 43.5063 86.3698 43.3086 85.6459 42.979C84.9219 42.5834 84.3297 42.0561 83.869 41.3969C83.3425 40.6059 82.9476 39.7489 82.7502 38.892C82.2237 36.7167 82.2237 34.4095 82.7502 32.2342C82.9476 31.3114 83.3425 30.5203 83.869 29.7293C84.3297 29.0701 84.9219 28.5428 85.6459 28.1473C86.3698 27.7517 87.1595 27.554 87.9492 27.6199C88.5415 27.6199 89.1996 27.7517 89.7261 27.9495C90.2526 28.1473 90.7791 28.4768 91.2397 28.8724C91.7004 29.2679 92.0294 29.7293 92.3585 30.2567C92.6875 30.8499 92.885 31.4432 92.9508 32.1024H97.3601C97.2943 30.9158 96.9652 29.6634 96.5045 28.6087C95.5174 26.4993 93.7405 24.8513 91.5688 23.9944C90.45 23.533 89.1996 23.3352 87.9492 23.3352C86.5014 23.3352 85.0536 23.5989 83.6716 24.1921C82.4212 24.7195 81.3024 25.5764 80.4469 26.6311C79.5255 27.7517 78.8674 29.0701 78.4067 30.5203C77.4854 33.8822 77.4854 37.4418 78.4067 40.8036C78.8016 42.1879 79.5255 43.5063 80.4469 44.6928C81.3024 45.7475 82.4212 46.6045 83.6716 47.1318C86.1723 48.1865 89.0022 48.2524 91.5688 47.3296C92.6217 46.9341 93.6089 46.3408 94.4644 45.5498C95.32 44.6269 96.0439 43.7041 96.5045 42.7153ZM116.708 45.4179C117.564 44.6269 118.222 43.77 118.683 42.7153C119.209 41.5947 119.472 40.474 119.604 39.2216H115.195C115.063 39.8149 114.866 40.4081 114.602 41.0014C114.339 41.5287 113.944 41.9243 113.549 42.3198C113.089 42.7153 112.628 42.979 112.036 43.1767C111.443 43.3745 110.851 43.5063 110.193 43.5063C109.403 43.5063 108.614 43.3086 107.89 42.979C107.166 42.5834 106.573 42.0561 106.113 41.3969C105.586 40.6059 105.257 39.7489 104.994 38.892C104.468 36.7167 104.468 34.4095 104.994 32.2342C105.191 31.3114 105.586 30.5203 106.113 29.7293C106.573 29.0701 107.166 28.5428 107.89 28.1473C108.614 27.7517 109.403 27.554 110.193 27.6199C110.785 27.6199 111.443 27.7517 111.97 27.9495C112.496 28.1473 113.023 28.4768 113.484 28.8724C113.944 29.2679 114.273 29.7293 114.602 30.2567C114.931 30.8499 115.129 31.4432 115.195 32.1024H119.604C119.538 30.9158 119.209 29.6634 118.748 28.6087C117.761 26.4993 115.984 24.8513 113.813 23.9944C112.694 23.533 111.443 23.3352 110.193 23.3352C108.745 23.3352 107.297 23.5989 105.915 24.1921C104.665 24.7195 103.546 25.5764 102.691 26.6311C101.769 27.7517 101.111 29.0701 100.651 30.5203C99.7292 33.8822 99.7292 37.4418 100.651 40.8036C101.045 42.1879 101.769 43.5063 102.691 44.6928C103.546 45.7475 104.665 46.6045 105.915 47.1318C108.416 48.1865 111.246 48.2524 113.813 47.3296C114.931 46.8022 115.919 46.209 116.708 45.4179ZM137.702 26.0379C137.044 25.3128 136.254 24.7854 135.333 24.3899C134.345 23.9944 133.358 23.7966 132.305 23.7966H123.223V47.1977H127.764V39.9467H132.042C133.095 39.9467 134.214 39.7489 135.201 39.3534C136.122 38.9579 136.978 38.4306 137.636 37.7055C138.36 36.9804 138.886 36.1234 139.215 35.1346C139.61 34.0799 139.808 32.9593 139.808 31.8387C139.808 30.7181 139.61 29.5975 139.281 28.5428C138.886 27.6199 138.36 26.763 137.702 26.0379ZM134.082 34.9369C133.227 35.662 132.174 36.0575 131.055 35.9916H127.764V27.8836H131.055C131.581 27.8177 132.174 27.9495 132.7 28.0813C133.227 28.2791 133.687 28.5428 134.148 28.8724C134.543 29.2679 134.806 29.7293 135.003 30.2567C135.201 30.784 135.267 31.3114 135.201 31.9046C135.267 32.432 135.135 33.0252 135.003 33.5526C134.74 34.014 134.477 34.5414 134.082 34.9369ZM153.496 23.7966H148.166L140.597 47.1977H145.401L146.652 42.7812H154.944L156.194 47.1977H160.999L153.496 23.7966ZM147.968 38.5624L150.864 28.6087L153.759 38.5624H147.968ZM84.9878 86.0898C84.198 86.0898 83.4083 85.892 82.6844 85.4965C82.0263 85.101 81.4998 84.5077 81.1708 83.8485C80.8417 83.0575 80.6443 82.2006 80.6443 81.3436V78.5091C80.5785 77.1907 80.9733 75.9383 81.7631 74.8836C82.1579 74.4221 82.6844 74.0926 83.2109 73.8289C83.7374 73.6311 84.3955 73.4993 84.9878 73.5652C85.58 73.5652 86.1723 73.6311 86.6988 73.8289C87.1595 73.9607 87.4885 74.2244 87.8176 74.554C88.0808 74.8177 88.2783 75.0813 88.4099 75.4109C88.5415 75.6746 88.6073 75.9383 88.6731 76.202H91.1739C91.1081 75.5428 90.9765 74.8836 90.6474 74.3562C90.3842 73.763 89.9235 73.2356 89.4628 72.8401C88.0808 71.7854 86.3698 71.258 84.6587 71.3899C82.9476 71.4558 81.3024 72.1809 79.9862 73.3015C78.7358 74.6858 78.0777 76.5975 78.1435 78.4432V81.3436C78.0777 83.2552 78.67 85.101 79.9862 86.5512C80.6443 87.2104 81.3682 87.7377 82.2237 88.0673C83.0793 88.3969 84.0006 88.5287 84.922 88.5287C86.5672 88.6606 88.2125 88.1332 89.5287 87.1444C90.0551 86.7489 90.45 86.2875 90.7132 85.6942C90.9765 85.101 91.1739 84.5077 91.2397 83.9144H88.7389C88.4099 85.3646 87.1595 86.0898 84.9878 86.0898ZM101.506 71.3899C100.585 71.3899 99.6634 71.5217 98.8079 71.8513C97.9524 72.1809 97.1626 72.7083 96.5045 73.3674C95.8464 74.0266 95.3199 74.8836 94.9909 75.8064C94.6618 76.7293 94.5302 77.6522 94.5302 78.6409V81.2777C94.4644 82.2665 94.596 83.1893 94.9251 84.1122C95.2541 85.0351 95.7806 85.892 96.4387 86.5512C97.8207 87.8036 99.5976 88.4628 101.506 88.4628C103.349 88.4628 105.191 87.8036 106.573 86.5512C107.232 85.8261 107.758 85.0351 108.087 84.1122C108.416 83.1893 108.548 82.2005 108.548 81.2777V78.6409C108.614 77.6522 108.482 76.7293 108.153 75.8064C107.824 74.8836 107.297 74.0926 106.639 73.3674C105.981 72.7083 105.191 72.2468 104.336 71.9172C103.349 71.4558 102.427 71.324 101.506 71.3899ZM106.047 80.9481C106.113 82.3324 105.718 83.7167 104.862 84.8373C104.468 85.2987 103.941 85.6942 103.349 85.9579C102.757 86.2216 102.164 86.2875 101.506 86.2875C100.651 86.2875 99.795 86.0898 99.0711 85.6283C98.3472 85.1669 97.8207 84.5736 97.4917 83.7826C97.0968 82.9257 96.8994 81.9369 96.9652 80.9481V78.9046C96.8994 77.5203 97.3601 76.136 98.2156 75.0813C98.6105 74.6199 99.1369 74.2244 99.7292 73.9607C100.322 73.697 100.914 73.5652 101.572 73.6311C102.164 73.6311 102.822 73.697 103.349 73.9607C103.941 74.2244 104.402 74.554 104.797 75.0813C105.652 76.202 106.113 77.5203 106.047 78.9705V80.9481ZM129.673 71.3899C128.554 71.324 127.435 71.6536 126.514 72.2468C125.724 72.7742 125.066 73.5652 124.671 74.4881H124.54C124.408 74.0266 124.211 73.6311 123.947 73.2356C123.355 72.4446 122.565 71.8513 121.644 71.5876C121.118 71.3899 120.525 71.324 119.933 71.324C117.63 71.324 116.116 72.3128 115.458 74.2244H115.326V71.5876H112.891V88.1332H115.326V77.4544C115.326 76.9271 115.392 76.3997 115.589 75.9383C115.787 75.4769 116.05 75.0154 116.379 74.6199C117.103 73.8948 118.09 73.4993 119.077 73.4993C120.065 73.4993 121.052 73.8289 121.776 74.554C122.105 74.9495 122.368 75.345 122.565 75.8064C122.763 76.2679 122.829 76.7952 122.763 77.2566V88.1332H125.198V77.4544C125.198 76.9271 125.264 76.3997 125.461 75.9383C125.658 75.4769 125.922 75.0154 126.317 74.6199C126.646 74.2244 127.106 73.9607 127.567 73.763C128.028 73.5652 128.554 73.4993 129.081 73.4993C129.541 73.4993 130.068 73.5652 130.528 73.697C130.989 73.8948 131.384 74.1585 131.779 74.4881C132.437 75.2132 132.766 76.136 132.7 77.1248V88.1991H135.201V76.5316C135.267 75.8064 135.135 75.1473 134.872 74.4881C134.609 73.8289 134.214 73.2356 133.753 72.7083C132.568 71.7854 131.186 71.258 129.673 71.3899ZM199.3 71.3899C196.668 71.3899 195.022 72.5105 194.298 74.6858H194.167V71.6536H191.732V88.1991H194.167V78.9046C194.101 77.5203 194.496 76.136 195.351 75.0154C195.746 74.4881 196.273 74.0926 196.865 73.8289C197.457 73.5652 198.115 73.4334 198.774 73.4993C199.3 73.4993 199.761 73.5652 200.287 73.697C200.748 73.8948 201.208 74.1585 201.538 74.4881C202.261 75.345 202.59 76.3997 202.525 77.5203V88.0673H205.025V76.7293C205.091 76.0042 204.96 75.2132 204.696 74.554C204.433 73.8289 204.038 73.2356 203.512 72.7083C202.261 71.7854 200.814 71.258 199.3 71.3899ZM180.544 71.3899C179.03 71.324 177.583 71.7195 176.332 72.4446C175.806 72.7742 175.411 73.2356 175.082 73.8289C174.753 74.3562 174.621 75.0154 174.555 75.6087H176.925C177.319 74.2903 178.504 73.6311 180.412 73.6311C181.4 73.5652 182.321 73.8289 183.111 74.4221C183.44 74.7517 183.703 75.0813 183.9 75.5428C184.098 75.9383 184.164 76.3997 184.098 76.8611V78.575H179.689C178.57 78.575 177.517 78.7728 176.53 79.1683C175.74 79.4979 175.016 80.0911 174.555 80.8822C174.095 81.6732 173.897 82.5302 173.897 83.3871C173.897 84.1122 174.029 84.8373 174.292 85.4965C174.555 86.0897 174.884 86.6171 175.411 87.0785C175.937 87.54 176.464 87.8695 177.122 88.1332C177.846 88.3969 178.57 88.5287 179.294 88.5287C180.215 88.5947 181.202 88.3969 182.058 87.9355C182.913 87.474 183.637 86.8149 184.098 86.0238H184.164V88.2651H186.599V76.927C186.664 76.136 186.533 75.4109 186.27 74.6858C186.006 73.9607 185.546 73.3015 184.953 72.8401C183.637 71.7854 182.124 71.324 180.544 71.3899ZM184.098 82.5301C184.098 83.0575 184.032 83.5189 183.769 84.0463C183.571 84.5077 183.242 84.9032 182.847 85.2987C182.058 86.0238 180.939 86.4193 179.886 86.3534C179.03 86.3534 178.175 86.0897 177.451 85.5624C177.122 85.2987 176.925 84.9691 176.727 84.6395C176.53 84.3099 176.464 83.9144 176.464 83.5189C176.464 83.1234 176.53 82.7279 176.661 82.3983C176.793 82.0028 176.99 81.6732 177.254 81.4095C177.978 80.8822 178.833 80.5526 179.754 80.6844H184.098V82.5301ZM216.016 86.0898C215.226 86.0898 214.436 85.892 213.712 85.4965C213.054 85.101 212.528 84.5077 212.199 83.8485C211.87 83.0575 211.672 82.2006 211.672 81.3436V78.5091C211.607 77.1907 212.001 75.9383 212.791 74.8836C213.186 74.4221 213.712 74.0926 214.239 73.8289C214.765 73.6311 215.423 73.4993 216.016 73.5652C216.608 73.5652 217.2 73.6311 217.727 73.8289C218.188 73.9607 218.517 74.2244 218.846 74.554C219.043 74.8177 219.24 75.0813 219.438 75.4109C219.57 75.6746 219.635 75.9383 219.701 76.202H222.202C222.136 75.5428 222.005 74.8836 221.675 74.3562C221.412 73.763 220.952 73.2356 220.491 72.8401C219.109 71.7854 217.398 71.258 215.687 71.3899C213.976 71.4558 212.33 72.1809 211.014 73.3015C209.764 74.6858 209.106 76.5975 209.172 78.4432V81.3436C209.106 83.2552 209.698 85.101 211.014 86.5512C211.672 87.2104 212.396 87.7377 213.252 88.0673C214.107 88.3969 215.029 88.5287 215.95 88.5287C217.595 88.6606 219.24 88.1332 220.557 87.1444C221.083 86.7489 221.478 86.2875 221.741 85.6942C222.005 85.101 222.202 84.5077 222.268 83.9144H219.767C219.438 85.3646 218.122 86.0898 216.016 86.0898ZM238.984 80.5526V78.5091C239.049 77.5863 238.918 76.5975 238.589 75.7405C238.26 74.8177 237.799 74.0266 237.141 73.3015C235.825 72.0491 234.114 71.324 232.271 71.324C230.494 71.324 228.717 72.0491 227.401 73.3015C226.743 74.0266 226.282 74.8177 225.953 75.7405C225.624 76.6634 225.492 77.5863 225.558 78.5091V81.2118C225.427 83.1234 226.085 85.035 227.401 86.4853C228.059 87.1444 228.849 87.6718 229.704 88.0014C230.56 88.331 231.481 88.4628 232.468 88.4628C233.39 88.4628 234.245 88.331 235.101 88.0673C235.825 87.8696 236.483 87.474 237.009 87.0126C237.47 86.6171 237.865 86.1557 238.194 85.6942C238.457 85.2987 238.654 84.7714 238.72 84.3099H236.088C235.89 84.9032 235.43 85.4306 234.837 85.6942C234.114 86.0898 233.258 86.2875 232.403 86.2875C231.81 86.2875 231.218 86.2216 230.626 85.9579C230.033 85.6942 229.573 85.3646 229.178 84.9032C228.388 83.9144 227.993 82.7279 227.993 81.4755V80.6185H238.984V80.5526ZM227.993 78.3773C227.927 77.1248 228.322 75.8724 229.178 74.8836C229.573 74.4221 230.033 74.0926 230.56 73.8948C231.086 73.697 231.679 73.5652 232.205 73.5652C232.995 73.5652 233.785 73.763 234.443 74.1585C235.101 74.554 235.627 75.1473 235.956 75.8724C236.351 76.6634 236.483 77.5203 236.483 78.4432V78.7069H227.993V78.3773ZM166.79 88.1991H169.291V71.6536H166.79V88.1991ZM158.629 88.1991H161.13V65.5231H158.629V88.1991ZM167.974 64.6003C167.711 64.6003 167.514 64.6662 167.25 64.7321C167.053 64.798 166.79 64.9299 166.658 65.1276C166.461 65.3254 166.329 65.5231 166.263 65.7209C166.198 65.9186 166.132 66.1823 166.132 66.446C166.132 66.7097 166.198 66.9074 166.263 67.1711C166.329 67.3689 166.527 67.6325 166.658 67.7644C166.856 67.9621 167.053 68.094 167.25 68.1599C167.448 68.2258 167.711 68.2917 167.974 68.2917C168.303 68.2917 168.632 68.2258 168.896 68.094C169.159 67.9621 169.422 67.6984 169.554 67.4348C169.751 67.1052 169.817 66.7756 169.817 66.446C169.817 66.1823 169.751 65.9846 169.685 65.7209C169.62 65.5231 169.488 65.2595 169.291 65.1276C169.093 64.9299 168.896 64.798 168.698 64.7321C168.501 64.6662 168.238 64.6003 167.974 64.6003ZM147.771 71.3899C146.652 71.324 145.533 71.6536 144.546 72.2468C143.756 72.7083 143.164 73.4334 142.835 74.2903H142.703V71.6536H140.334V94H142.835V85.7602H142.967C143.756 87.6059 145.336 88.4628 147.705 88.4628C148.56 88.5287 149.482 88.331 150.271 88.0014C151.061 87.6718 151.785 87.2104 152.443 86.5512C153.694 85.101 154.286 83.3212 154.22 81.4095V78.3773C154.352 76.5315 153.694 74.6858 152.509 73.2356C151.917 72.5764 151.193 72.115 150.403 71.7854C149.482 71.4558 148.626 71.324 147.771 71.3899ZM151.653 80.8163C151.785 82.2665 151.324 83.7167 150.469 84.8373C150.074 85.2987 149.613 85.6283 149.021 85.892C148.495 86.1557 147.902 86.2216 147.31 86.2216C146.718 86.2216 146.125 86.1557 145.533 85.892C144.941 85.6942 144.48 85.2987 144.019 84.9032C143.625 84.4418 143.296 83.9144 143.098 83.3871C142.901 82.7938 142.769 82.2005 142.835 81.6073V78.5091C142.769 77.1907 143.164 75.8724 144.019 74.8836C144.414 74.4221 144.941 74.0926 145.467 73.8289C146.06 73.6311 146.652 73.4993 147.244 73.4993C147.836 73.4993 148.495 73.5652 149.021 73.8289C149.613 74.0926 150.074 74.4221 150.469 74.8836C151.324 76.0701 151.719 77.4544 151.653 78.9046V80.8163ZM228.651 53.8555C229.902 53.8555 231.086 53.3282 232.008 52.4712C232.863 51.6143 233.39 50.3618 233.39 49.1094V25.3787C233.39 24.1262 232.863 22.9397 232.008 22.0168C231.152 21.1599 229.902 20.6325 228.651 20.6325H227.927C227.993 20.1052 228.059 19.5119 228.059 18.9846V14.2384C228.059 10.4811 226.545 6.85553 223.913 4.15287C221.281 1.51612 217.661 0 213.844 0H207.987C204.236 0 200.616 1.51612 197.918 4.15287C195.286 6.78961 193.772 10.4151 193.772 14.2384V18.9846C193.772 19.5119 193.838 20.1052 193.904 20.6325H193.114C191.863 20.6325 190.679 21.1599 189.758 22.0168C188.902 22.8738 188.376 24.1262 188.376 25.3787V49.1094C188.376 50.3618 188.902 51.5484 189.758 52.4712C190.613 53.3282 191.863 53.8555 193.114 53.8555H228.651ZM213.844 38.3647V45.2202C213.844 46.0112 213.515 46.7363 212.989 47.3296C212.462 47.8569 211.672 48.1865 210.883 48.1865C210.093 48.1865 209.369 47.8569 208.777 47.3296C208.25 46.8022 207.921 46.0112 207.921 45.2202V38.3647C206.802 37.7055 205.881 36.7167 205.42 35.5301C204.894 34.3436 204.828 32.9593 205.157 31.7069C205.486 30.4544 206.21 29.3338 207.263 28.5428C208.316 27.7517 209.566 27.2903 210.883 27.2903C212.199 27.2903 213.449 27.7517 214.502 28.5428C215.555 29.3338 216.279 30.4544 216.608 31.7069C216.937 32.9593 216.871 34.2777 216.345 35.5301C215.818 36.6508 214.963 37.7055 213.844 38.3647ZM198.51 14.2384C198.51 11.7335 199.497 9.29453 201.274 7.51472C203.051 5.73492 205.486 4.74614 207.987 4.74614H213.844C216.345 4.74614 218.78 5.73492 220.557 7.51472C222.334 9.29453 223.321 11.7335 223.321 14.2384V18.9846C223.321 19.5119 223.255 20.1052 223.189 20.6325H198.708C198.576 20.1052 198.576 19.5119 198.576 18.9846V14.2384H198.51Z" fill="white"/>
</svg>
