<svg width="145" height="147" viewBox="0 0 145 147" fill="none" xmlns="http://www.w3.org/2000/svg">
<path d="M72.0876 21.3828C100.242 21.4095 123.041 44.254 123.015 72.4079C122.988 100.562 100.144 123.362 71.9896 123.335C43.8713 123.308 21.0833 100.517 21.0625 72.396C21.0358 44.248 43.8298 21.4095 71.9777 21.3828C72.0134 21.3828 72.049 21.3828 72.0876 21.3828ZM54.9506 98.5336C66.0031 94.605 78.0741 94.602 89.1296 98.5277L90.7183 92.5501C91.4518 92.5501 92.1229 92.5322 92.7999 92.556C93.4978 92.4996 94.1986 92.5382 94.8845 92.6778C94.4064 95.1573 93.8036 97.6131 93.0731 100.03C94.9558 101.07 96.8266 102.011 98.6053 103.104C100.384 104.194 102.068 105.423 103.787 106.59C124.455 87.6504 123.166 55.4371 103.707 38.0833C100.423 40.6668 96.8444 42.8553 93.0464 44.5984C93.768 47.1552 94.4569 49.605 94.9112 52.1321H90.6797C90.4213 51.1135 90.1868 50.1395 89.9284 49.1744C89.7057 48.1648 89.4117 47.176 89.0435 46.2109C78.0147 50.1187 65.9763 50.1128 54.9506 46.1931L53.3559 52.1885C52.6225 52.1885 51.9454 52.1915 51.2713 52.1885C50.5824 52.1826 49.8935 52.1707 49.0739 52.1588L50.9952 44.5776C47.2061 42.8405 43.6397 40.6579 40.3703 38.0685C19.8331 56.7972 20.6973 89.0074 40.3703 106.631C43.6635 104.045 47.2477 101.854 51.0486 100.104C50.2855 97.6309 49.653 95.1157 49.157 92.5768H53.3767L54.9506 98.5336ZM87.6656 42.2317C87.6419 42.0654 87.6062 41.9021 87.5617 41.7388C86.267 38.2496 84.4912 34.9594 82.2908 31.9602C80.8744 29.9914 79.0867 28.3166 77.0289 27.0308C74.1573 25.1689 70.49 25.068 67.5205 26.7695C65.6111 27.8415 63.9274 29.2728 62.5644 30.9862C60.3729 33.6944 58.5882 36.7084 57.2608 39.9304C56.949 40.652 56.664 41.3854 56.3314 42.1991C66.4604 45.8337 77.5337 45.8456 87.6656 42.2317ZM56.3819 102.486C56.4531 102.73 56.4828 102.872 56.5333 103.003C57.7419 106.24 59.3573 109.307 61.3409 112.137C62.6386 114.005 64.2273 115.656 66.0476 117.022C69.8694 119.81 74.0148 119.846 77.8752 117.129C79.1966 116.184 80.3903 115.071 81.4267 113.821C84.0636 110.557 86.1423 106.878 87.5766 102.934C87.6181 102.783 87.6449 102.629 87.6597 102.474C77.5426 98.8751 66.496 98.8811 56.3819 102.486ZM83.9627 117.482C89.9522 115.974 95.5675 113.245 100.449 109.461C97.7679 107.377 94.8578 105.604 91.7784 104.176C90.6084 106.56 89.5335 108.885 88.3397 111.148C87.1074 113.405 85.6404 115.528 83.9627 117.482ZM60.162 117.5C58.4694 115.57 56.9936 113.455 55.7642 111.199C54.5467 108.918 53.4747 106.563 52.3047 104.173C49.2224 105.604 46.3093 107.377 43.6278 109.461C48.5275 113.248 54.1547 115.985 60.162 117.5ZM91.624 40.5243C93.8779 39.7641 99.5318 36.2601 100.319 35.1435C95.4576 31.4019 89.8779 28.7027 83.927 27.212C87.3627 31.1466 89.7176 35.6751 91.624 40.5243ZM60.0789 27.2446C54.1221 28.7413 48.5364 31.4554 43.6753 35.2118C45.4214 36.8361 50.8259 40.0788 52.477 40.4886C54.2468 35.678 56.8154 31.2 60.0789 27.2446Z" fill="#E5E7E8"/>
<path d="M99.2005 137.492C99.2094 139.037 98.8798 140.563 98.2354 141.967C97.0209 144.679 94.378 146.466 91.4115 146.585C90.3514 146.683 89.2824 146.597 88.2549 146.327C85.618 145.67 83.5185 143.678 82.7197 141.08C81.918 138.743 81.9061 136.207 82.6841 133.864C83.6492 130.686 86.491 128.447 89.805 128.254C91.5778 128.061 93.3684 128.418 94.9333 129.273C97.0239 130.452 98.476 132.504 98.8917 134.867C99.0639 135.726 99.1025 136.616 99.2005 137.492ZM88.148 137.394L88.2965 137.406C88.2965 138.083 88.2519 138.763 88.3054 139.437C88.3143 140.619 88.5667 141.783 89.0448 142.864C89.318 143.473 89.9178 143.871 90.583 143.889C91.2838 143.936 91.9401 143.535 92.2192 142.891C92.4568 142.419 92.629 141.917 92.73 141.397C93.1308 139.042 93.1754 136.64 92.8606 134.273C92.7567 133.519 92.5577 132.777 92.2727 132.07C92.0529 131.402 91.4234 130.954 90.7196 130.965C89.9891 130.939 89.321 131.363 89.0329 132.031C88.834 132.394 88.6974 132.786 88.6291 133.193C88.439 134.591 88.3024 135.993 88.148 137.394Z" fill="#E5E7E8"/>
<path d="M80.4954 137.483C80.5934 139.051 80.2846 140.616 79.6016 142.029C78.3366 144.788 75.5898 146.564 72.5579 146.593C71.2009 146.694 69.8379 146.477 68.5758 145.964C66.4378 145.085 64.8046 143.3 64.1186 141.094C63.3287 138.786 63.305 136.286 64.0473 133.961C65.0035 130.644 67.9997 128.331 71.4503 128.242C74.1496 128.108 76.5193 128.847 78.3604 130.932C79.6224 132.396 80.3677 134.231 80.4836 136.161C80.5251 136.595 80.4954 137.04 80.4954 137.483ZM74.5089 137.643C74.4287 136.396 74.4258 135.446 74.2921 134.519C74.1793 133.706 73.9833 132.904 73.7071 132.132C73.4963 131.425 72.84 130.944 72.1036 130.95C71.3375 130.917 70.6396 131.395 70.3932 132.123C70.1229 132.711 69.9477 133.34 69.8765 133.982C69.7666 135.888 69.7013 137.804 69.728 139.713C69.7072 140.809 69.9567 141.895 70.4496 142.875C70.8356 143.748 71.8571 144.143 72.7331 143.757C73.0984 143.594 73.3983 143.312 73.5794 142.953C73.8616 142.469 74.0486 141.937 74.1288 141.382C74.3099 140.04 74.405 138.691 74.503 137.643H74.5089Z" fill="#E5E7E8"/>
<path d="M30.2856 132.377C30.3836 132.418 30.4876 132.448 30.5915 132.472C31.6189 132.457 32.4652 133.279 32.4801 134.307C32.4801 134.369 32.4801 134.431 32.4742 134.491C32.5603 135.694 31.7407 136.771 30.5618 137.012C30.155 137.08 29.7392 137.101 29.3265 137.074C28.0258 137.045 26.9598 136.035 26.8558 134.737C26.6153 133.065 27.233 131.388 28.498 130.268C29.8343 129.08 31.5328 128.38 33.3175 128.279C35.4704 127.982 37.6619 128.415 39.5416 129.508C41.6173 130.696 42.6328 133.134 42.0122 135.444C41.7093 136.635 40.9283 137.647 39.8534 138.241C38.627 138.954 37.3145 139.503 35.9485 139.883C34.9626 140.186 33.9619 140.454 32.9968 140.816C32.0911 141.071 31.3131 141.659 30.8172 142.461C31.0102 142.414 31.2002 142.357 31.3873 142.289C32.976 141.54 34.7785 141.377 36.4771 141.829C37.0175 141.977 37.5669 142.096 38.1192 142.188C39.3159 142.366 39.794 141.971 39.9365 140.742C39.9573 140.566 39.9662 140.391 39.993 140.103C40.9105 140.041 41.8311 140.044 42.7487 140.115C42.8556 141.722 42.8556 143.263 42.0686 144.694C41.3352 146.033 40.0702 146.464 38.6656 146.586C37.3085 146.675 35.9455 146.511 34.6478 146.102C33.7986 145.858 32.9522 145.585 32.0881 145.407C31.2359 145.232 30.3539 145.122 29.8224 146.06H26.8915C26.7638 144.724 27.0132 143.376 27.619 142.176C28.3792 140.798 29.4779 139.637 30.8112 138.803C31.806 138.117 32.8513 137.502 33.8669 136.849C34.244 136.617 34.6092 136.365 34.9567 136.091C35.7169 135.5 36.1415 134.577 36.097 133.615C36.1148 132.733 35.5921 131.928 34.7785 131.584C33.267 130.88 31.4705 131.195 30.2856 132.377Z" fill="#E5E7E8"/>
<path d="M49.2981 128.726C49.3338 129.294 49.3605 129.745 49.3932 130.309C49.509 130.217 49.6218 130.113 49.7228 130.003C50.8156 128.51 52.3419 128.159 54.0464 128.456C54.9075 128.646 55.7568 128.893 56.5883 129.19C57.0931 129.344 57.5949 129.519 58.0938 129.695C58.5066 129.861 58.9758 129.763 59.2905 129.451L59.5875 128.762H61.8206C61.9779 129.249 61.9542 129.775 61.7523 130.244C61.2326 131.429 60.7189 132.619 60.1131 133.76C59.338 135.215 58.4472 136.611 57.6543 138.057C56.5259 140.242 55.929 142.659 55.9053 145.118C55.8934 145.406 55.8756 145.694 55.8578 146.033H50.1474C50.0078 145.371 49.9871 144.688 50.0851 144.016C50.2543 141.486 51.3501 139.108 53.1674 137.338C54.3671 136.159 55.6143 135.031 56.8347 133.876C57.1079 133.614 57.3603 133.332 57.7731 132.905C57.4227 132.985 57.2742 133.003 57.1347 133.05C55.9142 133.415 54.6225 133.469 53.3753 133.21C52.7101 133.083 52.039 132.991 51.3649 132.94C50.4384 132.827 49.5981 133.487 49.4852 134.413C49.4852 134.422 49.4822 134.431 49.4822 134.437C49.3991 134.87 49.3456 135.307 49.3219 135.749C49.2952 136.034 49.2952 136.325 49.2773 136.658H46.2188V128.762C46.7265 128.75 47.2165 128.732 47.7065 128.723C48.1994 128.723 48.7042 128.726 49.2981 128.726Z" fill="#E5E7E8"/>
<path d="M103.792 130.984C105.434 130.723 107.067 130.476 107.902 128.766H112.332C112.347 129.092 112.368 129.404 112.371 129.719C112.374 133.728 112.374 137.739 112.371 141.748C112.371 141.956 112.365 142.161 112.371 142.369C112.401 143.272 112.68 143.572 113.6 143.628C114.037 143.655 114.476 143.634 114.96 143.634C115.055 144.403 115.079 145.178 115.035 145.95C114.331 146.125 105.259 146.185 103.807 146.03V143.741C104.621 143.48 105.565 143.872 106.485 143.269C106.604 142.954 106.681 142.627 106.717 142.295C106.741 139.494 106.732 136.691 106.729 133.891C106.711 133.745 106.681 133.603 106.637 133.463H103.789L103.792 130.984Z" fill="#E5E7E8"/>
<path d="M71.5001 0L72.8008 5.30651L72.9908 5.30354L74.431 0.0831459H77.9885V9.10452H75.7822V2.7171C74.9804 4.78091 74.4964 6.93083 73.8401 9.07482H71.809L70.2381 2.58347L70.051 2.58941C70.0421 3.11502 70.0302 3.64062 70.0243 4.16622C70.0184 4.69182 70.0154 5.22931 70.0094 5.76085C70.0035 6.32209 70.0124 6.88332 69.9887 7.44456C69.9649 7.96719 69.9055 8.48983 69.855 9.09264L67.8922 8.98574C67.6992 8.34135 67.7051 1.36004 67.8952 0H71.5001Z" fill="#E5E7E8"/>
<path d="M117.531 28.3637L115.601 26.6354L116.388 20.7647L116.233 20.6994L112.985 24.2569L111.078 22.4989L117.213 15.7344L119.117 17.5101L118.3 23.3898L118.445 23.4699L121.733 19.8828L123.669 21.617L117.531 28.3637Z" fill="#E5E7E8"/>
<path d="M33.5678 16.8134L30.7586 12.9887L32.8373 11.4297L38.2566 18.7584L36.172 20.3263L30.3637 18.31C31.3555 19.8096 32.3681 21.045 33.3243 22.408L31.2486 23.958L25.8203 16.6293L27.9049 15.0852L33.4163 16.9945L33.5678 16.8134Z" fill="#E5E7E8"/>
<path d="M138.877 75.8534C137.837 77.0263 136.908 77.6024 134.758 78.3864V75.3901L137.647 73.9113C138.099 73.751 138.446 73.3798 138.58 72.9166C138.594 72.7384 138.597 72.5602 138.583 72.3791H134.983C134.888 71.4526 134.886 70.5202 134.972 69.5937C138.009 69.4868 140.991 69.7837 144.035 69.7451C144.035 70.636 144.049 71.4259 144.032 72.2157C144.008 73.1897 143.954 74.1608 143.91 75.1318C143.901 75.307 143.898 75.4852 143.871 75.6604C143.678 76.9848 142.971 77.7539 141.84 77.8727C140.593 78.1369 139.355 77.3975 138.992 76.1771C138.96 76.0791 138.924 75.9751 138.877 75.8534ZM141.751 74.9982C142.241 74.2885 142.309 73.7718 142.081 72.5365L140.418 72.4266C140.219 72.9552 140.177 73.5283 140.302 74.0806C140.489 75.0279 140.712 75.1763 141.751 74.9982Z" fill="#E5E7E8"/>
<path d="M56.3906 1.59803C57.9971 1.33078 59.4997 1.0754 61.0082 0.837839C61.5011 0.748754 62 0.698272 62.4989 0.686394C63.5739 0.603248 64.5538 1.30108 64.83 2.34041C65.1922 3.4124 64.8003 4.59427 63.8708 5.23865C63.7105 5.35149 63.5442 5.45246 63.3541 5.57421C64.6963 6.34034 65.2902 6.98769 66.6146 9.11683C66.1069 9.21185 65.6288 9.30688 65.1477 9.39002C64.6548 9.47614 64.1618 9.55038 63.6125 9.63946C62.9325 8.76643 62.2435 7.88745 61.5605 7.00551C61.2547 6.47397 60.5925 6.26313 60.0342 6.52148L60.5865 10.1294L57.8724 10.5838L56.3906 1.59803ZM62.2376 3.70342C62.1544 2.97886 61.8308 2.59282 61.2517 2.63142C60.6222 2.61064 59.9956 2.74129 59.4255 3.01152L59.7551 4.77244C60.7617 4.61802 61.7447 4.71008 62.2376 3.70342Z" fill="#E5E7E8"/>
<path d="M45.4531 7.78283C45.468 4.69454 48.292 3.39687 50.6498 3.33748C53.5866 3.26324 55.012 5.88828 55.0951 8.51036C55.1842 11.4205 52.6631 12.8548 49.8272 12.9498C47.1131 13.0418 45.5897 10.4821 45.4531 7.78283ZM52.3869 8.89343C52.3483 7.94912 52.0395 7.03451 51.4991 6.25947C51.0061 5.59727 50.1301 5.35377 49.3669 5.66854C48.6067 5.90907 48.1049 6.63066 48.1405 7.42649C48.1791 8.40346 48.5206 9.34479 49.1175 10.1169C49.5986 10.7553 50.4568 10.9691 51.1813 10.6365C51.9504 10.4198 52.4552 9.68926 52.3869 8.89343Z" fill="#E5E7E8"/>
<path d="M113.146 14.8785C113.042 16.8591 111.919 18.6438 110.179 19.594C109.276 20.0692 108.216 20.1434 107.257 19.8019C106.15 19.4634 105.155 18.8309 104.377 17.9756C103.459 17.0135 103.112 15.6416 103.462 14.3558C103.747 13.1383 104.409 12.0455 105.354 11.226C106.441 10.2104 108.011 9.90452 109.398 10.439C110.527 10.8102 111.524 11.4962 112.276 12.4167C112.861 13.1027 113.17 13.9787 113.146 14.8785ZM110.568 14.528C110.568 13.2452 109.078 11.9891 107.83 12.7642C106.77 13.3937 106.072 14.4894 105.954 15.7159C105.823 17.0106 107.37 18.1122 108.493 17.5183C109.597 16.8858 110.36 15.7871 110.568 14.528Z" fill="#E5E7E8"/>
<path d="M5.0752 85.6772C2.74414 85.6772 1.25344 84.5636 0.742689 82.4048C0.546701 81.6357 0.481369 80.8398 0.549668 80.047C0.772381 78.0366 1.8028 76.932 3.76861 76.436C4.59414 76.2104 5.4553 76.148 6.30458 76.2519C7.84872 76.4034 9.14937 77.4665 9.60073 78.9512C9.93926 79.9015 10.058 80.9141 9.94519 81.9178C9.82641 83.3372 8.93259 84.5725 7.62601 85.1337C6.83018 85.5168 5.95715 85.7039 5.0752 85.6772ZM5.75522 78.9393C4.95642 78.9186 4.16356 79.0997 3.45385 79.4679C2.80946 79.8688 2.47985 80.629 2.62536 81.3743C2.70553 82.1375 3.29052 82.7522 4.04775 82.868C4.98314 83.0462 5.94824 82.9304 6.81533 82.5414C7.52802 82.2622 7.9675 81.5406 7.8903 80.7775C7.83684 79.5808 7.10337 78.9453 5.75522 78.9393Z" fill="#E5E7E8"/>
<path d="M143.91 66.1864C143.259 66.2963 142.689 66.4002 142.116 66.4834C140.893 66.6615 139.666 66.8486 138.44 67.0001C136.67 67.2228 134.773 66.424 134.333 64.2414C134.149 63.3773 134.057 62.4983 134.057 61.6163C134.006 60.2949 134.844 59.1012 136.106 58.7033C137.032 58.4182 137.983 58.2133 138.945 58.0915C140.135 57.8955 141.335 57.7619 142.532 57.6016C142.876 58.4568 143.019 59.3803 142.945 60.2979C141.686 60.482 140.409 60.6631 139.129 60.8502C138.573 60.9304 138.012 60.972 137.469 61.0937C136.614 61.2065 136.011 61.9905 136.124 62.8457C136.147 63.0358 136.207 63.2169 136.299 63.3862C136.498 63.9682 137.077 64.3364 137.689 64.2651C138.452 64.2028 139.209 64.0988 139.969 63.9949C140.931 63.8643 141.893 63.7098 142.856 63.5792C143.072 63.5643 143.289 63.5643 143.509 63.5762L143.91 66.1864Z" fill="#E5E7E8"/>
<path d="M133.48 45.5982L131.509 41.6458L129.837 42.4713L131.984 46.8246L130.244 47.7125C130.161 47.6115 130.086 47.5016 130.018 47.3918C128.955 45.2507 127.898 43.1097 126.781 40.8588L134.977 36.8203L138.3 43.567L136.628 44.4133L134.49 40.1729L133.136 40.8291L135.069 44.7845L133.48 45.5982Z" fill="#E5E7E8"/>
<path d="M131.262 35.4701L129.771 33.5785C130.261 32.4085 130.136 31.6335 129.417 31.2148C129.02 30.9832 128.841 31.0485 128.369 31.6424L128.764 32.8391C129.005 33.5666 129.29 34.2823 129.474 35.0217C129.771 35.9511 129.489 36.9667 128.758 37.6141C127.989 38.3475 126.87 38.5792 125.872 38.2139C125.483 38.0803 125.121 37.8784 124.8 37.62C123.764 36.7737 123.003 35.6394 122.614 34.3595C122.246 33.1361 122.73 31.8146 123.802 31.1138L125.346 33.0588C124.933 33.6557 124.527 34.2585 124.871 35.0068C125.061 35.5503 125.533 35.9452 126.103 36.0313C126.896 35.7255 127.098 35.4048 126.902 34.6475C126.784 34.1932 126.549 33.7686 126.439 33.3142C126.237 32.5808 126.098 31.8295 126.02 31.0722C125.913 29.5637 127.532 28.5452 128.883 28.9104C129.201 28.9817 129.501 29.1094 129.774 29.2846C131.101 30.1992 132.019 31.5978 132.328 33.1806C132.479 33.9735 132.123 34.6861 131.262 35.4701Z" fill="#E5E7E8"/>
<path d="M4.44636 88.4212L5.31939 90.7909C4.65719 91.2868 4.29788 91.8777 4.67501 92.7002C4.89475 93.1813 5.05808 93.2763 5.71731 93.2555C6.19243 92.8903 6.06177 92.3736 6.05584 91.8777C6.01426 90.969 6.02614 90.0574 6.08256 89.1517C6.29043 86.981 8.89171 86.3188 10.4418 87.5036C10.7744 87.7501 11.0565 88.0559 11.2792 88.4034C12.081 89.6565 12.4343 91.1472 12.2799 92.629C12.1374 93.8049 11.3208 94.4433 10.2399 94.9482L9.34308 92.5815C10.7774 91.3432 10.7595 90.1019 9.32823 89.4664C8.54131 89.6981 8.38987 89.8525 8.36314 90.6008C8.34235 91.1888 8.40471 91.7827 8.37799 92.3706C8.37205 92.9289 8.30969 93.4872 8.18794 94.0336C7.88505 95.2718 6.63786 96.032 5.3966 95.7321C5.10856 95.6608 4.83834 95.5361 4.59484 95.3639C4.27413 95.1531 4.00093 94.8799 3.78416 94.5621C2.9616 93.3565 2.59042 91.8985 2.73295 90.4434C2.86064 89.4932 3.52878 88.7003 4.44636 88.4212Z" fill="#E5E7E8"/>
<path d="M88.7081 11.1293L85.9346 10.5948C85.8455 10.0128 85.7742 9.52875 85.697 9.02096L82.5523 8.42112L81.7209 9.80788L79.0156 9.27337L84.0727 0.976562L87.0392 1.54077C87.642 4.68548 88.1706 7.83019 88.7081 11.1293ZM85.4862 7.04327C85.4743 5.93267 85.2961 4.83099 84.9606 3.77087L83.461 6.6216L85.4862 7.04327Z" fill="#E5E7E8"/>
<path d="M13.9544 44.09C13.4704 43.9772 12.9744 43.903 12.5023 43.7456C11.3561 43.3595 10.287 42.7686 9.35164 42.0025C8.12524 41.171 7.69169 39.5645 8.33607 38.2282C8.538 37.7086 8.81119 37.2156 9.14675 36.7702C9.80598 35.8199 10.9819 35.3716 12.1073 35.6388C13.7049 35.9655 15.1808 36.7167 16.3864 37.8155C17.5505 38.6885 17.883 40.2891 17.1615 41.5541C16.912 42.0856 16.6002 42.5845 16.232 43.0418C15.6678 43.7159 14.8334 44.1019 13.9544 44.09ZM14.2988 41.7708C14.9492 41.7946 15.3055 41.6194 15.4748 41.2096C15.6737 40.7582 15.5401 40.2297 15.1481 39.9297C14.0405 38.9557 12.725 38.249 11.2996 37.86C10.8275 37.7056 10.3138 37.9105 10.0792 38.35C9.8624 38.7182 9.901 39.1814 10.1772 39.5051C10.2603 39.6269 10.3613 39.7338 10.4771 39.8258C11.4986 40.6216 12.6419 41.2512 13.8594 41.6907C14.0019 41.7322 14.1504 41.759 14.2988 41.7708Z" fill="#E5E7E8"/>
<path d="M136.103 54.0498V56.3215C134.616 56.7046 133.068 55.9771 132.412 54.5873C131.979 53.747 131.723 52.8234 131.664 51.8791C131.527 50.3617 132.305 48.9126 133.645 48.188C134.678 47.5436 135.881 47.217 137.101 47.2526C138.12 47.2526 139.091 47.6862 139.768 48.4464C140.765 49.5599 141.285 51.0209 141.217 52.5146C141.157 53.6846 140.513 54.7447 139.506 55.3416L138.292 53.2421C138.405 53.1144 138.506 53.0105 138.598 52.9006C139.254 52.1791 139.201 51.0655 138.482 50.4092C138.099 50.0588 137.579 49.8955 137.062 49.9638C136.225 50.1212 135.414 50.3914 134.648 50.7656C133.962 51.0655 133.612 51.8316 133.835 52.5473C133.95 53.2718 134.521 53.836 135.245 53.9489C135.498 53.9964 135.762 54.0083 136.103 54.0498Z" fill="#E5E7E8"/>
<path d="M9.94169 52.1853C8.28173 52.0101 6.70195 51.3955 5.35677 50.4066C4.45404 49.78 4.03236 48.6635 4.29665 47.5975C4.42434 46.9649 4.6233 46.3503 4.89055 45.7653C5.40428 44.5804 6.65741 43.8974 7.93133 44.1083C9.49329 44.2508 10.9929 44.7942 12.2846 45.6851C13.5199 46.3859 14.0634 47.8796 13.5675 49.2099C13.4576 49.6048 13.3121 49.9939 13.1398 50.365C12.5578 51.6271 11.5423 52.1943 9.94169 52.1853ZM10.5504 49.8929C11.2631 49.8869 11.6402 49.6494 11.8036 49.198C11.9669 48.7674 11.8095 48.2804 11.4264 48.0251C11.1592 47.7934 10.8622 47.6004 10.5445 47.449C9.8437 47.1491 9.1221 46.8848 8.40051 46.6324C8.06496 46.5195 7.7205 46.4423 7.37009 46.3948C6.82964 46.2938 6.28919 46.5819 6.07242 47.0867C5.90018 47.5232 6.03084 47.9152 6.51784 48.3131C6.7168 48.4883 6.94248 48.6308 7.18598 48.7377C8.08871 49.0911 8.99738 49.4267 9.91199 49.7503C10.1228 49.8127 10.3396 49.8573 10.5593 49.8869L10.5504 49.8929Z" fill="#E5E7E8"/>
<path d="M3.13049 67.1791L2.71179 69.4923C0.915232 69.1241 0.113463 68.1531 0.158006 66.3654C0.175823 65.629 0.279756 64.8985 0.469805 64.1858C0.793481 62.8109 2.17133 61.9557 3.54622 62.2794C3.91444 62.3655 4.2589 62.5318 4.55288 62.7664C5.22102 63.3039 5.77038 63.972 6.16829 64.7322C6.50979 65.2756 6.85128 65.8191 7.24623 66.4516C7.67384 65.7864 7.48082 65.1539 7.57584 64.5719C7.67384 63.9661 7.71244 63.3514 7.78965 62.6268L9.76734 62.7337C9.53572 65.2994 9.31597 67.7552 9.09029 70.306C8.21725 70.1248 7.41846 69.6883 6.79189 69.0529C6.20393 68.3966 5.69317 67.6691 5.17054 66.9594C4.85577 66.5317 4.58258 66.0744 4.28563 65.6379C4.18763 65.4924 4.07479 65.3528 3.95304 65.2252C3.63233 64.8213 3.10079 64.6461 2.60191 64.7768C2.17134 64.9312 1.87735 65.3291 1.86251 65.7864C1.84469 66.3061 2.16539 66.7782 2.65536 66.9504C2.78899 67.0039 2.91668 67.0722 3.13049 67.1791Z" fill="#E5E7E8"/>
<path d="M43.0137 9.96135L43.8304 11.5085L40.7005 13.2011L42.405 16.5032L39.97 17.8038L35.7266 9.72676L41.8616 6.50781L42.7702 8.15589L39.1177 10.1098L39.8601 11.5886L43.0137 9.96135Z" fill="#E5E7E8"/>
<path d="M132.567 99.9273L129.078 98.401L130.177 95.8828L133.711 97.3824L139.964 96.2748L138.744 99.0453L135.142 99.5383L137.229 102.502L136.024 105.302L132.567 99.9273Z" fill="#E5E7E8"/>
<path d="M93.5563 12.8716L90.9579 11.9867L93.1376 5.53689C92.3239 4.99347 91.3499 4.91329 90.4531 4.44114L91.1539 2.42188L99.2458 5.17461L98.545 7.23248L95.7982 6.34163L93.5563 12.8716Z" fill="#E5E7E8"/>
<path d="M133.175 86.6242L139.854 88.3702L140.632 85.5938L142.725 86.1431L140.572 94.3835L138.449 93.8668L139.162 91.0666L132.492 89.2878L133.175 86.6242Z" fill="#E5E7E8"/>
<path d="M3.03425 60.0115L1.0625 59.5423L2.67495 52.3828L4.27551 52.7332C5.75136 55.1474 8.0943 56.9113 10.8233 57.6626L10.2947 60.0174C7.82704 59.2483 5.67118 57.7071 4.14188 55.6196C3.643 57.1162 3.4975 58.5475 3.03425 60.0115Z" fill="#E5E7E8"/>
<path d="M16.2711 31.6071C16.0959 32.4861 15.9504 33.2344 15.793 33.9797C15.7425 34.1312 15.6742 34.2797 15.594 34.4192L14.0202 33.2671C14.4567 31.9278 14.6378 30.6004 13.8984 29.2968L15.1248 27.625L22.5813 33.1216L21.1143 35.1468L16.2711 31.6071Z" fill="#E5E7E8"/>
<path d="M29.636 25.4082L27.7325 27.4453L21.4609 20.85L23.3822 18.8516L29.636 25.4082Z" fill="#E5E7E8"/>
<path d="M100.127 15.7124L97.6328 14.5127L101.52 6.28125L104.038 7.45124L100.127 15.7124Z" fill="#E5E7E8"/>
<path d="M13.7899 95.5938L14.8827 98.1386L6.51762 101.753L5.42188 99.2106L13.7899 95.5938Z" fill="#E5E7E8"/>
<path d="M134.055 82.3005L134.45 79.625C137.455 79.9873 140.395 80.4386 143.438 80.8959L143.067 83.5834C140.029 83.2092 137.078 82.7757 134.055 82.3005Z" fill="#E5E7E8"/>
<path d="M111.583 72.4023C111.61 74.7749 111.082 77.1238 110.045 79.2559C108.715 81.8602 106.479 83.8883 103.756 84.9574C101.778 85.7413 99.6816 86.1778 97.5554 86.255C95.0788 86.451 92.5874 86.1808 90.2118 85.4622C85.0716 83.8141 81.9922 80.3487 81.2083 74.9501C80.8193 72.4914 80.9766 69.9792 81.6685 67.5887C82.7108 63.9421 85.422 61.0112 88.9765 59.6839C92.0232 58.5258 95.3075 58.1219 98.5442 58.5109C100.403 58.6356 102.226 59.0781 103.937 59.8145C107.99 61.4864 110.82 65.2279 111.325 69.5842C111.462 70.5166 111.5 71.4639 111.583 72.4023ZM101.487 72.4023C101.404 71.1402 101.362 69.8693 101.223 68.6132C101.119 67.1967 100.736 65.8189 100.094 64.5509C99.3846 63.1404 97.9177 62.2703 96.3409 62.3267C94.7344 62.2465 93.2259 63.1107 92.4835 64.539C91.9608 65.5338 91.6223 66.6117 91.4798 67.7253C91.0641 70.4691 91.0136 73.2545 91.3313 76.0102C91.4293 77.2752 91.7322 78.5195 92.2281 79.6865C93.1843 81.9225 95.7767 82.9619 98.0127 82.0057C98.9956 81.584 99.7914 80.8208 100.255 79.8587C100.528 79.2707 100.742 78.659 100.887 78.0265C101.288 76.1765 101.487 74.2938 101.487 72.4023Z" fill="#E5E7E8"/>
<path d="M73.026 68.1176C72.8508 67.6336 72.7171 67.2446 72.5746 66.8586C71.6065 64.2573 69.6585 62.9329 66.9682 62.6448C65.9437 62.4875 64.8954 62.5439 63.8947 62.8111C63.2385 63.0012 62.6475 63.3635 62.1813 63.8653C61.2222 64.9254 61.3261 66.1192 62.5436 66.8615C63.2533 67.2802 64.0194 67.598 64.8153 67.8058C66.4901 68.2661 68.2035 68.5987 69.8842 69.0501C71.8382 69.5222 73.703 70.3002 75.4134 71.3574C77.2516 72.5006 78.4305 74.4575 78.5789 76.6164C78.8907 78.8079 78.276 81.0291 76.8804 82.7484C75.8203 83.9926 74.4424 84.9251 72.8923 85.4447C70.8196 86.1426 68.6251 86.4217 66.4426 86.2643C63.8739 86.1248 61.3588 85.4744 59.0425 84.352C58.9416 84.3044 58.8287 84.2747 58.6565 84.2153L57.6706 85.6021H54.1904V75.9779C54.7902 75.8859 55.4019 75.8621 56.0077 75.9037C56.5957 75.8888 57.1836 75.9007 57.8458 75.9007C57.9676 76.2185 58.0745 76.5154 58.1962 76.8064C59.4078 79.6928 61.4419 81.6259 64.5807 82.2288C65.623 82.4693 66.7068 82.4455 67.7373 82.1605C68.3015 81.9942 68.8271 81.7269 69.2933 81.3676C70.193 80.7262 70.4039 79.476 69.7654 78.5763C69.6348 78.3921 69.4744 78.2318 69.2903 78.1011C68.5331 77.5429 67.6927 77.1034 66.8019 76.8005C65.0766 76.2007 63.2978 75.7612 61.5577 75.2059C60.3432 74.8406 59.1494 74.41 57.9824 73.9171C55.7642 72.9312 54.1399 71.3277 53.6469 68.8897C52.86 64.9967 54.4962 61.6114 58.0656 59.7288C59.5949 58.9478 61.2786 58.5113 62.992 58.443C66.2436 58.2025 69.5071 58.7934 72.4677 60.1594C72.5746 60.2098 72.6874 60.2455 72.8804 60.3197L73.602 59.1141H77.2664V68.0969C76.5864 68.1028 75.8915 68.1147 75.1996 68.1176C74.487 68.1206 73.7802 68.1176 73.026 68.1176Z" fill="#E5E7E8"/>
<path d="M51.0738 81.8256V85.4455H35.5938V81.8256C36.0718 81.8256 36.538 81.8345 36.9983 81.8227C37.322 81.8227 37.6457 81.7959 37.9664 81.7425C38.4564 81.695 38.8483 81.3089 38.9048 80.819C38.976 80.4418 39.0235 80.0617 39.0413 79.6816C39.0503 74.7819 39.0503 69.8793 39.0413 64.9796C39.0384 63.2454 38.6256 62.8505 36.8914 62.8208C36.4816 62.8148 36.0689 62.8208 35.5938 62.8208V59.2188H50.9669C51.1688 60.3887 51.1866 61.5854 51.0174 62.7614C50.8036 62.7822 50.5779 62.8089 50.3492 62.8237C50.1206 62.8386 49.8771 62.8237 49.6395 62.8297C48.0597 62.8861 47.6856 63.2246 47.6856 64.7836C47.6707 69.8021 47.6707 74.8206 47.6856 79.839C47.6915 81.4485 48.0687 81.7959 49.687 81.8256C50.1265 81.8316 50.563 81.8256 51.0738 81.8256Z" fill="#E5E7E8"/>
</svg>
