<svg width="161" height="147" viewBox="0 0 161 147" fill="none" xmlns="http://www.w3.org/2000/svg">
<path d="M114.873 9.4168C102.736 2.79065 89.0241 -0.227203 75.2469 0.625668C61.4698 1.54414 48.2175 6.33335 37.0645 14.4684C25.7148 22.6691 16.9893 33.9532 11.9376 47.0087C9.31342 53.7661 7.67328 60.8515 7.14844 68.0681H25.2555C26.5021 54.619 32.669 42.0883 42.5754 32.9036C52.4818 23.7188 65.4061 18.4704 78.9208 18.2735C92.7636 18.0111 106.213 22.9971 116.578 32.2475C126.878 41.4979 133.373 54.2909 134.685 68.0681H152.727C151.546 48.3208 140.459 23.4564 114.873 9.4168ZM85.0877 55.4718C83.9068 56.9152 82.3323 57.8992 80.4953 58.4241C78.724 58.9489 76.8214 58.8833 75.0501 58.2273C73.738 57.8992 72.5571 57.2432 71.573 56.2591C70.5889 55.3406 69.8673 54.1597 69.4736 52.9132C69.08 51.6667 69.0144 50.289 69.2768 48.9769C69.5392 47.6648 70.1297 46.4183 70.9826 45.4342C72.5571 43.7285 74.7221 42.6132 77.0839 42.4163C79.4456 42.2195 81.7418 42.8756 83.5788 44.3189C84.1693 44.7781 84.6941 45.303 85.2189 45.8278C85.875 45.3686 86.531 44.8438 87.3183 44.3189C86.4654 43.0724 85.3501 42.0227 84.038 41.3011C81.6106 39.9889 78.8552 39.4641 76.0998 39.8577C74.6564 39.9889 73.2131 40.4482 71.901 41.1042C70.5889 41.8259 69.4736 42.7444 68.5551 43.8597C67.6367 44.975 66.9806 46.2215 66.587 47.5992C66.1933 48.9769 66.1277 50.4202 66.3246 51.7979C66.5214 53.5693 67.1774 55.3406 68.2271 56.7839C69.2768 58.2273 70.7201 59.4082 72.3603 60.1298C74.3284 61.0483 76.559 61.3763 78.724 61.1795C81.3482 61.1139 83.9068 60.0642 85.9406 58.3585C86.4654 57.8992 86.8591 57.3744 87.3839 56.9152L85.1533 55.3406C85.1533 55.3406 85.1533 55.4062 85.0877 55.4718ZM101.686 60.8515H104.835L108.115 54.2909H116.841L120.187 60.8515H123.27C119.662 53.5693 116.119 46.3527 112.511 39.1361C108.903 46.3527 105.294 53.5693 101.686 60.8515ZM109.493 51.6011C110.477 49.5673 111.527 47.5992 112.511 45.5654C113.56 47.5992 114.545 49.6329 115.529 51.6011H109.493ZM36.8677 60.8515H40.0168C41.1321 58.6865 42.2474 56.4559 43.297 54.2909H52.0226C53.1379 56.4559 54.2532 58.6865 55.3685 60.8515H58.4519L47.6926 39.0705C44.0843 46.3527 40.476 53.5693 36.8677 60.8515ZM44.6092 51.6011C45.5932 49.5673 46.6429 47.5992 47.6926 45.4998C48.7423 47.5992 49.7264 49.5673 50.7105 51.6011H44.6092ZM104.245 48.8457C104.704 48.124 105.032 47.2712 105.097 46.4183C105.163 45.5654 105.032 44.6469 104.704 43.8597C104.376 43.0724 103.851 42.3507 103.195 41.7603C102.539 41.1698 101.752 40.7762 100.899 40.5794C99.9146 40.317 98.8649 40.1858 97.8152 40.2514C95.7158 40.1858 93.6164 40.2514 91.4515 40.2514C91.3202 40.2514 91.189 40.2514 91.1234 40.2514V60.8515H93.8789V51.6011C94.6005 51.6011 95.2566 51.6011 95.9126 51.6011C97.2247 51.5355 98.6024 51.5355 99.9146 51.4043C100.767 51.3387 101.62 51.0763 102.408 50.6826C103.129 50.1578 103.785 49.5673 104.245 48.8457ZM102.014 46.8775C101.817 47.468 101.423 47.9272 100.899 48.2552C100.374 48.5833 99.7833 48.7801 99.1929 48.7801C97.4872 48.8457 95.7158 48.7801 93.9445 48.7801V42.7444C95.7814 42.81 97.5528 42.81 99.3241 42.8756C99.7833 42.8756 100.243 43.0068 100.636 43.2036C101.03 43.4004 101.423 43.7285 101.686 44.1221C101.948 44.5157 102.08 44.975 102.145 45.4342C102.211 45.959 102.145 46.4839 102.014 46.8775ZM60.092 60.7859H62.9131V40.1858H60.092V60.7859Z" fill="#E5E7E8"/>
<path d="M81.0203 128.035C69.3425 128.363 57.796 124.82 48.3488 117.997C35.8837 109.075 28.4047 97.0033 25.7149 81.9141H7.47656C11.2817 117.866 43.3628 148.897 84.563 146.339C122.549 144.042 149.381 113.601 152.465 81.9141H134.226C132.193 94.6415 125.698 106.188 115.988 114.586C106.278 123.049 93.879 127.772 81.0203 128.035ZM74.1317 107.894C75.575 108.484 77.1496 108.812 78.7241 108.747C80.2986 108.747 81.8732 108.353 83.3165 107.697C84.6286 107.172 85.8095 106.254 86.7936 105.204C87.712 104.089 88.4337 102.777 88.7617 101.399C89.3522 99.1683 89.3522 96.8721 88.6305 94.6415C88.3025 93.4606 87.712 92.3453 86.9248 91.3612C86.1375 90.3772 85.1534 89.5899 84.0381 89.0651C82.398 88.2122 80.5611 87.8185 78.7241 87.8842C78.3305 87.8842 77.9368 87.8842 77.5432 87.8842C77.2808 87.8842 77.084 87.9498 76.8215 87.9498C75.3126 88.081 73.8037 88.6714 72.4916 89.5243C71.1795 90.3772 70.1298 91.5581 69.4081 92.8702C68.3584 94.7727 67.9648 96.9377 68.096 99.0371C68.3584 103.17 70.261 106.254 74.1317 107.894ZM75.9031 91.5581C77.2152 91.0332 78.7241 90.902 80.1018 91.1644C81.4795 91.4925 82.7916 92.2141 83.7101 93.3294C84.891 94.9039 85.4815 96.8065 85.3503 98.7747C85.219 100.743 84.3662 102.58 82.9229 103.958C79.8394 106.713 73.3445 106.122 71.9667 100.218C71.8355 99.6275 71.7699 99.0371 71.7699 98.7747C71.6387 95.4288 73.2132 92.6734 75.9031 91.5581ZM58.6488 105.466C57.8616 105.466 57.0087 105.335 56.287 104.942C55.5654 104.548 54.9749 104.023 54.5157 103.367C53.6628 104.286 52.8099 105.204 51.9571 106.122C52.6131 106.91 53.466 107.5 54.3845 107.894C56.2214 108.681 58.1896 108.878 60.1578 108.55C63.3724 108.025 65.4718 105.926 65.6686 102.842C65.7998 101.793 65.603 100.677 65.0782 99.7587C64.5533 98.8403 63.7661 98.053 62.782 97.5938C61.9291 97.2001 61.0106 96.8721 60.1578 96.5441C59.1737 96.216 58.1896 95.7568 57.2055 95.2976C56.7463 95.0352 56.4182 94.6415 56.287 94.1823C56.1558 93.723 56.1558 93.1982 56.3526 92.739C56.4838 92.4109 56.6807 92.0829 56.9431 91.8205C57.2055 91.5581 57.5335 91.4268 57.8616 91.2956C58.7144 90.9676 59.6985 90.902 60.617 91.1644C61.5355 91.4268 62.3227 91.8861 62.9132 92.6077C63.7661 91.6893 64.6189 90.8364 65.4718 89.9179C65.275 89.7211 65.1438 89.5899 64.9469 89.5243C63.3724 88.409 61.4699 87.8185 59.5673 87.8842C57.9272 87.8842 56.287 88.3434 54.8437 89.1963C51.629 91.1644 51.301 96.8721 55.3686 98.7091C56.3526 99.1683 57.4023 99.4307 58.3864 99.8243C59.2393 100.152 60.0921 100.546 60.8794 101.005C61.1418 101.202 61.4043 101.464 61.5355 101.793C61.7323 102.121 61.7979 102.449 61.7979 102.777C61.7979 103.105 61.7323 103.498 61.6011 103.826C61.4699 104.154 61.2074 104.417 60.945 104.679C60.4858 105.204 59.5673 105.466 58.6488 105.466ZM93.879 105.598C97.1592 108.812 101.03 109.403 105.294 108.091C106.869 107.566 108.181 106.516 109.099 105.204L106.147 103.105C106.016 103.236 105.95 103.301 105.885 103.433C102.998 106.91 98.4057 105.598 96.5032 103.17C95.8471 102.317 95.3879 101.333 95.1255 100.218C94.863 99.1683 94.7974 98.053 94.9943 96.9377C95.1911 95.2976 95.9783 93.7886 97.2248 92.6734C99.193 90.902 103.129 90.0491 105.688 92.8702C105.754 92.9358 105.819 93.0014 105.885 93.0014L108.64 90.9676C107.919 90.0491 107 89.3275 105.95 88.8026C104.048 87.8842 101.883 87.6217 99.8491 87.9498C98.537 88.081 97.2904 88.5402 96.1752 89.1963C95.0599 89.8523 94.0758 90.7052 93.2885 91.7549C91.7796 93.8543 91.0579 96.4129 91.2547 98.9715C91.1891 101.464 92.1732 103.826 93.879 105.598ZM86.4655 112.945C86.0063 113.339 85.7439 113.93 85.6783 114.52C85.6127 115.11 85.7439 115.701 86.1375 116.226C86.3343 116.488 86.5967 116.685 86.9248 116.882C87.2528 117.013 87.5808 117.144 87.9089 117.144C88.2369 117.21 88.5649 117.144 88.8929 117.013C89.221 116.882 89.4834 116.685 89.6802 116.423C89.7458 117.603 89.549 118.259 88.8929 118.522C88.4337 118.719 87.9745 118.784 87.5152 118.653C87.056 118.522 86.5968 118.259 86.3343 117.931C86.1375 118.128 85.9407 118.325 85.8095 118.588C86.2031 118.981 86.6624 119.244 87.1872 119.375C87.7121 119.506 88.2369 119.506 88.7617 119.375C89.1554 119.309 89.549 119.112 89.8114 118.85C90.1395 118.588 90.3363 118.194 90.4019 117.8C90.4675 117.472 90.5331 117.144 90.5331 116.816C90.5331 115.504 90.5331 114.258 90.5331 112.945C90.5331 112.814 90.5331 112.683 90.5331 112.617H89.8114C89.8114 112.814 89.8114 113.011 89.7458 113.273C89.3522 112.814 88.8273 112.552 88.1713 112.486C87.5152 112.421 86.9248 112.617 86.4655 112.945ZM89.6802 114.782C89.6802 114.979 89.6802 115.242 89.549 115.438C89.4834 115.635 89.3522 115.832 89.221 115.963C89.0898 116.095 88.893 116.226 88.6961 116.357C88.4993 116.423 88.3025 116.488 88.0401 116.488C87.6464 116.488 87.2528 116.291 86.9248 116.029C86.6624 115.701 86.4655 115.307 86.4655 114.914C86.4655 114.717 86.4655 114.52 86.5312 114.323C86.5968 114.126 86.728 113.93 86.8592 113.798C86.9904 113.667 87.1872 113.536 87.384 113.47C87.5808 113.405 87.7777 113.339 87.9745 113.339C88.1713 113.339 88.3681 113.405 88.5649 113.47C88.7617 113.536 88.9585 113.667 89.0898 113.798C89.221 113.93 89.3522 114.126 89.4178 114.323C89.6146 114.323 89.6802 114.52 89.6802 114.782ZM64.6189 112.552H63.8973V119.244H64.6189V116.423C65.7998 117.407 66.9807 117.472 67.8992 116.619C68.2928 116.226 68.5553 115.635 68.6209 115.045C68.6865 114.454 68.4896 113.864 68.1616 113.405C67.8336 112.945 67.3744 112.683 66.8495 112.552C66.4559 112.421 66.0622 112.486 65.6686 112.552C65.275 112.617 64.9469 112.88 64.6189 113.208C64.6189 112.945 64.6189 112.749 64.6189 112.552ZM66.2591 113.142C66.4559 113.142 66.7183 113.208 66.9151 113.273C67.1119 113.339 67.3087 113.47 67.44 113.667C67.5712 113.798 67.7024 113.995 67.768 114.192C67.8336 114.389 67.8992 114.586 67.8336 114.848C67.8336 115.045 67.8336 115.242 67.768 115.438C67.7024 115.635 67.5712 115.832 67.44 115.963C67.3087 116.095 67.1119 116.226 66.9151 116.357C66.7183 116.423 66.5215 116.488 66.3247 116.488C66.1278 116.488 65.8654 116.423 65.6686 116.357C65.4718 116.291 65.275 116.16 65.1438 116.029C65.0126 115.898 64.8813 115.701 64.8157 115.504C64.7501 115.307 64.6845 115.11 64.6845 114.848C64.6845 114.651 64.6845 114.389 64.8157 114.192C64.8813 113.995 65.0126 113.798 65.1438 113.667C65.275 113.536 65.4718 113.405 65.6686 113.273C65.7998 113.208 65.9966 113.142 66.2591 113.142ZM76.8871 114.782C76.8871 115.11 76.9528 115.438 77.0184 115.701C77.1496 116.029 77.3464 116.291 77.5432 116.488C77.8056 116.685 78.068 116.882 78.3305 117.013C78.6585 117.144 78.9209 117.144 79.2489 117.144C79.577 117.144 79.905 117.144 80.1674 117.013C80.4955 116.882 80.7579 116.751 80.9547 116.488C81.1515 116.226 81.3483 116.029 81.4795 115.701C81.6107 115.373 81.6763 115.11 81.6107 114.782C81.6107 114.454 81.6107 114.126 81.4795 113.864C81.3483 113.536 81.2171 113.273 80.9547 113.077C80.7579 112.88 80.4298 112.683 80.1674 112.552C79.8394 112.421 79.577 112.421 79.2489 112.421C78.9209 112.421 78.5929 112.421 78.3305 112.552C78.0024 112.683 77.74 112.814 77.5432 113.077C77.2808 113.273 77.1496 113.536 77.0184 113.864C76.9528 114.126 76.8871 114.454 76.8871 114.782ZM80.8891 114.782C80.8891 114.979 80.8891 115.242 80.8235 115.438C80.7579 115.635 80.6267 115.832 80.4955 115.963C80.3642 116.095 80.1674 116.226 79.9706 116.357C79.7738 116.423 79.577 116.488 79.3146 116.488C79.1177 116.488 78.9209 116.423 78.7241 116.357C78.5273 116.291 78.3305 116.16 78.1993 116.029C78.068 115.898 77.9368 115.701 77.8712 115.504C77.8056 115.307 77.74 115.11 77.74 114.914C77.74 114.717 77.74 114.454 77.8056 114.258C77.8712 114.061 78.0024 113.864 78.1337 113.733C78.2649 113.601 78.4617 113.47 78.6585 113.339C78.8553 113.273 79.0521 113.208 79.3146 113.208C79.5114 113.208 79.7738 113.273 79.9706 113.339C80.1674 113.405 80.3642 113.536 80.4955 113.733C80.6267 113.864 80.7579 114.061 80.8235 114.258C80.8891 114.389 80.8891 114.586 80.8891 114.782ZM98.9306 114.782C98.9306 115.11 98.9962 115.438 99.1274 115.701C99.2586 116.029 99.4554 116.291 99.6522 116.488C99.9147 116.685 100.177 116.882 100.44 117.013C100.768 117.144 101.03 117.144 101.358 117.144C101.686 117.144 102.014 117.079 102.276 117.013C102.604 116.882 102.867 116.751 103.064 116.488C103.261 116.291 103.457 115.963 103.589 115.701C103.72 115.373 103.72 115.11 103.72 114.782C103.72 114.454 103.654 114.126 103.589 113.864C103.457 113.601 103.326 113.273 103.064 113.077C102.801 112.88 102.539 112.683 102.276 112.552C101.948 112.421 101.686 112.421 101.358 112.421C101.03 112.421 100.702 112.421 100.44 112.552C100.111 112.683 99.8491 112.814 99.6522 113.077C99.3898 113.273 99.2586 113.536 99.1274 113.864C98.9962 114.192 98.9306 114.454 98.9306 114.782ZM102.933 114.848C102.933 115.045 102.933 115.242 102.867 115.438C102.801 115.635 102.67 115.832 102.539 115.963C102.408 116.095 102.211 116.226 102.014 116.291C101.817 116.357 101.62 116.423 101.424 116.423C101.227 116.423 100.964 116.357 100.768 116.291C100.571 116.226 100.374 116.095 100.243 115.898C100.111 115.766 99.9803 115.57 99.9147 115.373C99.8491 115.176 99.7835 114.979 99.7835 114.717C99.7835 114.52 99.7835 114.258 99.9147 114.061C100.046 113.864 100.111 113.667 100.243 113.536C100.374 113.405 100.571 113.273 100.768 113.142C100.964 113.077 101.161 113.011 101.424 113.011C101.62 113.011 101.883 113.077 102.08 113.142C102.276 113.208 102.473 113.339 102.604 113.536C102.736 113.667 102.867 113.864 102.933 114.061C102.867 114.389 102.933 114.586 102.933 114.848ZM53.0068 117.079C53.4004 117.21 53.794 117.21 54.1877 117.079C54.5813 116.947 54.9093 116.751 55.1717 116.423C55.1717 116.685 55.2373 116.816 55.2373 116.947H55.8934C55.8934 116.029 55.8934 115.11 55.8934 114.192C55.8934 113.208 55.5654 112.683 54.9093 112.486C54.0564 112.224 52.6787 112.421 52.2851 113.142C52.4163 113.273 52.5475 113.405 52.6787 113.536C54.1877 112.749 55.1061 113.011 55.1061 114.192C54.9093 114.192 54.6469 114.192 54.4501 114.192C53.9252 114.258 53.3348 114.323 52.8099 114.52C52.5475 114.586 52.2851 114.782 52.1539 115.045C52.0227 115.307 51.9571 115.635 52.0227 115.898C52.0227 116.16 52.1539 116.423 52.3507 116.619C52.4819 116.882 52.7443 117.013 53.0068 117.079ZM53.4004 115.045C53.9252 114.979 54.5157 114.914 55.0405 114.848C55.1061 115.963 54.5813 116.619 53.5972 116.554C53.4004 116.554 53.2036 116.488 53.0724 116.423C52.9412 116.291 52.8099 116.16 52.8099 115.963C52.8099 115.898 52.8099 115.766 52.8099 115.701C52.8099 115.635 52.8755 115.504 52.9412 115.438C53.0068 115.373 53.0724 115.307 53.138 115.242C53.2036 115.11 53.3348 115.045 53.4004 115.045ZM71.9011 114.258C71.3763 114.323 70.7858 114.389 70.261 114.586C69.9986 114.651 69.7361 114.848 69.6049 115.11C69.4737 115.373 69.4081 115.635 69.4737 115.963C69.4737 116.226 69.6049 116.488 69.8018 116.685C69.9986 116.882 70.1954 117.013 70.5234 117.079C70.917 117.21 71.3107 117.21 71.7043 117.144C72.0979 117.013 72.426 116.816 72.6884 116.488C72.754 116.685 72.754 116.882 72.8196 117.013H73.4757C73.4757 116.029 73.4757 115.11 73.4757 114.126C73.4757 113.798 73.4757 113.536 73.2788 113.208C73.082 112.88 72.8852 112.683 72.6228 112.552C72.1636 112.355 71.6387 112.289 71.1795 112.421C70.6546 112.486 70.1954 112.749 69.8674 113.077L70.261 113.601C70.5234 113.339 70.8514 113.208 71.2451 113.142C71.6387 113.077 71.9667 113.142 72.2948 113.273C72.426 113.339 72.5572 113.536 72.6884 113.667C72.754 113.864 72.754 113.995 72.754 114.192C72.2948 114.258 72.0979 114.258 71.9011 114.258ZM70.9827 116.488C70.7858 116.488 70.6546 116.423 70.5234 116.291C70.3922 116.16 70.3266 116.029 70.261 115.832C70.1954 115.635 70.261 115.504 70.3266 115.373C70.3922 115.242 70.589 115.11 70.7202 115.11C71.3107 114.979 71.9011 114.979 72.4916 114.848C72.6228 116.029 71.9667 116.619 70.9827 116.488ZM96.8312 116.423C96.5688 116.488 96.2408 116.488 95.9783 116.423C95.7159 116.357 95.4535 116.16 95.3223 115.898C95.1255 116.095 94.9286 116.226 94.7318 116.357C94.9943 116.751 95.3879 117.013 95.7815 117.144C96.2408 117.275 96.7 117.275 97.0936 117.144C97.4217 117.079 97.7497 116.947 97.9465 116.685C98.1433 116.423 98.2745 116.095 98.2745 115.766C98.2745 115.11 97.8809 114.717 97.1592 114.52C96.8312 114.454 96.5032 114.389 96.1752 114.258C95.9783 114.192 95.7159 113.93 95.7815 113.798C95.8471 113.667 95.9127 113.602 95.9783 113.47C96.0439 113.405 96.1751 113.339 96.3064 113.273C96.5688 113.208 96.8312 113.208 97.028 113.273C97.2905 113.339 97.4873 113.536 97.6185 113.733C97.8153 113.601 98.0121 113.47 98.2089 113.339C97.7497 112.289 96.0439 112.289 95.3879 112.945C95.2567 113.077 95.1255 113.273 95.0599 113.47C94.9943 113.667 94.9943 113.864 95.0599 114.061C95.1255 114.258 95.1911 114.454 95.3223 114.586C95.4535 114.717 95.6503 114.848 95.7815 114.914C96.1751 115.045 96.6344 115.176 97.028 115.242C97.3561 115.307 97.6185 115.504 97.5529 115.832C97.4873 115.963 97.4217 116.094 97.3561 116.16C97.0936 116.291 96.9624 116.357 96.8312 116.423ZM108.05 113.667C108.247 113.47 108.443 113.339 108.64 113.142C108.181 112.683 107.525 112.421 106.869 112.421C106.213 112.421 105.557 112.683 105.098 113.142C104.704 113.667 104.507 114.323 104.507 114.979C104.573 115.635 104.835 116.226 105.36 116.685C105.819 117.013 106.41 117.21 107 117.144C107.591 117.079 108.115 116.816 108.509 116.357C108.378 116.226 108.181 116.029 107.984 115.898C107.853 116.029 107.722 116.16 107.525 116.291C107.328 116.357 107.131 116.423 106.934 116.423C106.738 116.423 106.541 116.423 106.344 116.357C106.147 116.291 105.95 116.16 105.819 116.029C105.491 115.701 105.36 115.307 105.294 114.848C105.294 114.389 105.36 113.995 105.622 113.601C105.754 113.405 105.95 113.273 106.147 113.208C106.344 113.142 106.541 113.077 106.803 113.077C107 113.077 107.262 113.142 107.459 113.208C107.722 113.405 107.919 113.536 108.05 113.667ZM61.0762 113.208C61.3386 113.142 61.6011 113.142 61.8635 113.208C62.1259 113.273 62.3227 113.47 62.5195 113.667C62.7164 113.47 62.9132 113.273 63.11 113.142C62.6508 112.683 62.0603 112.421 61.4699 112.421C60.8138 112.421 60.2234 112.617 59.7641 113.077C59.3049 113.536 59.1081 114.192 59.1081 114.848C59.1081 115.504 59.3705 116.095 59.8297 116.619C60.289 117.013 60.8794 117.21 61.4699 117.21C62.0603 117.21 62.6508 116.947 63.11 116.554L62.6508 115.963C61.7979 116.619 61.0106 116.685 60.4202 116.095C60.1577 115.766 59.9609 115.373 59.9609 114.979C59.9609 114.586 60.0265 114.126 60.289 113.798C60.4858 113.47 60.8138 113.273 61.0762 113.208ZM94.535 110.059C94.2726 109.993 94.1414 109.928 93.879 109.796C92.8949 112.289 91.9764 114.717 90.9923 117.144L91.6484 117.407C92.6325 114.979 93.5509 112.552 94.535 110.059ZM83.6445 114.192C83.6445 114.061 83.7101 113.864 83.7757 113.733C83.8413 113.601 83.9725 113.47 84.1038 113.405C84.235 113.339 84.3662 113.273 84.563 113.208C84.6942 113.142 84.891 113.142 85.0222 113.208C85.0878 113.208 85.219 113.208 85.2846 113.208V112.486C84.9566 112.421 84.6286 112.486 84.3006 112.552C83.9725 112.683 83.7101 112.88 83.5133 113.142C83.4477 112.88 83.4477 112.749 83.4477 112.617H82.7916V117.079H83.5133C83.5133 116.751 83.5133 116.423 83.5133 116.16C83.5789 115.504 83.5789 114.848 83.6445 114.192ZM57.2711 117.013H57.9928V112.552H57.2711V117.013ZM74.6566 116.488C74.6566 116.554 74.6566 116.619 74.6566 116.751C74.6566 116.816 74.7222 116.882 74.7878 116.947C74.8534 117.013 74.919 117.079 74.9846 117.079C75.0502 117.079 75.1158 117.144 75.1814 117.079C75.5094 117.079 75.7062 116.882 75.7719 116.488C75.7719 116.423 75.7719 116.357 75.7062 116.291C75.7062 116.226 75.6406 116.16 75.575 116.095C75.5094 116.029 75.4438 116.029 75.3782 115.963C75.3126 115.963 75.247 115.898 75.1814 115.963C75.1158 115.963 75.0502 115.963 74.9846 115.963C74.919 115.963 74.8534 116.029 74.7878 116.095C74.7222 116.16 74.7222 116.226 74.6566 116.291C74.6566 116.357 74.6566 116.423 74.6566 116.488ZM58.124 110.846C58.124 110.452 57.9272 110.256 57.5991 110.256C57.5335 110.256 57.4679 110.256 57.4023 110.256C57.3367 110.256 57.2711 110.321 57.2055 110.387C57.1399 110.452 57.1399 110.518 57.0743 110.584C57.0087 110.649 57.0087 110.715 57.0087 110.78C57.0087 110.846 57.0087 110.912 57.0087 110.977C57.0087 111.043 57.0743 111.108 57.1399 111.174C57.2055 111.24 57.2711 111.24 57.3367 111.305C57.4023 111.305 57.4679 111.371 57.5335 111.371C57.5991 111.371 57.6647 111.371 57.7303 111.371C57.796 111.371 57.8616 111.305 57.9272 111.24C57.9928 111.174 57.9928 111.108 58.0584 111.043C58.124 110.977 58.124 110.912 58.124 110.846Z" fill="#E5E7E8"/>
<path d="M160.274 80.9902V68.9844H0V80.9902H160.274Z" fill="#E5E7E8"/>
</svg>
