<svg width="254" height="138" viewBox="0 0 254 138" fill="none" xmlns="http://www.w3.org/2000/svg">
<path d="M115.685 92.3913C116.56 91.8663 117.61 91.633 118.66 91.633C119.477 91.633 120.294 91.808 120.994 92.158C121.752 92.508 122.394 93.033 122.919 93.6163L124.844 91.6913C124.085 90.758 123.152 90.058 122.102 89.5913C120.819 89.0663 119.477 88.833 118.077 88.8913C116.677 88.9496 115.335 89.358 114.169 89.9997C112.885 90.758 111.835 91.808 111.077 93.1497C110.319 94.5497 109.969 96.0663 109.969 97.6413C109.969 99.2163 110.319 100.733 111.077 102.133C111.777 103.416 112.827 104.525 114.11 105.283C115.452 106.041 116.969 106.45 118.485 106.391C119.71 106.391 120.935 106.158 122.102 105.691C123.152 105.225 124.144 104.466 124.844 103.591L122.919 101.666C122.394 102.308 121.752 102.833 120.994 103.183C120.235 103.533 119.419 103.708 118.602 103.708C117.552 103.708 116.56 103.475 115.627 102.95C114.752 102.425 114.052 101.725 113.585 100.85C113.119 99.9163 112.827 98.808 112.827 97.758C112.827 96.708 113.06 95.658 113.585 94.6663C114.11 93.6747 114.81 92.9163 115.685 92.3913ZM112.71 72.6747H120.877V79.9663H123.794V62.933H120.877V69.933H112.71V62.933H109.794V79.9663H112.71V72.6747ZM127.41 79.9663H130.327V62.933H127.41V79.9663ZM142.81 63.6913C141.702 63.1663 140.477 62.933 139.252 62.9913H134.002V79.9663H136.919V75.0663H139.252C140.477 75.0663 141.702 74.833 142.81 74.3663C143.802 73.8997 144.619 73.1997 145.144 72.2663C145.669 71.2747 145.96 70.1663 145.96 69.058C145.96 67.9497 145.669 66.8413 145.144 65.8497C144.619 64.858 143.802 64.158 142.81 63.6913ZM141.994 71.508C141.352 72.0913 140.36 72.383 139.077 72.383H136.919V65.6163H139.077C140.36 65.6163 141.352 65.908 141.994 66.4913C142.635 67.0747 142.985 67.8913 142.985 68.9997C142.985 70.108 142.694 70.9247 141.994 71.508ZM171.51 62.9913L163.635 79.9663H166.96L168.71 76.058H177.46L179.21 79.9663H182.594L174.719 62.933H171.51V62.9913ZM169.819 73.5497L173.085 66.1413L176.352 73.5497H169.819ZM140.185 89.9997C138.844 89.2413 137.327 88.8913 135.752 88.8913C134.177 88.8913 132.719 89.2997 131.319 89.9997C130.035 90.758 128.927 91.808 128.227 93.1497C127.469 94.5497 127.119 96.0663 127.119 97.6413C127.119 99.2163 127.527 100.733 128.227 102.133C128.927 103.416 130.035 104.525 131.319 105.283C132.66 106.041 134.177 106.391 135.752 106.391C137.327 106.391 138.785 105.983 140.185 105.283C141.469 104.525 142.519 103.475 143.277 102.133C144.035 100.733 144.385 99.2163 144.385 97.6413C144.385 96.0663 143.977 94.5497 143.277 93.1497C142.519 91.808 141.469 90.758 140.185 89.9997ZM140.652 100.675C140.185 101.55 139.485 102.308 138.669 102.833C137.794 103.358 136.802 103.591 135.81 103.591C134.819 103.591 133.827 103.3 132.952 102.833C132.077 102.308 131.377 101.608 130.969 100.675C130.502 99.7413 130.21 98.6913 130.21 97.583C130.21 96.4747 130.444 95.483 130.969 94.4913C131.435 93.6163 132.135 92.858 132.952 92.333C133.827 91.808 134.819 91.5747 135.81 91.5747C136.802 91.5747 137.794 91.8663 138.669 92.333C139.544 92.858 140.244 93.558 140.652 94.4913C141.119 95.4247 141.41 96.4747 141.41 97.583C141.41 98.6913 141.119 99.7413 140.652 100.675ZM239.819 89.1247V91.808H245.127V106.158H248.102V91.808H253.41V89.1247H239.819ZM235.094 100.616L226.285 89.1247H223.835V106.158H226.81V94.6663L235.619 106.158H238.069V89.1247H235.094V100.616ZM161.477 89.1247L156.519 98.1663L151.444 89.1247H147.769V106.158H150.919V94.3747L156.46 104.175L162.119 94.1997V106.1H165.269V89.0663H161.477V89.1247ZM177.577 89.8247C176.469 89.2997 175.185 89.0663 173.96 89.1247H168.652V106.158H171.627V101.258H173.96C175.185 101.258 176.469 101.025 177.577 100.558C178.569 100.091 179.385 99.3913 179.969 98.458C180.494 97.4663 180.785 96.358 180.785 95.2497C180.785 94.1413 180.494 93.033 179.969 92.0413C179.385 91.0497 178.569 90.2913 177.577 89.8247ZM176.76 97.6997C176.119 98.283 175.127 98.5747 173.785 98.5747H171.569V91.808H173.785C175.069 91.808 176.06 92.0996 176.76 92.683C177.402 93.2663 177.752 94.083 177.752 95.1913C177.81 96.2413 177.46 97.1163 176.76 97.6997ZM158.035 76.058L159.785 79.9663H163.169L155.294 62.933H152.085L144.269 79.9663H147.594L149.344 76.058H158.035ZM153.719 66.1413L156.985 73.5497H150.452L153.719 66.1413ZM186.502 89.1247H183.527V106.158H194.844V103.475H186.502V89.1247ZM197.294 106.1H200.269V89.0663H197.294V106.1ZM77.7103 125.291C77.7686 129.375 77.8269 132.35 77.8853 133.808C77.9436 133.983 77.9436 134.216 77.8853 134.391C77.8853 134.625 77.8853 134.8 77.8853 134.8C77.8853 135.616 78.0019 136.433 78.2353 137.191C78.4686 136.433 78.5853 135.616 78.5853 134.8C78.5853 134.508 78.702 130.25 78.8769 123.425C78.8186 123.483 78.7603 123.541 78.7603 123.6C78.3519 124.125 78.0019 124.708 77.7103 125.291ZM65.5769 40.1247C66.5103 39.133 67.3853 37.9663 68.0269 36.7413C67.5603 37.7913 65.7519 41.758 67.5019 42.108C69.4269 42.458 71.5853 41.8747 75.4936 36.9163C75.3769 30.558 75.2603 25.0163 75.2019 20.8163H73.1019C72.9853 20.8163 72.9269 20.8163 72.8103 20.8163C71.6436 20.8163 69.7186 20.6997 68.4353 18.7747C67.0353 16.6747 66.9769 14.5163 66.9186 12.9413C66.8603 10.6663 66.2769 6.52466 63.4186 4.19132C61.4353 2.61632 56.0686 1.39132 51.1103 3.37465C49.4769 4.01632 46.2103 5.70799 43.0019 7.28299C40.0853 8.74132 36.3519 10.5497 35.1853 10.5497C37.1103 9.67466 39.6769 8.39132 42.4769 6.81632C45.6853 5.06632 49.0686 3.19965 50.7603 2.49965C54.1436 1.15799 60.6186 0.749658 63.9436 3.43299C67.0936 5.99966 67.7353 10.433 67.7936 12.8247C67.8519 14.3997 67.9103 16.3247 69.1353 18.2497C70.2436 19.883 71.9936 19.883 73.0436 19.883H73.2769H75.1436C75.1436 19.358 75.1436 18.8913 75.1436 18.3663C73.2769 18.483 70.5936 18.5997 69.4269 16.0913C68.0269 13.058 69.5436 5.29966 64.8769 2.03299C60.2103 -1.23368 52.7436 -0.417008 46.0936 3.43299C39.5019 7.22466 30.7519 12.183 19.9603 16.4997C9.1686 20.8163 2.46027 22.5663 1.17694 22.7413C-0.0480639 22.9747 2.1686 23.7913 6.77694 23.908C11.3853 24.0247 15.2353 23.6747 15.2353 23.6747L49.0686 8.27466C49.0686 8.27466 19.9019 22.7997 17.4519 24.3747C15.0019 25.9497 13.0186 26.4747 13.1936 27.933C13.3686 29.3913 15.2353 29.2163 20.3686 29.0997C25.5019 28.983 26.6103 28.5163 28.3603 27.9913C30.1103 27.4663 49.0686 18.7163 49.0686 18.7163C49.0686 18.7163 28.7686 28.808 25.8519 31.1413C22.9353 33.4747 26.0853 34.233 28.0686 34.2913C30.1103 34.3497 35.5353 34.058 38.5686 32.5413C41.6019 31.0247 51.0519 24.958 51.0519 24.958C51.0519 24.958 41.7186 31.6663 39.9103 33.183C38.4519 34.408 37.6936 35.458 38.0436 36.7413C38.5686 38.3746 41.3686 38.1997 45.1019 36.858C45.1019 36.858 48.9519 35.5163 50.4103 34.233C51.8686 32.8913 55.9519 29.2747 55.9519 29.2747C55.9519 29.2747 51.1103 34.2913 49.8853 36.4496C48.7186 38.608 48.4853 39.133 49.0686 40.358C49.8853 42.108 56.0686 40.2997 57.8186 38.433C59.1019 36.9747 60.3269 35.458 61.4353 33.8246C61.4353 33.8246 59.5686 36.858 59.1603 38.608C58.7519 40.358 58.2853 41.758 59.9769 41.933C61.8436 42.2247 63.5936 42.283 65.5769 40.1247ZM77.1269 79.8497C77.3019 79.733 77.4769 79.6163 77.6519 79.4997C78.0019 79.2663 78.2936 79.0913 78.5269 78.858C78.9936 78.5663 79.4603 78.2163 79.9269 77.9247C79.9853 74.5997 80.1019 71.2163 80.1603 67.8913C79.2269 67.483 78.2353 67.0747 77.1853 66.6663C77.1269 66.6663 77.0686 66.608 77.0103 66.608C76.8936 66.5497 76.8353 66.5497 76.7186 66.4913C76.0186 66.258 75.3769 65.9663 74.6186 65.733C73.7436 65.383 72.8686 65.0913 71.9936 64.7413C66.1603 67.833 64.9936 69.2913 64.9936 72.1497C64.9936 76.1747 68.4353 77.983 74.3853 81.7747C75.3186 81.0747 76.2519 80.433 77.1269 79.8497ZM69.9519 72.6747C69.9519 72.6747 69.5436 70.108 76.1353 67.133C76.3103 67.0747 76.4853 66.958 76.6603 66.8997C76.7186 70.9247 76.7769 74.9497 76.8936 78.9747C73.627 76.758 69.9519 74.658 69.9519 72.6747ZM79.9269 122.2C79.6353 122.55 79.3436 122.9 79.0519 123.191C80.7436 125.466 80.6269 127.683 79.6936 130.541C80.5686 129.55 82.3186 127.041 80.8603 123.775C80.5686 123.25 80.2769 122.725 79.9269 122.2ZM77.2436 98.283C77.8853 98.9247 78.6436 99.683 79.4019 100.441C79.8686 100.908 80.3353 101.375 80.8603 101.9C80.9186 101.958 81.0353 102.016 81.1519 102.133C85.1186 98.6913 88.7353 95.4247 88.7353 91.3413C88.7353 88.133 85.6436 85.2163 82.5519 82.883C82.2603 83.058 81.9686 83.233 81.6769 83.4663C80.9769 83.933 80.3353 84.3413 79.7519 84.7497C79.7519 84.7497 79.6936 84.7497 79.6936 84.808C79.5769 84.9247 79.4019 84.983 79.2853 85.0997C78.4686 85.683 77.7103 86.208 77.0103 86.733C77.1269 90.6413 77.1853 94.5497 77.2436 98.283ZM79.7519 85.3913C83.6019 88.1913 85.1186 89.9997 85.1186 91.983C85.1186 94.0247 82.9603 96.4163 79.4603 99.9163C79.5186 95.2497 79.6353 90.408 79.7519 85.3913ZM101.044 29.333C101.044 29.333 105.127 32.9497 106.585 34.2913C108.044 35.633 111.894 36.9163 111.894 36.9163C115.627 38.258 118.427 38.433 118.952 36.7997C119.36 35.5163 118.544 34.408 117.085 33.2413C115.277 31.7247 105.944 25.0163 105.944 25.0163C105.944 25.0163 115.394 31.083 118.427 32.5997C121.46 34.1163 126.885 34.408 128.927 34.3497C130.969 34.2913 134.06 33.533 131.144 31.1997C128.227 28.8663 107.927 18.7747 107.927 18.7747C107.927 18.7747 126.827 27.583 128.635 28.0497C130.385 28.5747 131.494 28.983 136.627 29.158C141.76 29.2747 143.569 29.4497 143.802 27.9913C144.035 26.5913 141.994 26.0663 139.544 24.433C137.094 22.858 107.927 8.33299 107.927 8.33299L141.76 23.733C141.76 23.733 145.61 24.083 150.219 23.9663C154.827 23.8497 157.044 23.033 155.819 22.7997C154.594 22.5663 147.827 20.8747 137.035 16.558C126.244 12.2413 117.494 7.34132 110.902 3.49132C104.31 -0.300343 96.7853 -1.17534 92.1186 2.09132C87.4519 5.35799 88.9686 13.058 87.5686 16.1497C86.4019 18.658 83.7186 18.5413 81.8519 18.4247C81.8519 18.8913 81.8519 19.4163 81.7936 19.9413H83.7186H83.9519C85.0019 19.9413 86.7519 19.9413 87.8603 18.308C89.0853 16.4413 89.1436 14.458 89.2019 12.883C89.2603 10.4913 89.9019 6.05799 93.0519 3.49132C96.3769 0.807991 102.852 1.21632 106.235 2.55799C107.927 3.19966 111.31 5.06632 114.519 6.87465C117.319 8.44965 119.885 9.73299 121.81 10.608C120.585 10.608 116.91 8.79966 113.994 7.34132C110.844 5.70799 107.577 4.07466 105.885 3.43299C100.927 1.44966 95.5603 2.67465 93.5769 4.24965C90.6603 6.58299 90.1353 10.7247 90.0769 12.9997C90.0186 14.5747 89.9603 16.7913 88.5603 18.833C87.3353 20.758 85.4103 20.8747 84.1853 20.8747C84.0686 20.8747 84.0103 20.8747 83.8936 20.8747H81.7936C81.6769 25.0747 81.5603 30.558 81.4436 36.7997C85.4103 41.8747 87.6853 42.5163 89.5519 42.108C91.3019 41.758 89.5519 37.7913 89.0269 36.7413C89.7269 37.9663 90.5436 39.0747 91.4769 40.1247C93.4019 42.283 95.2103 42.2247 96.9603 41.9913C98.7103 41.758 98.1853 40.4163 97.7769 38.6663C97.3686 36.9163 95.5019 33.883 95.5019 33.883C96.6103 35.458 97.8353 37.033 99.1186 38.4913C100.869 40.358 107.052 42.2247 107.869 40.4163C108.394 39.2497 108.219 38.6663 107.052 36.508C105.944 34.3497 101.044 29.333 101.044 29.333ZM78.5853 11.483C79.5186 11.483 80.4519 11.1913 81.2103 10.6663C81.9686 10.1413 82.6103 9.38299 82.9603 8.56632C83.3103 7.69132 83.4269 6.75799 83.2519 5.82466C83.077 4.89132 82.6103 4.07465 81.9686 3.37465C81.327 2.73299 80.452 2.26632 79.5186 2.09132C78.5853 1.91632 77.6519 1.97466 76.7769 2.38299C75.9019 2.73299 75.1436 3.37466 74.6769 4.13299C74.1519 4.89132 73.8603 5.82466 73.8603 6.75799C73.8603 7.39966 73.9769 7.98299 74.2103 8.56632C74.4436 9.14965 74.7936 9.67465 75.2603 10.083C75.7269 10.5497 76.1936 10.8997 76.7769 11.133C77.3019 11.3663 77.9436 11.483 78.5853 11.483ZM94.1019 46.9497C94.1019 46.9497 93.9853 43.683 88.6769 43.333C83.2519 42.983 83.0186 45.3163 83.1353 46.1913C83.5436 46.1913 83.8936 46.308 83.8936 46.4247C83.8936 46.5413 83.6019 46.658 83.2519 46.658C83.5436 47.533 84.3603 48.583 86.6936 49.7497C88.6186 50.683 89.5519 50.6247 90.6603 50.4497C90.6603 50.4497 91.9436 51.208 91.9436 52.433C91.9436 53.5997 89.9019 55.8747 80.3353 60.658C80.9186 34.8747 81.4436 12.2413 81.4436 12.2413H82.0269C82.2603 12.2413 82.4936 12.1247 82.6686 11.9497C82.8436 11.7747 82.9603 11.5413 82.9603 11.308V11.0163C82.9603 10.8997 82.9603 10.783 82.9019 10.6663C82.8436 10.5497 82.7853 10.433 82.6686 10.3747C82.1436 10.958 81.5603 11.4247 80.8603 11.7747C80.1603 12.1247 79.4019 12.2413 78.6436 12.2413C77.8853 12.2413 77.1269 12.0663 76.4269 11.7747C75.7269 11.483 75.0853 10.958 74.6186 10.3747C74.5019 10.4913 74.4436 10.5497 74.3853 10.6663C74.3269 10.783 74.3269 10.8997 74.3269 11.0163V11.308C74.3269 11.5413 74.4436 11.7747 74.6186 11.9497C74.7936 12.1247 75.0269 12.2413 75.2603 12.2413H75.8436C75.8436 12.2413 76.2519 34.233 76.6603 59.5497C77.4769 59.958 78.2936 60.3663 79.2269 60.833C79.3436 60.8913 79.5186 60.9497 79.6353 61.008C81.7936 62.058 83.6019 62.933 85.1186 63.7497C90.2519 61.7663 95.2686 59.4913 96.7853 56.283C99.4686 50.333 94.1019 46.9497 94.1019 46.9497ZM86.9853 45.608C86.4019 45.608 85.9353 45.3163 85.9353 44.9663C85.9353 44.6163 86.4019 44.3247 86.9853 44.3247C87.5686 44.3247 88.0353 44.6163 88.0353 44.9663C88.0353 45.3163 87.5686 45.608 86.9853 45.608ZM77.7103 119.458C78.1769 118.875 78.5853 118.291 79.0519 117.766C79.1103 114.441 79.2269 110.708 79.2853 106.683C78.7019 106.1 78.0603 105.516 77.3603 104.875C77.1269 104.7 76.952 104.466 76.7186 104.291C76.4269 104 76.1353 103.766 75.8436 103.533C74.2103 105.05 71.0019 108.433 71.0019 111.35C71.0019 114.791 74.3269 118.291 76.8353 120.8C77.0686 120.275 77.3603 119.866 77.7103 119.458ZM77.3603 105.575C77.4769 110.533 77.5353 115.083 77.5936 118.991C75.6686 116.425 73.6269 113.8 73.6269 111.991C73.6269 110.3 74.6186 108.375 77.3603 105.575ZM78.7019 61.5913C67.3269 56.108 64.9936 53.5997 64.9936 52.3747C64.9936 51.1497 66.2769 50.3913 66.2769 50.3913C67.3853 50.6247 68.3186 50.6247 70.2436 49.6913C72.5769 48.583 73.3936 47.4747 73.6853 46.5997C73.3353 46.5997 73.0436 46.483 73.0436 46.3663C73.0436 46.2497 73.3936 46.133 73.8019 46.133V46.0747C73.8603 45.1997 73.5686 42.9247 68.2019 43.2747C62.8936 43.6247 62.7769 46.8913 62.7769 46.8913C62.7769 46.8913 57.4103 50.333 60.2103 56.1663C62.6603 61.358 74.1519 64.0997 80.8019 67.0747C87.3936 70.0497 86.9853 72.6163 86.9853 72.6163C86.9853 74.833 82.5519 77.1663 79.0519 79.6163C75.5519 82.0663 68.1436 86.3247 68.1436 91.3413C68.1436 95.9497 72.7519 99.508 77.2436 103.475C81.7936 107.441 83.2519 109.833 83.2519 112.05C83.2519 115.083 78.2353 119.166 75.6686 124.241C73.1019 129.316 78.1769 137.191 76.6019 133.05C74.9686 128.908 75.8436 125.991 77.9436 123.075C80.5103 119.516 85.9936 116.016 85.9936 111.291C85.9936 107.325 80.2186 102.658 80.2186 102.658C75.0853 97.5247 71.8186 94.608 71.8186 92.0413C71.8186 89.4747 74.2686 87.1997 81.1519 82.708C87.9769 78.2747 92.0019 76.5247 92.0019 72.208C92.0019 68.4163 90.0769 67.0747 78.7019 61.5913ZM69.9519 44.383C70.5353 44.383 71.0019 44.6747 71.0019 45.0247C71.0019 45.3747 70.5353 45.6663 69.9519 45.6663C69.3686 45.6663 68.9019 45.3747 68.9019 45.0247C68.9019 44.6747 69.3686 44.383 69.9519 44.383ZM210.419 89.1247L202.544 106.158H205.869L207.619 102.25H216.369L218.119 106.158H221.502L213.627 89.1247H210.419ZM208.727 99.7413L211.994 92.333L215.26 99.7413H208.727Z" fill="#E5E7E8"/>
</svg>
