<svg width="150" height="150" viewBox="0 0 150 150" fill="none" xmlns="http://www.w3.org/2000/svg">
<path d="M138.773 44.1824C140.873 44.1824 142.849 45.0075 144.349 46.5078C144.474 46.6578 144.599 46.7828 144.724 46.9328C145.374 47.758 146.499 48.083 147.5 47.733C148.5 47.3829 149.175 46.4327 149.175 45.3826V20.3284C149.175 18.9532 148.05 17.828 146.674 17.828H126.996C127.621 16.3027 127.946 14.6274 127.946 12.9272C127.946 5.80097 122.17 0 115.069 0C107.968 0 102.192 5.80097 102.192 12.9272C102.192 14.6274 102.517 16.3027 103.142 17.828H83.4389H63.7606C64.3857 16.3027 64.7108 14.6274 64.7108 12.9272C64.7108 5.80097 58.9348 0 51.8336 0C44.7325 0 38.9565 5.80097 38.9565 12.9272C38.9565 14.6274 39.2815 16.3027 39.9067 17.828H20.2034C18.8281 17.828 17.7029 18.9532 17.7029 20.3284V40.1317C16.2027 39.5066 14.5774 39.1815 12.8771 39.1815C5.77596 39.1815 0 44.9825 0 52.1087C0 59.2349 5.77596 65.0358 12.8771 65.0358C14.5774 65.0358 16.2027 64.7108 17.728 64.0857V83.889V103.692C16.2027 103.092 14.5774 102.767 12.8771 102.767C5.77596 102.767 0 108.568 0 115.694C0 122.82 5.77596 128.621 12.8771 128.621C14.5774 128.621 16.2027 128.296 17.728 127.671V147.5C17.728 148.875 18.8531 150 20.2284 150H45.1325C46.1827 150 47.1329 149.325 47.4829 148.325C47.833 147.325 47.5079 146.199 46.6828 145.549C46.5328 145.449 46.4077 145.324 46.2827 145.174C43.2072 142.074 43.2072 137.023 46.2827 133.922C47.783 132.422 49.7583 131.597 51.8586 131.597C53.959 131.597 55.9343 132.422 57.4096 133.922C60.4851 136.998 60.4851 142.049 57.4096 145.149C57.2595 145.299 57.1345 145.424 56.9845 145.524C56.1594 146.199 55.8343 147.3 56.1844 148.3C56.5344 149.3 57.4846 149.975 58.5348 149.975H83.4389H108.343C109.393 149.975 110.343 149.3 110.693 148.3C111.044 147.3 110.718 146.174 109.893 145.524C109.743 145.424 109.618 145.299 109.493 145.149C106.418 142.049 106.418 136.998 109.493 133.897C110.993 132.397 112.969 131.572 115.069 131.572C117.17 131.572 119.145 132.397 120.62 133.897C123.696 136.973 123.696 142.024 120.62 145.124C120.495 145.249 120.345 145.374 120.22 145.499C119.395 146.174 119.07 147.275 119.42 148.275C119.77 149.275 120.72 149.95 121.77 149.95H146.674C148.05 149.95 149.175 148.825 149.175 147.45V122.47C149.175 121.42 148.5 120.47 147.5 120.12C146.499 119.77 145.374 120.095 144.724 120.92C144.599 121.07 144.474 121.195 144.349 121.345C142.849 122.845 140.873 123.671 138.773 123.671C136.673 123.671 134.697 122.845 133.222 121.37C130.147 118.27 130.122 113.219 133.222 110.118C134.697 108.618 136.648 107.893 138.773 107.793C140.873 107.793 142.849 108.618 144.349 110.118C144.474 110.243 144.599 110.393 144.724 110.518C145.374 111.344 146.499 111.694 147.5 111.319C148.5 110.968 149.175 110.018 149.175 108.968V83.914V58.8598C149.175 57.8096 148.5 56.8595 147.5 56.5094C146.499 56.1594 145.374 56.4844 144.724 57.3096C144.599 57.4596 144.474 57.5846 144.349 57.7346C142.849 59.2349 140.873 60.06 138.773 60.06C136.673 60.06 134.697 59.2349 133.222 57.7596C130.147 54.6591 130.122 49.6083 133.222 46.5078C134.697 45.0075 136.648 44.2074 138.773 44.1824ZM12.8771 60.06C8.52642 60.06 5.00083 56.5094 5.00083 52.1337C5.00083 47.758 8.52642 44.2074 12.8771 44.2074C14.9775 44.2074 16.9778 45.0325 18.4531 46.5578C19.1782 47.2829 20.2534 47.5079 21.1785 47.1079C22.1287 46.7328 22.7288 45.8076 22.7288 44.7825V22.8288H44.5324C45.5326 22.8288 46.4577 22.2287 46.8328 21.2785C47.2079 20.3534 47.0078 19.2782 46.2827 18.5531C44.7825 17.0528 43.9323 15.0525 43.9323 12.9272C43.9323 8.55143 47.4579 5.00083 51.8086 5.00083C56.1594 5.00083 59.685 8.55143 59.685 12.9272C59.685 15.0525 58.8598 17.0528 57.3346 18.5531C56.6094 19.2782 56.4094 20.3534 56.7845 21.2785C57.1595 22.2037 58.0847 22.8288 59.0848 22.8288H80.8885V40.3567C79.2132 39.5816 77.3879 39.1565 75.4876 39.1565C75.4876 39.1565 75.4876 39.1565 75.4626 39.1565C72.012 39.1565 68.7865 40.5068 66.3861 42.9572C61.3602 47.983 61.3602 56.1844 66.3861 61.2602C68.8115 63.6856 72.037 65.0358 75.4626 65.0358C75.4626 65.0358 75.4626 65.0358 75.4876 65.0358C77.3879 65.0358 79.2132 64.6358 80.8885 63.8606V81.4136H63.4606C65.6609 76.6128 64.8108 70.7618 60.8851 66.8361C58.4597 64.3857 55.2342 63.0355 51.7836 63.0355C51.7836 63.0355 51.7836 63.0355 51.7586 63.0355C48.3081 63.0355 45.0825 64.3857 42.6321 66.8361C38.7315 70.7618 37.8813 76.6378 40.0817 81.4136H22.6538V59.4599C22.6538 58.4347 22.0287 57.5346 21.1035 57.1345C20.1534 56.7595 19.0782 56.9595 18.3781 57.6846C16.9528 59.2099 14.9775 60.06 12.8771 60.06ZM60.9602 130.422C58.5348 127.971 55.3092 126.621 51.8586 126.621C51.8586 126.621 51.8586 126.621 51.8336 126.621C48.3831 126.621 45.1575 127.971 42.7071 130.422C38.8065 134.347 37.9563 140.223 40.1567 144.999H22.7288V123.046C22.7288 122.02 22.1037 121.12 21.1785 120.745C20.2284 120.345 19.1532 120.57 18.4531 121.295C16.9528 122.795 14.9775 123.646 12.8771 123.646C8.52642 123.646 5.00083 120.095 5.00083 115.719C5.00083 111.344 8.52642 107.793 12.8771 107.793C14.9775 107.793 16.9778 108.618 18.4531 110.143C19.1782 110.868 20.2534 111.094 21.1785 110.693C22.1287 110.318 22.7288 109.393 22.7288 108.393V86.4394H45.1325C46.1827 86.4394 47.1329 85.7643 47.4829 84.7641C47.833 83.764 47.5079 82.6388 46.6828 81.9887C46.5328 81.8886 46.4077 81.7636 46.2827 81.6136C43.2072 78.5131 43.2072 73.4622 46.2827 70.3617C47.783 68.8615 49.7583 68.0363 51.8586 68.0363C53.959 68.0363 55.9343 68.8615 57.4096 70.3617C60.4851 73.4372 60.4851 78.4881 57.4096 81.5886C57.2595 81.7386 57.1345 81.8636 56.9845 81.9637C56.1594 82.6388 55.8343 83.739 56.1844 84.7391C56.5344 85.7393 57.4846 86.4144 58.5348 86.4144H80.9385V103.717C79.4132 103.092 77.763 102.767 76.0877 102.767C68.9865 102.767 63.2105 108.568 63.2105 115.694C63.2105 122.82 68.9865 128.621 76.0877 128.621C77.788 128.621 79.4132 128.296 80.9385 127.671V144.999H63.5106C65.736 140.198 64.8858 134.347 60.9602 130.422ZM138.773 102.767C135.323 102.767 132.097 104.117 129.672 106.568C124.646 111.594 124.646 119.795 129.672 124.871C132.097 127.296 135.323 128.646 138.748 128.646C140.548 128.646 142.499 128.246 144.174 127.471V144.999H126.746C128.947 140.198 128.096 134.347 124.171 130.422C121.745 127.971 118.52 126.621 115.069 126.621C115.069 126.621 115.069 126.621 115.044 126.621C111.594 126.621 108.368 127.971 105.918 130.422C102.017 134.347 101.167 140.223 103.367 144.999H85.9393V123.046C85.9393 122.02 85.3142 121.12 84.3891 120.745C83.4389 120.345 82.3637 120.57 81.6636 121.295C80.1634 122.795 78.188 123.646 76.0877 123.646C71.737 123.646 68.2114 120.095 68.2114 115.719C68.2114 111.344 71.737 107.793 76.0877 107.793C78.188 107.793 80.1884 108.618 81.6636 110.143C82.3637 110.868 83.4639 111.094 84.3891 110.693C85.3392 110.318 85.9393 109.393 85.9393 108.393V86.4394H108.343C109.393 86.4394 110.343 85.7643 110.693 84.7641C111.044 83.764 110.718 82.6388 109.893 81.9887C109.743 81.8886 109.618 81.7636 109.493 81.6136C106.418 78.5131 106.418 73.4622 109.493 70.3617C110.993 68.8615 112.969 68.0363 115.069 68.0363C117.07 68.0363 119.145 68.8615 120.62 70.3617C123.696 73.4372 123.696 78.4881 120.62 81.5886C120.495 81.7136 120.345 81.8386 120.22 81.9637C119.395 82.6388 119.07 83.739 119.42 84.7391C119.77 85.7393 120.72 86.4144 121.77 86.4144H144.174V103.942C142.499 103.167 140.673 102.767 138.773 102.767ZM129.672 61.2602C132.097 63.6856 135.323 65.0358 138.748 65.0358C138.748 65.0358 138.748 65.0358 138.773 65.0358C140.673 65.0358 142.499 64.6358 144.174 63.8606V81.4136H126.746C128.947 76.6128 128.096 70.7618 124.171 66.8361C121.745 64.3857 118.52 63.0355 115.069 63.0355C115.069 63.0355 115.069 63.0355 115.044 63.0355C111.594 63.0355 108.368 64.3857 105.918 66.8361C102.017 70.7618 101.167 76.6378 103.367 81.4136H85.9393V58.8848C85.9393 57.8346 85.2642 56.8845 84.264 56.5344C83.2639 56.1844 82.1387 56.5094 81.4886 57.3346C81.3635 57.4846 81.2385 57.6096 81.1135 57.7596C79.6133 59.2599 77.6379 60.085 75.5376 60.085C73.4372 60.085 71.4619 59.2599 69.9867 57.7846C66.9111 54.6841 66.8861 49.6333 69.9867 46.5328C71.4619 45.0325 73.4372 44.2074 75.5376 44.2074C77.6379 44.2074 79.6133 45.0325 81.1135 46.5328C81.2385 46.6828 81.3635 46.8078 81.4886 46.9578C82.1387 47.783 83.2639 48.108 84.264 47.758C85.2642 47.4079 85.9393 46.4577 85.9393 45.4076V22.8788H107.743C108.743 22.8788 109.668 22.2787 110.043 21.3286C110.418 20.4034 110.218 19.3282 109.493 18.6031C107.993 17.1028 107.143 15.1025 107.143 12.9772C107.143 8.60143 110.668 5.05084 115.019 5.05084C119.37 5.05084 122.895 8.60143 122.895 12.9772C122.895 15.1025 122.07 17.1028 120.545 18.6031C119.82 19.3282 119.62 20.4034 119.995 21.3286C120.37 22.2537 121.295 22.8788 122.295 22.8788H144.099V40.4067C142.424 39.6316 140.598 39.2065 138.698 39.2065C138.698 39.2065 138.698 39.2065 138.673 39.2065C135.223 39.2065 131.997 40.5568 129.597 43.0072C124.646 48.008 124.646 56.2094 129.672 61.2602Z" fill="#E8530E"/>
</svg>
