<svg width="472" height="301" viewBox="0 0 472 301" fill="none" xmlns="http://www.w3.org/2000/svg">
<g opacity="0.7">
<path d="M184.228 223.606C260.878 300.136 350.036 335.198 383.368 301.917C416.7 268.637 381.584 179.617 304.935 103.087C228.285 26.556 139.127 -8.50525 105.795 24.7752C72.4631 58.0556 107.579 147.075 184.228 223.606Z" stroke="#E5E7E8" stroke-width="2" stroke-miterlimit="10"/>
<path d="M166.408 241.465C243.058 317.996 332.215 353.057 365.548 319.777C398.88 286.496 363.764 197.477 287.114 120.946C210.465 44.4154 121.307 9.35412 87.975 42.6346C54.6428 75.915 89.7585 164.935 166.408 241.465Z" stroke="#E5E7E8" stroke-width="2" stroke-miterlimit="10"/>
<path d="M193.275 214.676C269.925 291.207 359.083 326.268 392.415 292.988C425.747 259.707 390.631 170.688 313.982 94.157C237.332 17.6263 148.174 -17.4349 114.842 15.8455C81.51 49.1259 116.626 138.145 193.275 214.676Z" stroke="#E5E7E8" stroke-width="2" stroke-miterlimit="10"/>
<path d="M211.103 196.825C287.753 273.355 376.911 308.416 410.243 275.136C443.575 241.856 408.459 152.836 331.81 76.3054C255.16 -0.225263 166.002 -35.2865 132.67 -2.00606C99.3381 31.2744 134.454 120.294 211.103 196.825Z" stroke="#E5E7E8" stroke-width="2" stroke-miterlimit="10"/>
<path d="M220.142 187.895C296.792 264.426 385.95 299.487 419.282 266.206C452.614 232.926 417.498 143.906 340.849 67.3757C264.199 -9.15495 175.041 -44.2162 141.709 -10.9357C108.377 22.3447 143.493 111.364 220.142 187.895Z" stroke="#E5E7E8" stroke-width="2" stroke-miterlimit="10"/>
<path d="M202.322 205.754C278.972 282.285 368.129 317.346 401.462 284.066C434.794 250.785 399.678 161.766 323.028 85.2351C246.379 8.70442 157.221 -26.3568 123.889 6.92362C90.5569 40.2041 125.673 129.224 202.322 205.754Z" stroke="#E5E7E8" stroke-width="2" stroke-miterlimit="10"/>
<path d="M175.447 232.535C252.097 309.066 341.254 344.127 374.587 310.847C407.919 277.566 372.803 188.547 296.153 112.016C219.504 35.4857 130.346 0.424441 97.014 33.7049C63.6819 66.9853 98.7976 156.005 175.447 232.535Z" stroke="#E5E7E8" stroke-width="2" stroke-miterlimit="10"/>
<path d="M139.533 268.246C216.183 344.777 305.34 379.838 338.672 346.558C372.005 313.277 336.889 224.258 260.239 147.727C183.59 71.1966 94.4321 36.1354 61.1 69.4158C27.7678 102.696 62.8835 191.716 139.533 268.246Z" stroke="#E5E7E8" stroke-width="2" stroke-miterlimit="10"/>
<path d="M157.494 250.52C234.144 327.051 323.301 362.112 356.633 328.831C389.966 295.551 354.85 206.531 278.2 130.001C201.551 53.47 112.393 18.4088 79.0609 51.6893C45.7287 84.9697 80.8444 173.989 157.494 250.52Z" stroke="#E5E7E8" stroke-width="2" stroke-miterlimit="10"/>
<path d="M148.58 259.317C225.229 335.847 314.387 370.909 347.719 337.628C381.052 304.348 345.936 215.328 269.286 138.798C192.637 62.2669 103.479 27.2057 70.1468 60.4861C36.8147 93.7666 71.9304 182.786 148.58 259.317Z" stroke="#E5E7E8" stroke-width="2" stroke-miterlimit="10"/>
<path d="M229.056 189.098C305.706 265.629 394.864 300.69 428.196 267.409C461.528 234.129 426.412 145.11 349.763 68.5788C273.113 -7.95183 183.956 -43.0131 150.623 -9.73262C117.291 23.5478 152.407 112.567 229.056 189.098Z" stroke="#E5E7E8" stroke-width="2" stroke-miterlimit="10"/>
</g>
</svg>
