<svg width="23" height="22" viewBox="0 0 23 22" fill="none" xmlns="http://www.w3.org/2000/svg">
<path d="M1.47518 0H9.88695C10.2443 0 10.534 0.289698 10.534 0.647059V9.05882C10.534 9.41618 10.2443 9.70588 9.88695 9.70588H1.47518C1.11782 9.70588 0.828125 9.41618 0.828125 9.05882V0.647059C0.828125 0.289698 1.11782 0 1.47518 0ZM2.12224 1.29412V8.41177H9.23989V1.29412H2.12224ZM17.9752 0C20.6554 0 22.8281 2.17274 22.8281 4.85294C22.8281 7.53315 20.6554 9.70588 17.9752 9.70588C15.295 9.70588 13.1222 7.53315 13.1222 4.85294C13.1222 2.17274 15.295 0 17.9752 0ZM17.9752 1.29412C16.0097 1.29412 14.4164 2.88746 14.4164 4.85294C14.4164 6.81842 16.0097 8.41177 17.9752 8.41177C19.9407 8.41177 21.534 6.81842 21.534 4.85294C21.534 2.88746 19.9407 1.29412 17.9752 1.29412ZM5.68107 12.2941C8.36127 12.2941 10.534 14.4669 10.534 17.1471C10.534 19.8273 8.36127 22 5.68107 22C3.00086 22 0.828125 19.8273 0.828125 17.1471C0.828125 14.4669 3.00086 12.2941 5.68107 12.2941ZM5.68107 13.5882C3.71558 13.5882 2.12224 15.1816 2.12224 17.1471C2.12224 19.1125 3.71558 20.7059 5.68107 20.7059C7.64655 20.7059 9.23989 19.1125 9.23989 17.1471C9.23989 15.1816 7.64655 13.5882 5.68107 13.5882ZM13.7693 12.2941H22.1811C22.5384 12.2941 22.8281 12.5838 22.8281 12.9412V21.3529C22.8281 21.7103 22.5384 22 22.1811 22H13.7693C13.4119 22 13.1222 21.7103 13.1222 21.3529V12.9412C13.1222 12.5838 13.4119 12.2941 13.7693 12.2941ZM14.4164 20.7059H21.534V13.5882H14.4164V20.7059Z" fill="#E5E7E8"/>
</svg>
