<svg width="20" height="20" viewBox="0 0 20 20" fill="none" xmlns="http://www.w3.org/2000/svg">
<path d="M13.6718 7.49743H11.6693V5.83076C11.6693 4.97076 11.7393 4.42909 12.9718 4.42909H13.6951C14.1551 4.42909 14.5284 4.05576 14.5284 3.59576V2.55076C14.5284 2.11493 14.1943 1.74243 13.7593 1.71326C13.2559 1.67909 12.7518 1.66326 12.2468 1.66409C9.98594 1.66409 8.33594 3.04493 8.33594 5.57993V7.49743H6.66927C6.20927 7.49743 5.83594 7.87076 5.83594 8.33076V9.99743C5.83594 10.4574 6.20927 10.8308 6.66927 10.8308L8.33594 10.8299V17.4974C8.33594 17.9574 8.70927 18.3308 9.16927 18.3308H10.8359C11.2959 18.3308 11.6693 17.9574 11.6693 17.4974V10.8283L13.4809 10.8274C13.9043 10.8274 14.2601 10.5099 14.3084 10.0891L14.4993 8.42576C14.5568 7.93159 14.1701 7.49743 13.6718 7.49743Z" fill="#E5E7E8"/>
</svg>
