<svg width="122" height="40" viewBox="0 0 122 40" fill="none" xmlns="http://www.w3.org/2000/svg">
<g clip-path="url(#clip0_46_11103)">
<path d="M29.9637 14.1455H15.7716V18.3568H25.8366C25.3394 24.2622 20.4263 26.7806 15.7886 26.7806C9.85524 26.7806 4.67776 22.1122 4.67776 15.5688C4.67776 9.19466 9.61325 4.28563 15.8018 4.28563C20.5762 4.28563 23.3896 7.32929 23.3896 7.32929L26.3383 4.2758C26.3383 4.2758 22.5536 0.0625 15.651 0.0625C6.86229 0.0625 0.0625 7.48093 0.0625 15.4938C0.0625 23.3455 6.45889 31.0021 15.8755 31.0021C24.1579 31.0021 30.2207 25.3283 30.2207 16.9386C30.2207 15.1686 29.9637 14.1455 29.9637 14.1455Z" fill="#E5E7E8"/>
<path d="M41.5903 11.0938C35.767 11.0938 31.5938 15.6463 31.5938 20.9561C31.5938 26.3443 35.6416 30.9816 41.6587 30.9816C47.1059 30.9816 51.5684 26.8182 51.5684 21.0719C51.5684 14.4858 46.3774 11.0938 41.5903 11.0938ZM41.6482 14.9997C44.5119 14.9997 47.2255 17.3149 47.2255 21.0455C47.2255 24.6971 44.5233 27.0782 41.635 27.0782C38.4614 27.0782 35.9577 24.5364 35.9577 21.0166C35.9577 17.5723 38.4303 14.9997 41.6482 14.9997Z" fill="#E5E7E8"/>
<path d="M63.3325 11.0938C57.5092 11.0938 53.3359 15.6463 53.3359 20.9561C53.3359 26.3443 57.3838 30.9816 63.4009 30.9816C68.8481 30.9816 73.3106 26.8182 73.3106 21.0719C73.3106 14.4858 68.1196 11.0938 63.3325 11.0938ZM63.3904 14.9997C66.2541 14.9997 68.9677 17.3149 68.9677 21.0455C68.9677 24.6971 66.2655 27.0782 63.3772 27.0782C60.2035 27.0782 57.6999 24.5364 57.6999 21.0166C57.6999 17.5723 60.1725 14.9997 63.3904 14.9997Z" fill="#E5E7E8"/>
<path d="M84.6559 11.1094C79.3107 11.1094 75.1094 15.7909 75.1094 21.0454C75.1094 27.0308 79.9802 30.9998 84.5637 30.9998C87.3978 30.9998 88.9048 29.8748 90.0173 28.5836V30.5445C90.0173 33.9753 87.9342 36.0297 84.7901 36.0297C81.7527 36.0297 80.2291 33.7712 79.6997 32.4896L75.8779 34.0872C77.2337 36.9539 79.9629 39.9436 84.8217 39.9436C90.136 39.9436 94.1865 36.5961 94.1865 29.5759V11.7069H90.0173V13.3914C88.7363 12.0101 86.9833 11.1094 84.6559 11.1094ZM85.0428 15.0075C87.6634 15.0075 90.3542 17.2451 90.3542 21.0664C90.3542 24.9505 87.6691 27.0912 84.9849 27.0912C82.1353 27.0912 79.4839 24.7774 79.4839 21.1033C79.4839 17.2856 82.2376 15.0075 85.0428 15.0075Z" fill="#E5E7E8"/>
<path d="M112.721 11.0859C107.679 11.0859 103.445 15.0974 103.445 21.0167C103.445 27.2801 108.164 30.9948 113.205 30.9948C117.412 30.9948 119.994 28.6931 121.535 26.6309L118.098 24.3436C117.206 25.7279 115.715 27.0809 113.226 27.0809C110.431 27.0809 109.145 25.5502 108.349 24.0672L121.683 18.5347L120.991 16.9133C119.702 13.7381 116.697 11.0859 112.721 11.0859ZM112.894 14.9103C114.711 14.9103 116.019 15.8763 116.574 17.0344L107.67 20.7561C107.286 17.8747 110.016 14.9103 112.894 14.9103Z" fill="#E5E7E8"/>
<path d="M97.0938 30.4043H101.473V1.09375H97.0938V30.4043Z" fill="#E5E7E8"/>
</g>
<defs>
<clipPath id="clip0_46_11103">
<rect width="121.745" height="40" fill="white"/>
</clipPath>
</defs>
</svg>
