<svg width="130" height="130" viewBox="0 0 130 130" fill="none" xmlns="http://www.w3.org/2000/svg">
<path d="M96.3129 39.3183C94.7855 39.3183 93.5468 38.0799 93.5468 36.5522V33.2039H48.1258V36.5522C48.1258 38.0799 46.8875 39.3183 45.3598 39.3183C43.8321 39.3183 42.5938 38.0799 42.5938 36.5522V30.4379C42.5938 28.9102 43.8321 27.6719 45.3598 27.6719H96.3129C97.8403 27.6719 99.0789 28.9102 99.0789 30.4379V36.5522C99.0789 38.0799 97.8405 39.3183 96.3129 39.3183Z" fill="#E5E7E8"/>
<path d="M33.5333 5.53953C33.4708 5.53953 33.4083 5.53732 33.3457 5.53317L33.2539 5.52598C31.7738 5.42751 30.6323 4.17699 30.6729 2.69024C30.7139 1.19271 31.9398 0 33.4379 0H33.8237C35.3514 0 36.5897 1.23835 36.5897 2.76603C36.5897 4.29371 35.3514 5.53206 33.8237 5.53206L33.5872 5.53898C33.5695 5.53953 33.5515 5.53953 33.5333 5.53953Z" fill="#E5E7E8"/>
<path d="M118.732 22.1283H32.9848C31.4571 22.1283 30.2188 20.8899 30.2188 19.3622C30.2188 17.8345 31.4571 16.5962 32.9848 16.5962H118.732C122.001 16.5962 124.466 14.2238 124.466 11.078C124.466 8.01984 121.754 5.53207 118.42 5.53207H33.5399C32.0122 5.53207 30.7739 4.29371 30.7739 2.76603C30.7739 1.23835 32.0122 0 33.5399 0H118.42C124.805 0 129.998 4.96945 129.998 11.078C129.998 17.2744 125.049 22.1283 118.732 22.1283Z" fill="#E5E7E8"/>
<path d="M118.734 130.004H19.1567C17.629 130.004 16.3906 128.765 16.3906 127.238V16.5966C16.3906 7.33506 23.7328 0.203672 33.4689 0.00839041C33.5486 0.00673079 33.628 0.00866714 33.7076 0.0139226C39.7171 0.412785 44.4246 5.2727 44.4246 11.0781C44.4246 13.0643 43.8192 14.9563 42.7692 16.5963H118.734C120.262 16.5963 121.5 17.8346 121.5 19.3623V127.238C121.5 128.765 120.261 130.004 118.734 130.004ZM21.9227 124.472H115.968V22.1286H32.9868C31.4893 22.1286 30.2639 20.937 30.2219 19.44C30.1799 17.9431 31.3369 16.6848 32.8319 16.6007C36.1171 16.4162 38.8926 13.8872 38.8926 11.0781C38.8926 8.21106 36.5132 5.79963 33.4548 5.54212C26.7644 5.73242 21.9227 10.3639 21.9227 16.5966V124.472Z" fill="#E5E7E8"/>
<path d="M70.3286 103.61C67.5711 103.61 65.3281 101.367 65.3281 98.6098C65.3281 95.8524 67.5711 93.6094 70.3286 93.6094C73.0857 93.6094 75.3287 95.8524 75.3287 98.6098C75.3287 101.367 73.0857 103.61 70.3286 103.61ZM70.3286 98.0779C70.0351 98.0779 69.7967 98.3163 69.7967 98.6098C69.7967 98.903 70.0351 99.1414 70.3286 99.1414C70.6218 99.1414 70.8602 98.903 70.8602 98.6098C70.8602 98.3163 70.6215 98.0779 70.3286 98.0779Z" fill="#E5E7E8"/>
<path d="M70.3322 118.935C58.8667 118.935 49.5391 109.608 49.5391 98.1425V90.8672C49.5391 86.2535 53.2926 82.5 57.9063 82.5H82.7577C87.3715 82.5 91.125 86.2535 91.125 90.8672V98.1422C91.125 109.607 81.7974 118.935 70.3322 118.935ZM57.9063 88.0321C56.3429 88.0321 55.0711 89.3039 55.0711 90.8672V98.1422C55.0711 106.557 61.9171 113.403 70.3322 113.403C78.747 113.403 85.5929 106.557 85.5929 98.1425V90.8672C85.5929 89.3039 84.3211 88.0321 82.7577 88.0321H57.9063Z" fill="#E5E7E8"/>
<path d="M80.6339 88.0279H60.0317C58.504 88.0279 57.2656 86.7893 57.2656 85.2618V75.9553C57.2656 69.6216 62.4185 64.4688 68.7521 64.4688H71.9134C78.2471 64.4688 83.3999 69.6216 83.3999 75.9553V85.2618C83.3999 86.7895 82.1613 88.0279 80.6339 88.0279ZM62.7977 82.4958H77.8679V75.9553C77.8679 72.672 75.1967 70.0008 71.9134 70.0008H68.7521C65.4689 70.0008 62.7977 72.672 62.7977 75.9553V82.4958Z" fill="#E5E7E8"/>
<path d="M70.3285 108.775C68.8011 108.775 67.5625 107.537 67.5625 106.009V100.852C67.5625 99.3246 68.8011 98.0859 70.3285 98.0859C71.8559 98.0859 73.0946 99.3246 73.0946 100.852V106.009C73.0946 107.537 71.8559 108.775 70.3285 108.775Z" fill="#E5E7E8"/>
<path d="M2.76603 121.697C1.23835 121.697 0 120.459 0 118.931V5.52384C0 3.99617 1.23835 2.75781 2.76603 2.75781H11.0641C12.5918 2.75781 13.8302 3.99617 13.8302 5.52384C13.8302 7.05152 12.5918 8.28988 11.0641 8.28988H5.53206V118.931C5.53206 120.459 4.29371 121.697 2.76603 121.697Z" fill="#E5E7E8"/>
<path d="M52.6289 55.3078C51.4685 56.3822 50.1287 56.9196 48.6101 56.9196C47.6069 56.9196 46.6615 56.7299 45.7733 56.3498C44.8846 55.9703 44.1079 55.4365 43.4412 54.7488C42.7746 54.0612 42.2485 53.2336 41.8618 52.2663C41.4751 51.2993 41.2812 50.2355 41.2812 49.0751C41.2812 48.0293 41.4749 47.0407 41.8618 46.1091C42.2485 45.1778 42.7818 44.3685 43.4625 43.6805C44.1433 42.9926 44.949 42.4483 45.8806 42.0472C46.8117 41.6461 47.8146 41.4453 48.8892 41.4453C50.3079 41.4453 51.5468 41.7429 52.6073 42.3374C53.6675 42.9318 54.4625 43.7447 54.9927 44.7764L52.3708 46.7536C52.0267 46.066 51.5288 45.5321 50.8772 45.1523C50.2252 44.7726 49.5196 44.5828 48.7603 44.5828C48.1728 44.5828 47.639 44.7009 47.1593 44.9374C46.6792 45.1736 46.2673 45.5036 45.9235 45.926C45.5797 46.3487 45.3144 46.8394 45.128 47.3981C44.9418 47.9571 44.8486 48.5587 44.8486 49.2035C44.8486 49.8626 44.9487 50.4714 45.1495 51.0302C45.3501 51.5892 45.6295 52.0727 45.9879 52.481C46.3456 52.8892 46.7724 53.2084 47.2667 53.4372C47.7607 53.6668 48.3089 53.7813 48.9105 53.7813C50.2861 53.7813 51.5253 53.144 52.6283 51.8683V51.3956H49.6626V48.8381H55.5512V56.8115H52.6283V55.3078H52.6289Z" fill="#E5E7E8"/>
<path d="M57.875 56.8138V41.5547H63.5703C64.8307 41.5547 65.9341 41.7555 66.8798 42.1566C67.8255 42.5579 68.6169 43.102 69.2547 43.7899C69.8923 44.4776 70.3722 45.2836 70.6947 46.2077C71.017 47.1318 71.1782 48.1171 71.1782 49.1629C71.1782 50.3236 70.999 51.373 70.6408 52.3115C70.2826 53.25 69.7706 54.0522 69.1043 54.7185C68.4382 55.3849 67.6352 55.9007 66.6973 56.2661C65.7585 56.6315 64.7162 56.8141 63.5703 56.8141L57.875 56.8138ZM67.5893 49.1627C67.5893 48.4891 67.4997 47.8767 67.3204 47.3252C67.1412 46.7736 66.8798 46.2973 66.536 45.896C66.1922 45.4949 65.7695 45.1868 65.2681 44.9718C64.7666 44.7566 64.2006 44.6493 63.5703 44.6493H61.3995V53.7186H63.5703C64.2148 53.7186 64.7876 53.6041 65.2894 53.3748C65.7908 53.1457 66.2099 52.8265 66.5468 52.4183C66.8831 52.01 67.1409 51.5301 67.3204 50.9783C67.4994 50.4273 67.5893 49.8218 67.5893 49.1627Z" fill="#E5E7E8"/>
<path d="M73.2578 56.8138V41.5547H79.7699C80.5007 41.5547 81.1703 41.7052 81.7791 42.0061C82.3882 42.3068 82.911 42.7012 83.3483 43.188C83.7851 43.6751 84.1292 44.2269 84.3798 44.8427C84.6301 45.4592 84.7557 46.0821 84.7557 46.7125C84.7557 47.3863 84.6376 48.0311 84.4013 48.6468C84.1651 49.2628 83.8348 49.8146 83.4128 50.3014C82.9898 50.7885 82.4776 51.1755 81.8759 51.4621C81.2741 51.7489 80.608 51.8919 79.8772 51.8919H76.7826V56.8135H73.2578V56.8138ZM76.7826 48.8188H79.6623C80.0777 48.8188 80.4362 48.6402 80.7369 48.2817C81.0378 47.9238 81.1883 47.4004 81.1883 46.7128C81.1883 46.3549 81.1418 46.0465 81.0483 45.7887C80.9551 45.5306 80.8298 45.3159 80.6724 45.1439C80.5148 44.9721 80.3355 44.8465 80.1353 44.7677C79.9345 44.6892 79.7342 44.6496 79.5334 44.6496H76.7828V48.8188H76.7826Z" fill="#E5E7E8"/>
<path d="M86.6484 56.8138V41.5547H93.5256C94.2418 41.5547 94.9042 41.7052 95.5138 42.0061C96.1227 42.3068 96.649 42.7012 97.0933 43.188C97.5372 43.6751 97.8846 44.2269 98.1355 44.8427C98.3864 45.4592 98.5117 46.0821 98.5117 46.7125C98.5117 47.1855 98.4544 47.6405 98.3399 48.0773C98.2251 48.5146 98.0603 48.9262 97.8456 49.3131C97.631 49.6998 97.369 50.0472 97.0612 50.3554C96.753 50.6638 96.4056 50.9252 96.0189 51.1398L99.3714 56.8138H95.3955L92.4726 51.8922H90.1732V56.8138H86.6484ZM90.1729 48.8188H93.3965C93.8122 48.8188 94.1704 48.6222 94.4713 48.2277C94.7723 47.8339 94.9225 47.3288 94.9225 46.7125C94.9225 46.0821 94.7507 45.5809 94.4066 45.2081C94.0631 44.8358 93.6902 44.6496 93.2894 44.6496H90.1729V48.8188Z" fill="#E5E7E8"/>
</svg>
