<svg width="26" height="26" viewBox="0 0 26 26" fill="none" xmlns="http://www.w3.org/2000/svg">
<circle cx="9.75521" cy="9.7474" r="3.33333" stroke="#E5E7E8" stroke-width="2" stroke-linecap="round"/>
<path d="M13.2233 9.70313C13.5217 9.18634 14.0131 8.80924 14.5895 8.65479C15.1659 8.50034 15.7801 8.5812 16.2969 8.87957C16.8137 9.17794 17.1908 9.66938 17.3452 10.2458C17.4997 10.8222 17.4188 11.4363 17.1204 11.9531C16.8221 12.4699 16.3306 12.847 15.7542 13.0015C15.1778 13.1559 14.5637 13.0751 14.0469 12.7767C13.5301 12.4783 13.153 11.9869 12.9985 11.4105C12.8441 10.8341 12.9249 10.2199 13.2233 9.70313L13.2233 9.70313Z" stroke="#E5E7E8" stroke-width="2"/>
<path d="M15.0415 20.5833L14.0612 20.7808L14.2228 21.5833H15.0415V20.5833ZM19.2313 19.4866L18.2843 19.8078L19.2313 19.4866ZM12.7656 17.0197L12.1608 16.2234L11.0042 17.1019L12.2375 17.8689L12.7656 17.0197ZM18.3703 19.5833H15.0415V21.5833H18.3703V19.5833ZM18.2843 19.8078C18.2781 19.7894 18.2724 19.7541 18.2805 19.7111C18.2883 19.6704 18.3053 19.6395 18.3214 19.6196C18.3523 19.5814 18.3776 19.5833 18.3703 19.5833V21.5833C19.5203 21.5833 20.6335 20.5072 20.1783 19.1653L18.2843 19.8078ZM15.1697 17.25C17.0445 17.25 17.888 18.6394 18.2843 19.8078L20.1783 19.1653C19.7037 17.7662 18.3858 15.25 15.1697 15.25V17.25ZM13.3705 17.8161C13.8013 17.4889 14.3734 17.25 15.1697 17.25V15.25C13.9295 15.25 12.9339 15.6362 12.1608 16.2234L13.3705 17.8161ZM12.2375 17.8689C13.392 18.5869 13.8706 19.8346 14.0612 20.7808L16.0218 20.3859C15.7875 19.2226 15.1375 17.3173 13.2938 16.1706L12.2375 17.8689Z" fill="#E5E7E8"/>
<path d="M9.7526 16.25C13.69 16.25 14.7653 19.1121 15.059 20.6754C15.1609 21.2182 14.7216 21.6667 14.1693 21.6667H5.33594C4.78365 21.6667 4.3443 21.2182 4.44626 20.6754C4.73991 19.1121 5.81518 16.25 9.7526 16.25Z" stroke="#E5E7E8" stroke-width="2" stroke-linecap="round"/>
<path d="M19 3V7" stroke="#E5E7E8" stroke-width="2" stroke-linecap="round"/>
<path d="M21 5L17 5" stroke="#E5E7E8" stroke-width="2" stroke-linecap="round"/>
</svg>
