<svg width="56" height="53" viewBox="0 0 56 53" fill="none" xmlns="http://www.w3.org/2000/svg">
<path d="M36.0155 26.5438C36.0155 22.3432 32.599 18.9267 28.3984 18.9267C24.1978 18.9267 20.7813 22.3432 20.7813 26.5438C20.7813 30.7444 24.1978 34.1609 28.3984 34.1609C32.599 34.1609 36.0155 30.7444 36.0155 26.5438ZM22.7416 26.5438C22.7416 23.4073 25.262 20.887 28.3984 20.887C31.5349 20.887 34.0553 23.4633 34.0553 26.5438C34.0553 29.6242 31.5349 32.2006 28.3984 32.2006C25.262 32.2006 22.7416 29.6802 22.7416 26.5438ZM48.2813 0.5H8.29151C7.73143 0.5 7.28337 0.948065 7.28337 1.50815V12.3737L2.85872 7.94908C2.46667 7.55703 1.85058 7.55703 1.45852 7.94908C1.06646 8.34114 1.06646 8.95723 1.45852 9.34929L7.56341 15.4542C7.73143 15.6222 8.01147 15.7342 8.23551 15.7342C8.45954 15.7342 8.73958 15.6222 8.9076 15.4542L15.0125 9.34929C15.4045 8.95723 15.4045 8.34114 15.0125 7.94908C14.6204 7.55703 14.0043 7.55703 13.6123 7.94908L9.18764 12.3737V2.46029H47.2172V19.0387C43.4646 19.5428 40.6082 22.7352 40.6082 26.5998C40.6082 30.8004 44.0247 34.2169 48.2253 34.2169C52.4259 34.2169 55.8984 30.7444 55.8984 26.5438C55.8984 22.6792 52.986 19.4868 49.2895 18.9827V1.45214C49.2335 0.948065 48.8414 0.5 48.2813 0.5ZM53.9382 26.5438C53.9382 29.6802 51.4178 32.2006 48.2813 32.2006C45.1449 32.2006 42.6245 29.6802 42.6245 26.5438C42.6245 23.4073 45.1449 20.887 48.2813 20.887C51.4178 20.887 53.9382 23.4633 53.9382 26.5438ZM8.51555 52.5876H48.5054C49.0654 52.5876 49.5135 52.1395 49.5135 51.5794V40.7139L53.9382 45.1385C54.1062 45.3065 54.3862 45.4185 54.6103 45.4185C54.8343 45.4185 55.1143 45.3065 55.2823 45.1385C55.6744 44.7464 55.6744 44.1303 55.2823 43.7383L49.2335 37.6894C48.8414 37.2974 48.2253 37.2974 47.8333 37.6894L41.7284 43.7943C41.3363 44.1864 41.3363 44.8024 41.7284 45.1945C42.1204 45.5866 42.7365 45.5866 43.1286 45.1945L47.5532 40.7699V50.6273H9.52369V34.1049C13.2762 33.6008 16.1327 30.4084 16.1327 26.5438C16.1327 22.3432 12.7162 18.9267 8.51555 18.9267C4.31493 18.9267 0.898438 22.3432 0.898438 26.5438C0.898438 30.4084 3.81086 33.6008 7.5074 34.1049V51.6354C7.56341 52.1395 7.95546 52.5876 8.51555 52.5876ZM2.85872 26.5438C2.85872 23.4073 5.37909 20.887 8.51555 20.887C11.652 20.887 14.1724 23.4633 14.1724 26.5438C14.1724 29.6242 11.652 32.2006 8.51555 32.2006C5.37909 32.2006 2.85872 29.6802 2.85872 26.5438Z" fill="#E5E7E8"/>
</svg>
