<svg width="64" height="64" viewBox="0 0 64 64" fill="none" xmlns="http://www.w3.org/2000/svg">
<path d="M31.6512 42.2354C31.0416 42.2354 30.5469 41.7406 30.5469 41.131V38.6669C30.5469 38.0572 31.0416 37.5625 31.6512 37.5625C32.2608 37.5625 32.7556 38.0572 32.7556 38.6669V41.131C32.7556 41.7406 32.2608 42.2354 31.6512 42.2354Z" fill="#E5E7E8"/>
<path d="M31.6512 25.7354C31.0416 25.7354 30.5469 25.2406 30.5469 24.631V22.1669C30.5469 21.5572 31.0416 21.0625 31.6512 21.0625C32.2608 21.0625 32.7556 21.5572 32.7556 22.1669V24.631C32.7556 25.2406 32.2608 25.7354 31.6512 25.7354Z" fill="#E5E7E8"/>
<path d="M32.9153 39.7758H30.3842C27.9259 39.7758 25.9255 37.8285 25.9255 35.435C25.9255 34.8254 26.4203 34.3306 27.0299 34.3306C27.6395 34.3306 28.1342 34.8254 28.1342 35.435C28.1342 36.6107 29.1436 37.5671 30.3842 37.5671H32.9153C34.3127 37.5671 35.4495 36.487 35.4495 35.1603C35.4495 34.525 35.191 33.9257 34.7213 33.4729C34.2406 33.0091 33.5993 32.7536 32.9146 32.7536H30.3834C27.7683 32.7536 25.6406 30.6833 25.6406 28.1389C25.6406 26.8983 26.1391 25.7343 27.0446 24.8612C27.9391 23.9983 29.1252 23.5234 30.3834 23.5234H32.9146C35.3736 23.5234 37.374 25.4708 37.374 27.8643C37.374 28.4739 36.8792 28.9686 36.2696 28.9686C35.66 28.9686 35.1653 28.4739 35.1653 27.8643C35.1653 26.6885 34.1559 25.7321 32.9146 25.7321H30.3834C29.7002 25.7321 29.0582 25.9876 28.5775 26.4514C28.1077 26.9042 27.8493 27.5035 27.8493 28.1389C27.8493 29.4656 28.9861 30.5449 30.3834 30.5449H32.9146C34.1743 30.5449 35.3611 31.0205 36.2549 31.8834C37.1597 32.7558 37.6582 33.9198 37.6582 35.1603C37.6582 37.7055 35.5305 39.7758 32.9153 39.7758Z" fill="#E5E7E8"/>
<path d="M31.6485 49.0626C26.997 49.0626 22.6238 47.2515 19.335 43.962C16.0462 40.6733 14.2344 36.3 14.2344 31.6485C14.2344 26.997 16.0455 22.6238 19.335 19.335C22.6238 16.0462 26.997 14.2344 31.6485 14.2344C36.3 14.2344 40.6733 16.0455 43.962 19.335C47.2508 22.6238 49.0626 26.997 49.0626 31.6485C49.0626 36.3 47.2515 40.6733 43.962 43.962C40.6725 47.2508 36.3 49.0626 31.6485 49.0626ZM31.6485 16.4431C23.2643 16.4431 16.4431 23.2643 16.4431 31.6485C16.4431 40.0327 23.2643 46.8539 31.6485 46.8539C40.0327 46.8539 46.8539 40.0327 46.8539 31.6485C46.8539 23.2643 40.0327 16.4431 31.6485 16.4431Z" fill="#E5E7E8"/>
<path d="M31.6478 63.1472C29.1409 63.1472 27.1016 61.1078 27.1016 58.6009C27.1016 56.0941 29.1409 54.0547 31.6478 54.0547C34.1547 54.0547 36.194 56.0941 36.194 58.6009C36.194 61.1078 34.1547 63.1472 31.6478 63.1472ZM31.6478 56.2634C30.3587 56.2634 29.3103 57.3118 29.3103 58.6009C29.3103 59.8901 30.3587 60.9385 31.6478 60.9385C32.9369 60.9385 33.9853 59.8901 33.9853 58.6009C33.9853 57.3118 32.9369 56.2634 31.6478 56.2634Z" fill="#E5E7E8"/>
<path d="M31.6512 52.2261C31.0416 52.2261 30.5469 51.7313 30.5469 51.1217V47.9559C30.5469 47.3463 31.0416 46.8516 31.6512 46.8516C32.2608 46.8516 32.7556 47.3463 32.7556 47.9559V51.1217C32.7556 51.7313 32.2608 52.2261 31.6512 52.2261Z" fill="#E5E7E8"/>
<path d="M31.6478 9.24092C29.1409 9.24092 27.1016 7.20155 27.1016 4.69468C27.1016 2.1878 29.1409 0.148438 31.6478 0.148438C34.1547 0.148438 36.194 2.1878 36.194 4.69468C36.194 7.20155 34.1547 9.24092 31.6478 9.24092ZM31.6478 2.35714C30.3587 2.35714 29.3103 3.40553 29.3103 4.69468C29.3103 5.98382 30.3587 7.03222 31.6478 7.03222C32.9369 7.03222 33.9853 5.98382 33.9853 4.69468C33.9853 3.40553 32.9369 2.35714 31.6478 2.35714Z" fill="#E5E7E8"/>
<path d="M31.6512 16.4526C31.0416 16.4526 30.5469 15.9579 30.5469 15.3483V12.1825C30.5469 11.5729 31.0416 11.0781 31.6512 11.0781C32.2608 11.0781 32.7556 11.5729 32.7556 12.1825V15.3483C32.7556 15.9579 32.2608 16.4526 31.6512 16.4526Z" fill="#E5E7E8"/>
<path d="M58.6009 36.194C56.0941 36.194 54.0547 34.1547 54.0547 31.6478C54.0547 29.1409 56.0941 27.1016 58.6009 27.1016C61.1078 27.1016 63.1472 29.1409 63.1472 31.6478C63.1472 34.1547 61.1078 36.194 58.6009 36.194ZM58.6009 29.3103C57.3118 29.3103 56.2634 30.3587 56.2634 31.6478C56.2634 32.9369 57.3118 33.9853 58.6009 33.9853C59.8901 33.9853 60.9385 32.9369 60.9385 31.6478C60.9385 30.3587 59.8901 29.3103 58.6009 29.3103Z" fill="#E5E7E8"/>
<path d="M51.1217 32.7556H47.9559C47.3463 32.7556 46.8516 32.2608 46.8516 31.6512C46.8516 31.0416 47.3463 30.5469 47.9559 30.5469H51.1217C51.7313 30.5469 52.2261 31.0416 52.2261 31.6512C52.2261 32.2608 51.7313 32.7556 51.1217 32.7556Z" fill="#E5E7E8"/>
<path d="M4.69468 36.194C2.1878 36.194 0.148438 34.1547 0.148438 31.6478C0.148438 29.1409 2.1878 27.1016 4.69468 27.1016C7.20155 27.1016 9.24092 29.1409 9.24092 31.6478C9.24092 34.1547 7.20155 36.194 4.69468 36.194ZM4.69468 29.3103C3.40553 29.3103 2.35714 30.3587 2.35714 31.6478C2.35714 32.9369 3.40553 33.9853 4.69468 33.9853C5.98382 33.9853 7.03222 32.9369 7.03222 31.6478C7.03222 30.3587 5.98382 29.3103 4.69468 29.3103Z" fill="#E5E7E8"/>
<path d="M15.3405 32.7556H12.1747C11.5651 32.7556 11.0703 32.2608 11.0703 31.6512C11.0703 31.0416 11.5651 30.5469 12.1747 30.5469H15.3405C15.9501 30.5469 16.4448 31.0416 16.4448 31.6512C16.4448 32.2608 15.9501 32.7556 15.3405 32.7556Z" fill="#E5E7E8"/>
<path d="M50.7025 55.2565C48.1956 55.2565 46.1562 53.2172 46.1562 50.7103C46.1562 48.2034 48.1956 46.1641 50.7025 46.1641C53.2094 46.1641 55.2487 48.2034 55.2487 50.7103C55.2487 53.2172 53.2094 55.2565 50.7025 55.2565ZM50.7025 48.3728C49.4133 48.3728 48.365 49.4212 48.365 50.7103C48.365 51.9994 49.4133 53.0478 50.7025 53.0478C51.9916 53.0478 53.04 51.9994 53.04 50.7103C53.04 49.4212 51.9916 48.3728 50.7025 48.3728Z" fill="#E5E7E8"/>
<path d="M45.4217 46.5253C45.139 46.5253 44.8563 46.4179 44.6406 46.2021L42.4017 43.9633C41.9703 43.5318 41.9703 42.8324 42.4017 42.4017C42.8331 41.9703 43.5326 41.9703 43.9633 42.4017L46.2021 44.6406C46.6336 45.072 46.6336 45.7714 46.2021 46.2021C45.9872 46.4171 45.7044 46.5253 45.4217 46.5253Z" fill="#E5E7E8"/>
<path d="M12.5853 17.1394C10.0784 17.1394 8.03906 15.1 8.03906 12.5931C8.03906 10.0862 10.0784 8.04688 12.5853 8.04688C15.0922 8.04688 17.1315 10.0862 17.1315 12.5931C17.1315 15.1 15.0922 17.1394 12.5853 17.1394ZM12.5853 10.2556C11.2962 10.2556 10.2478 11.304 10.2478 12.5931C10.2478 13.8823 11.2962 14.9307 12.5853 14.9307C13.8744 14.9307 14.9228 13.8823 14.9228 12.5931C14.9228 11.304 13.8744 10.2556 12.5853 10.2556Z" fill="#E5E7E8"/>
<path d="M20.117 21.2207C19.8343 21.2207 19.5516 21.1132 19.3359 20.8974L17.097 18.6586C16.6656 18.2271 16.6656 17.5284 17.097 17.097C17.5284 16.6656 18.2279 16.6656 18.6586 17.097L20.8974 19.3359C21.3289 19.7673 21.3289 20.466 20.8974 20.8974C20.6825 21.1132 20.3998 21.2207 20.117 21.2207Z" fill="#E5E7E8"/>
<path d="M50.7025 17.1394C48.1956 17.1394 46.1562 15.1 46.1562 12.5931C46.1562 10.0862 48.1956 8.04688 50.7025 8.04688C53.2094 8.04688 55.2487 10.0862 55.2487 12.5931C55.2487 15.1 53.2094 17.1394 50.7025 17.1394ZM50.7025 10.2556C49.4133 10.2556 48.365 11.304 48.365 12.5931C48.365 13.8823 49.4133 14.9307 50.7025 14.9307C51.9916 14.9307 53.04 13.8823 53.04 12.5931C53.04 11.304 51.9916 10.2556 50.7025 10.2556Z" fill="#E5E7E8"/>
<path d="M43.1828 21.2207C42.9001 21.2207 42.6174 21.1132 42.4017 20.8974C41.9703 20.466 41.9703 19.7666 42.4017 19.3359L44.6406 17.097C45.072 16.6656 45.7714 16.6656 46.2021 17.097C46.6336 17.5284 46.6336 18.2279 46.2021 18.6586L43.9633 20.8974C43.7483 21.1132 43.4656 21.2207 43.1828 21.2207Z" fill="#E5E7E8"/>
<path d="M12.5853 55.2565C10.0784 55.2565 8.03906 53.2172 8.03906 50.7103C8.03906 48.2034 10.0784 46.1641 12.5853 46.1641C15.0922 46.1641 17.1315 48.2034 17.1315 50.7103C17.1315 53.2172 15.0922 55.2565 12.5853 55.2565ZM12.5853 48.3728C11.2962 48.3728 10.2478 49.4212 10.2478 50.7103C10.2478 51.9994 11.2962 53.0478 12.5853 53.0478C13.8744 53.0478 14.9228 51.9994 14.9228 50.7103C14.9228 49.4212 13.8744 48.3728 12.5853 48.3728Z" fill="#E5E7E8"/>
<path d="M17.8782 46.5253C17.5954 46.5253 17.3127 46.4179 17.097 46.2021C16.6656 45.7707 16.6656 45.0713 17.097 44.6406L19.3359 42.4017C19.7673 41.9703 20.4668 41.9703 20.8974 42.4017C21.3289 42.8331 21.3289 43.5326 20.8974 43.9633L18.6586 46.2021C18.4436 46.4171 18.1609 46.5253 17.8782 46.5253Z" fill="#E5E7E8"/>
</svg>
