<svg width="53" height="61" viewBox="0 0 53 61" fill="none" xmlns="http://www.w3.org/2000/svg">
<path fill-rule="evenodd" clip-rule="evenodd" d="M27.1498 20.0399C31.3609 20.4046 34.6007 23.9373 34.6007 28.1685C34.6007 30.5992 33.5268 32.8871 31.6646 34.4396C34.4599 35.0932 37.1071 36.273 39.4667 37.9093C39.8012 38.1433 40.003 38.5247 40.003 38.9336V58.8496C40.003 59.5354 39.4439 60.0938 38.7582 60.0938H33.6696C32.9838 60.0938 32.4247 59.5354 32.4247 58.8496V52.6683C32.4247 51.9799 32.9838 51.4215 33.6696 51.4215C34.3573 51.4215 34.9144 51.9799 34.9144 52.6683V57.6048H37.512V39.5966C34.2052 37.4535 30.3822 36.33 26.4412 36.33C22.5002 36.33 18.6773 37.4535 15.3684 39.5966V57.6048H17.968V44.4666C17.968 43.7789 18.5251 43.2205 19.2129 43.2205C19.8986 43.2205 20.4577 43.7789 20.4577 44.4666V58.8496C20.4577 59.5354 19.8986 60.0938 19.2129 60.0938H14.1243C13.4378 60.0938 12.8794 59.5354 12.8794 58.8496V38.9336C12.8794 38.5173 13.0866 38.1299 13.4305 37.8999C15.7867 36.2676 18.4299 35.0912 21.2179 34.4396C19.3557 32.8911 18.2818 30.5932 18.2818 28.1685C18.2818 23.9373 21.5215 20.4046 25.7327 20.0399C22.8267 17.7158 17.8159 16.414 14.1243 16.414C10.1853 16.414 6.35965 17.5375 3.05351 19.6806V37.6868H5.6511V24.5487C5.6511 23.8629 6.2095 23.3045 6.89593 23.3045C7.5837 23.3045 8.14009 23.8629 8.14009 24.5487V38.9336C8.14009 39.6194 7.5837 40.1778 6.89593 40.1778H1.80867C1.1209 40.1778 0.5625 39.6194 0.5625 38.9336V19.0176C0.5625 18.6013 0.771648 18.2139 1.11352 17.984C3.46979 16.3517 6.11297 15.1752 8.90228 14.5236C7.04005 12.9731 5.96482 10.6812 5.96482 8.2532C5.96482 3.74781 9.61888 0.09375 14.1243 0.09375C18.6317 0.09375 22.2857 3.74781 22.2857 8.2532C22.2857 10.6832 21.2118 12.9691 19.3476 14.5236C21.8634 15.1129 24.2633 16.1271 26.4412 17.5201C28.6185 16.1271 31.019 15.1129 33.5348 14.5236C31.6706 12.9691 30.5967 10.6832 30.5967 8.2532C30.5967 3.74781 34.2507 0.09375 38.7582 0.09375C43.2635 0.09375 46.9176 3.74781 46.9176 8.2532C46.9176 10.6812 45.8424 12.9731 43.9802 14.5236C46.7695 15.1752 49.4126 16.3517 51.7689 17.984C52.1108 18.2139 52.3199 18.6013 52.3199 19.0176V38.9336C52.3199 39.6194 51.7615 40.1778 51.0731 40.1778H45.9865C45.2987 40.1778 44.7417 39.6194 44.7417 38.9336V24.5487C44.7417 23.8629 45.2987 23.3045 45.9865 23.3045C46.6723 23.3045 47.2313 23.8629 47.2313 24.5487V37.6868H49.8289V19.6806C46.5221 17.5375 42.6971 16.414 38.7582 16.414C35.0645 16.414 30.055 17.7158 27.1498 20.0399ZM34.9144 47.199V44.4666C34.9144 43.7789 34.3573 43.2205 33.6696 43.2205C32.9838 43.2205 32.4247 43.7789 32.4247 44.4666V47.199C32.4247 47.8874 32.9838 48.4438 33.6696 48.4438C34.3573 48.4438 34.9144 47.8874 34.9144 47.199ZM14.1243 2.58275C10.9924 2.58275 8.45382 5.12135 8.45382 8.2532C8.45382 11.3864 10.9924 13.923 14.1243 13.923C17.2575 13.923 19.7941 11.3864 19.7941 8.2532C19.7941 5.12135 17.2575 2.58275 14.1243 2.58275ZM38.7582 2.58275C35.625 2.58275 33.0884 5.12135 33.0884 8.2532C33.0884 11.3864 35.625 13.923 38.7582 13.923C41.89 13.923 44.4286 11.3864 44.4286 8.2532C44.4286 5.12135 41.89 2.58275 38.7582 2.58275ZM26.4412 22.5007C24.9303 22.5007 23.4997 23.0933 22.4319 24.1592C21.364 25.227 20.7708 26.6602 20.7708 28.1685C20.7708 31.3024 23.308 33.839 26.4412 33.839C29.5724 33.839 32.1117 31.3024 32.1117 28.1685C32.1117 25.0373 29.5724 22.5007 26.4412 22.5007Z" fill="#E5E7E8"/>
</svg>
