<svg width="45" height="60" viewBox="0 0 45 60" fill="none" xmlns="http://www.w3.org/2000/svg">
<path d="M22.6511 7.62616H28.6534C30.6241 7.59355 30.6271 4.65808 28.6533 4.625C28.6534 4.625 22.6511 4.625 22.6511 4.625C20.6803 4.65761 20.6773 7.59307 22.6511 7.62616Z" fill="#E5E7E8"/>
<path d="M36.6573 19.4088L43.6327 9.3429C44.2716 8.42555 44.3463 7.23857 43.8261 6.24429C43.3074 5.24781 42.2889 4.62867 41.1708 4.62867H34.6585C32.6751 4.6716 32.6932 7.59383 34.6586 7.62984C34.6585 7.62984 41.1679 7.62984 41.1679 7.62984L34.1793 17.7148C33.495 18.7289 33.495 20.091 34.1896 21.1197L41.1708 31.1885H7.75499V7.62983H16.6515C18.6226 7.60394 18.6227 4.6569 16.6514 4.62867C16.6515 4.62867 7.75499 4.62867 7.75499 4.62867V1.47731C7.73384 -0.476878 4.78384 -0.507958 4.75384 1.47738C4.75384 1.47731 4.75384 6.12201 4.75384 6.12201C4.76111 18.8031 4.74709 44.3664 4.75387 56.9988C4.75384 56.9988 1.89043 56.9988 1.89043 56.9988C-0.0631112 57.0116 -0.0929767 59.9755 1.8905 60C1.89043 60 10.6184 60 10.6184 60C11.4478 60 12.119 59.3281 12.119 58.4994C12.119 57.6707 11.4478 56.9988 10.6184 56.9988H7.75501V34.1897H41.1708C43.5131 34.2619 45.0332 31.3731 43.6355 29.4783C43.6356 29.4784 36.6573 19.4088 36.6573 19.4088Z" fill="#E5E7E8"/>
</svg>
