<svg width="24" height="24" viewBox="0 0 24 24" fill="none" xmlns="http://www.w3.org/2000/svg">
<path d="M11.9968 8.74663C10.2018 8.74663 8.74677 10.2017 8.74677 11.9966C8.74677 13.7916 10.2018 15.2466 11.9968 15.2466C13.7917 15.2466 15.2468 13.7916 15.2468 11.9966C15.2468 10.2017 13.7917 8.74663 11.9968 8.74663Z" fill="#E5E7E8"/>
<path fill-rule="evenodd" clip-rule="evenodd" d="M6.7663 3.0781C10.2144 2.69272 13.7791 2.69272 17.2273 3.0781C19.1256 3.29027 20.6568 4.78605 20.8797 6.6911C21.2919 10.2161 21.2919 13.7772 20.8797 17.3022C20.6568 19.2072 19.1256 20.703 17.2273 20.9152C13.7791 21.3005 10.2144 21.3005 6.7663 20.9152C4.86791 20.703 3.33671 19.2072 3.1139 17.3022C2.70162 13.7771 2.70162 10.2161 3.1139 6.6911C3.33671 4.78605 4.8679 3.29027 6.7663 3.0781ZM16.9968 5.99663C16.4445 5.99663 15.9968 6.44434 15.9968 6.99663C15.9968 7.54891 16.4445 7.99663 16.9968 7.99663C17.549 7.99663 17.9968 7.54891 17.9968 6.99663C17.9968 6.44434 17.549 5.99663 16.9968 5.99663ZM7.24677 11.9966C7.24677 9.37328 9.37341 7.24663 11.9968 7.24663C14.6201 7.24663 16.7468 9.37328 16.7468 11.9966C16.7468 14.62 14.6201 16.7466 11.9968 16.7466C9.37341 16.7466 7.24677 14.62 7.24677 11.9966Z" fill="#E5E7E8"/>
</svg>
