<svg width="413" height="502" viewBox="0 0 413 502" fill="none" xmlns="http://www.w3.org/2000/svg">
<path d="M206.36 134.657C243.212 134.657 273.087 104.782 273.087 67.9301C273.087 31.0778 243.212 1.20312 206.36 1.20312C169.508 1.20312 139.633 31.0778 139.633 67.9301C139.633 104.782 169.508 134.657 206.36 134.657Z" stroke="#E8530E" stroke-width="0.6" stroke-miterlimit="10"/>
<path d="M276.906 85.6821C273.087 124.55 238.488 153.083 199.62 149.264C160.752 145.444 132.219 110.845 136.038 71.7526C139.858 32.8847 174.457 4.35158 213.325 8.17097C252.417 11.9904 280.726 46.8142 276.906 85.6821Z" stroke="#E8530E" stroke-width="0.6" stroke-miterlimit="10"/>
<path d="M280.73 103.427C273.092 144.542 233.55 171.502 192.66 163.863C151.77 156.224 124.585 116.682 132.224 75.7925C139.862 34.6779 179.404 7.71753 220.294 15.3563C261.409 22.9951 288.369 62.3123 280.73 103.427Z" stroke="#E8530E" stroke-width="0.6" stroke-miterlimit="10"/>
<path d="M284.552 121.174C273.093 164.311 228.833 189.923 185.697 178.465C142.56 167.007 116.948 122.747 128.631 79.61C140.313 36.4733 184.349 10.8609 227.485 22.3191C270.622 33.7773 296.01 78.0373 284.552 121.174Z" stroke="#E8530E" stroke-width="0.6" stroke-miterlimit="10"/>
<path d="M288.143 138.929C272.865 184.088 223.887 208.352 178.729 193.075C133.57 177.797 109.306 128.819 124.808 83.4358C140.085 38.2771 189.064 14.0128 234.222 29.2903C279.381 44.7926 303.421 93.7706 288.143 138.929Z" stroke="#E8530E" stroke-width="0.6" stroke-miterlimit="10"/>
<path d="M291.961 156.669C272.864 203.85 218.943 226.766 171.762 207.445C124.581 188.348 101.89 134.427 120.987 87.2463C140.084 40.0656 194.004 17.1492 241.185 36.4708C288.366 55.5678 311.057 109.489 291.961 156.669Z" stroke="#E8530E" stroke-width="0.6" stroke-miterlimit="10"/>
<path d="M295.782 174.424C272.865 223.852 214.227 245.195 165.024 222.054C115.821 199.138 94.4774 140.499 117.394 91.0717C140.31 41.6443 198.949 20.3007 248.152 43.4417C297.354 66.5827 318.698 125.222 295.782 174.424Z" stroke="#E8530E" stroke-width="0.6" stroke-miterlimit="10"/>
<path d="M299.378 192.167C272.643 243.616 209.286 263.387 157.836 236.652C106.387 209.916 86.6158 146.334 113.352 95.1096C140.087 43.6602 203.444 23.8892 254.894 50.625C306.343 77.3607 326.339 140.718 299.378 192.167Z" stroke="#E8530E" stroke-width="0.6" stroke-miterlimit="10"/>
<path d="M303.191 209.92C272.636 263.392 204.336 281.815 151.089 251.259C97.6179 220.704 79.195 152.405 109.75 98.9331C140.305 45.4617 208.605 27.0387 261.852 57.5939C315.323 88.3737 333.746 156.449 303.191 209.92Z" stroke="#E8530E" stroke-width="0.6" stroke-miterlimit="10"/>
<path d="M307.019 227.666C272.645 283.16 199.627 300.235 144.134 265.86C88.64 231.486 71.5651 158.468 105.94 102.75C140.314 47.0315 213.332 30.1813 268.825 64.5558C324.319 99.1549 341.394 172.173 307.019 227.666Z" stroke="#E8530E" stroke-width="0.6" stroke-miterlimit="10"/>
<path d="M310.833 245.417C272.639 302.933 194.903 318.66 137.163 280.466C79.6475 242.047 63.9206 164.311 102.115 106.796C140.308 49.2803 218.044 33.5534 275.784 71.7473C333.3 110.166 349.027 187.902 310.833 245.417Z" stroke="#E8530E" stroke-width="0.6" stroke-miterlimit="10"/>
<path d="M314.43 263.163C272.416 322.926 189.738 337.08 130.2 294.842C70.4381 252.604 56.2839 170.15 98.5218 110.388C140.535 50.6256 223.214 36.4714 282.751 78.7093C342.289 120.947 356.668 203.626 314.43 263.163Z" stroke="#E8530E" stroke-width="0.6" stroke-miterlimit="10"/>
<path d="M318.245 280.922C272.412 342.707 185.015 355.513 123.231 309.456C61.4468 263.398 48.6406 176.226 94.698 114.442C140.531 52.6578 227.927 39.8516 289.712 85.9089C351.271 131.966 364.077 219.138 318.245 280.922Z" stroke="#E8530E" stroke-width="0.6" stroke-miterlimit="10"/>
<path d="M322.068 298.67C272.191 362.476 180.301 373.935 116.495 324.058C52.6883 274.181 41.23 182.066 91.1068 118.26C140.984 54.4539 232.874 42.9957 296.68 92.8724C360.486 142.749 371.72 234.864 322.068 298.67Z" stroke="#E8530E" stroke-width="0.6" stroke-miterlimit="10"/>
<path d="M325.665 316.415C271.969 382.243 175.136 392.353 109.308 338.657C43.4799 284.961 33.3697 188.128 87.0659 122.075C140.762 56.0222 237.595 46.1367 303.423 99.8328C369.476 153.754 379.362 250.586 325.665 316.415Z" stroke="#E8530E" stroke-width="0.6" stroke-miterlimit="10"/>
<path d="M329.48 334.165C271.964 402.24 170.413 410.777 102.563 353.262C34.7127 295.746 26.1753 193.97 83.4661 126.12C140.982 58.0451 242.533 49.5077 310.383 107.023C378.233 164.539 386.995 266.314 329.48 334.165Z" stroke="#E8530E" stroke-width="0.6" stroke-miterlimit="10"/>
<path d="M333.301 352.142C271.966 422.239 165.697 429.428 95.6002 368.093C25.5031 306.758 18.5384 200.265 79.6487 130.168C140.984 60.0707 247.252 52.8812 317.349 114.216C387.447 175.551 394.411 282.045 333.301 352.142Z" stroke="#E8530E" stroke-width="0.6" stroke-miterlimit="10"/>
<path d="M337.123 369.879C271.968 441.998 160.757 447.615 88.6378 382.685C16.5187 317.531 10.9019 206.319 75.8315 134.2C140.986 62.0812 252.197 56.4644 324.317 121.394C396.436 186.324 402.052 297.535 337.123 369.879Z" stroke="#E8530E" stroke-width="0.6" stroke-miterlimit="10"/>
<path d="M340.718 387.639C271.744 461.78 155.814 466.049 81.6732 397.075C7.53209 328.101 3.26333 211.947 72.237 137.806C141.211 63.6649 257.14 59.3962 331.282 128.37C405.423 197.344 409.691 313.273 340.718 387.639Z" stroke="#E8530E" stroke-width="0.6" stroke-miterlimit="10"/>
<path d="M344.534 405.386C271.741 481.774 151.094 484.47 74.7058 411.677C-1.45735 338.884 -4.37804 218.011 68.415 141.623C141.208 65.2355 261.856 62.5395 338.244 135.333C414.407 208.126 417.327 328.998 344.534 405.386Z" stroke="#E8530E" stroke-width="0.6" stroke-miterlimit="10"/>
<path d="M348.356 423.131C271.744 501.541 146.153 502.889 67.9682 426.276C-10.4416 349.664 -11.7896 224.073 64.8229 145.664C141.435 67.2537 267.026 65.9057 345.211 142.518C423.396 218.906 424.969 344.721 348.356 423.131Z" stroke="#E8530E" stroke-width="0.6" stroke-miterlimit="10"/>
<path d="M351.949 440.877C271.518 521.309 141.209 521.309 60.777 440.877C-19.6548 360.445 -19.6548 229.912 60.777 149.48C141.209 69.0483 271.518 69.0483 351.949 149.48C432.381 229.912 432.381 360.445 351.949 440.877Z" stroke="#E8530E" stroke-width="0.6" stroke-miterlimit="10"/>
</svg>
