<svg width="22" height="22" viewBox="0 0 22 22" fill="none" xmlns="http://www.w3.org/2000/svg">
<path d="M4.35417 1.71875C3.27836 1.71875 2.40625 2.59086 2.40625 3.66667C2.40625 4.74247 3.27836 5.61458 4.35417 5.61458C5.42997 5.61458 6.30208 4.74247 6.30208 3.66667C6.30208 2.59086 5.42997 1.71875 4.35417 1.71875Z" fill="#E5E7E8"/>
<path d="M2.52083 7.21875C2.45755 7.21875 2.40625 7.27005 2.40625 7.33333V19.25C2.40625 19.3133 2.45755 19.3646 2.52083 19.3646H6.1875C6.25078 19.3646 6.30208 19.3133 6.30208 19.25V7.33333C6.30208 7.27005 6.25078 7.21875 6.1875 7.21875H2.52083Z" fill="#E5E7E8"/>
<path d="M8.47917 7.21875C8.41588 7.21875 8.36458 7.27005 8.36458 7.33333V19.25C8.36458 19.3133 8.41588 19.3646 8.47917 19.3646H12.1458C12.2091 19.3646 12.2604 19.3133 12.2604 19.25V12.8333C12.2604 12.3775 12.4415 11.9403 12.7638 11.618C13.0862 11.2957 13.5233 11.1146 13.9792 11.1146C14.435 11.1146 14.8722 11.2957 15.1945 11.618C15.5168 11.9403 15.6979 12.3775 15.6979 12.8333V19.25C15.6979 19.3133 15.7492 19.3646 15.8125 19.3646H19.4792C19.5424 19.3646 19.5938 19.3133 19.5938 19.25V11.3486C19.5938 9.12404 17.659 7.38375 15.4457 7.58496C14.7631 7.64701 14.0882 7.8167 13.458 8.08678L12.2604 8.60004V7.33333C12.2604 7.27005 12.2091 7.21875 12.1458 7.21875H8.47917Z" fill="#E5E7E8"/>
</svg>
