<svg width="148" height="35" viewBox="0 0 148 35" fill="none" xmlns="http://www.w3.org/2000/svg">
<path d="M40.1016 14.4969C40.1016 10.7969 42.3016 9.29688 47.2016 9.29688C51.5016 9.29688 54.1016 10.6969 54.1016 14.4969H50.1016C50.1016 13.2969 48.5016 13.0969 46.7016 13.0969C45.1016 13.0969 44.3016 13.3969 44.3016 14.0969C44.3016 14.7969 45.1016 14.7969 48.0016 15.1969C51.8016 15.6969 54.3016 16.8969 54.3016 20.3969C54.3016 23.8969 52.1016 25.3969 47.1016 25.3969C42.7016 25.3969 40.1016 23.9969 40.1016 20.1969H44.1016C44.1016 21.3969 45.8016 21.5969 47.6016 21.5969C49.3016 21.5969 50.1016 21.3969 50.1016 20.6969C50.1016 19.7969 48.2016 19.7969 46.1016 19.4969C42.6016 18.9969 40.1016 17.7969 40.1016 14.4969Z" fill="white"/>
<path d="M56.1016 9.69531H60.3016V25.0953H56.1016V9.69531ZM71.1016 25.0953H66.0016L60.3016 17.3953L66.0016 9.69531H71.1016L65.4016 17.3953L71.1016 25.0953Z" fill="white"/>
<path d="M72.7969 9.69531H85.4969V13.4953H76.9969V15.4953H84.6969V19.2953H76.9969V21.3953H85.7969V25.0953H72.7969V9.69531Z" fill="white"/>
<path d="M87.5 9.69531H91.7V21.3953H100V25.0953H87.5V9.69531Z" fill="white"/>
<path d="M101.703 9.69531H108.203C113.503 9.69531 116.103 12.2953 116.103 17.3953C116.103 22.4953 113.503 25.0953 108.203 25.0953H101.703V9.69531ZM108.203 21.3953C110.703 21.3953 111.803 20.0953 111.803 17.3953C111.803 14.7953 110.603 13.4953 108.203 13.4953H105.903V21.3953H108.203Z" fill="white"/>
<path d="M127.797 18.9953V9.69531H131.997V18.2953C131.997 23.7953 129.697 25.4953 124.897 25.4953C120.097 25.4953 117.797 23.7953 117.797 18.2953V9.69531H121.997V18.9953C121.997 20.7953 123.097 21.5953 124.897 21.5953C126.797 21.5953 127.797 20.7953 127.797 18.9953Z" fill="white"/>
<path d="M133.703 14.4969C133.703 10.7969 135.903 9.29688 140.803 9.29688C145.103 9.29688 147.703 10.6969 147.703 14.4969H143.703C143.703 13.2969 142.103 13.0969 140.303 13.0969C138.703 13.0969 137.903 13.3969 137.903 14.0969C137.903 14.7969 138.703 14.7969 141.603 15.1969C145.403 15.6969 147.903 16.8969 147.903 20.3969C147.903 23.8969 145.703 25.3969 140.703 25.3969C136.303 25.3969 133.703 23.9969 133.703 20.1969H137.703C137.703 21.3969 139.403 21.5969 141.203 21.5969C142.903 21.5969 143.703 21.3969 143.703 20.6969C143.703 19.7969 141.803 19.7969 139.703 19.4969C136.203 18.9969 133.703 17.7969 133.703 14.4969Z" fill="white"/>
<path d="M16.9984 8.29688L7.89844 17.3969L16.9984 26.4969L26.0984 17.3969L16.9984 8.29688ZM18.3984 13.6969L22.0984 17.3969L18.3984 21.0969V13.6969ZM15.5984 13.6969V21.0969L11.8984 17.3969L15.5984 13.6969Z" fill="#E8530E"/>
<path d="M17 4.59844C24.1 4.59844 29.8 10.3984 29.8 17.3984C29.8 24.3984 24.1 30.1984 17 30.1984C9.9 30.1984 4.2 24.4984 4.2 17.3984C4.2 10.2984 10 4.59844 17 4.59844ZM17 0.398438C7.6 0.398438 0 7.99844 0 17.3984C0 26.7984 7.6 34.3984 17 34.3984C26.4 34.3984 34 26.7984 34 17.3984C34.1 7.99844 26.4 0.398438 17 0.398438Z" fill="#E8530E"/>
</svg>
