<svg width="60" height="60" viewBox="0 0 60 60" fill="none" xmlns="http://www.w3.org/2000/svg">
<g clip-path="url(#clip0_46_9148)">
<path d="M29.9984 13.8984L13.8984 29.9984L29.9984 46.0984L46.0984 29.9984L29.9984 13.8984ZM32.4984 23.4984L38.9984 29.9984L32.4984 36.4984V23.4984ZM27.4984 23.4984V36.5984L20.9984 29.9984L27.4984 23.4984Z" fill="#E8530E"/>
<path d="M30 7.4C42.5 7.4 52.6 17.5 52.6 30C52.6 42.5 42.5 52.6 30 52.6C17.5 52.6 7.4 42.5 7.4 30C7.4 17.5 17.5 7.4 30 7.4ZM30 0C13.4 0 0 13.4 0 30C0 46.6 13.4 60 30 60C46.6 60 60 46.6 60 30C60 13.4 46.6 0 30 0Z" fill="#E8530E"/>
</g>
<defs>
<clipPath id="clip0_46_9148">
<rect width="60" height="60" fill="white"/>
</clipPath>
</defs>
</svg>
