<svg width="25" height="25" viewBox="0 0 25 25" fill="none" xmlns="http://www.w3.org/2000/svg">
<path fill-rule="evenodd" clip-rule="evenodd" d="M4.00368 6.08962C3.125 6.9683 3.125 8.38251 3.125 11.2109V13.7943C3.125 16.6227 3.125 18.0369 4.00368 18.9156C4.88236 19.7943 6.29657 19.7943 9.125 19.7943H15.875C18.7034 19.7943 20.1176 19.7943 20.9963 18.9156C21.875 18.0369 21.875 16.6227 21.875 13.7943V11.2109C21.875 8.38251 21.875 6.9683 20.9963 6.08962C20.1176 5.21094 18.7034 5.21094 15.875 5.21094H9.125C6.29657 5.21094 4.88236 5.21094 4.00368 6.08962ZM6.8047 8.54555C6.34517 8.2392 5.7243 8.36338 5.41795 8.8229C5.1116 9.28243 5.23577 9.9033 5.6953 10.2097L11.3906 14.0065C12.0624 14.4544 12.9376 14.4544 13.6094 14.0065L19.3047 10.2097C19.7642 9.9033 19.8884 9.28243 19.5821 8.8229C19.2757 8.36338 18.6548 8.2392 18.1953 8.54555L12.5 12.3424L6.8047 8.54555Z" fill="#E5E7E8"/>
</svg>
