<svg width="147" height="39" viewBox="0 0 147 39" fill="none" xmlns="http://www.w3.org/2000/svg">
<path d="M10.2512 0.0492938C4.59344 0.0492938 0 4.66884 0 10.3588L0.0798246 39H9.19249L9.11266 19.9472V10.3447C9.1131 10.0602 9.21796 9.78581 9.40714 9.57425C9.59632 9.36268 9.8565 9.22879 10.1378 9.19826C10.1756 9.19403 10.212 9.19826 10.2526 9.19826C10.4021 9.19835 10.55 9.22814 10.6879 9.2859C10.8259 9.34367 10.9511 9.42828 11.0565 9.53486L34.9662 35.9142C36.8848 37.8507 39.4938 38.938 42.2135 38.9366C47.8712 38.9366 52.4647 34.3171 52.4647 28.6271V0H43.352V28.6821C43.3282 29.2975 42.8255 29.7848 42.2121 29.7848C42.0626 29.7847 41.9147 29.755 41.7767 29.6972C41.6388 29.6394 41.5136 29.5548 41.4082 29.4482L17.4985 3.0689C15.5799 1.13235 12.9709 0.0450667 10.2512 0.0478835V0.0492938ZM57.0217 0.00140763V28.6539C57.0217 34.3438 61.6152 38.9634 67.2729 38.9634H106.005C112.342 38.662 117.396 33.403 117.396 26.9568C117.393 23.8667 116.209 20.8961 114.088 18.6596C111.968 16.4232 109.074 15.0921 106.005 14.9417V14.9065H80.9286C79.6612 14.8361 78.6501 13.5798 78.6501 12.0418C78.6501 10.5038 79.6612 9.25037 80.9286 9.17854H121.938V38.9662H131.052V9.17854H147V0.0140843H80.9286V0.0492938C77.8596 0.199641 74.9656 1.53075 72.8452 3.7672C70.7249 6.00365 69.5406 8.97426 69.5375 12.0644C69.5375 18.512 74.593 23.771 80.9286 24.071H105.991C107.258 24.1414 108.269 25.3977 108.269 26.9356C108.269 28.4736 107.258 29.7285 105.991 29.8003H67.2743C66.9718 29.8003 66.682 29.6792 66.4691 29.4651C66.2562 29.2511 66.1358 28.9581 66.1358 28.6553V0L57.0217 0.00140763Z" fill="#E5E7E8"/>
</svg>
