<svg width="202" height="202" viewBox="0 0 202 202" fill="none" xmlns="http://www.w3.org/2000/svg">
<path d="M101 201.186C156.228 201.186 201 156.373 201 101.093C201 45.8131 156.228 1 101 1C45.7715 1 1 45.8131 1 101.093C1 156.373 45.7715 201.186 101 201.186Z" stroke="#E2F2F5" stroke-width="0.5" stroke-miterlimit="10"/>
<path d="M198.675 98.9554C198.768 103.974 198.582 108.9 198.025 113.639C196.538 125.535 192.727 136.966 186.965 147.19C183.155 153.881 178.694 160.015 173.768 165.684C168.842 171.446 163.359 176.651 157.039 181.111C149.697 186.316 141.519 190.498 132.69 193.286C126.742 195.145 120.515 196.446 114.103 197.097C110.013 197.468 105.924 197.654 101.742 197.561C96.0729 197.468 90.4967 196.911 85.0134 195.981C81.8536 195.424 78.7867 194.773 75.7197 194.03C61.1287 190.219 47.6528 183.342 36.7792 173.305C33.3406 170.145 30.0878 166.799 27.1138 163.175C23.4893 158.9 20.2365 154.439 17.2625 149.699C14.3815 145.052 11.8722 140.033 9.73462 134.922C7.96882 130.647 6.57477 126.186 5.55246 121.539C3.97254 114.755 3.32198 107.598 3.41492 100.256C3.50785 94.4944 4.15841 88.9182 5.08778 83.342C7.78295 68.1003 13.3592 54.0669 22.0952 41.8922C28.1361 33.5278 35.664 26.1858 44.1212 20.3308C52.4855 14.4758 61.8722 9.92191 71.8164 6.85499C81.203 3.97395 91.2402 2.39403 101.463 2.20815C118.471 1.92934 134.363 6.20443 148.396 13.7323C162.523 21.4461 174.605 32.5985 183.341 46.0743C193.099 61.4089 198.396 79.5316 198.675 98.9554Z" stroke="#E2F2F5" stroke-width="0.5" stroke-miterlimit="10"/>
<path d="M196.352 96.7264C196.538 101.652 196.538 106.392 196.073 111.132C194.958 122.842 191.333 134.273 185.571 144.31C181.761 150.909 177.3 156.949 172.746 162.712C168.192 168.474 163.08 173.678 156.946 178.232C149.79 183.529 141.705 187.712 132.876 190.314C126.928 192.08 120.794 193.195 114.567 193.567C110.571 193.845 106.575 193.845 102.485 193.66C97.0022 193.381 91.5189 192.823 86.1286 191.987C83.0617 191.429 79.9948 190.871 77.0208 190.128C62.7085 186.596 49.3256 180.277 38.8238 170.239C35.571 167.08 32.4111 163.734 29.5301 160.202C25.9985 156.02 22.6528 151.652 19.7717 147.098C16.8907 142.637 14.2884 137.897 12.1509 132.972C10.2922 128.79 8.80518 124.515 7.78287 120.054C6.20295 113.362 5.64533 106.392 5.8312 99.2357C6.01707 93.6595 6.76057 88.0833 7.68994 82.693C10.3851 67.6372 15.2178 53.8826 23.6751 41.8937C29.5301 33.6224 36.965 26.4662 45.3293 20.7971C53.6007 15.1279 62.8944 10.8529 72.7457 7.97181C82.0394 5.27664 91.8907 3.60378 101.928 3.32497C118.378 2.76735 133.805 6.76363 147.56 13.9198C161.407 21.2618 173.21 32.0424 181.575 45.2395C191.054 60.2952 195.794 77.9532 196.352 96.7264Z" stroke="#E2F2F5" stroke-width="0.5" stroke-miterlimit="10"/>
<path d="M194.127 94.5897C194.406 99.4224 194.592 104.069 194.313 108.716C193.57 120.147 190.131 131.671 184.369 141.616C180.466 148.214 176.098 154.069 171.915 159.924C167.64 165.686 162.994 170.984 157.046 175.538C150.168 180.928 142.083 185.11 133.347 187.526C127.399 189.199 121.358 190.129 115.224 190.315C111.321 190.5 107.417 190.315 103.421 190.036C98.0307 189.664 92.7333 189.013 87.4359 188.177C84.369 187.712 81.3951 187.155 78.514 186.411C64.5735 183.158 51.1906 177.396 41.0605 167.359C37.9006 164.199 34.9267 160.947 32.0456 157.415C28.6069 153.326 25.2612 149.144 22.2872 144.776C19.3133 140.5 16.804 135.947 14.5735 131.207C12.7148 127.21 11.1348 123.028 10.1125 118.66C8.5326 112.155 7.97498 105.277 8.43966 98.3072C8.71848 92.8239 9.55491 87.4336 10.4843 82.1362C13.2724 67.3592 17.2687 53.8834 25.54 41.8945C31.2092 33.7161 38.6441 26.7458 46.9155 21.2626C55.001 16.0581 64.1088 12.0618 73.7742 9.2737C82.882 6.67147 92.5475 5.09155 102.399 4.62686C118.291 3.88337 133.254 7.5079 146.637 14.3852C160.113 21.3555 171.637 31.7644 179.815 44.6826C189.016 59.1808 193.198 76.3741 194.127 94.5897Z" stroke="#E2F2F5" stroke-width="0.5" stroke-miterlimit="10"/>
<path d="M191.798 92.4486C192.076 97.1884 192.541 101.742 192.355 106.296C191.983 117.542 188.731 128.973 182.969 138.824C179.065 145.33 174.79 151.092 170.794 157.04C166.891 162.895 162.615 168.099 156.853 172.839C150.162 178.322 142.169 182.504 133.526 184.828C127.671 186.408 121.63 187.151 115.682 187.151C111.872 187.151 108.062 186.872 104.158 186.501C98.9537 186.036 93.7493 185.385 88.5448 184.549C85.5708 184.084 82.5968 183.527 79.7158 182.969C66.0541 179.995 52.7641 174.791 43.0058 164.753C39.9389 161.686 37.1508 158.341 34.3627 154.902C31.0169 150.813 27.6712 146.817 24.6972 142.634C21.7232 138.545 19.121 134.27 16.7976 129.716C14.8459 125.906 13.266 121.817 12.1508 117.634C10.5708 111.315 10.1061 104.623 10.6638 97.746C11.1285 92.3556 11.9649 87.1512 12.8943 81.9467C15.6824 67.4486 19.0281 54.1586 27.0206 42.3557C32.5039 34.2702 39.9389 27.4858 48.1173 22.1884C56.2957 16.9839 65.2177 13.2664 74.7902 10.6642C83.805 8.24785 93.2846 6.57499 102.857 6.01737C118.192 4.99506 132.69 8.34079 145.794 14.8464C158.898 21.4449 170.236 31.575 178.043 44.0285C186.965 58.062 190.589 74.7906 191.798 92.4486Z" stroke="#E2F2F5" stroke-width="0.5" stroke-miterlimit="10"/>
<path d="M189.473 90.3092C189.845 95.0489 190.496 99.417 190.496 103.878C190.496 114.937 187.522 126.369 181.667 136.034C177.763 142.54 173.488 148.116 169.864 154.064C166.332 159.919 162.429 165.216 156.945 169.956C150.44 175.532 142.633 179.714 133.897 181.852C128.042 183.339 122.094 183.897 116.239 183.711C112.522 183.618 108.804 183.153 104.901 182.688C99.8823 182.131 94.7708 181.387 89.6592 180.551C86.7782 180.086 83.8972 179.621 81.0161 179.064C67.6332 176.369 54.4362 171.815 44.9566 161.685C42.0756 158.618 39.3804 155.272 36.5923 152.019C33.3395 148.023 29.9938 144.12 27.0198 140.216C24.0459 136.313 21.4436 132.224 19.0273 127.949C16.9827 124.231 15.3098 120.328 14.2875 116.239C12.7076 110.105 12.3358 103.506 13.0793 96.7218C13.6369 91.5173 14.5663 86.4058 15.5886 81.2943C18.3767 67.075 20.9789 53.9709 28.6927 42.2608C33.9901 34.2683 41.3321 27.5768 49.5105 22.6512C57.596 17.7255 66.425 14.1939 75.8117 11.7776C84.6406 9.45415 94.0273 7.87423 103.414 7.13073C118.191 5.82962 132.224 8.89653 145.05 15.1233C157.875 21.3501 168.934 31.1084 176.462 43.2831C184.919 56.9449 188.079 73.2088 189.473 90.3092Z" stroke="#E2F2F5" stroke-width="0.5" stroke-miterlimit="10"/>
<path d="M187.249 88.1727C187.714 92.8195 188.55 97.0946 188.736 101.463C189.201 112.243 186.32 123.675 180.465 133.34C176.468 139.753 172.286 145.236 168.94 151.277C165.688 157.132 162.342 162.429 156.952 167.262C150.632 172.931 142.918 177.113 134.275 179.158C128.513 180.459 122.565 180.924 116.896 180.552C113.178 180.366 109.647 179.715 105.836 179.158C100.911 178.414 95.9851 177.671 90.9665 176.927C88.0854 176.463 85.2973 176.091 82.5092 175.533C69.4981 173.117 56.3011 169.121 47.1933 158.991C44.4052 155.924 41.8959 152.671 39.2007 149.418C36.0408 145.515 32.6951 141.797 29.6282 137.987C26.6542 134.269 23.9591 130.459 21.5427 126.37C19.4052 122.838 17.7323 119.121 16.71 115.124C15.1301 109.176 14.8513 102.671 15.6877 96.0723C16.3382 90.9608 17.3605 85.9422 18.3829 80.9236C21.171 66.8902 23.0297 54.1578 30.5576 42.4478C35.6691 34.5481 43.0111 28.0426 51.0037 23.3028C58.9962 18.563 67.7323 15.3102 76.933 13.0797C85.6691 10.9422 94.8698 9.36227 103.978 8.33997C118.197 6.85298 131.766 9.54815 144.219 15.4032C156.673 21.2582 167.453 30.7377 174.703 42.5407C182.881 55.8307 185.483 71.6299 187.249 88.1727Z" stroke="#E2F2F5" stroke-width="0.5" stroke-miterlimit="10"/>
<path d="M184.928 85.9461C185.486 90.5 186.508 94.5892 186.787 98.8643C187.623 109.459 184.928 120.89 178.98 130.37C174.984 136.783 170.802 142.08 167.828 148.214C164.947 154.069 161.973 159.366 156.768 164.292C150.727 170.054 143.014 174.329 134.463 176.095C128.701 177.303 122.846 177.582 117.27 177.024C113.646 176.652 110.207 175.909 106.489 175.258C101.75 174.422 96.917 173.586 91.9913 172.842C89.2032 172.377 86.4151 172.099 83.7199 171.634C70.9876 169.496 57.8835 166.058 49.1474 155.928C46.5452 152.861 44.1289 149.608 41.4337 146.448C38.2738 142.638 34.9281 139.013 31.9541 135.481C28.8872 131.95 26.285 128.325 23.6828 124.422C21.4523 120.983 19.7794 117.452 18.6642 113.548C17.0842 107.693 16.8984 101.374 17.8277 94.961C18.5712 90.0353 19.6865 85.1097 20.7088 80.184C23.4969 66.4294 24.6121 53.8829 31.8612 42.3588C36.7868 34.5521 44.1289 28.2324 52.0285 23.6785C59.9281 19.1246 68.5712 16.2435 77.679 14.013C86.2292 11.9684 95.337 10.3885 104.259 9.27326C117.921 7.50746 131.025 9.92382 143.199 15.4071C155.374 20.9833 165.876 29.9982 172.846 41.4294C180.932 54.7193 182.976 70.0539 184.928 85.9461Z" stroke="#E2F2F5" stroke-width="0.5" stroke-miterlimit="10"/>
<path d="M182.599 83.8055C183.249 88.2664 184.458 92.2627 184.922 96.4449C186.13 106.761 183.621 118.285 177.673 127.579C173.677 133.898 169.588 139.103 166.8 145.33C164.197 151.092 161.688 156.575 156.669 161.594C150.814 167.449 143.287 171.724 134.643 173.304C128.881 174.419 123.212 174.512 117.729 173.768C114.197 173.304 110.759 172.374 107.134 171.724C102.58 170.794 97.8404 169.865 93.0077 169.214C90.3125 168.843 87.5244 168.471 84.9222 168.099C72.5616 166.24 59.4575 163.452 51.0932 153.229C48.5839 150.162 46.2605 147.002 43.7512 143.843C40.6843 140.125 37.3386 136.594 34.2717 133.248C31.2047 129.902 28.5096 126.556 25.9073 122.839C23.5839 119.586 21.9111 116.147 20.7958 112.43C19.123 106.761 19.1229 100.534 20.2382 94.2144C21.0746 89.3817 22.2828 84.6419 23.3051 79.8092C26.1861 66.3334 26.5579 54.0657 33.5282 42.5415C38.2679 34.8278 45.517 28.694 53.4166 24.3259C61.2233 20.0508 69.7735 17.3557 78.6954 15.3111C87.1527 13.4523 96.0746 11.8724 104.718 10.5713C117.822 8.6196 130.461 10.6642 142.357 15.8687C154.16 21.0731 164.383 29.7163 171.168 40.8687C178.881 53.601 180.368 68.5638 182.599 83.8055Z" stroke="#E2F2F5" stroke-width="0.5" stroke-miterlimit="10"/>
<path d="M180.363 81.6732C181.107 86.0412 182.501 89.9445 183.151 94.0338C184.731 104.164 182.408 115.595 176.46 124.889C172.464 131.208 168.374 136.227 165.958 142.547C163.728 148.309 161.59 153.792 156.757 158.904C151.088 164.852 143.653 169.127 135.103 170.614C129.434 171.636 123.765 171.45 118.374 170.614C114.936 170.056 111.59 169.034 108.058 168.197C103.597 167.175 98.9506 166.246 94.3038 165.502C91.6086 165.13 89.0064 164.852 86.4041 164.573C74.3224 162.993 61.3112 160.762 53.3186 150.539C50.9952 147.472 48.7647 144.313 46.3484 141.246C43.3744 137.528 40.0287 134.275 36.9618 131.116C33.8948 127.956 31.1067 124.796 28.5045 121.357C26.1811 118.29 24.3224 114.945 23.3001 111.32C21.6272 105.837 21.7201 99.7029 22.9283 93.5691C23.8577 88.8293 25.1588 84.2754 26.1811 79.5356C29.0621 66.3386 28.6904 54.2568 35.4748 42.8256C40.0287 35.2048 47.2777 29.1639 54.9915 25.0747C62.7053 20.9854 71.0696 18.5691 79.8986 16.7103C88.1699 14.9445 96.9989 13.4576 105.363 11.9706C117.91 9.74008 130.084 11.5059 141.609 16.3386C153.04 21.1713 163.077 29.5356 169.49 40.3163C176.832 52.491 177.854 66.9892 180.363 81.6732Z" stroke="#E2F2F5" stroke-width="0.5" stroke-miterlimit="10"/>
<path d="M178.045 79.5277C178.881 83.8958 180.461 87.6132 181.205 91.6095C183.156 101.461 181.019 112.985 175.071 122.093C170.982 128.32 166.985 133.245 164.848 139.565C162.989 145.327 161.223 150.903 156.576 156.015C151.186 162.056 143.751 166.331 135.294 167.632C129.625 168.468 124.048 168.189 118.844 167.074C115.498 166.331 112.246 165.215 108.807 164.286C104.532 163.171 99.9779 162.149 95.424 161.498C92.8217 161.126 90.2195 160.94 87.7102 160.662C76.0002 159.36 62.989 157.781 55.3682 147.465C53.1377 144.491 51.0931 141.331 48.6767 138.264C45.7957 134.639 42.45 131.479 39.3831 128.505C36.3162 125.531 33.5281 122.65 30.8329 119.398C28.4165 116.424 26.5578 113.264 25.4426 109.825C23.7697 104.528 23.9556 98.5798 25.2567 92.5389C26.279 87.985 27.673 83.524 28.6953 78.8772C31.5764 65.866 30.4611 54.0631 36.9667 42.8177C41.3347 35.2898 48.4909 29.4348 56.2046 25.6244C63.8255 21.814 72.0968 19.5835 80.7399 17.9106C88.9184 16.3307 97.5615 14.8437 105.74 13.1709C117.729 10.7545 129.439 12.1486 140.684 16.7025C151.837 21.1634 161.595 29.156 167.729 39.5649C174.792 51.3679 175.35 65.4014 178.045 79.5277Z" stroke="#E2F2F5" stroke-width="0.5" stroke-miterlimit="10"/>
<path d="M175.721 77.3878C176.65 81.6628 178.416 85.1944 179.345 89.1907C181.668 98.8562 179.717 110.38 173.769 119.302C169.68 125.529 165.683 130.269 163.918 136.681C162.338 142.444 161.129 148.02 156.576 153.317C151.371 159.451 144.029 163.726 135.572 164.934C129.996 165.678 124.419 165.213 119.308 163.912C115.962 163.075 112.895 161.774 109.55 160.752C105.46 159.544 100.999 158.429 96.5384 157.871C93.9361 157.499 91.4268 157.406 88.9175 157.128C77.4863 156.105 64.5681 155.083 57.319 144.767C55.2744 141.793 53.3227 138.633 50.9993 135.659C48.2112 132.128 44.8655 129.061 41.7056 126.365C38.6387 123.577 35.7577 120.882 32.9696 117.815C30.4603 115.027 28.6015 111.96 27.4863 108.615C25.8134 103.41 26.0923 97.648 27.5792 91.793C28.6945 87.332 30.1815 82.964 31.2038 78.4101C34.0848 65.6777 32.319 54.1536 38.5458 42.9082C42.7279 35.4733 49.8841 29.8041 57.5049 26.1796C65.0328 22.555 73.2112 20.6963 81.6685 19.1164C89.661 17.6294 98.2112 16.2353 106.111 14.3766C117.542 11.7744 128.787 12.7967 139.754 16.9788C150.535 21.161 160.014 28.7818 165.869 38.819C172.747 50.2502 172.839 63.819 175.721 77.3878Z" stroke="#E2F2F5" stroke-width="0.5" stroke-miterlimit="10"/>
<path d="M173.492 75.1619C174.514 79.344 176.466 82.7827 177.488 86.686C180.183 96.0727 178.417 107.597 172.469 116.519C168.38 122.653 164.384 127.299 162.897 133.805C161.596 139.567 160.852 145.236 156.577 150.534C151.559 156.667 144.402 161.035 135.945 162.058C130.369 162.708 124.886 162.058 119.96 160.571C116.707 159.641 113.733 158.154 110.388 157.039C106.391 155.738 102.116 154.53 97.7482 153.972C95.2389 153.601 92.7296 153.508 90.3133 153.415C79.1609 152.671 66.3356 152.206 59.4583 141.89C57.5066 138.917 55.7408 135.85 53.4174 132.876C50.7222 129.437 47.3765 126.556 44.2166 123.954C41.0568 121.351 38.1757 118.935 35.3876 116.054C32.7854 113.359 30.8337 110.478 29.8114 107.225C28.1386 102.206 28.4174 96.5373 30.0902 90.7753C31.2984 86.5002 32.8783 82.2251 33.9936 77.7641C36.8746 65.3106 34.3653 53.9723 40.4062 42.9128C44.4025 35.5708 51.5586 30.0875 59.0865 26.6489C66.6144 23.3031 74.6069 21.6303 82.8783 20.2362C90.778 18.9351 99.1423 17.4481 106.763 15.4964C117.73 12.6154 128.417 13.3589 139.105 17.1693C149.514 20.9797 158.808 28.2288 164.384 37.9872C170.704 49.1396 170.332 62.2437 173.492 75.1619Z" stroke="#E2F2F5" stroke-width="0.5" stroke-miterlimit="10"/>
<path d="M171.171 73.0216C172.286 77.1109 174.424 80.4566 175.632 84.1741C178.699 93.3748 177.119 104.899 171.171 113.635C166.989 119.769 163.086 124.23 161.97 130.828C161.041 136.59 160.669 142.26 156.58 147.65C151.84 153.877 144.684 158.338 136.32 159.174C130.837 159.732 125.353 158.895 120.521 157.222C117.361 156.107 114.48 154.527 111.227 153.319C107.417 151.832 103.234 150.624 98.9593 150.159C96.543 149.88 94.1266 149.787 91.7103 149.695C80.9296 149.23 68.1043 149.416 61.5987 139.007C59.74 136.033 58.1601 132.966 55.9296 130.085C53.3274 126.646 49.8887 123.951 46.7288 121.535C43.569 119.118 40.688 116.888 37.8069 114.286C35.1118 111.776 33.1601 108.988 32.0448 105.921C30.372 101.089 30.7437 95.5123 32.5095 89.9361C33.8106 85.754 35.4835 81.6648 36.5987 77.2967C39.4798 65.0291 36.227 54.0625 41.9891 43.0031C45.7995 35.754 52.8627 30.4566 60.2976 27.2038C67.7326 24.0439 75.6322 22.6499 83.8106 21.4417C91.5244 20.2335 99.7028 18.8395 107.231 16.7019C117.64 13.635 127.863 14.0068 138.179 17.5384C148.309 20.977 157.231 27.8544 162.528 37.241C168.662 48.0216 167.825 60.661 171.171 73.0216Z" stroke="#E2F2F5" stroke-width="0.5" stroke-miterlimit="10"/>
<path d="M168.934 70.8854C170.142 74.8817 172.466 78.1345 173.86 81.759C177.298 90.681 175.904 102.298 169.956 110.941C165.774 116.982 161.871 121.257 161.127 127.949C160.477 133.618 160.57 139.473 156.666 144.863C152.113 151.183 145.049 155.644 136.685 156.294C131.202 156.759 125.811 155.737 121.165 153.878C118.098 152.67 115.31 150.997 112.15 149.603C108.525 148.023 104.436 146.815 100.254 146.257C97.8374 145.978 95.514 145.978 93.1906 145.885C82.6887 145.607 69.8634 146.443 63.8226 136.034C62.1497 133.153 60.6627 129.993 58.4322 127.205C55.83 123.859 52.4843 121.35 49.3244 119.12C46.1646 116.889 43.1906 114.937 40.3095 112.521C37.5214 110.198 35.5698 107.595 34.4545 104.529C32.7817 99.8817 33.2463 94.3984 35.198 89.0081C36.5921 84.9189 38.4508 81.0155 39.4731 76.7404C42.4471 64.7516 38.4508 53.9709 43.9341 43.0044C47.5586 35.8483 54.6218 30.6438 61.9638 27.6698C69.3058 24.6958 77.1125 23.5806 85.1051 22.5583C92.7259 21.536 100.718 20.1419 107.968 17.8185C117.819 14.5657 127.577 14.5657 137.614 17.7256C147.373 20.7925 156.109 27.391 161.127 36.4059C166.704 46.9077 165.31 59.0825 168.934 70.8854Z" stroke="#E2F2F5" stroke-width="0.5" stroke-miterlimit="10"/>
<path d="M166.612 68.7544C167.913 72.6577 170.422 75.7246 171.909 79.3491C175.719 88.0852 174.511 99.6094 168.563 108.16C164.381 114.2 160.478 118.29 160.013 125.074C159.641 130.743 160.199 136.598 156.481 142.174C152.113 148.587 145.236 153.048 136.872 153.513C131.389 153.884 126.184 152.676 121.537 150.632C118.563 149.331 115.868 147.472 112.708 145.985C109.177 144.312 105.273 143.011 101.184 142.546C98.8606 142.267 96.5372 142.36 94.3067 142.36C84.1766 142.36 71.3513 143.847 65.6822 133.345C64.1023 130.464 62.7082 127.397 60.6636 124.609C58.1543 121.357 54.8086 118.94 51.6487 116.896C48.4889 114.944 45.422 113.085 42.448 110.855C39.5669 108.624 37.5223 106.208 36.5 103.327C34.8272 98.7729 35.3848 93.5685 37.4294 88.1781C38.9164 84.2748 40.8681 80.4644 41.8904 76.2822C44.8643 64.5722 40.1246 54.0703 45.422 43.1967C48.8606 36.1335 55.9238 31.1149 63.1729 28.4198C70.422 25.7246 78.0428 24.8882 85.9424 23.9588C93.3774 23.1224 101.277 21.7283 108.34 19.219C117.634 15.7804 126.928 15.4086 136.686 18.2897C146.073 21.0778 154.623 27.2116 159.362 35.9477C164.66 45.799 162.894 57.6019 166.612 68.7544Z" stroke="#E2F2F5" stroke-width="0.5" stroke-miterlimit="10"/>
<path d="M164.291 66.6143C165.685 70.5177 168.38 73.3987 170.053 76.9303C174.235 85.4805 173.212 97.0047 167.265 105.369C162.989 111.317 159.086 115.313 159.086 122.191C158.993 127.86 160.015 133.808 156.484 139.384C152.302 145.889 145.517 150.35 137.246 150.722C131.856 150.908 126.651 149.607 122.19 147.376C119.216 145.889 116.707 143.938 113.64 142.451C110.294 140.685 106.484 139.291 102.488 138.826C100.257 138.547 97.9337 138.64 95.7961 138.733C85.9448 139.012 73.2125 141.15 67.9151 130.462C66.4281 127.581 65.2199 124.514 63.2682 121.819C60.8519 118.659 57.5061 116.336 54.2534 114.57C51.0935 112.804 47.9337 111.224 44.9597 109.179C41.9857 107.135 39.9411 104.811 38.8258 102.023C37.06 97.6552 37.8035 92.5437 40.034 87.3392C41.7069 83.5288 43.6586 79.8114 44.6809 75.8151C47.6548 64.3838 42.1716 54.0679 47.1902 43.2872C50.4429 36.3169 57.4132 31.4842 64.6623 28.9749C71.8184 26.4656 79.3463 25.908 87.06 25.0716C94.4021 24.3281 102.116 23.027 108.9 20.2389C117.636 16.6143 126.465 15.8708 135.852 18.3801C144.867 20.7965 153.138 26.6515 157.599 34.9229C162.618 44.6812 160.387 56.0195 164.291 66.6143Z" stroke="#E2F2F5" stroke-width="0.5" stroke-miterlimit="10"/>
<path d="M162.06 64.3798C163.64 68.1902 166.428 70.9783 168.287 74.4169C172.841 82.6883 172.004 94.2125 166.056 102.577C161.781 108.525 157.878 112.335 158.157 119.305C158.436 124.975 159.923 130.922 156.484 136.592C152.581 143.19 145.796 147.651 137.525 147.837C132.134 147.93 127.023 146.443 122.655 144.027C119.774 142.447 117.265 140.402 114.384 138.729C111.224 136.87 107.506 135.383 103.603 135.012C101.372 134.733 99.2348 134.919 97.0043 135.012C87.5248 135.569 74.7924 138.264 69.8668 127.577C68.5657 124.696 67.4504 121.722 65.4988 119.12C63.1753 115.96 59.8296 113.915 56.5768 112.242C53.324 110.662 50.1642 109.268 47.1902 107.502C44.1233 105.644 42.0787 103.413 40.9634 100.811C39.1976 96.6288 40.0341 91.6102 42.3575 86.5916C44.1233 82.9671 46.1679 79.3426 47.1902 75.3463C50.1642 64.1009 44.0303 54.1567 48.7701 43.376C51.837 36.4987 58.8073 31.8519 65.8705 29.5285C72.9337 27.298 80.3686 26.9262 87.8965 26.2757C95.0527 25.718 102.673 24.5099 109.179 21.4429C117.357 17.7255 125.722 16.5173 134.83 18.6548C143.566 20.6995 151.558 26.1827 155.74 34.1753C160.573 43.5619 157.971 54.4355 162.06 64.3798Z" stroke="#E2F2F5" stroke-width="0.5" stroke-miterlimit="10"/>
<path d="M159.731 62.2428C161.404 65.9602 164.378 68.6554 166.329 71.9082C171.255 79.9937 170.604 91.5179 164.656 99.6963C160.288 105.551 156.478 109.269 157.128 116.332C157.686 122.001 159.638 128.042 156.385 133.711C152.667 140.403 145.976 144.864 137.798 144.957C132.5 144.957 127.389 143.284 123.206 140.681C120.418 138.916 118.002 136.778 115.214 135.012C112.147 133.154 108.615 131.574 104.805 131.109C102.667 130.923 100.53 131.109 98.3924 131.295C89.1916 132.131 76.4593 135.477 71.9983 124.696C70.7901 121.908 69.8608 118.841 68.002 116.332C65.7716 113.265 62.3329 111.313 59.0801 109.919C55.8273 108.525 52.6675 107.41 49.5076 105.737C46.3478 104.064 44.2102 101.927 43.095 99.4175C41.3292 95.4212 42.1656 90.4955 44.6749 85.6628C46.5336 82.1312 48.6712 78.6926 49.6935 74.7892C52.6675 63.8227 45.7901 54.0643 50.344 43.4695C53.2251 36.6851 60.1953 32.1312 67.1656 30.0866C74.1359 28.042 81.4779 27.9491 88.8199 27.4844C95.8831 27.0197 103.318 25.9045 109.638 22.6517C117.259 18.7483 125.158 17.1684 133.987 19.0271C142.351 20.7 150.158 25.8115 153.969 33.5253C158.522 42.4472 155.456 52.7632 159.731 62.2428Z" stroke="#E2F2F5" stroke-width="0.5" stroke-miterlimit="10"/>
<path d="M157.415 60.1095C159.181 63.734 162.248 66.2433 164.478 69.4961C169.683 77.3028 169.404 88.827 163.363 96.9125C158.995 102.675 155.092 106.299 156.114 113.362C156.95 119.031 159.367 125.072 156.393 130.927C152.861 137.712 146.355 142.266 138.177 142.08C132.88 141.987 127.861 140.128 123.772 137.247C121.077 135.388 118.753 133.065 115.965 131.206C113.084 129.254 109.645 127.582 105.928 127.21C103.883 127.024 101.746 127.21 99.7012 127.489C90.7793 128.604 78.1399 132.507 74.0506 121.727C72.9354 118.938 72.1919 115.965 70.3332 113.455C68.1956 110.481 64.757 108.623 61.5042 107.414C58.2514 106.206 54.9986 105.37 51.8387 103.883C48.586 102.396 46.4484 100.351 45.3332 98.0277C43.5674 94.2173 44.4967 89.3846 47.1919 84.6448C49.1436 81.2062 51.3741 77.9534 52.3964 74.143C55.4633 63.4552 47.8425 53.9757 52.0246 43.3809C54.7198 36.8753 61.69 32.5073 68.5674 30.6485C75.4447 28.8827 82.6938 29.0686 89.9428 28.6969C96.8202 28.4181 104.162 27.3028 110.203 23.8642C117.359 19.7749 124.701 17.9162 133.158 19.3103C141.151 20.7043 148.679 25.4441 152.303 32.6932C156.486 41.3363 153.047 51.1876 157.415 60.1095Z" stroke="#E2F2F5" stroke-width="0.5" stroke-miterlimit="10"/>
<path d="M155.184 57.9754C157.043 61.507 160.296 63.9234 162.712 67.0832C168.288 74.7041 168.196 86.2282 162.155 94.2208C157.787 99.9829 153.883 103.422 155.277 110.578C156.393 116.247 159.274 122.288 156.485 128.236C153.233 135.113 146.727 139.667 138.549 139.295C133.251 139.109 128.326 136.972 124.422 133.998C121.82 132.046 119.59 129.63 116.894 127.585C114.106 125.54 110.854 123.775 107.229 123.496C105.184 123.31 103.14 123.589 101.188 123.868C92.6379 125.169 79.9056 129.816 76.1881 118.942C75.2587 116.154 74.6082 113.18 72.8424 110.764C70.7048 107.883 67.3591 106.21 64.1063 105.187C60.8535 104.165 57.5078 103.607 54.3479 102.306C51.0022 100.912 48.8647 99.0535 47.7494 96.823C45.9836 93.1055 47.0059 88.4587 49.794 83.9048C51.8386 80.652 54.1621 77.4922 55.2773 73.7747C58.3442 63.3658 49.9799 54.0721 53.9762 43.6632C56.4855 37.0647 63.3628 32.8825 70.2401 31.3026C77.1175 29.7227 84.1807 30.1873 91.2438 30.0015C98.0282 29.8156 105.184 28.8862 111.039 25.1688C117.638 20.9866 124.515 18.6632 132.694 19.7784C140.407 20.8007 147.656 25.1688 150.909 32.139C154.534 40.2245 150.63 49.6111 155.184 57.9754Z" stroke="#E2F2F5" stroke-width="0.5" stroke-miterlimit="10"/>
<path d="M152.861 55.8341C154.905 59.2727 158.251 61.5961 160.76 64.6631C166.708 72.098 166.801 83.6222 160.76 91.4289C156.299 97.098 152.396 100.444 154.162 107.693C155.556 113.362 158.902 119.496 156.299 125.444C153.232 132.414 146.82 136.968 138.734 136.503C133.53 136.224 128.697 133.901 124.794 130.741C122.192 128.604 120.054 126.094 117.545 123.957C114.942 121.819 111.783 119.96 108.251 119.682C106.299 119.496 104.348 119.868 102.396 120.239C94.1246 121.819 81.4852 127.117 78.1395 116.15C77.3031 113.362 76.8384 110.388 75.0726 108.065C73.028 105.184 69.6822 103.697 66.3365 102.86C63.0837 102.024 59.6451 101.652 56.4852 100.63C53.0466 99.4214 50.8161 97.7486 49.7008 95.611C47.8421 92.0794 49.0503 87.5255 51.9313 83.1575C54.0689 79.9976 56.4852 76.9307 57.6005 73.3991C60.6674 63.1761 51.6525 54.2541 55.277 43.8452C57.6005 37.3396 64.3849 33.3434 71.1692 31.9493C77.9536 30.5553 84.9239 31.2987 91.8012 31.2987C98.3997 31.2987 105.556 30.3694 111.039 26.466C117.173 22.098 123.493 19.4028 131.392 20.1463C138.734 20.8898 145.705 24.8861 148.771 31.4846C152.489 39.1054 148.214 48.0274 152.861 55.8341Z" stroke="#E2F2F5" stroke-width="0.5" stroke-miterlimit="10"/>
<path d="M51.9306 94.2129C53.0458 96.2575 55.2763 97.8375 58.8079 98.8598C62.0607 99.7891 65.4994 99.8821 68.8451 100.533C72.1908 101.183 75.5365 102.577 77.4882 105.365C79.0681 107.689 79.4399 110.663 80.1834 113.358C83.0644 124.324 95.7038 118.469 103.696 116.611C105.555 116.146 107.507 115.774 109.366 115.96C112.804 116.239 115.871 118.098 118.287 120.328C120.704 122.559 122.841 125.254 125.258 127.484C128.975 130.83 133.808 133.246 138.919 133.711C147.005 134.362 153.232 129.715 156.113 122.745C158.622 116.704 154.719 110.477 153.046 104.808C150.908 97.4657 154.812 94.3059 159.273 88.6367C165.313 80.923 165.128 69.3988 158.808 62.2427C156.206 59.2687 152.674 57.0382 150.444 53.6925C145.704 46.4434 150.258 38.0791 147.005 30.6441C144.217 24.4174 137.525 20.7928 130.462 20.4211C122.841 20.0494 117.079 23.1163 111.503 27.5772C106.299 31.7594 99.3283 32.5029 92.8228 32.4099C86.0384 32.317 79.254 31.2947 72.5626 32.4099C65.8711 33.5252 59.0867 37.4285 56.9492 43.8412C53.5105 54.1572 63.2689 62.8932 60.202 72.8375C59.0867 76.369 56.5774 79.2501 54.3469 82.317C51.373 86.4992 50.1648 90.8672 51.9306 94.2129Z" stroke="#E2F2F5" stroke-width="0.5" stroke-miterlimit="10"/>
</svg>
