<svg width="203" height="202" viewBox="0 0 203 202" fill="none" xmlns="http://www.w3.org/2000/svg">
<path d="M101.453 114.489C156.855 114.489 201.766 108.409 201.766 100.908C201.766 93.4082 156.855 87.3281 101.453 87.3281C46.0522 87.3281 1.14062 93.4082 1.14062 100.908C1.14062 108.409 46.0522 114.489 101.453 114.489Z" stroke="#E2F2F5" stroke-width="0.8" stroke-miterlimit="10"/>
<path d="M99.5522 88.1424C151.7 80.2658 194.795 79.6321 195.881 86.6938C196.968 93.7556 155.503 105.797 103.355 113.673C51.2065 121.55 8.11184 122.184 7.02542 115.122C6.02953 108.06 47.404 96.0189 99.5522 88.1424Z" stroke="#E2F2F5" stroke-width="0.8" stroke-miterlimit="10"/>
<path d="M97.6507 88.9578C146.54 73.2952 187.914 65.9619 189.996 72.5709C192.079 79.18 154.144 97.1965 105.256 112.95C56.3667 128.612 14.9922 135.945 12.9099 129.336C10.8276 122.727 48.7618 104.62 97.6507 88.9578Z" stroke="#E2F2F5" stroke-width="0.8" stroke-miterlimit="10"/>
<path d="M95.7505 89.7702C141.38 66.2311 180.944 52.1982 184.113 58.3546C187.281 64.5109 152.878 88.5932 107.158 112.132C61.4377 135.671 21.9644 149.614 18.7957 143.457C15.627 137.301 50.1208 113.219 95.7505 89.7702Z" stroke="#E2F2F5" stroke-width="0.8" stroke-miterlimit="10"/>
<path d="M93.8488 90.4931C136.219 59.168 174.063 38.4355 178.318 44.1392C182.573 49.8429 151.61 79.9005 109.149 111.316C66.6883 142.732 28.9352 163.374 24.6801 157.67C20.5155 151.966 51.4784 121.909 93.8488 90.4931Z" stroke="#E2F2F5" stroke-width="0.8" stroke-miterlimit="10"/>
<path d="M91.9486 91.308C131.15 52.1064 167.183 24.6742 172.434 29.9253C177.685 35.1763 150.253 71.2998 111.051 110.501C71.8498 149.703 35.8169 177.135 30.5659 171.884C25.3149 166.543 52.747 130.51 91.9486 91.308Z" stroke="#E2F2F5" stroke-width="0.8" stroke-miterlimit="10"/>
<path d="M91.1337 93.2081C122.459 50.7472 152.516 19.7843 158.22 24.0394C163.924 28.2946 143.191 66.1382 111.866 108.509C80.5411 150.969 50.4835 181.932 44.7798 177.677C39.0761 173.513 59.8086 135.669 91.1337 93.2081Z" stroke="#E2F2F5" stroke-width="0.8" stroke-miterlimit="10"/>
<path d="M90.3191 95.2041C113.858 49.4839 137.85 15.0806 144.006 18.2493C150.163 21.418 136.13 61.0724 112.591 106.702C89.0516 152.422 65.0599 186.825 58.9035 183.657C52.7471 180.488 66.8706 140.834 90.3191 95.2041Z" stroke="#E2F2F5" stroke-width="0.8" stroke-miterlimit="10"/>
<path d="M89.5897 97.1029C105.252 48.214 123.269 10.1893 129.878 12.3621C136.487 14.4444 129.153 55.8189 113.491 104.798C97.8284 153.778 79.8119 191.712 73.2029 189.539C66.5033 187.366 73.9271 145.992 89.5897 97.1029Z" stroke="#E2F2F5" stroke-width="0.8" stroke-miterlimit="10"/>
<path d="M88.7752 99.0086C96.6517 46.8604 108.693 5.39539 115.664 6.48181C122.726 7.56823 122.092 50.6629 114.216 102.902C106.339 155.05 94.2978 196.515 87.3266 195.428C80.2649 194.342 80.8987 151.157 88.7752 99.0086Z" stroke="#E2F2F5" stroke-width="0.8" stroke-miterlimit="10"/>
<path d="M101.451 201.219C108.901 201.219 114.94 156.308 114.94 100.907C114.94 45.5053 108.901 0.59375 101.451 0.59375C94.0005 0.59375 87.9609 45.5053 87.9609 100.907C87.9609 156.308 94.0005 201.219 101.451 201.219Z" stroke="#E2F2F5" stroke-width="0.8" stroke-miterlimit="10"/>
<path d="M88.7752 102.808C80.8987 50.6597 80.2649 7.47448 87.3266 6.38806C94.3884 5.30164 106.43 46.7667 114.216 98.9148C122.092 151.063 122.726 194.248 115.664 195.335C108.602 196.421 96.5612 154.956 88.7752 102.808Z" stroke="#E2F2F5" stroke-width="0.8" stroke-miterlimit="10"/>
<path d="M89.5906 104.705C73.928 55.8166 66.5947 14.3516 73.2037 12.2693C79.8128 10.187 97.8293 48.1211 113.492 97.01C129.154 145.899 136.488 187.364 129.879 189.446C123.27 191.619 105.253 153.685 89.5906 104.705Z" stroke="#E2F2F5" stroke-width="0.8" stroke-miterlimit="10"/>
<path d="M90.3171 106.608C66.778 60.8876 52.7451 21.3238 58.9014 18.1551C65.0578 14.9864 89.1401 49.4802 112.589 95.1098C136.037 140.739 150.161 180.394 144.004 183.562C137.848 186.822 113.856 152.328 90.3171 106.608Z" stroke="#E2F2F5" stroke-width="0.8" stroke-miterlimit="10"/>
<path d="M91.1337 108.599C59.8086 66.1382 39.0761 28.2946 44.7798 24.0394C50.4835 19.7843 80.5411 50.7472 111.866 93.2081C143.191 135.669 163.924 173.513 158.22 177.677C152.516 181.932 122.459 150.969 91.1337 108.599Z" stroke="#E2F2F5" stroke-width="0.8" stroke-miterlimit="10"/>
<path d="M91.9486 110.501C52.747 71.2998 25.3149 35.2668 30.5659 29.9253C35.8169 24.6742 71.8498 52.1064 111.051 91.308C150.253 130.51 177.685 166.543 172.434 171.884C167.093 177.135 131.06 149.703 91.9486 110.501Z" stroke="#E2F2F5" stroke-width="0.8" stroke-miterlimit="10"/>
<path d="M93.8488 111.316C51.4784 79.9909 20.5155 49.9333 24.6801 44.1391C28.9352 38.4354 66.6883 59.1679 109.149 90.5835C151.61 121.999 182.483 151.966 178.318 157.76C174.063 163.374 136.219 142.641 93.8488 111.316Z" stroke="#E2F2F5" stroke-width="0.8" stroke-miterlimit="10"/>
<path d="M95.7505 112.039C50.1208 88.4995 15.627 64.5077 18.7957 58.2608C21.9644 52.1044 61.5282 66.1374 107.158 89.6765C152.787 113.216 187.281 137.207 184.113 143.454C181.034 149.611 141.38 135.578 95.7505 112.039Z" stroke="#E2F2F5" stroke-width="0.8" stroke-miterlimit="10"/>
<path d="M97.6507 112.856C48.7618 97.1932 10.8276 79.0862 12.9099 72.4772C14.9922 65.8681 56.3667 73.2015 105.256 88.864C154.144 104.527 192.079 122.634 189.996 129.243C187.914 135.852 146.54 128.518 97.6507 112.856Z" stroke="#E2F2F5" stroke-width="0.8" stroke-miterlimit="10"/>
<path d="M99.5522 113.673C47.404 105.797 6.02953 93.7556 7.02542 86.6938C8.11184 79.6321 51.2065 80.2658 103.355 88.1424C155.503 96.0189 196.877 108.06 195.881 115.122C194.885 122.184 151.7 121.459 99.5522 113.673Z" stroke="#E2F2F5" stroke-width="0.8" stroke-miterlimit="10"/>
<path d="M101.453 114.489C156.855 114.489 201.766 108.409 201.766 100.908C201.766 93.4082 156.855 87.3281 101.453 87.3281C46.0522 87.3281 1.14062 93.4082 1.14062 100.908C1.14062 108.409 46.0522 114.489 101.453 114.489Z" stroke="#E2F2F5" stroke-width="0.8" stroke-miterlimit="10"/>
</svg>
