<svg width="202" height="202" fill="none" xmlns="http://www.w3.org/2000/svg"><path d="M101 201.186c55.228 0 100-44.813 100-100.093S156.228 1 101 1 1 45.813 1 101.093s44.772 100.093 100 100.093z" stroke="#E8530E" stroke-width=".5" stroke-miterlimit="10"/><path d="M198.675 98.955c.093 5.019-.093 9.945-.65 14.684a91.616 91.616 0 0 1-11.06 33.551c-3.81 6.691-8.271 12.825-13.197 18.494-4.926 5.762-10.409 10.967-16.729 15.427-7.342 5.205-15.52 9.387-24.349 12.175a94.234 94.234 0 0 1-18.587 3.811c-4.09.371-8.179.557-12.361.464-5.67-.093-11.245-.65-16.729-1.58a149.513 149.513 0 0 1-9.293-1.951c-14.591-3.811-28.067-10.688-38.94-20.725-3.44-3.16-6.692-6.506-9.666-10.13a116.318 116.318 0 0 1-9.852-13.476c-2.88-4.647-5.39-9.666-7.527-14.777a80.008 80.008 0 0 1-4.183-13.383c-1.58-6.784-2.23-13.941-2.137-21.283.093-5.762.743-11.338 1.673-16.914 2.695-15.242 8.271-29.275 17.007-41.45 6.041-8.364 13.569-15.706 22.026-21.561 8.364-5.855 17.751-10.41 27.695-13.476 9.387-2.881 19.424-4.461 29.647-4.647 17.008-.279 32.9 3.996 46.933 11.524 14.127 7.714 26.209 18.867 34.945 32.342 9.758 15.335 15.055 33.458 15.334 52.881z" stroke="#E8530E" stroke-width=".5" stroke-miterlimit="10"/><path d="M196.352 96.726c.186 4.926.186 9.666-.279 14.406-1.115 11.71-4.74 23.141-10.502 33.178-3.81 6.599-8.271 12.639-12.825 18.402-4.554 5.762-9.666 10.966-15.8 15.52-7.156 5.297-15.241 9.48-24.07 12.082-5.948 1.766-12.082 2.881-18.309 3.253-3.996.278-7.992.278-12.082.093a160.011 160.011 0 0 1-16.356-1.673c-3.067-.558-6.134-1.116-9.108-1.859-14.313-3.532-27.695-9.851-38.197-19.889-3.253-3.159-6.413-6.505-9.294-10.037-3.532-4.182-6.877-8.55-9.758-13.104-2.881-4.461-5.484-9.201-7.621-14.126-1.859-4.182-3.346-8.457-4.368-12.918-1.58-6.692-2.138-13.662-1.952-20.818.186-5.577.93-11.153 1.859-16.543 2.695-15.056 7.528-28.81 15.985-40.8 5.855-8.27 13.29-15.427 21.654-21.096 8.272-5.67 17.565-9.944 27.417-12.825 9.293-2.695 19.145-4.368 29.182-4.647 16.45-.558 31.877 3.439 45.632 10.595 13.847 7.342 25.65 18.122 34.015 31.32 9.479 15.055 14.219 32.713 14.777 51.486z" stroke="#E8530E" stroke-width=".5" stroke-miterlimit="10"/><path d="M194.127 94.59c.279 4.832.465 9.479.186 14.126-.743 11.431-4.182 22.955-9.944 32.9-3.903 6.598-8.271 12.453-12.454 18.308-4.275 5.762-8.921 11.06-14.869 15.614-6.878 5.39-14.963 9.572-23.699 11.988a75.097 75.097 0 0 1-18.123 2.789c-3.903.185-7.807 0-11.803-.279-5.39-.372-10.688-1.023-15.985-1.859-3.067-.465-6.04-1.022-8.922-1.766-13.94-3.253-27.323-9.015-37.453-19.052a131.654 131.654 0 0 1-9.015-9.944c-3.44-4.089-6.785-8.271-9.759-12.639-2.974-4.276-5.483-8.829-7.713-13.569-1.86-3.997-3.44-8.179-4.461-12.547-1.58-6.505-2.138-13.383-1.673-20.353.278-5.483 1.115-10.873 2.044-16.17 2.788-14.778 6.785-28.254 15.056-40.242 5.67-8.179 13.104-15.15 21.376-20.632C55 16.058 64.109 12.062 73.773 9.273c9.108-2.602 18.773-4.181 28.625-4.646 15.892-.744 30.855 2.88 44.238 9.758 13.476 6.97 25 17.38 33.178 30.298 9.201 14.498 13.383 31.691 14.312 49.907z" stroke="#E8530E" stroke-width=".5" stroke-miterlimit="10"/><path d="M191.798 92.449c.278 4.74.743 9.293.557 13.847-.372 11.246-3.624 22.677-9.386 32.528-3.904 6.506-8.179 12.268-12.175 18.216-3.903 5.855-8.179 11.059-13.941 15.799a62.63 62.63 0 0 1-23.327 11.989c-5.855 1.58-11.896 2.323-17.844 2.323-3.81 0-7.62-.279-11.524-.65a224.26 224.26 0 0 1-15.613-1.952c-2.974-.465-5.948-1.022-8.83-1.58-13.66-2.974-26.95-8.178-36.71-18.216-3.066-3.067-5.854-6.412-8.642-9.851-3.346-4.089-6.692-8.085-9.666-12.268a95.965 95.965 0 0 1-7.9-12.918 61.24 61.24 0 0 1-4.646-12.082c-1.58-6.319-2.045-13.011-1.487-19.888.465-5.39 1.3-10.595 2.23-15.8 2.788-14.497 6.134-27.787 14.127-39.59 5.483-8.086 12.918-14.87 21.096-20.168 8.179-5.204 17.1-8.922 26.673-11.524 9.015-2.416 18.495-4.089 28.067-4.647 15.335-1.022 29.833 2.324 42.937 8.83 13.104 6.598 24.442 16.728 32.249 29.181 8.922 14.034 12.546 30.763 13.755 48.42z" stroke="#E8530E" stroke-width=".5" stroke-miterlimit="10"/><path d="M189.473 90.31c.372 4.739 1.023 9.107 1.023 13.568 0 11.059-2.974 22.491-8.829 32.156-3.904 6.506-8.179 12.082-11.803 18.03-3.532 5.855-7.435 11.152-12.919 15.892-6.505 5.576-14.312 9.758-23.048 11.896-5.855 1.487-11.803 2.045-17.658 1.859-3.717-.093-7.435-.558-11.338-1.023-5.019-.557-10.13-1.301-15.242-2.137-2.88-.465-5.762-.93-8.643-1.487-13.383-2.695-26.58-7.249-36.06-17.379-2.88-3.067-5.576-6.413-8.364-9.666-3.252-3.996-6.598-7.899-9.572-11.803-2.974-3.903-5.576-7.992-7.993-12.267-2.044-3.718-3.717-7.621-4.74-11.71-1.58-6.134-1.951-12.733-1.208-19.517.558-5.205 1.487-10.316 2.51-15.428 2.788-14.219 5.39-27.323 13.104-39.033 5.297-7.993 12.64-14.684 20.817-19.61 8.086-4.925 16.915-8.457 26.302-10.873 8.829-2.324 18.215-3.904 27.602-4.647 14.777-1.301 28.81 1.766 41.636 7.992 12.825 6.227 23.884 15.985 31.412 28.16 8.457 13.662 11.617 29.926 13.011 47.026z" stroke="#E8530E" stroke-width=".5" stroke-miterlimit="10"/><path d="M187.249 88.173c.465 4.647 1.301 8.922 1.487 13.29.465 10.78-2.416 22.212-8.271 31.877-3.997 6.413-8.179 11.896-11.525 17.937-3.252 5.855-6.598 11.152-11.988 15.985-6.32 5.669-14.034 9.851-22.677 11.896-5.762 1.301-11.71 1.766-17.379 1.394-3.718-.186-7.249-.837-11.06-1.394-4.925-.744-9.85-1.487-14.87-2.231-2.88-.464-5.669-.836-8.457-1.394-13.01-2.416-26.208-6.412-35.316-16.542-2.788-3.067-5.297-6.32-7.992-9.573-3.16-3.903-6.506-7.621-9.573-11.431-2.974-3.718-5.669-7.528-8.085-11.617-2.138-3.532-3.81-7.249-4.833-11.246-1.58-5.948-1.859-12.453-1.022-19.052.65-5.111 1.672-10.13 2.695-15.148C21.17 66.89 23.03 54.158 30.558 42.448c5.111-7.9 12.453-14.405 20.446-19.145 7.992-4.74 16.728-7.993 25.929-10.223 8.736-2.138 17.937-3.718 27.045-4.74 14.219-1.487 27.788 1.208 40.241 7.063 12.454 5.855 23.234 15.335 30.484 27.138 8.178 13.29 10.78 29.089 12.546 45.632z" stroke="#E8530E" stroke-width=".5" stroke-miterlimit="10"/><path d="M184.928 85.946c.558 4.554 1.58 8.643 1.859 12.918.836 10.595-1.859 22.026-7.807 31.506-3.996 6.413-8.178 11.71-11.152 17.844-2.881 5.855-5.855 11.152-11.06 16.078-6.041 5.762-13.754 10.037-22.305 11.803a56.68 56.68 0 0 1-17.193.929c-3.624-.372-7.063-1.115-10.781-1.766-4.739-.836-9.572-1.672-14.498-2.416-2.788-.465-5.576-.743-8.271-1.208-12.732-2.138-25.837-5.576-34.573-15.706-2.602-3.067-5.018-6.32-7.713-9.48-3.16-3.81-6.506-7.435-9.48-10.967-3.067-3.531-5.669-7.156-8.271-11.059-2.23-3.439-3.904-6.97-5.019-10.874-1.58-5.855-1.766-12.174-.836-18.587.743-4.926 1.858-9.851 2.88-14.777 2.789-13.755 3.904-26.301 11.153-37.825 4.926-7.807 12.268-14.127 20.168-18.68 7.9-4.554 16.542-7.435 25.65-9.666 8.55-2.045 17.658-3.624 26.58-4.74 13.662-1.766 26.766.65 38.94 6.134 12.175 5.576 22.677 14.591 29.647 26.022 8.086 13.29 10.13 28.625 12.082 44.517z" stroke="#E8530E" stroke-width=".5" stroke-miterlimit="10"/><path d="M182.599 83.805c.65 4.461 1.859 8.458 2.323 12.64 1.208 10.316-1.301 21.84-7.249 31.134-3.996 6.319-8.085 11.524-10.873 17.751-2.603 5.762-5.112 11.245-10.131 16.264-5.855 5.855-13.382 10.13-22.026 11.71a51.903 51.903 0 0 1-16.914.464c-3.532-.464-6.97-1.394-10.595-2.044-4.554-.93-9.294-1.859-14.126-2.51-2.695-.371-5.484-.743-8.086-1.115-12.36-1.859-25.464-4.647-33.829-14.87-2.51-3.067-4.833-6.227-7.342-9.386-3.067-3.718-6.412-7.249-9.48-10.595a100.068 100.068 0 0 1-8.364-10.409 35.017 35.017 0 0 1-5.111-10.409c-1.673-5.669-1.673-11.896-.558-18.216.837-4.832 2.045-9.572 3.067-14.405 2.881-13.476 3.253-25.743 10.223-37.267 4.74-7.714 11.989-13.848 19.889-18.216 7.806-4.275 16.356-6.97 25.278-9.015 8.458-1.859 17.38-3.439 26.023-4.74 13.104-1.951 25.743.093 37.639 5.298 11.803 5.204 22.026 13.847 28.811 25 7.713 12.732 9.2 27.695 11.431 42.936z" stroke="#E8530E" stroke-width=".5" stroke-miterlimit="10"/><path d="M180.363 81.673c.744 4.368 2.138 8.272 2.788 12.36 1.58 10.131-.743 21.562-6.691 30.856-3.996 6.319-8.086 11.338-10.502 17.658-2.23 5.762-4.368 11.245-9.201 16.357-5.669 5.948-13.104 10.223-21.654 11.71-5.669 1.022-11.338.836-16.729 0-3.438-.558-6.784-1.58-10.316-2.417a212.275 212.275 0 0 0-13.754-2.695c-2.695-.372-5.298-.65-7.9-.929-12.082-1.58-25.093-3.811-33.085-14.034-2.324-3.067-4.554-6.226-6.97-9.293-2.975-3.718-6.32-6.971-9.387-10.13-3.067-3.16-5.855-6.32-8.458-9.759-2.323-3.067-4.182-6.412-5.204-10.037-1.673-5.483-1.58-11.617-.372-17.75.93-4.74 2.23-9.295 3.253-14.034 2.881-13.197 2.51-25.28 9.294-36.71 4.554-7.621 11.803-13.662 19.517-17.751 7.713-4.09 16.078-6.506 24.907-8.365 8.27-1.766 17.1-3.252 25.464-4.74 12.547-2.23 24.721-.464 36.246 4.369 11.431 4.832 21.468 13.197 27.881 23.977 7.342 12.175 8.364 26.673 10.873 41.357z" stroke="#E8530E" stroke-width=".5" stroke-miterlimit="10"/><path d="M178.045 79.528c.836 4.368 2.416 8.085 3.16 12.081 1.951 9.852-.186 21.376-6.134 30.484-4.089 6.227-8.086 11.152-10.223 17.472-1.859 5.762-3.625 11.338-8.272 16.45-5.39 6.041-12.825 10.316-21.282 11.617-5.669.836-11.246.557-16.45-.558-3.346-.743-6.598-1.859-10.037-2.788-4.275-1.115-8.83-2.137-13.383-2.788-2.602-.372-5.205-.558-7.714-.836-11.71-1.302-24.721-2.881-32.342-13.197-2.23-2.974-4.275-6.134-6.691-9.201-2.881-3.625-6.227-6.785-9.294-9.759s-5.855-5.855-8.55-9.107c-2.416-2.974-4.275-6.134-5.39-9.573-1.673-5.297-1.487-11.245-.186-17.286 1.022-4.554 2.416-9.015 3.438-13.662 2.881-13.011 1.766-24.814 8.272-36.06 4.368-7.527 11.524-13.382 19.238-17.193 7.62-3.81 15.892-6.04 24.535-7.713 8.178-1.58 16.822-3.067 25-4.74 11.989-2.416 23.699-1.022 34.944 3.532 11.153 4.46 20.911 12.453 27.045 22.862 7.063 11.803 7.621 25.836 10.316 39.963z" stroke="#E8530E" stroke-width=".5" stroke-miterlimit="10"/><path d="M175.721 77.388c.929 4.275 2.695 7.806 3.624 11.803 2.323 9.665.372 21.189-5.576 30.111-4.089 6.227-8.086 10.967-9.851 17.379-1.58 5.763-2.789 11.339-7.342 16.636-5.205 6.134-12.547 10.409-21.004 11.617-5.576.744-11.153.279-16.264-1.022-3.346-.837-6.413-2.138-9.758-3.16-4.09-1.208-8.551-2.323-13.012-2.881-2.602-.372-5.111-.465-7.62-.743-11.432-1.023-24.35-2.045-31.599-12.361-2.045-2.974-3.996-6.134-6.32-9.108-2.788-3.531-6.134-6.598-9.293-9.294-3.067-2.788-5.948-5.483-8.736-8.55-2.51-2.788-4.368-5.855-5.484-9.2-1.673-5.205-1.394-10.967.093-16.822 1.116-4.461 2.602-8.829 3.625-13.383 2.88-12.732 1.115-24.256 7.342-35.502 4.182-7.435 11.338-13.104 18.959-16.728 7.528-3.625 15.706-5.484 24.163-7.064 7.993-1.487 16.543-2.88 24.443-4.74 11.431-2.602 22.676-1.58 33.643 2.603 10.781 4.182 20.26 11.803 26.115 21.84 6.878 11.431 6.97 25 9.852 38.569z" stroke="#E8530E" stroke-width=".5" stroke-miterlimit="10"/><path d="M173.492 75.162c1.022 4.182 2.974 7.62 3.996 11.524 2.695 9.387.929 20.911-5.019 29.833-4.089 6.134-8.085 10.78-9.572 17.286-1.301 5.762-2.045 11.431-6.32 16.729-5.018 6.133-12.175 10.501-20.632 11.524-5.576.65-11.059 0-15.985-1.487-3.253-.93-6.227-2.417-9.572-3.532-3.997-1.301-8.272-2.509-12.64-3.067-2.51-.371-5.018-.464-7.435-.557-11.152-.744-23.977-1.209-30.855-11.525-1.951-2.973-3.717-6.04-6.04-9.014-2.696-3.439-6.041-6.32-9.201-8.922-3.16-2.603-6.041-5.019-8.83-7.9-2.602-2.695-4.553-5.576-5.576-8.829-1.672-5.019-1.394-10.688.28-16.45 1.207-4.275 2.787-8.55 3.903-13.01 2.88-12.454.371-23.793 6.412-34.852 3.997-7.342 11.153-12.825 18.68-16.264 7.528-3.346 15.52-5.019 23.792-6.413 7.9-1.3 16.264-2.788 23.885-4.74 10.967-2.88 21.654-2.137 32.342 1.673 10.409 3.81 19.703 11.06 25.279 20.818 6.32 11.153 5.948 24.257 9.108 37.175z" stroke="#E8530E" stroke-width=".5" stroke-miterlimit="10"/><path d="M171.171 73.022c1.115 4.089 3.253 7.435 4.461 11.152 3.067 9.2 1.487 20.725-4.461 29.461-4.182 6.134-8.085 10.595-9.201 17.193-.929 5.762-1.301 11.432-5.39 16.822-4.74 6.227-11.896 10.688-20.26 11.524-5.483.558-10.967-.279-15.799-1.952-3.16-1.115-6.041-2.695-9.294-3.903-3.81-1.487-7.993-2.695-12.268-3.16-2.416-.279-4.832-.372-7.249-.464-10.78-.465-23.606-.279-30.111-10.688-1.859-2.974-3.439-6.041-5.67-8.922-2.602-3.439-6.04-6.134-9.2-8.55-3.16-2.417-6.041-4.647-8.922-7.249-2.695-2.51-4.647-5.298-5.762-8.365-1.673-4.832-1.301-10.409.465-15.985 1.3-4.182 2.974-8.271 4.089-12.64 2.88-12.267-.372-23.234 5.39-34.293 3.81-7.249 10.874-12.546 18.309-15.8 7.435-3.16 15.334-4.553 23.513-5.761 7.713-1.209 15.892-2.602 23.42-4.74 10.409-3.067 20.632-2.695 30.948.836 10.13 3.439 19.052 10.316 24.349 19.703 6.134 10.78 5.297 23.42 8.643 35.78z" stroke="#E8530E" stroke-width=".5" stroke-miterlimit="10"/><path d="M168.934 70.885c1.208 3.997 3.532 7.25 4.926 10.874 3.438 8.922 2.044 20.539-3.904 29.182-4.182 6.041-8.085 10.316-8.829 17.008-.65 5.669-.557 11.524-4.461 16.914-4.553 6.32-11.617 10.781-19.981 11.431-5.483.465-10.874-.557-15.52-2.416-3.067-1.208-5.855-2.881-9.015-4.275-3.625-1.58-7.714-2.788-11.896-3.346-2.417-.279-4.74-.279-7.063-.372-10.502-.278-23.328.558-29.368-9.851-1.673-2.881-3.16-6.041-5.39-8.829-2.603-3.346-5.949-5.855-9.109-8.085-3.16-2.231-6.133-4.183-9.014-6.599-2.789-2.323-4.74-4.926-5.855-7.992-1.673-4.647-1.209-10.13.743-15.52 1.394-4.09 3.253-7.993 4.275-12.269 2.974-11.988-1.022-22.77 4.461-33.736 3.625-7.156 10.688-12.36 18.03-15.334 7.342-2.974 15.148-4.09 23.141-5.112 7.62-1.022 15.613-2.416 22.863-4.74 9.851-3.252 19.609-3.252 29.646-.092 9.759 3.067 18.495 9.665 23.513 18.68 5.577 10.502 4.183 22.677 7.807 34.48z" stroke="#E8530E" stroke-width=".5" stroke-miterlimit="10"/><path d="M166.612 68.754c1.301 3.904 3.81 6.97 5.297 10.595 3.81 8.736 2.602 20.26-3.346 28.811-4.182 6.04-8.085 10.13-8.55 16.914-.372 5.669.186 11.524-3.532 17.1-4.368 6.413-11.245 10.874-19.609 11.339-5.483.371-10.688-.837-15.335-2.881-2.974-1.301-5.669-3.16-8.829-4.647-3.531-1.673-7.435-2.974-11.524-3.439-2.323-.279-4.647-.186-6.877-.186-10.13 0-22.956 1.487-28.625-9.015-1.58-2.881-2.974-5.948-5.018-8.736-2.51-3.252-5.855-5.669-9.015-7.713-3.16-1.952-6.227-3.811-9.201-6.041-2.881-2.231-4.926-4.647-5.948-7.528-1.673-4.554-1.115-9.758.93-15.149 1.486-3.903 3.438-7.714 4.46-11.896 2.974-11.71-1.765-22.212 3.532-33.085 3.439-7.064 10.502-12.082 17.75-14.777 7.25-2.695 14.87-3.532 22.77-4.461 7.435-.837 15.335-2.23 22.398-4.74 9.294-3.439 18.588-3.81 28.346-.93 9.387 2.789 17.937 8.923 22.676 17.659 5.298 9.851 3.532 21.654 7.25 32.806z" stroke="#E8530E" stroke-width=".5" stroke-miterlimit="10"/><path d="M164.291 66.614c1.394 3.904 4.089 6.785 5.762 10.316 4.182 8.55 3.159 20.075-2.788 28.439-4.276 5.948-8.179 9.944-8.179 16.822-.093 5.669.929 11.617-2.602 17.193-4.182 6.505-10.967 10.966-19.238 11.338-5.39.186-10.595-1.115-15.056-3.346-2.974-1.487-5.483-3.438-8.55-4.925-3.346-1.766-7.156-3.16-11.152-3.625-2.231-.279-4.554-.186-6.692-.093-9.851.279-22.584 2.417-27.88-8.271-1.488-2.881-2.696-5.948-4.648-8.643-2.416-3.16-5.762-5.483-9.015-7.249-3.16-1.766-6.32-3.346-9.293-5.391-2.974-2.044-5.019-4.368-6.134-7.156-1.766-4.368-1.023-9.48 1.208-14.684 1.673-3.81 3.625-7.528 4.647-11.524 2.974-11.431-2.51-21.747 2.51-32.528 3.252-6.97 10.222-11.803 17.471-14.312 7.156-2.51 14.684-3.067 22.398-3.903 7.342-.744 15.056-2.045 21.84-4.833 8.736-3.625 17.565-4.368 26.952-1.859 9.015 2.417 17.286 8.271 21.747 16.543 5.019 9.758 2.788 21.096 6.692 31.691z" stroke="#E8530E" stroke-width=".5" stroke-miterlimit="10"/><path d="M162.06 64.38c1.58 3.81 4.368 6.598 6.227 10.037 4.554 8.271 3.717 19.796-2.231 28.16-4.275 5.948-8.178 9.758-7.899 16.728.279 5.67 1.766 11.617-1.673 17.287-3.903 6.598-10.688 11.059-18.959 11.245-5.391.093-10.502-1.394-14.87-3.81-2.881-1.58-5.39-3.625-8.271-5.298-3.16-1.859-6.878-3.346-10.781-3.717-2.231-.279-4.368-.093-6.599 0-9.48.557-22.212 3.252-27.137-7.435-1.301-2.881-2.417-5.855-4.368-8.457-2.324-3.16-5.67-5.205-8.922-6.878-3.253-1.58-6.413-2.974-9.387-4.74-3.067-1.858-5.111-4.089-6.227-6.691-1.765-4.182-.929-9.2 1.395-14.22 1.765-3.624 3.81-7.248 4.832-11.245 2.974-11.245-3.16-21.19 1.58-31.97 3.067-6.877 10.037-11.524 17.1-13.847 7.064-2.231 14.499-2.603 22.026-3.253 7.157-.558 14.777-1.766 21.283-4.833 8.178-3.718 16.543-4.926 25.651-2.788 8.736 2.044 16.728 7.528 20.91 15.52 4.833 9.387 2.231 20.26 6.32 30.205z" stroke="#E8530E" stroke-width=".5" stroke-miterlimit="10"/><path d="M159.731 62.243c1.673 3.717 4.647 6.412 6.598 9.665 4.926 8.086 4.275 19.61-1.673 27.788-4.368 5.855-8.178 9.573-7.528 16.636.558 5.669 2.51 11.71-.743 17.379-3.718 6.692-10.409 11.153-18.587 11.246-5.298 0-10.409-1.673-14.592-4.276-2.788-1.765-5.204-3.903-7.992-5.669-3.067-1.858-6.599-3.438-10.409-3.903-2.138-.186-4.275 0-6.413.186-9.2.836-21.933 4.182-26.394-6.599-1.208-2.788-2.137-5.855-3.996-8.364-2.23-3.067-5.67-5.019-8.922-6.413-3.253-1.394-6.413-2.509-9.572-4.182-3.16-1.673-5.298-3.81-6.413-6.32-1.766-3.996-.93-8.921 1.58-13.754 1.859-3.532 3.996-6.97 5.019-10.874 2.973-10.966-3.904-20.725.65-31.32 2.881-6.784 9.851-11.338 16.822-13.382 6.97-2.045 14.312-2.138 21.654-2.603 7.063-.464 14.498-1.58 20.818-4.832 7.621-3.904 15.52-5.484 24.349-3.625 8.364 1.673 16.171 6.784 19.982 14.498 4.553 8.922 1.487 19.238 5.762 28.718z" stroke="#E8530E" stroke-width=".5" stroke-miterlimit="10"/><path d="M157.415 60.11c1.766 3.624 4.833 6.133 7.063 9.386 5.205 7.807 4.926 19.331-1.115 27.416-4.368 5.763-8.271 9.387-7.249 16.45.836 5.669 3.253 11.71.279 17.565-3.532 6.785-10.038 11.339-18.216 11.153-5.297-.093-10.316-1.952-14.405-4.833-2.695-1.859-5.019-4.182-7.807-6.041-2.881-1.952-6.32-3.624-10.037-3.996-2.045-.186-4.182 0-6.227.279-8.922 1.115-21.561 5.018-25.65-5.762-1.116-2.789-1.86-5.762-3.718-8.272-2.137-2.974-5.576-4.832-8.829-6.041-3.253-1.208-6.505-2.044-9.665-3.531-3.253-1.487-5.39-3.532-6.506-5.855-1.766-3.81-.836-8.643 1.859-13.383 1.952-3.439 4.182-6.692 5.204-10.502 3.067-10.688-4.553-20.167-.371-30.762 2.695-6.506 9.665-10.874 16.542-12.733 6.878-1.765 14.127-1.58 21.376-1.951 6.877-.279 14.219-1.394 20.26-4.833 7.156-4.09 14.498-5.948 22.955-4.554 7.993 1.394 15.521 6.134 19.145 13.383 4.183 8.643.744 18.495 5.112 27.416z" stroke="#E8530E" stroke-width=".5" stroke-miterlimit="10"/><path d="M155.184 57.975c1.859 3.532 5.112 5.948 7.528 9.108 5.576 7.621 5.484 19.145-.557 27.138-4.368 5.762-8.272 9.201-6.878 16.357 1.116 5.669 3.997 11.71 1.208 17.658-3.252 6.877-9.758 11.431-17.936 11.059-5.298-.186-10.223-2.323-14.127-5.297-2.602-1.952-4.832-4.368-7.528-6.413-2.788-2.045-6.04-3.81-9.665-4.089-2.045-.186-4.089.093-6.041.372-8.55 1.301-21.282 5.948-25-4.926-.93-2.788-1.58-5.762-3.346-8.178-2.137-2.881-5.483-4.554-8.736-5.577-3.252-1.022-6.598-1.58-9.758-2.881-3.346-1.394-5.483-3.252-6.599-5.483-1.765-3.717-.743-8.364 2.045-12.918 2.045-3.253 4.368-6.413 5.483-10.13 3.067-10.41-5.297-19.703-1.3-30.112 2.509-6.598 9.386-10.78 16.263-12.36 6.878-1.58 13.94-1.116 21.004-1.302 6.784-.185 13.94-1.115 19.795-4.832 6.599-4.182 13.476-6.506 21.655-5.39 7.713 1.022 14.962 5.39 18.215 12.36 3.625 8.085-.279 17.472 4.275 25.836z" stroke="#E8530E" stroke-width=".5" stroke-miterlimit="10"/><path d="M152.861 55.834c2.044 3.439 5.39 5.762 7.899 8.83 5.948 7.434 6.041 18.958 0 26.765-4.461 5.669-8.364 9.015-6.598 16.264 1.394 5.669 4.74 11.803 2.137 17.751-3.067 6.97-9.479 11.524-17.565 11.059-5.204-.279-10.037-2.602-13.94-5.762-2.602-2.137-4.74-4.647-7.249-6.784-2.603-2.138-5.762-3.997-9.294-4.275-1.952-.186-3.903.186-5.855.557-8.271 1.58-20.91 6.878-24.257-4.089-.836-2.788-1.3-5.762-3.066-8.085-2.045-2.881-5.39-4.368-8.736-5.205-3.253-.836-6.692-1.208-9.852-2.23-3.438-1.209-5.669-2.881-6.784-5.019-1.859-3.532-.65-8.086 2.23-12.454 2.138-3.16 4.554-6.226 5.67-9.758 3.066-10.223-5.948-19.145-2.324-29.554C57.6 37.34 64.385 33.343 71.169 31.95c6.785-1.394 13.755-.65 20.632-.65 6.599 0 13.755-.93 19.238-4.833 6.134-4.368 12.454-7.063 20.353-6.32 7.342.744 14.313 4.74 17.379 11.339 3.718 7.62-.557 16.542 4.09 24.35z" stroke="#E8530E" stroke-width=".5" stroke-miterlimit="10"/><path d="M51.93 94.213c1.116 2.044 3.346 3.625 6.878 4.647 3.253.93 6.691 1.022 10.037 1.673 3.346.65 6.692 2.044 8.643 4.832 1.58 2.324 1.952 5.298 2.695 7.993 2.881 10.966 15.52 5.111 23.513 3.253 1.859-.465 3.811-.837 5.67-.651 3.438.279 6.505 2.138 8.921 4.368 2.417 2.231 4.554 4.926 6.971 7.156 3.717 3.346 8.55 5.762 13.661 6.227 8.086.651 14.313-3.996 17.194-10.966 2.509-6.041-1.394-12.268-3.067-17.937-2.138-7.342 1.766-10.502 6.227-16.171 6.04-7.714 5.855-19.238-.465-26.394-2.602-2.974-6.134-5.205-8.364-8.55-4.74-7.25-.186-15.614-3.439-23.049-2.788-6.227-9.48-9.851-16.543-10.223-7.621-.372-13.383 2.695-18.959 7.156-5.204 4.182-12.175 4.926-18.68 4.833-6.785-.093-13.569-1.115-20.26 0-6.692 1.115-13.476 5.019-15.614 11.431-3.438 10.316 6.32 19.052 3.253 28.997-1.115 3.531-3.625 6.412-5.855 9.479-2.974 4.182-4.182 8.55-2.416 11.896z" stroke="#E8530E" stroke-width=".5" stroke-miterlimit="10"/></svg>