<svg width="272" height="226" viewBox="0 0 272 226" fill="none" xmlns="http://www.w3.org/2000/svg">
<path d="M197.185 214.072C180.241 224.315 139.081 187.392 105.352 131.6C71.6464 75.7109 58.0556 22.2041 74.999 11.961C91.9424 1.71787 133.103 38.6402 166.832 94.4324C200.561 150.225 214.128 203.828 197.185 214.072Z" stroke="#E2F2F5" stroke-miterlimit="10"/>
<path d="M204.813 203.591C189.62 215.089 146.538 183.873 108.511 133.819C70.5809 83.7889 52.1026 33.8152 67.2955 22.3168C82.4885 10.8183 125.57 42.0346 163.597 92.0886C201.624 142.143 220.006 192.092 204.813 203.591Z" stroke="#E2F2F5" stroke-miterlimit="10"/>
<path d="M212.416 193.213C198.95 206.064 153.849 180.529 111.645 136.141C69.4413 91.7516 46.1487 45.432 59.6883 32.7021C73.1548 19.8512 118.255 45.3854 160.459 89.7743C202.687 134.066 225.979 180.386 212.416 193.213Z" stroke="#E2F2F5" stroke-miterlimit="10"/>
<path d="M220.121 182.855C208.405 196.962 161.286 177.109 114.857 138.58C68.4524 99.953 40.3455 57.2875 52.0614 43.1813C63.7774 29.075 110.92 48.83 157.325 87.4568C203.754 125.986 231.837 168.749 220.121 182.855Z" stroke="#E2F2F5" stroke-miterlimit="10"/>
<path d="M227.726 172.472C217.761 187.834 168.6 173.761 117.994 140.896C67.3883 108.031 34.37 68.9962 44.3594 53.5375C54.3249 38.1759 103.486 52.2488 154.092 85.1134C204.818 117.905 237.716 157.013 227.726 172.472Z" stroke="#E2F2F5" stroke-miterlimit="10"/>
<path d="M235.454 162.016C227.215 178.73 176.06 170.242 121.253 143.14C66.3255 116.11 28.5169 80.6322 36.7559 63.9181C44.9948 47.2041 96.15 55.692 150.957 82.7945C205.764 109.897 243.669 145.399 235.454 162.016Z" stroke="#E2F2F5" stroke-miterlimit="10"/>
<path d="M243.055 151.634C236.566 169.604 183.369 166.895 124.264 145.531C65.2564 124.19 22.5603 92.2453 29.0488 74.2759C35.5374 56.3065 88.7348 59.0152 147.84 80.3795C206.92 101.841 249.543 133.665 243.055 151.634Z" stroke="#E2F2F5" stroke-miterlimit="10"/>
<path d="M250.665 141.253C245.927 160.478 190.712 163.452 127.406 147.849C64.1972 132.271 16.6868 103.98 21.4249 84.7554C26.1629 65.5307 81.3787 62.5572 144.684 78.1594C207.99 93.7615 255.427 121.932 250.665 141.253Z" stroke="#E2F2F5" stroke-miterlimit="10"/>
</svg>
