<svg width="521" height="519" viewBox="0 0 521 519" fill="none" xmlns="http://www.w3.org/2000/svg">
<g opacity="0.1">
<path d="M265.823 518.815L265.13 454.377L264.784 389.94L264.438 260.719L264.784 131.844L265.13 67.4062L265.823 2.96875L266.516 67.4062L267.209 131.844L267.555 260.719L267.209 389.94L266.516 454.377L265.823 518.815Z" fill="#E8530E"/>
<path d="M277.941 512.585L274.13 451.265L270.666 389.946L264.083 266.961L258.54 144.321L255.769 83.0019L253.344 21.3359L257.154 82.6555L260.619 144.321L267.201 266.961L273.091 389.6L275.516 451.265L277.941 512.585Z" fill="#E8530E"/>
<path d="M290.069 506.691L283.14 448.143L276.558 389.942L264.086 273.538L251.961 156.789L246.418 98.2407L240.875 40.0391L247.804 98.2407L254.386 156.442L267.204 273.192L278.983 389.595L284.873 448.143L290.069 506.691Z" fill="#E8530E"/>
<path d="M302.195 500.453L292.495 445.37L282.794 389.94L264.087 279.772L245.725 168.912L237.064 113.829L228.75 58.3984L238.45 113.482L248.151 168.566L266.858 279.08L284.873 389.593L293.88 445.023L302.195 500.453Z" fill="#E8530E"/>
<path d="M314.323 494.223L301.505 442.258L288.687 390.292L263.743 286.014L239.493 181.39L227.714 129.078L216.281 76.7656L229.099 128.731L241.918 181.043L266.861 285.321L291.112 389.599L302.891 441.911L314.323 494.223Z" fill="#E8530E"/>
<path d="M326.444 488.332L310.508 439.484L294.571 390.29L263.739 292.248L233.252 193.86L218.355 144.666L203.805 95.125L219.741 144.319L235.677 193.167L266.51 291.209L296.996 389.597L311.893 438.791L326.444 488.332Z" fill="#E8530E"/>
<path d="M338.58 482.092L319.526 436.362L300.818 390.286L263.749 298.48L227.027 206.327L209.012 159.904L191.344 113.828L210.398 159.558L229.106 205.288L266.521 297.44L302.897 389.593L320.912 435.669L338.58 482.092Z" fill="#E8530E"/>
<path d="M350.693 475.862L328.521 433.25L306.695 390.638L263.39 304.721L220.778 218.805L199.646 175.5L178.859 132.195L201.031 174.807L222.857 217.765L266.162 303.336L308.774 389.599L329.906 432.904L350.693 475.862Z" fill="#E8530E"/>
<path d="M362.821 469.97L337.877 430.477L312.934 390.636L263.393 310.955L214.545 230.928L190.295 191.088L166.391 150.555L191.681 190.049L216.624 229.889L265.818 309.57L314.666 389.597L338.917 429.784L362.821 469.97Z" fill="#E8530E"/>
<path d="M374.949 463.73L346.888 427.354L318.826 390.978L263.396 317.187L208.313 243.396L181.29 206.327L153.922 169.258L182.33 205.634L210.045 242.01L265.821 315.455L320.559 389.592L347.927 426.661L374.949 463.73Z" fill="#E8530E"/>
<path d="M387.075 457.847L355.896 424.589L325.063 390.984L263.397 323.775L202.077 255.873L171.937 221.922L141.797 187.625L172.976 220.883L203.809 254.488L265.475 321.697L326.795 389.598L356.935 423.549L387.075 457.847Z" fill="#E8530E"/>
<path d="M399.203 451.609L365.252 421.469L330.955 390.982L263.4 330.009L195.844 268.343L162.586 237.164L129.328 205.984L163.625 236.124L197.576 266.611L265.132 327.93L332.687 389.25L365.945 420.429L399.203 451.609Z" fill="#E8530E"/>
<path d="M411.324 445.363L374.255 418.341L337.186 390.973L263.395 336.235L189.95 280.459L153.228 252.744L116.852 224.336L153.92 251.705L190.989 278.727L265.127 333.81L338.572 389.24L374.948 417.302L411.324 445.363Z" fill="#E8530E"/>
<path d="M423.444 439.485L383.258 415.581L343.071 391.33L263.39 342.482L183.709 292.942L143.869 267.998L104.375 243.055L144.562 266.959L184.749 291.21L264.776 340.057L344.457 389.252L383.951 414.195L423.444 439.485Z" fill="#E8530E"/>
<path d="M435.573 433.247L392.615 412.461L349.31 391.328L263.047 348.716L177.476 305.412L134.518 283.586L91.9062 261.414L135.211 282.2L178.516 303.333L264.432 346.291L350.349 389.25L392.961 411.075L435.573 433.247Z" fill="#E8530E"/>
<path d="M447.701 427.348L401.625 409.333L355.549 391.319L263.05 354.943L171.244 317.874L125.167 298.82L79.4375 279.766L125.86 297.78L171.937 315.795L264.089 352.171L356.241 389.24L401.971 408.294L447.701 427.348Z" fill="#E8530E"/>
<path d="M460.176 421.124L410.635 406.573L361.441 391.33L263.053 361.19L165.011 330.01L116.163 314.421L66.9688 298.484L116.509 313.035L165.704 327.932L264.092 358.418L362.134 389.251L410.982 405.187L460.176 421.124Z" fill="#E8530E"/>
<path d="M472.302 414.886L419.643 403.453L367.677 391.674L263.053 367.424L158.775 342.48L106.809 329.662L54.8438 316.844L107.156 328.276L159.468 340.401L263.746 364.652L368.024 389.596L419.989 402.068L472.302 414.886Z" fill="#E8530E"/>
<path d="M484.43 408.994L429 400.334L373.57 391.673L263.056 373.311L152.542 354.604L97.4587 345.25L42.375 335.203L97.8051 343.864L152.889 352.525L263.403 370.886L373.916 389.594L429 398.948L484.43 408.994Z" fill="#E8530E"/>
<path d="M496.55 402.757L438.002 397.214L379.801 391.671L263.051 379.545L146.302 367.074L88.1 360.491L29.8984 353.562L88.1 359.105L146.648 364.995L263.398 376.774L379.801 389.592L438.002 396.174L496.55 402.757Z" fill="#E8530E"/>
<path d="M508.671 396.871L447.005 394.445L385.686 391.674L263.046 385.784L140.061 379.202L78.7413 376.084L17.4219 372.273L78.7413 374.698L140.407 377.124L263.046 383.013L385.686 389.595L447.352 393.06L508.671 396.871Z" fill="#E8530E"/>
<path d="M520.799 390.636L456.362 391.329L391.924 391.675L262.703 392.021L133.828 391.675L69.3906 391.329L4.95312 390.636L69.3906 389.943L133.828 389.596L262.703 389.25L391.924 389.596L456.362 389.943L520.799 390.636Z" fill="#E8530E"/>
</g>
<path d="M261.67 515.703L260.977 451.265L260.284 386.828L259.938 257.953L260.284 129.078L260.977 64.6406L261.67 0.203125L262.363 64.6406L262.709 129.078L263.055 257.953L262.709 386.828L262.363 451.265L261.67 515.703Z" fill="#E8530E"/>
<path d="M273.785 509.819L269.974 448.5L266.509 387.18L259.927 264.195L254.038 141.556L251.613 79.8898L249.188 18.5703L252.998 79.8898L256.463 141.209L263.045 264.195L268.588 386.834L271.36 448.5L273.785 509.819Z" fill="#E8530E"/>
<path d="M285.913 503.582L278.984 445.38L272.402 387.178L259.93 270.429L247.805 153.679L242.262 95.4777L236.719 36.9297L243.648 95.1313L250.23 153.679L262.702 270.082L274.827 386.832L280.37 445.38L285.913 503.582Z" fill="#E8530E"/>
<path d="M298.041 497.688L287.995 442.604L278.294 387.174L259.587 276.66L241.572 166.147L232.911 110.716L224.25 55.6328L234.297 110.716L243.997 165.8L262.705 276.314L280.719 386.828L289.38 442.258L298.041 497.688Z" fill="#E8530E"/>
<path d="M310.17 491.458L297.005 439.492L284.533 387.526L259.59 282.902L235.339 178.624L223.56 126.312L211.781 74L224.946 125.966L237.418 177.931L262.361 282.556L286.612 386.833L298.391 439.146L310.17 491.458Z" fill="#E8530E"/>
<path d="M322.298 485.22L306.362 436.372L290.426 387.525L259.593 289.483L229.106 191.094L214.209 141.9L199.312 92.3594L215.595 141.207L231.185 190.401L262.364 288.443L292.504 386.832L307.748 436.026L322.298 485.22Z" fill="#E8530E"/>
<path d="M334.424 479.326L315.37 433.596L296.662 387.52L259.247 295.714L222.871 203.561L204.856 157.139L187.188 111.062L206.242 156.792L224.949 202.522L262.018 294.675L298.74 386.827L316.755 432.903L334.424 479.326Z" fill="#E8530E"/>
<path d="M346.536 473.096L324.364 430.484L302.539 387.872L259.234 301.956L216.622 215.693L195.489 172.734L174.703 129.43L196.875 172.042L218.701 214.653L262.006 300.57L304.617 386.833L325.75 429.792L346.536 473.096Z" fill="#E8530E"/>
<path d="M358.665 467.205L333.375 427.711L308.431 387.871L259.237 308.19L210.389 228.163L186.139 187.976L162.234 147.789L187.524 187.283L212.121 227.123L261.662 306.804L310.51 386.831L334.761 426.672L358.665 467.205Z" fill="#E8530E"/>
<path d="M370.793 460.959L342.732 424.583L314.67 387.861L259.24 314.416L204.156 240.625L176.788 203.556L149.766 166.141L177.827 202.517L205.889 239.239L261.319 312.684L316.402 386.475L343.771 423.544L370.793 460.959Z" fill="#E8530E"/>
<path d="M382.921 454.735L351.742 421.476L320.563 388.219L259.243 320.663L197.924 253.108L167.437 218.81L137.297 184.859L168.476 218.117L199.656 251.376L261.322 318.931L322.295 386.486L352.781 420.784L382.921 454.735Z" fill="#E8530E"/>
<path d="M395.05 448.843L360.752 418.703L326.801 388.217L258.9 326.897L191.691 265.578L158.086 234.398L124.828 203.219L159.125 233.359L193.076 263.845L260.978 324.819L328.187 386.485L361.792 417.664L395.05 448.843Z" fill="#E8530E"/>
<path d="M407.17 442.598L370.102 415.576L333.033 388.207L258.895 333.47L185.45 277.693L149.074 249.978L112.352 221.57L149.767 248.592L186.836 275.961L260.627 331.045L334.072 386.475L370.794 414.536L407.17 442.598Z" fill="#E8530E"/>
<path d="M419.288 436.719L379.101 412.469L338.915 388.564L258.887 339.717L179.207 290.176L139.713 265.233L100.219 240.289L140.406 264.193L180.592 288.444L260.273 337.292L339.954 386.486L379.794 411.429L419.288 436.719Z" fill="#E8530E"/>
<path d="M431.416 430.482L388.112 409.695L345.154 388.563L258.89 345.951L172.974 302.646L130.362 280.821L87.75 258.648L131.055 279.435L174.013 300.567L260.276 343.179L345.846 386.484L388.805 408.31L431.416 430.482Z" fill="#E8530E"/>
<path d="M443.545 424.236L397.122 406.568L351.046 388.553L258.893 351.831L167.087 314.762L121.011 296.054L75.2812 277L121.704 294.668L167.78 313.03L259.933 349.406L351.739 386.474L397.815 405.182L443.545 424.236Z" fill="#E8530E"/>
<path d="M455.673 418.353L406.479 403.456L357.285 388.559L258.896 358.072L160.854 327.24L111.66 311.65L62.8125 295.367L112.007 310.264L161.547 325.161L259.589 355.647L357.978 386.48L406.825 402.417L455.673 418.353Z" fill="#E8530E"/>
<path d="M467.801 412.12L415.489 400.688L363.177 388.562L258.899 364.312L154.622 339.715L102.309 326.896L50.3438 314.078L102.656 325.511L154.968 337.636L259.592 361.887L363.87 386.484L415.836 399.302L467.801 412.12Z" fill="#E8530E"/>
<path d="M479.914 406.229L424.484 397.568L369.401 388.56L258.887 370.546L148.373 351.838L93.2895 342.138L37.8594 332.438L93.2895 341.098L148.72 349.759L259.233 367.774L369.747 386.482L424.831 396.182L479.914 406.229Z" fill="#E8530E"/>
<path d="M492.048 399.991L433.846 394.448L375.298 388.905L258.549 376.78L142.145 364.308L83.9437 357.726L25.7422 350.797L83.9437 356.34L142.492 362.229L258.895 374.008L375.645 386.826L433.846 393.062L492.048 399.991Z" fill="#E8530E"/>
<path d="M504.168 393.758L442.849 391.333L381.529 388.908L258.544 383.019L135.905 376.437L74.5852 372.972L13.2656 369.508L74.5852 371.586L135.905 374.358L258.89 380.247L381.529 386.83L442.849 390.294L504.168 393.758Z" fill="#E8530E"/>
<path d="M516.297 387.87L451.859 388.563L387.422 388.909L258.547 389.256L129.672 388.909L65.2344 388.563L0.796875 387.87L65.2344 387.177L129.672 386.831L258.547 386.484L387.422 386.831L451.859 387.177L516.297 387.87Z" fill="#E8530E"/>
</svg>
