<svg width="53" height="52" viewBox="0 0 53 52" fill="none" xmlns="http://www.w3.org/2000/svg">
<path d="M2.35754 0H22.2399C23.0846 0 23.7693 0.684741 23.7693 1.52941V21.4118C23.7693 22.2564 23.0846 22.9412 22.2399 22.9412H2.35754C1.51287 22.9412 0.828125 22.2564 0.828125 21.4118V1.52941C0.828125 0.684741 1.51287 0 2.35754 0ZM3.88695 3.05882V19.8824H20.7105V3.05882H3.88695ZM41.3575 0C47.6926 0 52.8281 5.13556 52.8281 11.4706C52.8281 17.8056 47.6926 22.9412 41.3575 22.9412C35.0225 22.9412 29.8869 17.8056 29.8869 11.4706C29.8869 5.13556 35.0225 0 41.3575 0ZM41.3575 3.05882C36.7118 3.05882 32.9458 6.8249 32.9458 11.4706C32.9458 16.1163 36.7118 19.8824 41.3575 19.8824C46.0032 19.8824 49.7693 16.1163 49.7693 11.4706C49.7693 6.8249 46.0032 3.05882 41.3575 3.05882ZM12.2987 29.0588C18.6337 29.0588 23.7693 34.1944 23.7693 40.5294C23.7693 46.8644 18.6337 52 12.2987 52C5.96368 52 0.828125 46.8644 0.828125 40.5294C0.828125 34.1944 5.96368 29.0588 12.2987 29.0588ZM12.2987 32.1176C7.65302 32.1176 3.88695 35.8837 3.88695 40.5294C3.88695 45.1751 7.65302 48.9412 12.2987 48.9412C16.9444 48.9412 20.7105 45.1751 20.7105 40.5294C20.7105 35.8837 16.9444 32.1176 12.2987 32.1176ZM31.4164 29.0588H51.2987C52.1434 29.0588 52.8281 29.7436 52.8281 30.5882V50.4706C52.8281 51.3153 52.1434 52 51.2987 52H31.4164C30.5717 52 29.8869 51.3153 29.8869 50.4706V30.5882C29.8869 29.7436 30.5717 29.0588 31.4164 29.0588ZM32.9458 48.9412H49.7693V32.1176H32.9458V48.9412Z" fill="#E5E7E8"/>
</svg>
