<svg width="60" height="60" fill="none" xmlns="http://www.w3.org/2000/svg"><path d="M58.454 39.616c-1.127-1.378-2.98-1.853-4.608-1.152l-14.85 6.235c-.625.25-.9.952-.65 1.578.25.626.976.901 1.577.65l14.875-6.235c.626-.275 1.352-.075 1.803.451.276.35.376.776.326 1.202-.075.426-.3.802-.676 1.052-6.486 4.232-21.236 12.596-21.937 12.972-.025.025-.05.025-.075.05-1.778 1.076-3.806 1.352-6.336.901-.15-.025-2.654-.325-11.694-1.427l-4.207-.526V39.115c.65-.05 1.252-.075 1.527-.075h.15c5.61-.35 10.969.726 16.628 1.878l2.179.45c.776.15 1.327.827 1.327 1.628 0 .05 0 .1-.025.2-.05.451-.3.777-.476.977-.3.3-.726.476-1.177.476H20.817a1.202 1.202 0 0 0 0 2.404H32.16a4.014 4.014 0 0 0 2.88-1.202 3.97 3.97 0 0 0 1.152-2.329c.025-.175.05-.35.05-.526a4.073 4.073 0 0 0-3.28-3.981c-.727-.15-1.453-.3-2.179-.426-5.584-1.127-11.344-2.304-17.254-1.903h-.125c-.275 0-.826.05-1.477.075-.15-.501-.576-.902-1.152-.902h-8.94c-.676 0-1.202.551-1.202 1.202v20.26c0 .675.55 1.201 1.202 1.201H10.8c.476 0 .901-.275 1.077-.701l4.031.5c4.758.577 11.294 1.378 11.57 1.428.901.15 1.752.25 2.554.25 1.978 0 3.756-.475 5.384-1.427.025 0 .025-.025.05-.025.15-.075 15.426-8.714 22.087-13.072a4.005 4.005 0 0 0 1.753-2.704c.15-1.152-.15-2.279-.852-3.155zM9.573 56.068H3.037v-17.83h6.536v17.83zM20.29 17.104c.05.024.125.024.226.05.425.075.826.15 1.252.225.1.025.2.05.3.05.1 1.127.326 2.229.701 3.28-.2.15-.4.276-.6.426l-.602.4c-.1.076-.175.126-.225.176a1.24 1.24 0 0 0-.376 1.478 16.367 16.367 0 0 0 2.98 4.307c.4.426 1.052.5 1.528.175l.075-.05c.326-.25.676-.476 1.002-.701.1-.075.225-.15.325-.226a12.591 12.591 0 0 0 2.78 1.803c-.05.2-.075.426-.125.627-.05.325-.126.65-.176.976 0 .025-.025.075-.025.1-.1.576.25 1.127.777 1.328.8.3 1.652.525 2.504.676.851.15 1.728.25 2.579.275h.025c.576 0 1.052-.4 1.177-.951 0-.025.025-.076.025-.1.05-.326.125-.652.175-.977.05-.2.075-.4.126-.626a14.48 14.48 0 0 0 3.255-.676c.075.1.15.225.225.325.226.326.476.676.676 1.002.026.025.076.1.1.125.351.45.952.601 1.478.376a16.007 16.007 0 0 0 4.332-2.955c.426-.401.501-1.027.2-1.503-.05-.075-.1-.15-.15-.25l-.4-.576c-.15-.2-.276-.426-.426-.626a12.853 12.853 0 0 0 1.828-2.805c.1.025.2.05.3.05.426.075.827.15 1.253.25.075.026.15.026.225.026.551.05 1.052-.276 1.252-.802.3-.826.526-1.678.701-2.554.176-.876.25-1.753.276-2.63a1.187 1.187 0 0 0-.927-1.201c-.025 0-.075-.025-.1-.025l-.576-.1c-.35-.076-.701-.126-1.052-.2a14.263 14.263 0 0 0-.676-3.231c.451-.326.927-.626 1.403-.952.5-.325.676-.976.425-1.527a16.222 16.222 0 0 0-2.98-4.358c-.4-.425-1.077-.5-1.552-.15-.276.2-.576.4-.852.576-.175.125-.375.25-.55.376a12.591 12.591 0 0 0-2.78-1.803c0-.05.025-.075.025-.126l.05-.275c0-.025.025-.05.025-.1l.075-.376c.05-.25.1-.5.15-.826a1.22 1.22 0 0 0-.776-1.352c-.801-.3-1.653-.526-2.504-.677-.852-.15-1.728-.25-2.58-.275-.6 0-1.126.426-1.227 1.052-.05.25-.1.526-.15.776l-.075.35c0 .026 0 .076-.025.1l-.05.276c0 .05-.025.075-.025.125-1.102.1-2.204.326-3.256.677-.125-.176-.25-.376-.375-.551-.2-.276-.4-.576-.576-.852a1.191 1.191 0 0 0-1.503-.425 16.221 16.221 0 0 0-4.357 2.98c-.426.4-.5 1.076-.15 1.577.325.45.651.927.951 1.377a12.592 12.592 0 0 0-1.802 2.78c-.351-.075-.702-.125-1.052-.2l-.676-.075a1.19 1.19 0 0 0-1.328.776c-.3.826-.525 1.678-.7 2.554-.151.877-.251 1.753-.276 2.63a1.16 1.16 0 0 0 .851 1.177zm1.778-3.356c.075-.4.175-.826.276-1.227.425.075.851.15 1.277.25.225.05.4.075.6.05.451-.025.852-.325 1.027-.75a11.093 11.093 0 0 1 2.354-3.607 1.21 1.21 0 0 0 .25-1.277c-.074-.2-.2-.376-.325-.576l-.225-.326-.45-.676a12.923 12.923 0 0 1 2.052-1.402c.251.35.501.726.752 1.102.15.225.3.4.5.526.351.225.777.275 1.152.125a11.102 11.102 0 0 1 4.208-.877c.45 0 .876-.275 1.076-.676.075-.15.126-.325.15-.526l.15-.826.076-.376c0-.025 0-.075.025-.1v-.05c.4.05.776.1 1.177.176.4.075.776.15 1.152.275v.05c0 .025-.025.05-.025.1l-.075.376-.15.826c-.05.176-.05.35-.05.526a1.2 1.2 0 0 0 .75 1.027 10.767 10.767 0 0 1 3.607 2.329c.3.275.726.4 1.102.3.225-.05.45-.15.65-.325.351-.25.727-.501 1.077-.752a13.938 13.938 0 0 1 1.403 2.029c-.25.175-.476.325-.726.5l-.25.176c-.201.125-.377.25-.527.426-.325.35-.425.851-.225 1.302.576 1.352.876 2.754.901 4.207 0 .45.276.876.677 1.077.175.075.375.15.575.175l1.278.225c-.05.426-.1.827-.176 1.227-.075.401-.175.802-.275 1.202-.1-.025-.226-.05-.326-.05-.375-.075-.751-.15-1.152-.225-.025 0-.15-.025-.175-.025-.55-.075-1.052.25-1.252.751a10.799 10.799 0 0 1-2.404 3.656c-.35.35-.45.877-.25 1.327.05.126.125.25.2.35.275.377.526.752.801 1.153-.626.526-1.302.976-2.003 1.377l-.15-.225c-.226-.326-.426-.626-.651-.952a1.186 1.186 0 0 0-.276-.325 1.243 1.243 0 0 0-1.302-.25c-1.352.575-2.78.876-4.257.876-.476 0-.902.275-1.077.7-.075.151-.125.326-.15.527-.075.45-.15.876-.226 1.302-.4-.05-.776-.1-1.177-.175-.4-.075-.776-.15-1.152-.276.076-.45.15-.876.25-1.327.051-.175.051-.35.051-.526a1.206 1.206 0 0 0-.751-1.052 11.198 11.198 0 0 1-3.631-2.354 1.243 1.243 0 0 0-1.303-.25c-.125.05-.25.125-.375.225-.3.226-.626.451-.952.651l-.225.15a13.56 13.56 0 0 1-1.377-2.003c.375-.275.776-.526 1.152-.776.125-.075.225-.175.325-.25.35-.35.45-.877.25-1.328-.575-1.352-.901-2.804-.901-4.282 0-.55-.376-1.026-.901-1.152a.466.466 0 0 1-.176-.05c-.375-.075-.776-.15-1.152-.225-.1-.025-.225-.05-.325-.05.1-.35.15-.751.225-1.152z" fill="#E5E7E8"/><path d="M30.41 21.311a7.312 7.312 0 0 0 2.78 1.803c.35.126.726.226 1.126.3.376.076.776.126 1.152.126h.2a7.155 7.155 0 0 0 3.056-.676 6.462 6.462 0 0 0 1.928-1.327 7.087 7.087 0 0 0 1.828-2.78c.125-.376.225-.751.3-1.127.075-.4.126-.776.126-1.177a7.204 7.204 0 0 0-.677-3.23 6.912 6.912 0 0 0-1.327-1.953 7.311 7.311 0 0 0-2.78-1.803 7.406 7.406 0 0 0-1.126-.3c-.376-.076-.777-.101-1.152-.126a7.204 7.204 0 0 0-3.23.676 6.915 6.915 0 0 0-1.954 1.327 7.312 7.312 0 0 0-1.803 2.78c-.125.376-.25.751-.3 1.152a6.053 6.053 0 0 0-.126 1.177 7.261 7.261 0 0 0 .702 3.255c.275.676.726 1.327 1.277 1.903zm.476-5.91c.05-.25.125-.525.2-.776a5.041 5.041 0 0 1 1.202-1.853 4.663 4.663 0 0 1 1.302-.901c.626-.3 1.327-.451 2.028-.451h.126c.25 0 .526.025.776.075.25.05.5.125.751.2.701.25 1.327.651 1.853 1.202.376.376.676.827.902 1.303.325.676.475 1.427.45 2.153 0 .25-.025.526-.075.801-.05.25-.125.526-.2.752a4.626 4.626 0 0 1-1.227 1.853 5.17 5.17 0 0 1-1.302.876 4.632 4.632 0 0 1-2.154.451c-.25 0-.5-.025-.776-.075-.25-.05-.5-.125-.751-.2a5.044 5.044 0 0 1-1.853-1.202 4.26 4.26 0 0 1-.877-1.303 4.669 4.669 0 0 1-.45-2.178c0-.2.024-.476.075-.726z" fill="#E5E7E8"/></svg>