<svg width="44" height="60" viewBox="0 0 44 60" fill="none" xmlns="http://www.w3.org/2000/svg">
<path d="M42.15 47.904L32.5695 36.5477C35.0281 33.9126 36.4644 30.4858 36.6195 26.8852C36.7745 23.2845 35.6382 19.747 33.4152 16.9102C31.1923 14.0735 28.0291 12.1242 24.4958 11.4138C20.9625 10.7034 17.2917 11.2787 14.1452 13.0358C10.9986 14.793 8.58329 17.6165 7.33469 20.9973C6.0861 24.378 6.08636 28.0936 7.33544 31.4742C8.58452 34.8548 11.0002 37.6779 14.147 39.4347C17.2939 41.1914 20.9648 41.7661 24.4979 41.0552L29.1729 55.2552C29.5703 56.2537 30.1771 57.1556 30.9523 57.9001C31.7275 58.6446 32.6531 59.2144 33.6669 59.5712C34.6808 59.928 35.7593 60.0636 36.8299 59.9687C37.9004 59.8738 38.9383 59.5508 39.8736 59.0212C40.8089 58.4917 41.6199 57.768 42.2521 56.8988C42.8843 56.0296 43.323 55.0351 43.5387 53.9821C43.7543 52.9292 43.742 51.8423 43.5025 50.7945C43.2629 49.7468 42.8018 48.7625 42.15 47.9079V47.904ZM10.8405 32.2153C9.65998 30.1024 9.13256 27.687 9.32491 25.2743C9.51726 22.8617 10.4207 20.5603 11.9211 18.6612C13.4215 16.7621 15.4513 15.3506 17.754 14.6051C20.0566 13.8597 22.5286 13.8138 24.8572 14.4734C27.1859 15.1329 29.2667 16.4682 30.8365 18.3103C32.4063 20.1525 33.3945 22.4188 33.6762 24.8226C33.9579 27.2265 33.5204 29.6599 32.4191 31.815C31.3177 33.9702 29.602 35.7504 27.4889 36.9304C26.0885 37.7237 24.5446 38.2311 22.9466 38.4233C21.3487 38.6154 19.7285 38.4886 18.1799 38.05C16.6314 37.6114 15.1852 36.8699 13.9254 35.8683C12.6655 34.8667 11.617 33.6251 10.8405 32.2153ZM40.7186 53.4372C40.5109 54.4064 39.9995 55.2841 39.2588 55.9427C38.518 56.6012 37.5865 57.0064 36.5997 57.0992C35.6129 57.1921 34.6222 56.9677 33.7716 56.4589C32.921 55.95 32.2549 55.1831 31.8701 54.2696L27.2459 40.2238C28.3738 39.768 29.439 39.1703 30.4158 38.4451L39.9015 49.6846C40.2969 50.216 40.5743 50.8256 40.7152 51.4727C40.8561 52.1199 40.8573 52.7896 40.7186 53.4372Z" fill="#E5E7E8"/>
<path d="M15.3883 21.4329H27.6632C28.0438 21.4329 28.4089 21.2817 28.678 21.0126C28.9472 20.7434 29.0984 20.3783 29.0984 19.9977C29.0984 19.6171 28.9472 19.252 28.678 18.9829C28.4089 18.7137 28.0438 18.5625 27.6632 18.5625H15.3883C15.0077 18.5625 14.6426 18.7137 14.3735 18.9829C14.1043 19.252 13.9531 19.6171 13.9531 19.9977C13.9531 20.3783 14.1043 20.7434 14.3735 21.0126C14.6426 21.2817 15.0077 21.4329 15.3883 21.4329Z" fill="#E5E7E8"/>
<path d="M15.3883 27.6829H27.6632C28.0438 27.6829 28.4089 27.5317 28.678 27.2626C28.9472 26.9934 29.0984 26.6283 29.0984 26.2477C29.0984 25.8671 28.9472 25.502 28.678 25.2329C28.4089 24.9637 28.0438 24.8125 27.6632 24.8125H15.3883C15.0077 24.8125 14.6426 24.9637 14.3735 25.2329C14.1043 25.502 13.9531 25.8671 13.9531 26.2477C13.9531 26.6283 14.1043 26.9934 14.3735 27.2626C14.6426 27.5317 15.0077 27.6829 15.3883 27.6829Z" fill="#E5E7E8"/>
<path d="M29.0984 32.4977C29.0984 32.1171 28.9472 31.752 28.678 31.4829C28.4089 31.2137 28.0438 31.0625 27.6632 31.0625H15.3883C15.0077 31.0625 14.6426 31.2137 14.3735 31.4829C14.1043 31.752 13.9531 32.1171 13.9531 32.4977C13.9531 32.8783 14.1043 33.2434 14.3735 33.5126C14.6426 33.7817 15.0077 33.9329 15.3883 33.9329H27.6632C28.0438 33.9329 28.4089 33.7817 28.678 33.5126C28.9472 33.2434 29.0984 32.8783 29.0984 32.4977Z" fill="#E5E7E8"/>
<path d="M5.30261 49.0812C4.65779 49.0804 4.03959 48.824 3.58363 48.368C3.12767 47.912 2.87117 47.2938 2.87041 46.649V5.30357C2.87092 4.65858 3.1273 4.04013 3.58329 3.58397C4.03928 3.1278 4.65762 2.87117 5.30261 2.87041H37.8962C38.5412 2.87117 39.1597 3.12777 39.6158 3.58391C40.072 4.04005 40.3286 4.65849 40.3293 5.30357V42.0382L43.1997 45.4425V5.30357C43.1982 3.89744 42.639 2.54934 41.6447 1.55506C40.6504 0.560775 39.3023 0.00151959 37.8962 0H5.30261C3.89657 0.00152002 2.54857 0.560806 1.55444 1.55512C0.560309 2.54943 0.00126634 3.89753 0 5.30357V46.649C0.00177228 48.0548 0.561008 49.4025 1.55506 50.3966C2.54911 51.3906 3.89682 51.9498 5.30261 51.9516H25.5706L24.6253 49.0812H5.30261Z" fill="#E5E7E8"/>
</svg>
