<svg width="140" height="38" viewBox="0 0 140 38" fill="none" xmlns="http://www.w3.org/2000/svg">
<path fill-rule="evenodd" clip-rule="evenodd" d="M109.426 5.89394C105.924 5.89394 103.19 6.83356 101.055 7.26066L100.372 12.5567C101.397 12.0442 104.813 11.1045 107.547 11.0191C110.28 10.9337 111.989 11.5316 111.391 13.9234C103.19 13.9234 97.6381 15.6318 96.4422 20.9278C94.8192 30.0677 104.813 29.8114 108.828 25.7967L108.316 28.0176H115.662L118.822 13.4963C120.189 7.34608 114.551 5.80852 109.426 5.89394ZM109.939 20.7569C109.511 22.7216 107.974 23.5758 106.095 23.6612C104.472 23.7466 103.02 22.2945 104.045 20.5861C104.899 19.134 107.12 18.7923 108.572 18.7923C109.17 18.7923 109.768 18.7923 110.366 18.7923C110.195 19.5611 110.109 20.159 109.939 20.7569Z" fill="#E5E7E8"/>
<path fill-rule="evenodd" clip-rule="evenodd" d="M125.135 0.171875L119.07 28.1041H126.502L132.652 0.171875H125.135Z" fill="#E5E7E8"/>
<path fill-rule="evenodd" clip-rule="evenodd" d="M90.8804 0.257812H77.2132L71.1484 28.1046H79.0925L81.1425 18.8793H86.7802C92.3325 18.8793 96.9451 15.4625 98.141 9.73937C99.5932 3.16207 94.8097 0.257812 90.8804 0.257812ZM90.6241 9.73937C90.1116 11.8749 87.9761 13.5833 85.926 13.5833H82.253L83.876 5.98092H87.8053C89.9407 5.8955 91.1366 7.60389 90.6241 9.73937Z" fill="#E5E7E8"/>
<path fill-rule="evenodd" clip-rule="evenodd" d="M37.9362 5.89394C34.434 5.89394 31.7006 6.83356 29.736 7.26066L29.0526 12.5567C29.9922 12.0442 33.3236 11.1045 36.057 11.0191C38.7905 10.9337 40.4134 11.5316 39.9009 13.9234C31.7861 13.9234 26.3192 15.6318 25.1233 20.9278C23.5003 30.0677 33.409 29.8114 37.2529 25.7967L36.7404 28.0176H44.0865L47.247 13.4963C48.6991 7.34608 43.0614 5.80852 37.9362 5.89394ZM38.5342 20.7569C38.1071 22.7216 36.4841 23.5758 34.6903 23.6612C33.0673 23.7466 31.7006 22.2945 32.7257 20.5861C33.4944 19.134 35.8008 18.7923 37.0821 18.7923C37.7654 18.7923 38.2779 18.7923 38.9613 18.7923C38.7905 19.5611 38.6196 20.159 38.5342 20.7569Z" fill="#E5E7E8"/>
<path fill-rule="evenodd" clip-rule="evenodd" d="M50.5715 6.32031H57.9175L59.1134 19.3041L66.2886 6.32031H73.8056L56.38 37.3276H48.1797L53.5611 28.1877L50.5715 6.32031Z" fill="#E5E7E8"/>
<path fill-rule="evenodd" clip-rule="evenodd" d="M19.7319 0.257812H6.06479L0 28.1046H8.02943L9.99409 18.8793H15.7172C21.184 18.8793 25.7967 15.4625 26.9926 9.73937C28.4447 3.16207 23.7466 0.257812 19.7319 0.257812ZM19.4757 9.73937C18.9631 11.8749 16.9131 13.5833 14.863 13.5833H11.1045L12.8129 5.98092H16.7422C18.7069 5.8955 20.0736 7.60389 19.4757 9.73937Z" fill="#E5E7E8"/>
<path d="M134.282 3.75846V0.427098H133.086V0H136.076V0.427098H134.88V3.75846H134.282Z" fill="#E5E7E8"/>
<path d="M136.5 3.75846V0H137.269L138.123 2.64801C138.208 2.90427 138.294 3.0751 138.294 3.16052C138.294 2.98968 138.379 2.81885 138.465 2.56259L139.319 0H140.002V3.75846H139.49V0.597934L138.379 3.75846H137.952L136.842 0.597934V3.75846H136.5Z" fill="#E5E7E8"/>
</svg>
