<svg width="60" height="60" viewBox="0 0 60 60" fill="none" xmlns="http://www.w3.org/2000/svg">
<path d="M55.5 17.67C56.34 17.67 57.13 18 57.73 18.6C57.78 18.66 57.83 18.71 57.88 18.77C58.14 19.1 58.59 19.23 58.99 19.09C59.39 18.95 59.66 18.57 59.66 18.15V8.13C59.66 7.58 59.21 7.13 58.66 7.13H50.79C51.04 6.52 51.17 5.85 51.17 5.17C51.17 2.32 48.86 0 46.02 0C43.18 0 40.87 2.32 40.87 5.17C40.87 5.85 41 6.52 41.25 7.13H33.37H25.5C25.75 6.52 25.88 5.85 25.88 5.17C25.88 2.32 23.57 0 20.73 0C17.89 0 15.58 2.32 15.58 5.17C15.58 5.85 15.71 6.52 15.96 7.13H8.08C7.53 7.13 7.08 7.58 7.08 8.13V16.05C6.48 15.8 5.83 15.67 5.15 15.67C2.31 15.67 0 17.99 0 20.84C0 23.69 2.31 26.01 5.15 26.01C5.83 26.01 6.48 25.88 7.09 25.63V33.55V41.47C6.48 41.23 5.83 41.1 5.15 41.1C2.31 41.1 0 43.42 0 46.27C0 49.12 2.31 51.44 5.15 51.44C5.83 51.44 6.48 51.31 7.09 51.06V58.99C7.09 59.54 7.54 59.99 8.09 59.99H18.05C18.47 59.99 18.85 59.72 18.99 59.32C19.13 58.92 19 58.47 18.67 58.21C18.61 58.17 18.56 58.12 18.51 58.06C17.28 56.82 17.28 54.8 18.51 53.56C19.11 52.96 19.9 52.63 20.74 52.63C21.58 52.63 22.37 52.96 22.96 53.56C24.19 54.79 24.19 56.81 22.96 58.05C22.9 58.11 22.85 58.16 22.79 58.2C22.46 58.47 22.33 58.91 22.47 59.31C22.61 59.71 22.99 59.98 23.41 59.98H33.37H43.33C43.75 59.98 44.13 59.71 44.27 59.31C44.41 58.91 44.28 58.46 43.95 58.2C43.89 58.16 43.84 58.11 43.79 58.05C42.56 56.81 42.56 54.79 43.79 53.55C44.39 52.95 45.18 52.62 46.02 52.62C46.86 52.62 47.65 52.95 48.24 53.55C49.47 54.78 49.47 56.8 48.24 58.04C48.19 58.09 48.13 58.14 48.08 58.19C47.75 58.46 47.62 58.9 47.76 59.3C47.9 59.7 48.28 59.97 48.7 59.97H58.66C59.21 59.97 59.66 59.52 59.66 58.97V48.98C59.66 48.56 59.39 48.18 58.99 48.04C58.59 47.9 58.14 48.03 57.88 48.36C57.83 48.42 57.78 48.47 57.73 48.53C57.13 49.13 56.34 49.46 55.5 49.46C54.66 49.46 53.87 49.13 53.28 48.54C52.05 47.3 52.04 45.28 53.28 44.04C53.87 43.44 54.65 43.15 55.5 43.11C56.34 43.11 57.13 43.44 57.73 44.04C57.78 44.09 57.83 44.15 57.88 44.2C58.14 44.53 58.59 44.67 58.99 44.52C59.39 44.38 59.66 44 59.66 43.58V33.56V23.54C59.66 23.12 59.39 22.74 58.99 22.6C58.59 22.46 58.14 22.59 57.88 22.92C57.83 22.98 57.78 23.03 57.73 23.09C57.13 23.69 56.34 24.02 55.5 24.02C54.66 24.02 53.87 23.69 53.28 23.1C52.05 21.86 52.04 19.84 53.28 18.6C53.87 18 54.65 17.68 55.5 17.67ZM5.15 24.02C3.41 24.02 2 22.6 2 20.85C2 19.1 3.41 17.68 5.15 17.68C5.99 17.68 6.79 18.01 7.38 18.62C7.67 18.91 8.1 19 8.47 18.84C8.85 18.69 9.09 18.32 9.09 17.91V9.13H17.81C18.21 9.13 18.58 8.89 18.73 8.51C18.88 8.14 18.8 7.71 18.51 7.42C17.91 6.82 17.57 6.02 17.57 5.17C17.57 3.42 18.98 2 20.72 2C22.46 2 23.87 3.42 23.87 5.17C23.87 6.02 23.54 6.82 22.93 7.42C22.64 7.71 22.56 8.14 22.71 8.51C22.86 8.88 23.23 9.13 23.63 9.13H32.35V16.14C31.68 15.83 30.95 15.66 30.19 15.66C30.19 15.66 30.19 15.66 30.18 15.66C28.8 15.66 27.51 16.2 26.55 17.18C24.54 19.19 24.54 22.47 26.55 24.5C27.52 25.47 28.81 26.01 30.18 26.01C30.18 26.01 30.18 26.01 30.19 26.01C30.95 26.01 31.68 25.85 32.35 25.54V32.56H25.38C26.26 30.64 25.92 28.3 24.35 26.73C23.38 25.75 22.09 25.21 20.71 25.21C20.71 25.21 20.71 25.21 20.7 25.21C19.32 25.21 18.03 25.75 17.05 26.73C15.49 28.3 15.15 30.65 16.03 32.56H9.06V23.78C9.06 23.37 8.81 23.01 8.44 22.85C8.06 22.7 7.63 22.78 7.35 23.07C6.78 23.68 5.99 24.02 5.15 24.02ZM24.38 52.16C23.41 51.18 22.12 50.64 20.74 50.64C20.74 50.64 20.74 50.64 20.73 50.64C19.35 50.64 18.06 51.18 17.08 52.16C15.52 53.73 15.18 56.08 16.06 57.99H9.09V49.21C9.09 48.8 8.84 48.44 8.47 48.29C8.09 48.13 7.66 48.22 7.38 48.51C6.78 49.11 5.99 49.45 5.15 49.45C3.41 49.45 2 48.03 2 46.28C2 44.53 3.41 43.11 5.15 43.11C5.99 43.11 6.79 43.44 7.38 44.05C7.67 44.34 8.1 44.43 8.47 44.27C8.85 44.12 9.09 43.75 9.09 43.35V34.57H18.05C18.47 34.57 18.85 34.3 18.99 33.9C19.13 33.5 19 33.05 18.67 32.79C18.61 32.75 18.56 32.7 18.51 32.64C17.28 31.4 17.28 29.38 18.51 28.14C19.11 27.54 19.9 27.21 20.74 27.21C21.58 27.21 22.37 27.54 22.96 28.14C24.19 29.37 24.19 31.39 22.96 32.63C22.9 32.69 22.85 32.74 22.79 32.78C22.46 33.05 22.33 33.49 22.47 33.89C22.61 34.29 22.99 34.56 23.41 34.56H32.37V41.48C31.76 41.23 31.1 41.1 30.43 41.1C27.59 41.1 25.28 43.42 25.28 46.27C25.28 49.12 27.59 51.44 30.43 51.44C31.11 51.44 31.76 51.31 32.37 51.06V57.99H25.4C26.29 56.07 25.95 53.73 24.38 52.16ZM55.5 41.1C54.12 41.1 52.83 41.64 51.86 42.62C49.85 44.63 49.85 47.91 51.86 49.94C52.83 50.91 54.12 51.45 55.49 51.45C56.21 51.45 56.99 51.29 57.66 50.98V57.99H50.69C51.57 56.07 51.23 53.73 49.66 52.16C48.69 51.18 47.4 50.64 46.02 50.64C46.02 50.64 46.02 50.64 46.01 50.64C44.63 50.64 43.34 51.18 42.36 52.16C40.8 53.73 40.46 56.08 41.34 57.99H34.37V49.21C34.37 48.8 34.12 48.44 33.75 48.29C33.37 48.13 32.94 48.22 32.66 48.51C32.06 49.11 31.27 49.45 30.43 49.45C28.69 49.45 27.28 48.03 27.28 46.28C27.28 44.53 28.69 43.11 30.43 43.11C31.27 43.11 32.07 43.44 32.66 44.05C32.94 44.34 33.38 44.43 33.75 44.27C34.13 44.12 34.37 43.75 34.37 43.35V34.57H43.33C43.75 34.57 44.13 34.3 44.27 33.9C44.41 33.5 44.28 33.05 43.95 32.79C43.89 32.75 43.84 32.7 43.79 32.64C42.56 31.4 42.56 29.38 43.79 28.14C44.39 27.54 45.18 27.21 46.02 27.21C46.82 27.21 47.65 27.54 48.24 28.14C49.47 29.37 49.47 31.39 48.24 32.63C48.19 32.68 48.13 32.73 48.08 32.78C47.75 33.05 47.62 33.49 47.76 33.89C47.9 34.29 48.28 34.56 48.7 34.56H57.66V41.57C56.99 41.26 56.26 41.1 55.5 41.1ZM51.86 24.5C52.83 25.47 54.12 26.01 55.49 26.01C55.49 26.01 55.49 26.01 55.5 26.01C56.26 26.01 56.99 25.85 57.66 25.54V32.56H50.69C51.57 30.64 51.23 28.3 49.66 26.73C48.69 25.75 47.4 25.21 46.02 25.21C46.02 25.21 46.02 25.21 46.01 25.21C44.63 25.21 43.34 25.75 42.36 26.73C40.8 28.3 40.46 30.65 41.34 32.56H34.37V23.55C34.37 23.13 34.1 22.75 33.7 22.61C33.3 22.47 32.85 22.6 32.59 22.93C32.54 22.99 32.49 23.04 32.44 23.1C31.84 23.7 31.05 24.03 30.21 24.03C29.37 24.03 28.58 23.7 27.99 23.11C26.76 21.87 26.75 19.85 27.99 18.61C28.58 18.01 29.37 17.68 30.21 17.68C31.05 17.68 31.84 18.01 32.44 18.61C32.49 18.67 32.54 18.72 32.59 18.78C32.85 19.11 33.3 19.24 33.7 19.1C34.1 18.96 34.37 18.58 34.37 18.16V9.15H43.09C43.49 9.15 43.86 8.91 44.01 8.53C44.16 8.16 44.08 7.73 43.79 7.44C43.19 6.84 42.85 6.04 42.85 5.19C42.85 3.44 44.26 2.02 46 2.02C47.74 2.02 49.15 3.44 49.15 5.19C49.15 6.04 48.82 6.84 48.21 7.44C47.92 7.73 47.84 8.16 47.99 8.53C48.14 8.9 48.51 9.15 48.91 9.15H57.63V16.16C56.96 15.85 56.23 15.68 55.47 15.68C55.47 15.68 55.47 15.68 55.46 15.68C54.08 15.68 52.79 16.22 51.83 17.2C49.85 19.2 49.85 22.48 51.86 24.5Z" fill="#E5E7E8"/>
</svg>
