<svg width="51" height="61" viewBox="0 0 51 61" fill="none" xmlns="http://www.w3.org/2000/svg">
<path d="M47.6313 8.90352C44.5469 8.28331 42.1656 5.89647 41.5469 2.80485C41.2281 1.22615 39.8406 0.0703125 38.2375 0.0703125H12.4469C10.8531 0.0703125 9.45625 1.21675 9.1375 2.79545C8.52812 5.84009 6.07188 8.29271 3.025 8.90352C1.45 9.22301 0.296875 10.6138 0.296875 12.2207V29.7743C0.296875 39.2559 5.03125 48.0045 12.9531 53.1823L21.9625 59.0648C22.9938 59.732 24.1656 60.0703 25.3375 60.0703C26.5094 60.0703 27.6813 59.732 28.6938 59.0648L37.6844 53.1917C45.6156 48.0139 50.35 39.2465 50.35 29.7555V12.2207C50.3594 10.6138 49.2063 9.22301 47.6313 8.90352ZM47.9594 29.7649C47.9594 38.4384 43.6281 46.4446 36.3813 51.1901L27.3813 57.0727C26.125 57.8996 24.55 57.8996 23.2656 57.0727L14.2563 51.1901C7.01875 46.4446 2.69687 38.4478 2.69687 29.7743V12.2207C2.69687 11.7508 3.025 11.3561 3.49375 11.2622C7.54375 10.454 10.675 7.31542 11.4906 3.2747C11.5844 2.80485 11.9781 2.47595 12.4469 2.47595H38.2375C38.7063 2.47595 39.1 2.80485 39.1938 3.2747C40 7.31542 43.1313 10.454 47.1625 11.2622C47.6313 11.3561 47.9594 11.7508 47.9594 12.2207V29.7649Z" fill="#E5E7E8"/>
<path d="M28.2328 21.8917L24.1359 25.7257L22.4391 24.0248C21.9703 23.555 21.2109 23.555 20.7422 24.0248C20.2734 24.4947 20.2734 25.2558 20.7422 25.7257L23.2547 28.2441C23.4891 28.479 23.7984 28.5918 24.0984 28.5918C24.3891 28.5918 24.6891 28.4884 24.9141 28.2723L29.8547 23.6489C30.3422 23.1979 30.3609 22.4367 29.9109 21.9481C29.4797 21.4688 28.7203 21.4406 28.2328 21.8917Z" fill="#E5E7E8"/>
<path d="M25.3203 12.8203C18.4484 12.8203 12.8516 18.4303 12.8516 25.3184C12.8516 32.2158 18.4484 37.8258 25.3203 37.8258C32.2016 37.8258 37.7984 32.2158 37.7984 25.3184C37.8078 18.4303 32.2016 12.8203 25.3203 12.8203ZM25.3203 35.4296C19.7609 35.4296 15.2422 30.8908 15.2422 25.3184C15.2422 19.7459 19.7609 15.2166 25.3203 15.2166C30.8797 15.2166 35.4078 19.7459 35.4078 25.3184C35.4078 30.9002 30.8891 35.4296 25.3203 35.4296Z" fill="#E5E7E8"/>
</svg>
