<svg width="52" height="60" viewBox="0 0 52 60" fill="none" xmlns="http://www.w3.org/2000/svg">
<path d="M25.7022 25.0675C25.8022 25.0975 25.9022 25.1175 26.0022 25.1175C26.1022 25.1175 26.2022 25.0975 26.3022 25.0675C31.4022 23.4575 34.9422 20.6975 36.8322 16.8475C39.8822 10.6475 37.4922 3.9575 37.3822 3.6775C37.2222 3.2475 36.8022 2.9875 36.3522 3.0275C31.7722 3.4475 26.5822 0.1975 26.5322 0.1575C26.2022 -0.0525 25.7822 -0.0525 25.4622 0.1575C25.4122 0.1875 20.2322 3.4575 15.6422 3.0275C15.1922 2.9875 14.7722 3.2575 14.6122 3.6775C14.5122 3.9575 12.1222 10.6475 15.1622 16.8475C17.0622 20.6875 20.6022 23.4575 25.7022 25.0675ZM16.2822 5.0575C20.4322 5.1275 24.5422 2.9975 26.0022 2.1675C27.4522 2.9975 31.5822 5.1175 35.7222 5.0575C36.2022 6.8175 37.1822 11.6275 35.0322 15.9775C33.4222 19.2275 30.3922 21.6075 26.0022 23.0575C21.6122 21.6075 18.5822 19.2275 16.9722 15.9775C14.8322 11.6275 15.8022 6.8175 16.2822 5.0575Z" fill="#E5E7E8"/>
<path d="M24.1975 15.9884C24.3975 16.1784 24.6475 16.2784 24.9075 16.2784C25.1675 16.2784 25.4175 16.1784 25.6175 15.9884L31.0875 10.5384C31.4775 10.1484 31.4775 9.51844 31.0875 9.12844C30.6975 8.73844 30.0675 8.73844 29.6775 9.12844L24.9075 13.8784L22.3275 11.3084C21.9375 10.9184 21.3075 10.9184 20.9175 11.3084C20.5275 11.6984 20.5275 12.3284 20.9175 12.7184L24.1975 15.9884Z" fill="#E5E7E8"/>
<path d="M51.0103 38.81L41.6503 26.25C40.9303 25.28 39.5403 25.07 38.5603 25.78L35.9703 27.64C35.4903 27.99 35.1703 28.5 35.0803 29.09C35.0303 29.43 35.0603 29.76 35.1603 30.08C34.1703 30.37 32.5803 30.71 30.7403 30.61C29.1103 30.52 27.5103 30.65 26.0003 31C24.4803 30.65 22.8803 30.51 21.2603 30.61C19.4303 30.71 17.8403 30.37 16.8403 30.08C16.9403 29.76 16.9803 29.43 16.9203 29.09C16.8303 28.51 16.5103 27.99 16.0303 27.64L13.4403 25.78C12.4603 25.07 11.0703 25.28 10.3403 26.25L0.99027 38.81C0.64027 39.28 0.49027 39.87 0.58027 40.45C0.67027 41.04 0.99027 41.55 1.47027 41.9L4.06027 43.76C4.45027 44.04 4.91027 44.18 5.36027 44.18C6.04027 44.18 6.72027 43.87 7.15027 43.29L7.25027 43.15C8.04027 44.6 9.11027 46.13 10.4503 47.74C10.1403 48.15 9.96027 48.58 9.92027 49.02C9.83027 50.24 10.3103 51.48 11.2203 52.33C11.9403 53 12.8603 53.37 13.8103 53.37C13.8903 53.37 13.9803 53.36 14.0603 53.35C14.2403 54.18 14.6503 54.97 15.2903 55.56C16.0303 56.26 16.9803 56.63 17.9603 56.63C17.9703 56.63 17.9803 56.63 18.0003 56.63C18.2003 57.39 18.6003 58.1 19.1903 58.64C19.9103 59.3 20.8003 59.65 21.7403 59.65C21.9103 59.65 22.0803 59.64 22.2603 59.61C22.9203 59.52 23.6403 59.16 24.3803 58.59C26.8803 59.53 28.8703 60 30.4203 60C31.3103 60 32.0603 59.85 32.6803 59.54C33.9503 58.92 34.4503 57.8 34.7403 56.86C35.1203 56.9 35.4803 56.93 35.8203 56.93C36.6903 56.93 37.4303 56.78 38.0403 56.49C39.3903 55.85 39.9003 54.64 40.1803 53.67C40.2903 53.28 40.3203 52.88 40.2903 52.48C40.3503 52.48 40.4103 52.49 40.4703 52.49C41.3403 52.49 42.0803 52.34 42.6903 52.05C44.0403 51.4 44.5403 50.2 44.8303 49.23C45.3603 47.41 44.1603 45.82 43.4303 45.07C43.6003 44.54 43.9703 43.68 44.6303 42.99L44.8503 43.29C45.2803 43.87 45.9603 44.18 46.6403 44.18C47.0903 44.18 47.5503 44.04 47.9403 43.76L50.5303 41.9C51.0103 41.55 51.3303 41.04 51.4203 40.45C51.5103 39.87 51.3703 39.28 51.0103 38.81ZM5.22027 42.14L2.63027 40.28C2.57027 40.24 2.55027 40.19 2.55027 40.15C2.54027 40.12 2.55027 40.06 2.59027 40.01L11.9503 27.45C11.9903 27.39 12.0603 27.36 12.1303 27.36C12.1803 27.36 12.2303 27.37 12.2703 27.4L14.8603 29.26C14.9203 29.3 14.9403 29.35 14.9403 29.39C14.9503 29.42 14.9403 29.48 14.9003 29.53L5.54027 42.08C5.47027 42.19 5.32027 42.21 5.22027 42.14ZM12.5903 50.87C12.1203 50.43 11.8603 49.78 11.9103 49.17C11.9203 49 12.4003 48.33 14.3303 47.48C14.9803 47.19 15.7503 47.38 16.2103 47.93C16.5203 48.32 16.6103 48.83 16.4803 49.3C15.3403 49.93 14.5903 50.59 14.2203 51.29C14.1603 51.31 14.1003 51.34 14.0503 51.35C13.3303 51.45 12.8303 51.09 12.5903 50.87ZM15.9503 52.31C15.9603 52.12 16.4503 51.43 18.4803 50.53C18.7003 50.43 18.9303 50.39 19.1603 50.39C19.6603 50.39 20.1503 50.61 20.4803 51.02C21.0003 51.66 20.9503 52.59 20.3703 53.18C19.5003 54.06 18.8903 54.41 18.5103 54.55C18.5003 54.55 18.4903 54.55 18.4803 54.56C18.3703 54.6 18.2803 54.62 18.2103 54.63C17.4503 54.74 16.9103 54.35 16.6603 54.12C16.1803 53.64 15.9003 52.96 15.9503 52.31ZM21.9803 57.63C21.4603 57.7 20.9503 57.53 20.5403 57.16C20.2203 56.87 20.0003 56.48 19.9003 56.07C20.5003 55.73 21.1303 55.24 21.7903 54.58C22.0503 54.32 22.2503 54.02 22.4103 53.72C23.0203 53.52 23.7103 53.71 24.1403 54.22C24.6303 54.82 24.5903 55.69 24.0303 56.25C23.2303 57.06 22.4803 57.56 21.9803 57.63ZM42.9103 48.67C42.6503 49.56 42.3503 50 41.8303 50.25C40.9103 50.69 38.7303 50.76 33.5503 48.59C33.0403 48.38 32.4503 48.62 32.2403 49.13C32.0303 49.64 32.2703 50.23 32.7803 50.44C34.9103 51.33 36.7103 51.92 38.2203 52.23C38.3303 52.55 38.3503 52.84 38.2703 53.11C38.0003 54 37.7003 54.45 37.1803 54.69C36.2603 55.13 34.0703 55.2 28.8903 53.03C28.3803 52.82 27.7903 53.06 27.5803 53.57C27.3703 54.08 27.6103 54.66 28.1203 54.88C29.8803 55.62 31.4103 56.14 32.7503 56.48C32.5103 57.15 32.2303 57.52 31.8003 57.74C31.0603 58.1 29.4403 58.23 25.9403 57.02C26.7303 55.77 26.6603 54.13 25.6903 52.94C24.9703 52.07 23.9003 51.61 22.8203 51.63C22.7503 50.96 22.4903 50.31 22.0403 49.75C21.1803 48.69 19.8203 48.22 18.5303 48.45C18.4503 47.81 18.1903 47.18 17.7703 46.66C16.7403 45.41 15.0003 45 13.5403 45.65C12.9503 45.91 12.4403 46.17 11.9903 46.44C10.4903 44.63 9.33027 42.9 8.60027 41.36L15.7103 31.83C16.7803 32.2 18.8703 32.76 21.3803 32.61C21.5603 32.6 21.7403 32.6 21.9103 32.6C21.9103 32.6 21.9103 32.6 21.9003 32.6C20.0703 33.65 18.1903 34.38 16.4203 35.02C15.8403 35.23 15.3703 35.68 15.1303 36.24C14.9003 36.79 14.9103 37.42 15.1603 37.96C16.3603 40.56 18.7403 41.41 21.5403 40.24C27.5903 37.7 30.7303 40.22 34.0503 42.88C36.2403 44.63 38.4903 46.44 41.4803 46.44C41.6303 46.44 41.7903 46.42 41.9503 46.41C42.3703 46.84 43.1703 47.79 42.9103 48.67ZM41.5303 44.44C41.5103 44.44 41.4903 44.44 41.4803 44.44C39.1803 44.44 37.3603 42.98 35.2903 41.32C32.0003 38.68 27.9003 35.4 20.7603 38.4C18.9303 39.17 17.7303 38.76 16.9803 37.13C16.9703 37.12 16.9603 37.08 16.9803 37.02C16.9903 36.99 17.0303 36.93 17.1103 36.9C18.9603 36.23 20.9403 35.46 22.9003 34.33C25.1503 33.04 27.8303 32.45 30.6403 32.6C33.1503 32.74 35.2403 32.18 36.3103 31.82L43.4303 41.37C42.3603 42.36 41.7903 43.63 41.5303 44.44ZM49.3703 40.27L46.7803 42.13C46.6803 42.2 46.5303 42.18 46.4603 42.09L37.1003 29.53C37.0603 29.48 37.0603 29.42 37.0603 29.39C37.0703 29.35 37.0803 29.3 37.1403 29.26L39.7303 27.4C39.7703 27.37 39.8203 27.36 39.8703 27.36C39.9403 27.36 40.0103 27.39 40.0503 27.45L49.4103 40.01C49.4503 40.06 49.4503 40.11 49.4503 40.15C49.4403 40.18 49.4203 40.23 49.3703 40.27Z" fill="#E5E7E8"/>
</svg>
