<svg width="510" height="442" viewBox="0 0 510 442" fill="none" xmlns="http://www.w3.org/2000/svg">
<g opacity="0.9">
<path d="M246.612 383.092C382.811 393.028 496.891 349.829 501.416 286.604C505.942 223.379 399.199 164.069 263 154.133C126.802 144.196 12.722 187.395 8.19652 250.62C3.67104 313.846 110.413 373.155 246.612 383.092Z" stroke="#E8530E" stroke-width="0.8" stroke-miterlimit="10"/>
<path d="M248.135 378.44C381.361 382.347 490.809 335.25 492.592 273.245C494.376 211.241 387.821 157.81 254.595 153.903C121.368 149.995 11.921 197.092 10.137 259.097C8.35303 321.101 114.908 374.533 248.135 378.44Z" stroke="#E8530E" stroke-width="0.8" stroke-miterlimit="10"/>
<path d="M249.642 373.537C379.828 371.412 484.578 320.67 483.61 260.203C482.641 199.735 376.32 152.44 246.135 154.565C115.95 156.691 11.1993 207.433 12.1678 267.9C13.1364 328.367 119.457 375.663 249.642 373.537Z" stroke="#E8530E" stroke-width="0.8" stroke-miterlimit="10"/>
<path d="M250.762 368.753C377.816 360.602 477.794 306.013 474.069 246.825C470.344 187.637 364.326 146.263 237.271 154.413C110.217 162.564 10.2386 217.153 13.9639 276.342C17.6891 335.53 123.707 376.904 250.762 368.753Z" stroke="#E8530E" stroke-width="0.8" stroke-miterlimit="10"/>
<path d="M252.33 364.113C376.349 349.938 471.634 291.612 465.156 233.838C458.677 176.064 352.888 140.721 228.869 154.896C104.85 169.071 9.56446 227.398 16.0431 285.171C22.5217 342.945 128.311 378.289 252.33 364.113Z" stroke="#E8530E" stroke-width="0.8" stroke-miterlimit="10"/>
<path d="M456.031 220.371C465.098 276.704 374.427 338.67 253.416 358.738C132.405 378.807 26.7389 349.584 17.6718 293.252C8.60467 236.919 99.2757 174.953 220.287 154.884C341.297 134.816 446.964 164.038 456.031 220.371Z" stroke="#E8530E" stroke-width="0.8" stroke-miterlimit="10"/>
<path d="M446.964 207.35C458.821 262.275 373.032 328.114 254.811 354.168C136.59 380.574 31.2722 357.336 19.4152 302.412C7.55823 247.487 93.3469 181.648 211.568 155.594C329.789 129.188 435.107 152.426 446.964 207.35Z" stroke="#E8530E" stroke-width="0.8" stroke-miterlimit="10"/>
<path d="M437.897 193.976C452.544 247.492 371.289 316.852 256.207 349.243C141.124 381.635 36.1552 364.383 21.1596 310.866C6.51273 257.35 87.7679 187.991 202.85 155.599C318.281 123.56 423.25 140.46 437.897 193.976Z" stroke="#E8530E" stroke-width="0.8" stroke-miterlimit="10"/>
<path d="M428.83 180.933C446.267 233.041 369.545 306.273 257.602 344.65C145.658 383.027 40.6887 371.76 23.252 319.652C5.81524 267.545 82.5368 194.312 194.481 155.935C306.424 117.558 411.393 128.825 428.83 180.933Z" stroke="#E8530E" stroke-width="0.8" stroke-miterlimit="10"/>
<path d="M420.106 167.563C440.333 218.262 368.494 295.368 259.34 339.73C150.186 384.092 45.5655 378.811 25.3389 328.111C5.11226 277.412 76.9516 200.306 186.106 155.944C294.911 111.934 399.88 117.215 420.106 167.563Z" stroke="#E8530E" stroke-width="0.8" stroke-miterlimit="10"/>
<path d="M411.05 154.536C434.066 203.828 366.76 284.454 260.745 334.801C154.73 385.149 50.1094 386.205 27.4416 336.914C4.42516 287.623 71.731 206.996 177.746 156.649C283.413 106.301 388.033 105.245 411.05 154.536Z" stroke="#E8530E" stroke-width="0.8" stroke-miterlimit="10"/>
<path d="M401.978 141.162C427.785 189.045 365.012 273.544 262.136 329.877C159.259 386.21 54.9875 393.251 29.1812 345.369C3.37483 297.486 66.1471 212.986 169.024 156.654C271.9 100.321 376.172 93.6313 401.978 141.162Z" stroke="#E8530E" stroke-width="0.8" stroke-miterlimit="10"/>
<path d="M392.915 128.116C421.511 174.59 363.272 262.962 263.534 325.281C163.447 387.599 59.5243 400.626 30.928 354.151C2.33182 307.677 60.5705 219.304 160.309 156.986C260.395 94.6681 364.318 81.6411 392.915 128.116Z" stroke="#E8530E" stroke-width="0.8" stroke-miterlimit="10"/>
<path d="M383.843 115.094C414.88 160.16 361.872 252.053 264.924 320.709C167.976 389.012 64.0531 408.025 33.0157 362.958C1.97833 317.892 54.9859 225.999 151.934 157.344C248.534 88.6881 352.456 70.0278 383.843 115.094Z" stroke="#E8530E" stroke-width="0.8" stroke-miterlimit="10"/>
<path d="M374.781 101.727C408.609 145.385 360.134 241.151 266.325 315.792C172.515 390.433 68.9412 415.43 34.7652 371.772C0.937989 328.114 49.412 232.349 143.222 157.708C237.031 83.0666 340.605 58.069 374.781 101.727Z" stroke="#E8530E" stroke-width="0.8" stroke-miterlimit="10"/>
<path d="M365.714 88.6956C402.331 130.945 358.39 230.584 267.719 310.858C176.7 391.484 73.4741 422.467 36.857 380.218C0.239883 337.968 44.1805 238.33 134.851 158.055C225.522 77.429 329.097 46.446 365.714 88.6956Z" stroke="#E8530E" stroke-width="0.8" stroke-miterlimit="10"/>
<path d="M356.646 75.3224C396.053 116.164 356.994 219.323 269.113 305.935C181.232 392.547 78.0066 429.515 38.5996 388.674C-0.807376 347.832 38.2509 244.673 126.132 158.061C214.013 71.4495 317.239 34.4811 356.646 75.3224Z" stroke="#E8530E" stroke-width="0.8" stroke-miterlimit="10"/>
<path d="M347.572 62.2959C389.769 101.729 355.244 208.761 270.502 301.358C185.759 393.955 82.8824 436.909 40.3368 397.476C-1.86006 358.043 32.6647 251.011 117.407 158.414C202.498 65.8167 305.375 22.8629 347.572 62.2959Z" stroke="#E8530E" stroke-width="0.8" stroke-miterlimit="10"/>
<path d="M338.507 48.9131C383.494 86.9377 353.503 197.843 271.899 296.425C189.946 395.008 87.4183 444.299 42.4316 406.274C-2.55516 368.25 27.436 257.345 109.04 158.762C190.644 60.1797 293.52 10.8884 338.507 48.9131Z" stroke="#E8530E" stroke-width="0.8" stroke-miterlimit="10"/>
<path d="M329.437 35.8891C377.214 72.5054 352.105 186.931 273.291 291.499C194.477 396.067 91.949 451.344 44.1724 414.727C-3.60426 378.111 21.5046 263.685 100.319 159.117C179.133 54.1973 281.661 -0.727271 329.437 35.8891Z" stroke="#E8530E" stroke-width="0.8" stroke-miterlimit="10"/>
<path d="M320.376 22.4919C370.942 57.6999 350.367 175.999 274.692 286.552C199.016 397.105 96.4882 458.367 46.2705 423.159C-4.29605 387.951 16.2793 269.652 91.9547 159.099C167.63 48.5459 269.809 -12.7161 320.376 22.4919Z" stroke="#E8530E" stroke-width="0.8" stroke-miterlimit="10"/>
<path d="M311.306 9.47625C364.662 43.2759 348.62 165.448 276.084 281.986C203.198 398.525 101.368 465.772 48.0112 431.972C-5.34519 398.173 10.6966 276.001 83.2334 159.462C156.119 42.5717 258.298 -24.3234 311.306 9.47625Z" stroke="#E8530E" stroke-width="0.8" stroke-miterlimit="10"/>
</g>
</svg>
