<svg width="61" height="61" viewBox="0 0 61 61" fill="none" xmlns="http://www.w3.org/2000/svg">
<path fill-rule="evenodd" clip-rule="evenodd" d="M0.851568 26.634C0.447699 26.7592 0.159669 27.1161 0.1221 27.5367C-0.0406999 29.3421 -0.0406999 31.1579 0.1221 32.9633C0.159669 33.3839 0.447699 33.7408 0.851568 33.866C2.12683 34.2626 3.4261 34.5047 4.75041 34.5924C4.91113 35.542 5.1261 36.4823 5.39222 37.408C4.23801 38.0613 3.17251 38.8439 2.19571 39.754C1.88576 40.042 1.7814 40.4886 1.92959 40.8842C2.56618 42.581 3.35409 44.2163 4.28393 45.7723C4.501 46.1355 4.9153 46.3317 5.33274 46.2691C6.65392 46.0729 7.92918 45.7275 9.16062 45.2318C9.71789 46.0176 10.32 46.7721 10.9619 47.4911C10.2042 48.5806 9.58327 49.7474 9.09904 50.9913C8.94459 51.3848 9.04373 51.8324 9.34951 52.1247C10.6592 53.377 12.0795 54.5093 13.5917 55.508C13.9444 55.7407 14.4026 55.7376 14.7522 55.5007C15.8573 54.7503 16.8571 53.8852 17.7514 52.9053C18.5947 53.3707 19.4629 53.7892 20.3541 54.1586C20.1444 55.4683 20.0912 56.7895 20.1934 58.1201C20.2268 58.5417 20.5096 58.9017 20.9125 59.0332C22.6354 59.5926 24.4054 59.9964 26.2014 60.2406C26.6209 60.297 27.0321 60.0956 27.2439 59.7293C27.9149 58.5751 28.4399 57.3624 28.8197 56.0903C29.7819 56.1446 30.7462 56.1446 31.7084 56.0903C32.0882 57.3614 32.6132 58.5751 33.2842 59.7293C33.4961 60.0956 33.9072 60.297 34.3267 60.2406C36.1228 59.9964 37.8927 59.5926 39.6157 59.0332C40.0185 58.9017 40.3013 58.5417 40.3347 58.1201C40.437 56.7895 40.3837 55.4683 40.175 54.1586C41.0642 53.7892 41.9335 53.3707 42.7777 52.9053C43.671 53.8852 44.6708 54.7503 45.7759 55.5007C46.1256 55.7376 46.5837 55.7407 46.9364 55.508C48.4486 54.5093 49.8689 53.377 51.1786 52.1247C51.4844 51.8324 51.5835 51.3848 51.4291 50.9913C50.9448 49.7474 50.3239 48.5806 49.5663 47.4901C50.2081 46.7721 50.8102 46.0176 51.3675 45.2318C52.5989 45.7275 53.8742 46.0729 55.1954 46.2691C55.6128 46.3317 56.0271 46.1355 56.2442 45.7723C57.174 44.2163 57.9619 42.581 58.5985 40.8842C58.7467 40.4886 58.6423 40.042 58.3324 39.754C57.3556 38.8439 56.2901 38.0613 55.1348 37.408C55.402 36.4823 55.617 35.542 55.7787 34.5913C57.102 34.5047 58.4013 34.2626 59.6765 33.866C60.0804 33.7408 60.3684 33.3839 60.406 32.9633C60.5688 31.1579 60.5688 29.3421 60.406 27.5367C60.3684 27.1161 60.0804 26.7592 59.6765 26.634C58.4013 26.2374 57.102 25.9953 55.7777 25.9076C55.617 24.958 55.402 24.0177 55.1359 23.092C56.2901 22.4387 57.3556 21.6561 58.3324 20.746C58.6423 20.458 58.7467 20.0114 58.5985 19.6158C57.9619 17.919 57.174 16.2837 56.2442 14.7277C56.0271 14.3645 55.6128 14.1683 55.1954 14.2309C53.8742 14.4271 52.5989 14.7725 51.3675 15.2682C50.8102 14.4824 50.2081 13.7279 49.5663 13.0089C50.3239 11.9194 50.9448 10.7526 51.4291 9.50869C51.5835 9.11525 51.4844 8.66755 51.1786 8.37535C49.8689 7.12304 48.4486 5.99075 46.9364 4.99204C46.5837 4.75932 46.1256 4.76245 45.7759 4.99934C44.6708 5.74968 43.671 6.61482 42.7767 7.59475C41.9335 7.12931 41.0652 6.71083 40.174 6.3414C40.3837 5.03169 40.437 3.71051 40.3347 2.37994C40.3013 1.95833 40.0185 1.59829 39.6157 1.4668C37.8927 0.907434 36.1228 0.503565 34.3267 0.259365C33.9072 0.203011 33.4961 0.404424 33.2842 0.770723C32.6132 1.92493 32.0882 3.13758 31.7084 4.40972C30.7462 4.35545 29.7819 4.35545 28.8197 4.40972C28.4399 3.13862 27.9149 1.92493 27.2439 0.770723C27.0321 0.404424 26.6209 0.203011 26.2014 0.259365C24.4054 0.503565 22.6354 0.907434 20.9125 1.4668C20.5096 1.59829 20.2268 1.95833 20.1934 2.37994C20.0912 3.71051 20.1444 5.03169 20.3531 6.3414C19.464 6.71083 18.5947 7.12931 17.7504 7.59475C16.8571 6.61482 15.8573 5.74968 14.7522 4.99934C14.4026 4.76245 13.9444 4.75932 13.5917 4.99204C12.0795 5.99075 10.6592 7.12304 9.34951 8.37535C9.04373 8.66755 8.94459 9.11525 9.09904 9.50869C9.58327 10.7526 10.2042 11.9194 10.9619 13.0099C10.32 13.7279 9.71789 14.4824 9.16062 15.2682C7.92918 14.7725 6.65392 14.4271 5.33274 14.2309C4.9153 14.1683 4.501 14.3645 4.28393 14.7277C3.35409 16.2837 2.56618 17.919 1.92959 19.6158C1.7814 20.0114 1.88576 20.458 2.19571 20.746C3.17251 21.6561 4.23801 22.4387 5.39326 23.092C5.12611 24.0177 4.91113 24.958 4.74937 25.9087C3.4261 25.9953 2.12683 26.2374 0.851568 26.634ZM2.14562 28.4342C3.2967 28.1346 4.47073 27.9771 5.66668 27.9593C6.18326 27.952 6.61635 27.568 6.68523 27.0556C6.87725 25.6446 7.1945 24.2525 7.63489 22.8969C7.79456 22.4064 7.57019 21.8721 7.10892 21.6414C6.0382 21.1071 5.04992 20.4549 4.14304 19.6858C4.59701 18.5618 5.12297 17.4702 5.71782 16.4141C6.88559 16.6437 8.01163 17.01 9.09591 17.5141C9.56449 17.7311 10.1218 17.5735 10.4067 17.1425C11.1914 15.9528 12.0816 14.8372 13.0657 13.8072C13.4226 13.4336 13.4529 12.8555 13.1367 12.4464C12.4041 11.5009 11.7967 10.4844 11.3135 9.39807C12.21 8.58302 13.1576 7.82747 14.1521 7.13452C15.1039 7.8473 15.9596 8.66651 16.7183 9.59113C17.046 9.98978 17.6168 10.0889 18.0603 9.82385C19.2834 9.09334 20.5691 8.47449 21.9039 7.97357C22.3871 7.79199 22.6657 7.28376 22.5572 6.77866C22.3077 5.6088 22.2013 4.42954 22.2368 3.2409C23.3983 2.89547 24.5807 2.62518 25.7766 2.43316C26.3256 3.48823 26.7409 4.59756 27.0237 5.75907C27.1458 6.26104 27.6165 6.59812 28.131 6.5522C29.5502 6.42384 30.9779 6.42384 32.3971 6.5522C32.9116 6.59812 33.3823 6.26104 33.5044 5.75907C33.7872 4.59756 34.2026 3.48823 34.7515 2.43316C35.9474 2.62518 37.1298 2.89547 38.2903 3.2409C38.3268 4.42954 38.2204 5.6088 37.971 6.77866C37.8624 7.28376 38.1411 7.79199 38.6242 7.97357C39.959 8.47449 41.2447 9.09334 42.4678 9.82385C42.9113 10.0889 43.4821 9.98978 43.8098 9.59113C44.5685 8.66651 45.4243 7.8473 46.376 7.13452C47.3706 7.82747 48.3181 8.58302 49.2146 9.39807C48.7314 10.4844 48.124 11.5009 47.3914 12.4464C47.0752 12.8555 47.1055 13.4336 47.4624 13.8072C48.4465 14.8372 49.3367 15.9528 50.1215 17.1425C50.4064 17.5735 50.9636 17.7311 51.4322 17.5141C52.5165 17.01 53.6425 16.6437 54.8103 16.4141C55.4051 17.4702 55.9311 18.5618 56.3851 19.6858C55.4782 20.4549 54.4899 21.1071 53.4192 21.6414C52.9579 21.8721 52.7336 22.4064 52.8932 22.8969C53.3336 24.2525 53.6509 25.6446 53.8429 27.0556C53.9118 27.568 54.3449 27.952 54.8614 27.9593C56.0574 27.9771 57.2314 28.1346 58.3825 28.4342C58.4608 29.6437 58.4608 30.8563 58.3825 32.0648C57.2314 32.3654 56.0574 32.5229 54.8614 32.5407C54.3449 32.548 53.9118 32.932 53.8429 33.4444C53.6509 34.8554 53.3336 36.2475 52.8932 37.6031C52.7336 38.0936 52.9579 38.6279 53.4192 38.8586C54.4899 39.3929 55.4782 40.0451 56.3851 40.8142C55.9311 41.9382 55.4051 43.0298 54.8103 44.0859C53.6425 43.8563 52.5165 43.49 51.4322 42.986C50.9636 42.7689 50.4064 42.9265 50.1215 43.3575C49.3367 44.5472 48.4465 45.6628 47.4624 46.6928C47.1055 47.0664 47.0752 47.6445 47.3914 48.0536C48.124 48.9991 48.7314 50.0156 49.2146 51.1019C48.3181 51.917 47.3706 52.6725 46.376 53.3655C45.4243 52.6527 44.5685 51.8335 43.8098 50.9089C43.4821 50.5102 42.9113 50.4111 42.4678 50.6762C41.2447 51.4067 39.959 52.0255 38.6242 52.5264C38.1411 52.708 37.8624 53.2162 37.971 53.7213C38.2204 54.8912 38.3268 56.0705 38.2913 57.2591C37.1298 57.6045 35.9474 57.8748 34.7515 58.0668C34.2026 57.0118 33.7872 55.9024 33.5044 54.7409C33.3823 54.239 32.9116 53.9019 32.3971 53.9478C30.9779 54.0762 29.5502 54.0762 28.131 53.9478C27.6165 53.9019 27.1458 54.239 27.0237 54.7409C26.7409 55.9024 26.3256 57.0118 25.7766 58.0668C24.5807 57.8748 23.3983 57.6045 22.2378 57.2591C22.2013 56.0705 22.3077 54.8912 22.5572 53.7213C22.6657 53.2162 22.3871 52.708 21.9039 52.5264C20.5691 52.0255 19.2834 51.4067 18.0603 50.6762C17.6168 50.4111 17.046 50.5102 16.7183 50.9089C15.9596 51.8335 15.1039 52.6527 14.1521 53.3655C13.1576 52.6725 12.21 51.917 11.3135 51.1019C11.7967 50.0156 12.4041 48.9991 13.1367 48.0536C13.4529 47.6445 13.4226 47.0664 13.0657 46.6928C12.0816 45.6628 11.1914 44.5472 10.4067 43.3575C10.1218 42.9265 9.56449 42.7689 9.09591 42.986C8.01163 43.49 6.88559 43.8563 5.71782 44.0859C5.12297 43.0298 4.59701 41.9382 4.14304 40.8142C5.04992 40.0451 6.0382 39.3929 7.10892 38.8586C7.57019 38.6279 7.79456 38.0936 7.63489 37.6031C7.1945 36.2475 6.87725 34.8554 6.68523 33.4444C6.61635 32.932 6.18326 32.548 5.66668 32.5407C4.47073 32.5229 3.2967 32.3654 2.14562 32.0658C2.06735 30.8563 2.06735 29.6426 2.14562 28.4342ZM31.5477 21.2271C30.1973 21.6665 29.2205 22.9365 29.2205 24.433C29.2205 26.2927 30.7305 27.8028 32.5913 27.8028C34.4509 27.8028 35.962 26.2927 35.962 24.433C35.962 22.9365 34.9852 21.6665 33.6348 21.2271V12.6843C41.8959 14.2622 48.147 21.5319 48.147 30.25C48.147 38.9681 41.8959 46.2378 33.6348 47.8157V43.4378L40.463 35.5535C40.7897 35.6589 41.1382 35.7163 41.5004 35.7163C43.36 35.7163 44.8701 34.2062 44.8701 32.3455C44.8701 30.4848 43.36 28.9747 41.5004 28.9747C39.6397 28.9747 38.1296 30.4848 38.1296 32.3455C38.1296 33.0833 38.3665 33.7659 38.7693 34.321L31.8023 42.365C31.6374 42.555 31.5477 42.7971 31.5477 43.0486V49.0346C31.5477 49.3331 31.676 49.618 31.8994 49.8162C32.1237 50.0145 32.4212 50.1064 32.7186 50.0709C42.5836 48.8582 50.2342 40.4406 50.2342 30.25C50.2342 20.0594 42.5836 11.6418 32.7186 10.4291C32.4212 10.3937 32.1237 10.4855 31.8994 10.6838C31.676 10.882 31.5477 11.1669 31.5477 11.4654V21.2271ZM28.9804 39.2729C30.3308 38.8335 31.3076 37.5635 31.3076 36.067C31.3076 34.2073 29.7976 32.6972 27.9369 32.6972C26.0772 32.6972 24.5661 34.2073 24.5661 36.067C24.5661 37.5635 25.5429 38.8335 26.8933 39.2729V47.8157C18.6322 46.2378 12.3811 38.9681 12.3811 30.25C12.3811 21.5319 18.6322 14.2622 26.8933 12.6843V17.0622L20.0651 24.9465C19.7384 24.8411 19.3899 24.7837 19.0277 24.7837C17.1681 24.7837 15.658 26.2938 15.658 28.1545C15.658 30.0152 17.1681 31.5253 19.0277 31.5253C20.8885 31.5253 22.3985 30.0152 22.3985 28.1545C22.3985 27.4167 22.1616 26.7342 21.7588 26.179L28.7258 18.135C28.8907 17.9451 28.9804 17.7029 28.9804 17.4514V11.4654C28.9804 11.1669 28.8521 10.882 28.6288 10.6838C28.4044 10.4855 28.107 10.3937 27.8095 10.4291C17.9445 11.6418 10.294 20.0594 10.294 30.25C10.294 40.4406 17.9445 48.8582 27.8095 50.0709C28.107 50.1064 28.4044 50.0145 28.6288 49.8162C28.8521 49.618 28.9804 49.3331 28.9804 49.0346V39.2729ZM27.9369 37.3506C27.2283 37.3506 26.6532 36.7756 26.6532 36.067C26.6532 35.3594 27.2283 34.7844 27.9369 34.7844C28.6455 34.7844 29.2205 35.3594 29.2205 36.067C29.2205 36.7756 28.6455 37.3506 27.9369 37.3506ZM41.5004 31.0619C42.2079 31.0619 42.7829 31.6369 42.7829 32.3455C42.7829 33.0541 42.2079 33.6291 41.5004 33.6291C40.7918 33.6291 40.2168 33.0541 40.2168 32.3455C40.2168 31.6369 40.7918 31.0619 41.5004 31.0619ZM19.0277 29.4381C18.3202 29.4381 17.7452 28.8631 17.7452 28.1545C17.7452 27.4459 18.3202 26.8709 19.0277 26.8709C19.7363 26.8709 20.3114 27.4459 20.3114 28.1545C20.3114 28.8631 19.7363 29.4381 19.0277 29.4381ZM32.5913 23.1494C33.2999 23.1494 33.8749 23.7244 33.8749 24.433C33.8749 25.1406 33.2999 25.7156 32.5913 25.7156C31.8827 25.7156 31.3076 25.1406 31.3076 24.433C31.3076 23.7244 31.8827 23.1494 32.5913 23.1494Z" fill="#E5E7E8"/>
</svg>
