<svg width="63" height="47" viewBox="0 0 63 47" fill="none" xmlns="http://www.w3.org/2000/svg">
<path fill-rule="evenodd" clip-rule="evenodd" d="M38.0476 11.1905H27.9762C26.4923 11.1905 25.0689 11.7791 24.0192 12.8288C22.9696 13.8784 22.381 15.3019 22.381 16.7857V41.4048C22.381 42.8886 22.9696 44.312 24.0192 45.3617C25.0689 46.4114 26.4923 47 27.9762 47C35.297 47 49.7506 47 57.0714 47C58.5553 47 59.9787 46.4114 61.0284 45.3617C62.0781 44.312 62.6667 42.8886 62.6667 41.4048C62.6667 34.9792 62.6667 23.2113 62.6667 16.7857C62.6667 15.3019 62.0781 13.8784 61.0284 12.8288C59.9787 11.7791 58.5553 11.1905 57.0714 11.1905C52.0984 11.1905 44.7619 11.1905 44.7619 11.1905V13.4286C44.7619 13.4286 52.0984 13.4286 57.0714 13.4286C57.9622 13.4286 58.8149 13.7822 59.4461 14.4111C60.075 15.0422 60.4286 15.895 60.4286 16.7857V41.4048C60.4286 42.2955 60.075 43.1482 59.4461 43.7794C58.8149 44.4083 57.9622 44.7619 57.0714 44.7619H27.9762C27.0854 44.7619 26.2327 44.4083 25.6016 43.7794C24.9727 43.1482 24.619 42.2955 24.619 41.4048V35.8095H34.6905C36.1743 35.8095 37.5978 35.2209 38.6474 34.1712C39.6971 33.1216 40.2857 31.6981 40.2857 30.2143V5.59524C40.2857 4.11138 39.6971 2.68796 38.6474 1.63829C37.5978 0.588624 36.1743 0 34.6905 0C27.3697 0 12.916 0 5.59524 0C4.11138 0 2.68794 0.588624 1.63827 1.63829C0.588607 2.68796 0 4.11138 0 5.59524C0 12.0208 0 23.7887 0 30.2143C0 31.6981 0.588607 33.1216 1.63827 34.1712C2.68794 35.2209 4.11138 35.8095 5.59524 35.8095C9.69767 35.8095 13.8023 35.8095 17.9048 35.8095V33.5714C13.8023 33.5714 9.69767 33.5714 5.59524 33.5714C4.70448 33.5714 3.85175 33.2178 3.22061 32.5889C2.5917 31.9578 2.2381 31.105 2.2381 30.2143V5.59524C2.2381 4.70448 2.5917 3.85177 3.22061 3.22063C3.85175 2.59172 4.70448 2.2381 5.59524 2.2381H34.6905C35.5812 2.2381 36.434 2.59172 37.0651 3.22063C37.694 3.85177 38.0476 4.70448 38.0476 5.59524V11.1905ZM38.0476 26.9802L29.9927 33.5714H34.6905C35.5812 33.5714 36.434 33.2178 37.0651 32.5889C37.694 31.9578 38.0476 31.105 38.0476 30.2143V26.9802ZM24.619 31.8772V33.5714H26.4588L38.0476 24.0886V21.3268L24.619 31.8772ZM24.619 26.2819V29.0303L38.0476 18.48V15.7316L24.619 26.2819ZM24.619 20.6912V23.4351L37.356 13.4286H33.9564L24.619 20.6912ZM30.3105 13.4286H27.9762C27.0854 13.4286 26.2327 13.7822 25.6016 14.4111C24.9727 15.0422 24.619 15.895 24.619 16.7857V17.8555L30.3105 13.4286Z" fill="#E5E7E8"/>
</svg>
