<svg width="140" height="168" viewBox="0 0 140 168" fill="none" xmlns="http://www.w3.org/2000/svg">
<path d="M132.395 24.7067C123.768 22.972 117.108 16.2959 115.377 7.64856C114.486 3.2329 110.605 0 106.121 0H33.9839C29.5261 0 25.619 3.20661 24.7274 7.62228C23.023 16.1382 16.1528 22.9982 7.63063 24.7067C3.22532 25.6003 0 29.4903 0 33.9848V83.0828C0 109.603 13.2422 134.073 35.3998 148.556L60.5993 165.009C63.4837 166.875 66.7615 167.821 70.0393 167.821C73.317 167.821 76.5948 166.875 79.4268 165.009L104.574 148.582C126.758 134.099 140 109.577 140 83.0302V33.9848C140.026 29.4903 136.801 25.6003 132.395 24.7067ZM133.313 83.0565C133.313 107.316 121.199 129.71 100.929 142.983L75.7557 159.437C72.2419 161.75 67.8366 161.75 64.2442 159.437L39.0447 142.983C18.8013 129.71 6.71286 107.343 6.71286 83.0828V33.9848C6.71286 32.6707 7.63063 31.5667 8.94174 31.3039C20.2697 29.0435 29.0279 20.2647 31.3092 8.96274C31.5714 7.64856 32.6727 6.72863 33.9839 6.72863H106.121C107.432 6.72863 108.533 7.64856 108.796 8.96274C111.051 20.2647 119.809 29.0435 131.084 31.3039C132.395 31.5667 133.313 32.6707 133.313 33.9848V83.0565Z" fill="#E8530E"/>
<path d="M78.1379 61.0474L66.6789 71.7711L61.9327 67.0138C60.6215 65.6996 58.4976 65.6996 57.1865 67.0138C55.8753 68.328 55.8753 70.457 57.1865 71.7711L64.214 78.8152C64.8695 79.4723 65.7349 79.7877 66.574 79.7877C67.3869 79.7877 68.226 79.4986 68.8553 78.894L82.6744 65.9624C84.0379 64.7008 84.0903 62.5718 82.8317 61.2051C81.6255 59.8646 79.5015 59.7858 78.1379 61.0474Z" fill="#E8530E"/>
<path d="M69.9848 35.6641C50.764 35.6641 35.1094 51.3554 35.1094 70.6214C35.1094 89.9136 50.764 105.605 69.9848 105.605C89.2318 105.605 104.886 89.9136 104.886 70.6214C104.913 51.3554 89.2318 35.6641 69.9848 35.6641ZM69.9848 98.9027C54.4351 98.9027 41.796 86.2076 41.796 70.6214C41.796 55.0352 54.4351 42.3664 69.9848 42.3664C85.5345 42.3664 98.1998 55.0352 98.1998 70.6214C98.1998 86.2339 85.5607 98.9027 69.9848 98.9027Z" fill="#E8530E"/>
</svg>
