<svg width="22" height="25" viewBox="0 0 22 25" fill="none" xmlns="http://www.w3.org/2000/svg">
<path d="M4.76514 17.0522C5.4699 17.0515 6.16498 16.888 6.79614 16.5745C7.42731 16.261 7.9775 15.8058 8.40379 15.2446L12.9697 17.8856C12.7353 18.443 12.6146 19.0415 12.6146 19.6462C12.6098 20.7391 12.9937 21.7981 13.6977 22.6341C14.4017 23.47 15.38 24.0285 16.4578 24.2097C17.5356 24.3909 18.6427 24.183 19.5814 23.6232C20.52 23.0633 21.2291 22.1881 21.5819 21.1537C21.9347 20.1192 21.9083 18.9931 21.5074 17.9764C21.1064 16.9597 20.3571 16.1186 19.3932 15.6034C18.4294 15.0882 17.3137 14.9325 16.2456 15.164C15.1775 15.3955 14.2265 15.9993 13.5624 16.8673L8.99653 14.2264C9.2293 13.6686 9.34915 13.0702 9.34915 12.4657C9.34915 11.8613 9.2293 11.2629 8.99653 10.7051L13.8324 7.91157C14.6162 8.76078 15.6937 9.28001 16.8464 9.36391C17.999 9.44781 19.1403 9.09011 20.0389 8.36337C20.9374 7.63663 21.5258 6.59529 21.6848 5.45061C21.8437 4.30594 21.5612 3.14368 20.8947 2.19962C20.2281 1.25557 19.2274 0.60044 18.0955 0.367149C16.9637 0.133859 15.7855 0.339881 14.7999 0.943416C13.8144 1.54695 13.0954 2.5028 12.7887 3.61702C12.482 4.73125 12.6108 5.9204 13.1487 6.94322L8.40379 9.68394C7.93018 9.06477 7.30648 8.57663 6.59166 8.26566C5.87684 7.95469 5.09452 7.83116 4.31866 7.90677C3.5428 7.98237 2.79904 8.25461 2.15771 8.69773C1.51637 9.14086 0.998648 9.74023 0.653486 10.4392C0.308324 11.1381 0.147129 11.9136 0.185141 12.6922C0.223153 13.4708 0.459116 14.2268 0.870722 14.8888C1.28233 15.5508 1.85597 16.0969 2.53742 16.4755C3.21887 16.854 3.98561 17.0525 4.76514 17.0522ZM17.2011 16.2335C17.876 16.2335 18.5359 16.4336 19.0971 16.8086C19.6583 17.1836 20.0957 17.7166 20.354 18.3402C20.6123 18.9638 20.6799 19.65 20.5482 20.312C20.4165 20.974 20.0915 21.5821 19.6142 22.0593C19.1369 22.5366 18.5289 22.8616 17.8669 22.9933C17.2049 23.125 16.5187 23.0574 15.8951 22.7991C15.2715 22.5408 14.7385 22.1034 14.3635 21.5422C13.9885 20.981 13.7884 20.3212 13.7884 19.6462C13.7899 18.7416 14.15 17.8744 14.7897 17.2348C15.4293 16.5951 16.2965 16.235 17.2011 16.2335ZM17.2011 1.39136C17.876 1.39136 18.5359 1.59151 19.0971 1.9665C19.6583 2.34149 20.0957 2.87448 20.354 3.49807C20.6123 4.12166 20.6799 4.80784 20.5482 5.46984C20.4165 6.13183 20.0915 6.73992 19.6142 7.21719C19.1369 7.69446 18.5289 8.01949 17.8669 8.15117C17.2049 8.28285 16.5187 8.21527 15.8951 7.95697C15.2715 7.69867 14.7385 7.26126 14.3635 6.70004C13.9885 6.13883 13.7884 5.47902 13.7884 4.80405C13.7899 3.89943 14.15 3.0323 14.7897 2.39263C15.4293 1.75296 16.2965 1.39291 17.2011 1.39136ZM4.76514 9.05011C5.44069 9.05011 6.10107 9.25043 6.66277 9.62575C7.22446 10.0011 7.66225 10.5345 7.92077 11.1586C8.17929 11.7828 8.24693 12.4695 8.11514 13.1321C7.98335 13.7947 7.65804 14.4033 7.18036 14.881C6.70267 15.3586 6.09407 15.6839 5.4315 15.8157C4.76893 15.9475 4.08217 15.8799 3.45804 15.6214C2.83392 15.3628 2.30047 14.9251 1.92515 14.3634C1.54984 13.8017 1.34952 13.1413 1.34952 12.4657C1.35029 11.5601 1.7104 10.6918 2.35079 10.0514C2.99118 9.411 3.8595 9.05089 4.76514 9.05011Z" fill="#E5E7E8"/>
</svg>
