<svg width="80" height="23" viewBox="0 0 80 23" fill="none" xmlns="http://www.w3.org/2000/svg">
<path d="M7.7557 0C4.67296 0 2.1736 2.49923 2.1736 5.5821V7.66922C1.09177 7.86272 0 8.13 0 8.47159V19.4071C0 19.4071 1.87153e-07 19.7138 0.334008 19.8466C1.56734 20.3373 6.40946 22.0535 7.52073 22.4465C7.66713 22.4983 7.698 22.4969 7.74876 22.4969C7.80214 22.4969 7.82975 22.4987 7.97497 22.4473C9.08414 22.0552 13.943 20.3347 15.1686 19.8494C15.4869 19.7234 15.4961 19.4115 15.4961 19.4115V8.47212C15.4961 8.13065 14.4195 7.86271 13.3375 7.66909V5.58197C13.3377 2.49923 10.8384 0 7.7557 0ZM7.7557 2.66774C9.56899 2.66774 10.6721 3.7688 10.6721 5.5821V7.40036C8.6248 7.25122 6.88503 7.25122 4.83742 7.40036V5.5821C4.83742 3.76867 5.94214 2.66774 7.7557 2.66774ZM7.7485 10.0847C10.2852 10.0888 12.4175 10.2777 12.4175 10.6388C12.4175 10.6388 12.4175 17.3531 12.4175 17.4524C12.4175 17.5518 12.4018 17.5686 12.3075 17.6043C12.2133 17.6401 7.97065 19.1733 7.97065 19.1733C7.97065 19.1733 7.79651 19.2311 7.74863 19.2311C7.69434 19.2311 7.52007 19.171 7.52007 19.171C7.52007 19.171 3.27924 17.6392 3.18399 17.6032C3.08862 17.5674 3.07632 17.5488 3.07632 17.4486C3.07632 17.3382 3.07632 10.6385 3.07632 10.6385C3.07632 10.2676 5.21198 10.0807 7.7485 10.0847Z" fill="#313D46"/>
<path d="M22.69 17.5553V10.0899H19.9688V7.41406H28.468V10.0899H25.7614V17.5553H22.69Z" fill="#313D46"/>
<path d="M35.3609 17.5553L33.9623 14.3626H32.8524V17.5553H29.7812V7.41406H35.1937C37.5654 7.41406 38.8429 8.9952 38.8429 10.8957C38.8429 12.6446 37.8241 13.5717 37.0185 13.9671L38.8583 17.5552H35.361L35.3609 17.5553ZM35.7258 10.8803C35.7258 10.3333 35.2393 10.0897 34.7222 10.0897H32.852V11.6861H34.7222C35.2393 11.6859 35.7258 11.4432 35.7258 10.8803Z" fill="#313D46"/>
<path d="M40.4453 17.5553V7.41406H48.1387V10.0899H43.5166V11.0935H48.0324V13.7697H43.5166V14.8792H48.1387V17.5553H40.4453Z" fill="#313D46"/>
<path d="M49.7344 17.5552V15.1227L53.596 10.0899H49.7344V7.41406H57.6556V9.83147L53.7784 14.8793H57.7618V17.5552H49.7344Z" fill="#313D46"/>
<path d="M58.5156 12.4957C58.5156 9.37856 60.9328 7.25 64.065 7.25C67.1968 7.25 69.6147 9.37856 69.6147 12.4957C69.6147 15.6123 67.1968 17.7409 64.065 17.7409C60.9328 17.7409 58.5156 15.6123 58.5156 12.4957ZM66.4978 12.4957C66.4978 11.0814 65.54 9.95637 64.065 9.95637C62.5903 9.95637 61.6321 11.0815 61.6321 12.4957C61.6321 13.9095 62.5901 15.0344 64.065 15.0344C65.5398 15.0344 66.4978 13.9093 66.4978 12.4957Z" fill="#313D46"/>
<path d="M76.5017 17.5552L75.1035 14.3624H73.9932V17.5552H70.9219V7.41406H76.3347C78.7069 7.41406 79.984 8.9952 79.984 10.8956C79.984 12.6445 78.9651 13.5716 78.1592 13.9672L79.9989 17.5553H76.5017V17.5552ZM76.8668 10.8803C76.8668 10.3331 76.3804 10.0897 75.8632 10.0897H73.993V11.6861H75.8632C76.38 11.6862 76.8668 11.4432 76.8668 10.8803Z" fill="#313D46"/>
</svg>
