<svg width="140" height="166" viewBox="0 0 140 166" fill="none" xmlns="http://www.w3.org/2000/svg">
<path d="M69.1765 68.9587C69.4515 69.0412 69.7266 69.0962 70.0017 69.0962C70.2768 69.0962 70.5519 69.0412 70.827 68.9587C84.8567 64.5297 94.595 56.9372 99.7942 46.3461C108.185 29.2904 101.61 10.8868 101.307 10.1165C100.867 8.93361 99.7117 8.21837 98.4737 8.32841C85.8745 9.4838 71.5973 0.543307 71.4597 0.43327C70.5519 -0.144423 69.3965 -0.144423 68.5162 0.43327C68.3787 0.515797 54.1289 9.51131 41.5022 8.32841C40.2643 8.21837 39.1089 8.96112 38.6688 10.1165C38.3937 10.8868 31.819 29.2904 40.1818 46.3461C45.4085 56.9097 55.1468 64.5297 69.1765 68.9587ZM43.2628 13.9128C54.6791 14.1053 65.9854 8.24588 70.0017 5.96262C73.9906 8.24588 85.3519 14.0778 96.7407 13.9128C98.0611 18.7544 100.757 31.9863 94.8425 43.9528C90.4136 52.8933 82.0783 59.4405 70.0017 63.4293C57.9252 59.4405 49.5899 52.8933 45.1609 43.9528C39.274 31.9863 41.9424 18.7544 43.2628 13.9128Z" fill="#E8530E"/>
<path d="M65.0464 43.9806C65.5966 44.5033 66.2843 44.7784 66.9996 44.7784C67.7148 44.7784 68.4025 44.5033 68.9527 43.9806L84.0002 28.9881C85.0731 27.9153 85.0731 26.1822 84.0002 25.1093C82.9274 24.0365 81.1943 24.0365 80.1214 25.1093L66.9996 38.1762L59.9022 31.1063C58.8293 30.0335 57.0963 30.0335 56.0234 31.1063C54.9505 32.1792 54.9505 33.9123 56.0234 34.9851L65.0464 43.9806Z" fill="#E8530E"/>
<path d="M138.799 106.752L113.051 72.2001C111.07 69.5317 107.246 68.954 104.55 70.9071L97.4254 76.0239C96.105 76.9867 95.2247 78.3896 94.9771 80.0127C94.8396 80.948 94.9221 81.8558 95.1972 82.7361C92.4738 83.5339 88.0998 84.4692 83.0381 84.1941C78.5541 83.9465 74.1526 84.3041 69.9988 85.2669C65.8174 84.3041 61.4159 83.919 56.9594 84.1941C51.9252 84.4692 47.5513 83.5339 44.8003 82.7361C45.0754 81.8558 45.1855 80.948 45.0204 80.0127C44.7728 78.4172 43.8925 76.9867 42.5721 76.0239L35.4472 70.9071C32.7513 68.954 28.9275 69.5317 26.9193 72.2001L1.19825 106.752C0.23543 108.045 -0.177207 109.668 0.0703756 111.263C0.317958 112.886 1.19825 114.289 2.51869 115.252L9.64358 120.369C10.7164 121.139 11.9819 121.524 13.2198 121.524C15.0904 121.524 16.961 120.671 18.1439 119.076L18.419 118.691C20.5922 122.679 23.5357 126.888 27.222 131.317C26.3692 132.445 25.874 133.628 25.764 134.839C25.5164 138.195 26.8368 141.606 29.3402 143.944C31.3208 145.787 33.8517 146.805 36.465 146.805C36.6851 146.805 36.9327 146.778 37.1528 146.75C37.6479 149.033 38.7758 151.206 40.5364 152.83C42.5721 154.755 45.1855 155.773 47.8814 155.773C47.9089 155.773 47.9364 155.773 47.9914 155.773C48.5416 157.864 49.6419 159.817 51.265 161.302C53.2457 163.118 55.694 164.081 58.2798 164.081C58.7475 164.081 59.2151 164.053 59.7103 163.971C61.5259 163.723 63.5066 162.733 65.5423 161.165C72.4196 163.751 77.8939 165.044 82.1578 165.044C84.6061 165.044 86.6693 164.631 88.3749 163.778C91.8686 162.073 93.244 158.992 94.0418 156.406C95.0871 156.516 96.0775 156.598 97.0128 156.598C99.4061 156.598 101.442 156.186 103.12 155.388C106.834 153.627 108.237 150.299 109.007 147.63C109.309 146.557 109.392 145.457 109.309 144.357C109.474 144.357 109.64 144.384 109.805 144.384C112.198 144.384 114.234 143.972 115.912 143.174C119.625 141.386 121.001 138.085 121.799 135.416C123.257 130.41 119.955 126.036 117.947 123.972C118.415 122.514 119.433 120.149 121.248 118.25L121.854 119.076C123.036 120.671 124.907 121.524 126.778 121.524C128.016 121.524 129.281 121.139 130.354 120.369L137.479 115.252C138.799 114.289 139.68 112.886 139.927 111.263C140.175 109.668 139.79 108.045 138.799 106.752ZM12.8346 115.912L5.70976 110.795C5.54471 110.685 5.48969 110.548 5.48969 110.438C5.46218 110.355 5.48969 110.19 5.59972 110.053L31.3483 75.5012C31.4584 75.3361 31.6509 75.2536 31.8435 75.2536C31.981 75.2536 32.1186 75.2811 32.2286 75.3636L39.3535 80.4803C39.5186 80.5904 39.5736 80.7279 39.5736 80.838C39.6011 80.9205 39.5736 81.0856 39.4635 81.2231L13.7149 115.747C13.5224 116.05 13.1097 116.105 12.8346 115.912ZM33.1089 139.928C31.816 138.717 31.1007 136.929 31.2383 135.251C31.2658 134.784 32.5862 132.94 37.8955 130.602C39.6836 129.804 41.8018 130.327 43.0672 131.84C43.92 132.913 44.1676 134.316 43.81 135.609C40.6739 137.342 38.6108 139.157 37.5929 141.083C37.4279 141.138 37.2628 141.221 37.1253 141.248C35.1446 141.523 33.7691 140.533 33.1089 139.928ZM42.352 143.889C42.3795 143.366 43.7275 141.468 49.3118 138.992C49.917 138.717 50.5498 138.607 51.1825 138.607C52.5579 138.607 53.9059 139.212 54.8137 140.34C56.2442 142.101 56.1066 144.659 54.5111 146.282C52.1178 148.703 50.4397 149.666 49.3944 150.051C49.3669 150.051 49.3393 150.051 49.3118 150.079C49.0092 150.189 48.7617 150.244 48.5691 150.271C46.4784 150.574 44.9929 149.501 44.3052 148.868C42.9847 147.548 42.2145 145.677 42.352 143.889ZM58.9401 158.524C57.5096 158.717 56.1066 158.249 54.9787 157.231C54.0984 156.433 53.4932 155.36 53.2181 154.233C54.8687 153.297 56.6018 151.949 58.4174 150.134C59.1326 149.418 59.6828 148.593 60.123 147.768C61.801 147.218 63.6991 147.74 64.882 149.143C66.23 150.794 66.12 153.187 64.5794 154.728C62.3787 156.956 60.3155 158.331 58.9401 158.524ZM116.517 133.876C115.802 136.324 114.976 137.534 113.546 138.222C111.015 139.433 105.018 139.625 90.7682 133.656C89.3652 133.078 87.7422 133.738 87.1645 135.141C86.5868 136.544 87.247 138.167 88.65 138.745C94.5094 141.193 99.4611 142.816 103.615 143.669C103.918 144.549 103.973 145.347 103.753 146.09C103.01 148.538 102.185 149.776 100.754 150.436C98.2232 151.647 92.1987 151.839 77.9489 145.87C76.5459 145.292 74.9229 145.952 74.3452 147.355C73.7675 148.758 74.4277 150.354 75.8307 150.959C80.6723 152.995 84.8812 154.425 88.5675 155.36C87.9072 157.203 87.137 158.221 85.9541 158.827C83.9184 159.817 79.4619 160.174 69.8337 156.846C72.0069 153.407 71.8144 148.896 69.146 145.622C67.1653 143.229 64.2218 141.963 61.2508 142.018C61.0583 140.175 60.343 138.387 59.1051 136.847C56.7393 133.931 52.9981 132.638 49.4494 133.271C49.2293 131.51 48.5141 129.777 47.3587 128.346C44.5252 124.908 39.7386 123.78 35.7223 125.568C34.0993 126.283 32.6963 126.998 31.4584 127.741C27.332 122.762 24.1409 118.003 22.1328 113.766L41.6918 87.5502C44.6353 88.5681 50.3847 90.1086 57.2895 89.6959C57.7847 89.6684 58.2798 89.6684 58.7475 89.6684C58.7475 89.6684 58.7475 89.6684 58.72 89.6684C53.6858 92.5569 48.5141 94.5651 43.6449 96.3256C42.0494 96.9033 40.7565 98.1413 40.0963 99.6818C39.4635 101.195 39.4911 102.928 40.1788 104.413C43.4799 111.566 50.0271 113.904 57.7297 110.685C74.3727 103.698 83.0106 110.63 92.1437 117.948C98.1682 122.762 104.358 127.741 112.583 127.741C112.996 127.741 113.436 127.686 113.876 127.659C115.031 128.842 117.232 131.455 116.517 133.876ZM112.721 122.239C112.666 122.239 112.61 122.239 112.583 122.239C106.256 122.239 101.249 118.223 95.5548 113.656C86.5043 106.394 75.2255 97.371 55.5839 105.624C50.5498 107.742 47.2486 106.614 45.1855 102.13C45.1579 102.103 45.1304 101.993 45.1855 101.827C45.213 101.745 45.323 101.58 45.5431 101.497C50.6323 99.6543 56.0791 97.5361 61.4709 94.4275C67.6605 90.8788 75.0329 89.2558 82.763 89.6684C89.6678 90.0535 95.4173 88.513 98.3607 87.5227L117.947 113.794C115.004 116.517 113.436 120.011 112.721 122.239ZM134.288 110.768L127.163 115.885C126.888 116.077 126.475 116.022 126.283 115.775L100.534 81.2231C100.424 81.0856 100.424 80.9205 100.424 80.838C100.451 80.7279 100.479 80.5904 100.644 80.4803L107.769 75.3636C107.879 75.2811 108.016 75.2536 108.154 75.2536C108.347 75.2536 108.539 75.3361 108.649 75.5012L134.398 110.053C134.508 110.19 134.508 110.328 134.508 110.438C134.48 110.52 134.425 110.658 134.288 110.768Z" fill="#E8530E"/>
</svg>
