<svg width="93" height="30" viewBox="0 0 93 30" fill="none" xmlns="http://www.w3.org/2000/svg">
<path d="M92.8722 29.5203C90.5594 29.5203 88.2294 29.5203 85.8823 29.5203C85.6253 28.2868 85.3512 27.0875 85.1285 25.8711C85.0428 25.3743 84.8715 25.1687 84.3233 25.1859C81.5136 25.2201 78.7211 25.2201 75.9114 25.1859C75.4831 25.1859 75.3118 25.3229 75.1919 25.717C74.7978 26.8648 74.3866 28.0127 73.9583 29.1605C73.9069 29.3147 73.7014 29.5203 73.5643 29.5203C71.0459 29.5374 68.5103 29.5374 65.9062 29.5374C66.3859 28.3896 66.8314 27.3102 67.2768 26.2138C70.5319 18.4358 73.787 10.675 77.0593 2.89699C77.7617 1.21804 78.8239 0.515625 80.6399 0.515625C82.6615 0.515625 84.7002 0.515625 86.7732 0.515625C86.9787 1.45789 87.1843 2.40016 87.3728 3.32529C88.9832 11.0005 90.5765 18.6928 92.1869 26.368C92.3925 27.3445 92.6323 28.321 92.8551 29.3147C92.8722 29.3832 92.8722 29.4517 92.8722 29.5203ZM83.7236 19.2068C82.987 15.6433 82.2503 12.1141 81.5136 8.58485C81.4793 8.58485 81.4451 8.56771 81.4279 8.56771C80.143 12.0969 78.8753 15.6261 77.5732 19.2068C79.6462 19.2068 81.6507 19.2068 83.7236 19.2068Z" fill="#E5E7E8"/>
<path d="M62.4294 0C63.3545 0.171321 64.2797 0.308378 65.1877 0.531095C66.0271 0.719549 66.8323 0.993662 67.7232 1.25064C67.2778 3.34076 66.8495 5.37948 66.4212 7.36681C65.2562 7.02416 64.1426 6.63013 62.9947 6.37314C61.4186 6.0305 59.8082 5.89345 58.2492 6.33888C57.6153 6.5102 56.9642 6.85284 56.4674 7.28115C55.6108 8.01783 55.5937 9.08002 56.416 9.85096C56.9814 10.3821 57.6495 10.8275 58.3348 11.2215C59.8596 12.1467 61.47 12.9347 62.9605 13.9284C64.708 15.0934 65.9929 16.6695 66.2498 18.8282C66.7295 22.6315 65.3247 25.6296 62.121 27.754C60.1166 29.0903 57.838 29.6899 55.4737 29.8955C52.1673 30.2039 48.9293 29.827 45.7598 28.7991C45.5543 28.7305 45.3487 28.6449 45.1431 28.5592C45.0746 28.5421 45.0232 28.4907 44.9375 28.4222C45.3829 26.332 45.8284 24.2419 46.2909 22.0833C46.822 22.3231 47.336 22.5459 47.85 22.7686C50.317 23.7622 52.8697 24.2248 55.508 23.728C56.1933 23.5909 56.8957 23.2997 57.4782 22.9056C58.746 22.0662 58.8659 20.4729 57.7181 19.4621C56.9642 18.8111 56.0562 18.3314 55.1825 17.8003C53.8291 16.9779 52.4071 16.2755 51.1222 15.3675C49.4946 14.1854 48.3125 12.6264 48.0727 10.5362C47.73 7.4182 48.895 4.88265 51.2935 2.91246C53.3836 1.19925 55.8507 0.428302 58.489 0.119925C58.6432 0.102792 58.7802 0.0513964 58.9173 0.0171322C60.0823 6.50985e-08 61.2473 0 62.4294 0Z" fill="#E5E7E8"/>
<path d="M35.2407 0.528038C34.8467 1.4703 34.4698 2.37831 34.0929 3.26917C30.4952 11.8524 26.8974 20.4355 23.3168 29.0187C23.1455 29.4299 22.9399 29.5327 22.5287 29.5327C20.2502 29.5156 17.9887 29.4984 15.7101 29.5327C15.2304 29.5327 15.0763 29.3785 14.9563 28.9331C13.0375 21.4292 11.0673 13.9425 9.16568 6.43862C8.82304 5.06805 8.12062 4.12578 6.80145 3.54329C4.6942 2.61815 2.51842 1.96713 0.291246 1.43604C0.188453 1.41891 0.102793 1.38464 0 1.36751C0.0171321 0.493773 0.0171323 0.493773 0.839474 0.493773C4.81412 0.493773 8.78877 0.493773 12.7634 0.493773C14.648 0.493773 16.0014 1.59023 16.3612 3.45763C17.372 8.73432 18.3485 14.0281 19.3593 19.3048C19.4107 19.5275 19.4449 19.7674 19.5135 20.0929C19.6163 19.9044 19.6848 19.7845 19.7362 19.6646C22.2032 13.4285 24.6702 7.1753 27.1201 0.939208C27.2572 0.596566 27.4114 0.476641 27.7883 0.493773C30.1011 0.510905 32.3968 0.510905 34.7097 0.510905C34.881 0.510905 35.0352 0.528038 35.2407 0.528038Z" fill="#E5E7E8"/>
<path d="M32.2422 29.5344C34.3152 19.8376 36.371 10.2094 38.444 0.546875C40.9624 0.546875 43.4466 0.546875 45.965 0.546875C45.6566 2.02024 45.3482 3.45933 45.0399 4.89843C43.3267 12.882 41.6306 20.8484 39.9345 28.832C39.8146 29.3802 39.6261 29.5687 39.0436 29.5515C36.9878 29.5173 34.9148 29.5344 32.8589 29.5344C32.6705 29.5344 32.482 29.5344 32.2422 29.5344Z" fill="#E5E7E8"/>
</svg>
