<svg width="140" height="36" viewBox="0 0 140 36" fill="none" xmlns="http://www.w3.org/2000/svg">
<path d="M54.3535 26.1811L50.3047 9.55469H52.4848L54.3774 17.9637C54.8566 20.048 55.2639 22.1083 55.5513 23.7135H55.5993C55.8628 22.0604 56.3659 20.0959 56.8929 17.9397L59.0252 9.55469H61.1813L63.1219 17.9877C63.577 19.9522 64.0083 21.9406 64.2239 23.6895H64.2718C64.6072 21.8687 65.0624 20.0001 65.5415 17.9397L67.6498 9.55469H69.758L65.2541 26.1811H63.0979L61.0855 17.5085C60.5824 15.3763 60.247 13.7472 60.0553 12.0702H60.0074C59.7199 13.7233 59.3606 15.3524 58.7856 17.5085L56.5096 26.1811H54.3535Z" fill="#E5E7E8"/>
<path d="M73.6181 10.8812C73.6421 11.6239 73.115 12.2228 72.3005 12.2228C71.5578 12.2228 71.0547 11.6239 71.0547 10.8812C71.0547 10.1146 71.6057 9.51562 72.3484 9.51562C73.139 9.51563 73.6181 10.1146 73.6181 10.8812ZM71.3182 26.1899V14.2352H73.4025V26.1899H71.3182Z" fill="#E5E7E8"/>
<path d="M76.8536 17.4665C76.8536 16.2207 76.8297 15.2145 76.7578 14.2323H78.6025L78.7223 16.2207H78.7702C79.3452 15.0947 80.6629 13.9688 82.5555 13.9688C84.1367 13.9688 86.6043 14.951 86.6043 19.0477V26.187H84.52V19.2873C84.52 17.3707 83.8252 15.7655 81.8847 15.7655C80.5191 15.7655 79.441 16.7718 79.1056 17.9936C79.0098 18.2571 78.9619 18.6404 78.9619 18.9998V26.187H76.8776V17.4665H76.8536Z" fill="#E5E7E8"/>
<path d="M99.8263 8.64844V23.0947C99.8263 24.1488 99.8502 25.3706 99.9221 26.1852H98.0534L97.9576 24.1009H97.9097C97.2629 25.4425 95.8733 26.4487 94.0047 26.4487C91.2496 26.4487 89.1174 24.0051 89.1174 20.3875C89.0934 16.4106 91.4652 13.967 94.2442 13.967C95.9931 13.967 97.167 14.8294 97.6941 15.7877H97.742V8.64844H99.8263ZM97.766 19.0938C97.766 18.8303 97.742 18.447 97.6701 18.1834C97.3587 16.7939 96.2327 15.6679 94.6755 15.6679C92.5193 15.6679 91.2496 17.6324 91.2496 20.2917C91.2496 22.7114 92.3756 24.6998 94.6275 24.6998C96.0171 24.6998 97.2868 23.7415 97.6701 22.1124C97.742 21.825 97.766 21.5135 97.766 21.1781V19.0938Z" fill="#E5E7E8"/>
<path d="M113.649 20.1023C113.649 24.5105 110.726 26.451 107.947 26.451C104.857 26.451 102.461 24.0793 102.461 20.294C102.461 16.2931 104.976 13.9453 108.139 13.9453C111.421 13.9693 113.649 16.4608 113.649 20.1023ZM104.569 20.2221C104.569 22.8335 106.007 24.8219 108.043 24.8219C110.031 24.8219 111.517 22.8814 111.517 20.1742C111.517 18.1618 110.559 15.5744 108.091 15.5744C105.623 15.5984 104.569 17.9701 104.569 20.2221Z" fill="#E5E7E8"/>
<path d="M116.937 14.2344L118.446 20.2956C118.782 21.6372 119.093 22.859 119.309 24.1048H119.381C119.644 22.9069 120.027 21.6132 120.387 20.3195L122.255 14.2344H124.004L125.777 20.1997C126.208 21.6372 126.544 22.883 126.783 24.1048H126.855C127.047 22.9069 127.358 21.6372 127.742 20.2237L129.371 14.2344H131.431L127.742 26.1891H125.849L124.1 20.4872C123.693 19.1456 123.357 17.9717 123.094 16.5582H123.046C122.759 17.9957 122.399 19.2175 122.016 20.5112L120.171 26.1891H118.255L114.805 14.2344H116.937Z" fill="#E5E7E8"/>
<path d="M133.051 23.959C133.674 24.3902 134.752 24.8214 135.782 24.8214C137.291 24.8214 138.01 24.0308 138.01 23.0486C138.01 22.0184 137.411 21.4434 135.878 20.8445C133.818 20.0779 132.859 18.904 132.859 17.4665C132.859 15.5499 134.345 13.9688 136.812 13.9688C137.962 13.9688 138.992 14.3042 139.615 14.7114L139.088 16.2926C138.633 16.0051 137.819 15.5978 136.74 15.5978C135.519 15.5978 134.824 16.3405 134.824 17.2269C134.824 18.2092 135.519 18.6644 137.004 19.2394C138.992 20.03 139.999 21.0601 139.999 22.833C139.999 24.9412 138.441 26.4026 135.71 26.4026C134.465 26.4026 133.291 26.0912 132.5 25.588L133.051 23.959Z" fill="#E5E7E8"/>
<path d="M14.9213 17.3147V2.92188L0 5.03573V17.3147H14.9213Z" fill="#E5E7E8"/>
<path d="M16.2188 17.3149H35.803V0L16.2188 2.73557V17.3149Z" fill="#E5E7E8"/>
<path d="M14.9213 18.6562H0V30.9352L14.9213 33.018V18.6562Z" fill="#E5E7E8"/>
<path d="M16.2188 18.6562V33.2045L35.803 35.9712V18.6562H16.2188Z" fill="#E5E7E8"/>
</svg>
