<svg width="20" height="20" viewBox="0 0 20 20" fill="none" xmlns="http://www.w3.org/2000/svg">
<path d="M3.66886 2.5C3.1297 2.5 2.81366 3.1073 3.12199 3.5498L8.11222 10.682L3.10246 16.5381C2.77829 16.9164 3.04683 17.5 3.54517 17.5H4.09855C4.34272 17.5 4.57498 17.3929 4.73332 17.207L9.09855 12.0931L12.3847 16.7887C12.6972 17.2337 13.2069 17.5 13.7502 17.5H16.5286C17.0677 17.5 17.3838 16.8935 17.0754 16.4518L11.8101 8.91602L16.5823 3.3252C16.8589 3.0002 16.6281 2.5 16.2014 2.5H15.4967C15.2533 2.5 15.0219 2.60634 14.8635 2.79134L10.8287 7.50814L7.82739 3.21289C7.51573 2.76622 7.00683 2.5 6.46183 2.5H3.66886Z" fill="#E5E7E8"/>
</svg>
