<svg width="24" height="24" viewBox="0 0 24 24" fill="none" xmlns="http://www.w3.org/2000/svg">
<path fill-rule="evenodd" clip-rule="evenodd" d="M6.98608 4.89104C10.3217 4.63007 13.6727 4.63007 17.0084 4.89104L19.2491 5.06634C20.4971 5.16398 21.5182 6.09938 21.7245 7.33415C22.2407 10.4236 22.2407 13.5774 21.7245 16.6669C21.5182 17.9017 20.4971 18.8371 19.2491 18.9347L17.0084 19.11C13.6727 19.371 10.3217 19.371 6.98607 19.11L4.74537 18.9347C3.4973 18.8371 2.47628 17.9017 2.26997 16.6669C1.75376 13.5774 1.75376 10.4236 2.26997 7.33415C2.47628 6.09938 3.4973 5.16398 4.74537 5.06634L6.98608 4.89104ZM9.99719 14.4707V9.53038C9.99719 9.29719 10.2516 9.15315 10.4515 9.27313L14.5684 11.7433C14.7626 11.8598 14.7626 12.1412 14.5684 12.2578L10.4515 14.7279C10.2516 14.8479 9.99719 14.7038 9.99719 14.4707Z" fill="#E5E7E8"/>
</svg>
